<svg version="1.1" xmlns="http://www.w3.org/2000/svg" viewBox="0 0 1470.0081662833218 727.1528931178455" width="1470.0081662833218" height="727.1528931178455">
  <!-- svg-source:excalidraw -->
  
  <defs>
    <style>
      @font-face {
        font-family: "Virgil";
        src: url("https://excalidraw.com/Virgil.woff2");
      }
      @font-face {
        font-family: "Cascadia";
        src: url("https://excalidraw.com/Cascadia.woff2");
      }
    </style>
  </defs>
  <rect x="0" y="0" width="1470.0081662833218" height="727.1528931178455" fill="#ffffff"></rect><g stroke-linecap="round"><g transform="translate(1326.059489488105 392.318308715057) rotate(0 65.16071738347091 71.92049130495062)" fill-rule="evenodd"><path d="M2.94 -2.74 C2.94 -2.74, 2.94 -2.74, 2.94 -2.74 M2.94 -2.74 C2.94 -2.74, 2.94 -2.74, 2.94 -2.74 M3.73 4.16 C5.04 0.62, 6.32 -1.53, 9.5 -5.51 M2.83 3.57 C5.31 1.46, 7.2 -1.01, 10.1 -5.14 M1.99 9.09 C8.08 4.51, 11.58 2.52, 18.51 -6 M1.56 10.4 C4.94 6.35, 8.09 3.43, 16.35 -6.21 M1.84 16.65 C10.15 7.26, 20.14 -2.74, 22.4 -7.3 M2.48 15.1 C12.01 6.41, 19.45 -3.74, 24.72 -8.84 M3.49 23.49 C12.55 11, 21.11 1.25, 28.64 -10.21 M1.95 22.33 C7.83 14.22, 13.98 7.38, 29.78 -9.57 M0.52 30.2 C10.58 18.91, 17.15 10.08, 35.1 -6.41 M1.61 28.82 C8.39 20.17, 15.36 12.96, 34.01 -6.93 M2.84 35.62 C13.33 22.38, 22.29 9.16, 40.81 -7.14 M2.33 33.76 C12.56 22.31, 23.15 9.44, 38.6 -7.43 M3.03 38.91 C15.54 25.16, 32.95 8.73, 45.08 -8.28 M2.17 41.12 C16.55 23.86, 30.02 9.24, 44.16 -8.4 M0.46 46.69 C17.18 30.16, 31.92 13.67, 52.31 -8.45 M2.17 47.29 C20.15 25.63, 38.34 5.27, 51.18 -9.58 M3.62 51.16 C25.5 26.01, 46.08 3.27, 58.23 -11.04 M2.24 53.49 C21.07 31.29, 39.02 12.02, 55.9 -8.83 M0.37 60.02 C23.21 33.81, 49.54 4.71, 64.16 -10.64 M3.1 58.1 C20.09 39.49, 37.2 18.1, 64.19 -12.19 M2.8 62.98 C24.85 40.06, 49.62 15.29, 68.69 -11.52 M2.73 65.53 C27.87 35.85, 50.86 7.88, 68.83 -12.01 M2.23 69.55 C23.75 45.84, 44.82 22.56, 73.75 -11.76 M2.98 70.4 C27.72 43.21, 52.41 16.21, 73.23 -10.6 M2.06 75.5 C28.53 48.99, 55.87 14.96, 78.98 -12.11 M2.08 78.35 C18.41 57.21, 36.59 37.84, 79.43 -10.86 M4.01 84.87 C28.27 55.89, 49.41 31.48, 84.63 -11.32 M2.5 82.48 C27.3 53.31, 52.77 25.94, 84.62 -11.12 M2.47 87.99 C36.16 50.56, 70.73 8.58, 87.81 -10.37 M2.9 89.67 C34.83 54.49, 66.31 16.11, 88.98 -11.05 M0.63 96.69 C18.8 73.2, 36.49 54.38, 94.05 -7.95 M1.89 96.21 C25.86 68.17, 49.78 41.14, 92.93 -8.75 M0.79 102.33 C30.4 68.69, 56.38 38.28, 100.22 -7.74 M1.99 102.22 C37.03 62.64, 73.65 21.55, 97.63 -9.66 M2.61 109.81 C30.1 75.04, 60.06 40.71, 102.82 -10.13 M1.52 107.99 C38.32 68.44, 73.67 25.48, 102.89 -7.92 M4.01 112.03 C29.79 84.75, 55.93 52.99, 108.85 -7.5 M3.03 112.84 C27.48 83.48, 55.05 54.47, 107.7 -7.22 M4.12 119.69 C29.5 92.24, 52.34 60.04, 110.77 -6.96 M2 119.3 C24.52 91.95, 47.72 65.41, 112.78 -7.24 M0.14 127.74 C38.2 88.17, 72.49 45.01, 116.7 -4.83 M1.22 125.92 C39.6 81.98, 78.87 36.41, 116.42 -5.69 M1.62 133.42 C41.53 89.47, 80.74 44.41, 120.69 -4.68 M2.77 131.69 C42.36 86.95, 81 40.41, 120.39 -4.01 M0.74 138.22 C43.12 94.14, 79.79 48.55, 123 -1.53 M1.89 138.39 C31.65 105.84, 61.3 70.23, 125.82 -3.2 M-0.14 143.94 C40.05 103.61, 74.52 59.09, 128.29 -0.4 M2.15 145 C41.67 98.82, 83.35 51.04, 129.04 0.02 M1.72 150.11 C53.82 92.43, 101.3 36.92, 131.95 1.73 M3.28 149.51 C31.52 115.88, 62.37 80.27, 131.48 1.64 M7.1 149.29 C37.16 112.96, 69.5 75.85, 133.64 6.67 M6.49 150.61 C37.71 113.32, 70.55 78.47, 132.93 7.45 M11.14 150.86 C53.48 102.4, 95.23 52.19, 130.82 12.2 M10.36 151.81 C45.02 112.82, 80.84 73.8, 132.59 12.63 M15.41 155.68 C61.72 99.36, 106.07 48.97, 131.72 20.16 M14.55 154.52 C46.49 115.02, 78.67 78.53, 131.75 18.17 M20.94 156.17 C60.15 106.56, 104.27 56.32, 134.29 25.65 M18.51 156.47 C44.75 125.33, 71.69 95.93, 132.31 24.49 M21.77 157.98 C49.7 125.27, 78.68 96.81, 131.07 31.56 M22.56 155.78 C47.07 127.92, 71.08 102.16, 131.31 32.34 M29.2 156.3 C68.03 113.49, 107.43 69.41, 131.44 38.53 M27.84 157.67 C69.37 110.87, 111.65 61.12, 132.78 37.09 M32.08 159.61 C54.3 131.53, 74.13 106.63, 131.91 43.01 M32.2 158.5 C53.84 133.04, 74.59 108.45, 131.66 43.21 M36.99 156.89 C63.08 129.06, 92.39 95.16, 132.31 48.43 M38 159.44 C57.88 134.74, 77.13 113.1, 131.65 49.83 M43.89 158.66 C71.34 123.83, 101.3 90.42, 134.08 55.27 M43.39 159.84 C66.11 133.23, 87.87 107.57, 133.06 55.12 M49.65 156.95 C73.99 131.39, 97.92 102.09, 130.54 63.03 M47.48 157.59 C75 126.55, 103.69 94.77, 132.75 62.69 M53.02 160.83 C83.87 122.87, 117 84.82, 131.74 68.73 M52.89 159.02 C84.96 122.93, 115.8 87.92, 132.6 68.44 M58.85 159.62 C88.2 125.54, 117.59 92.66, 131.45 72.66 M57.65 158.51 C84.26 130.15, 109.41 102.13, 132.12 74.71 M63.63 157.7 C83.29 138.67, 102.93 113.87, 132 80.91 M62.34 159.6 C79.93 141.53, 94.75 123.65, 132.92 81.13 M70.47 159.17 C94.35 131.83, 117.7 102.88, 130.6 87.29 M70.67 158.14 C88.67 136.88, 106.9 114.56, 132.63 87 M74.07 155.95 C90.71 141.91, 100.82 127.5, 133.56 91.43 M76.13 156.66 C97.66 131.92, 118.95 107.56, 132.8 91.68 M82.8 156.23 C96.26 141.06, 109.34 122.4, 132.54 97.98 M81.66 157.24 C97.55 138.43, 112.66 119.65, 132.7 98.22 M85.11 154.94 C102.22 139.24, 116.35 121.39, 130.78 102.58 M87.66 156.39 C103.41 135.73, 120.66 117.52, 133.25 103.68 M91.01 156.07 C105 142.92, 117.74 127.85, 133.42 109.93 M93.18 155.65 C103.41 145.45, 111.32 133.87, 132.9 111.59 M96.39 156.36 C107.56 144.11, 118.94 130.74, 132.31 116.23 M97.75 155.75 C105.57 147.4, 114.11 137.88, 132.12 116.75 M103.23 157.09 C109.48 147.68, 118.17 140.41, 133.03 122.97 M103.32 154.73 C112.9 145.64, 123.23 133.92, 132.01 123.41 M107.2 156.54 C114.84 149.37, 119.51 139.44, 131.75 127.41 M109.43 154.8 C114.65 150.14, 118.21 144.21, 132.79 130.1 M117.88 153.28 C121.41 145.65, 129.7 139.92, 133.47 136.56 M115.03 153.94 C123.2 145.91, 129.23 139.11, 131.68 134.03 M121.74 152.61 C124.22 148.69, 130.65 146.31, 130.67 141.26 M121.29 152.77 C124.63 149.26, 128.29 147.22, 132.67 141.44" stroke="#40c057" stroke-width="0.5" fill="none"></path><path d="M-0.24 0.7 C-0.39 22.44, -0.07 106.9, -0.13 130.89 C-0.19 154.87, -1.8 141.47, -0.61 144.62 C0.58 147.77, 1.7 147.83, 7.04 149.77 C12.37 151.7, 21.11 154.99, 31.42 156.26 C41.72 157.53, 56.16 157.71, 68.85 157.39 C81.54 157.08, 97.79 155.81, 107.56 154.37 C117.34 152.93, 123.57 150.59, 127.51 148.73 C131.46 146.88, 130.53 146.21, 131.23 143.24 C131.92 140.27, 131.64 152.88, 131.69 130.92 C131.75 108.97, 131.9 33.34, 131.54 11.52 C131.17 -10.3, 131.27 2.92, 129.51 0 C127.75 -2.93, 125.29 -4.56, 120.99 -6.01 C116.7 -7.47, 113.12 -7.62, 103.74 -8.74 C94.36 -9.86, 76.87 -12.35, 64.7 -12.74 C52.53 -13.12, 40.43 -12.64, 30.74 -11.06 C21.04 -9.49, 11.51 -5.19, 6.52 -3.3 C1.53 -1.4, 2 -0.46, 0.79 0.32 C-0.41 1.11, -0.5 1.22, -0.73 1.42 M1.82 2.88 C1.41 24.42, -0.78 105.47, -1.37 129.34 C-1.96 153.2, -3.18 142.55, -1.71 146.06 C-0.25 149.56, 2.04 148.59, 7.42 150.38 C12.79 152.16, 20.16 155.79, 30.53 156.76 C40.9 157.73, 56.73 156.26, 69.63 156.19 C82.54 156.12, 97.94 157.62, 107.97 156.33 C118 155.03, 126.18 150.83, 129.79 148.41 C133.4 145.99, 129.19 144.84, 129.65 141.79 C130.12 138.74, 132.19 151.73, 132.59 130.12 C133 108.5, 132.29 33.34, 132.07 12.11 C131.86 -9.13, 133.18 5.31, 131.28 2.7 C129.39 0.09, 125.45 -1.63, 120.71 -3.56 C115.96 -5.48, 112.6 -7.14, 102.8 -8.83 C93 -10.51, 73.79 -13.43, 61.91 -13.67 C50.03 -13.91, 40.9 -12.18, 31.53 -10.27 C22.17 -8.36, 11 -3.92, 5.73 -2.19 C0.47 -0.46, 0.72 -0.53, -0.04 0.11 C-0.8 0.74, 1.21 1.69, 1.16 1.63" stroke="#343a40" stroke-width="1" fill="none"></path></g></g><g stroke-linecap="round"><g transform="translate(1328.1821163357567 490.9337180328424) rotate(0 65.6290645546344 7.079197089908973)"><path d="M-0.57 1.17 C-0.05 2.31, -0.38 4.68, 2.83 6.12 C6.04 7.57, 12.58 8.54, 18.68 9.84 C24.78 11.15, 31.18 13.31, 39.45 13.95 C47.72 14.59, 57.31 14.11, 68.31 13.69 C79.31 13.28, 95.75 12.84, 105.44 11.44 C115.13 10.04, 122.06 7.33, 126.46 5.3 C130.86 3.28, 130.92 0.38, 131.83 -0.71 M1.33 0.7 C2.27 1.53, 2.42 2.46, 5.21 4.12 C7.99 5.78, 12.81 8.82, 18.05 10.66 C23.28 12.51, 27.99 14.62, 36.62 15.17 C45.26 15.71, 58.21 14.16, 69.87 13.92 C81.54 13.68, 97.13 15.36, 106.61 13.7 C116.09 12.05, 122.7 6.44, 126.75 3.97 C130.79 1.51, 130.3 -0.56, 130.9 -1.11" stroke="#343a40" stroke-width="1" fill="none"></path></g></g><g stroke-linecap="round"><g transform="translate(1326.0629344331978 441.4243949183001) rotate(0 65.62721018260982 6.213284179838524)"><path d="M-0.64 0.3 C0.08 0.93, 0.36 3.17, 3.72 4.96 C7.09 6.74, 13.98 9.58, 19.55 10.99 C25.11 12.41, 28.88 13.04, 37.13 13.42 C45.38 13.81, 57.71 13.54, 69.05 13.33 C80.4 13.11, 95.5 13.52, 105.21 12.16 C114.92 10.79, 122.88 7.4, 127.33 5.16 C131.77 2.92, 131.11 -0.18, 131.89 -1.27 M1.23 -0.63 C1.86 0.64, -0.11 3.83, 2.91 6 C5.93 8.17, 13.73 11.03, 19.37 12.42 C25.01 13.82, 28.15 14.21, 36.75 14.36 C45.36 14.52, 59.42 13.9, 71 13.36 C82.59 12.82, 96.75 12.73, 106.27 11.13 C115.78 9.53, 123.95 5.94, 128.07 3.75 C132.19 1.57, 130.58 -1.42, 131 -1.96" stroke="#343a40" stroke-width="1" fill="none"></path></g></g><g stroke-linecap="round" transform="translate(1325.1203361383532 382.437479058484) rotate(0 65.32916778852518 13.212332693719276)"><path d="M3.64 9.79 C3.64 9.79, 3.64 9.79, 3.64 9.79 M3.64 9.79 C3.64 9.79, 3.64 9.79, 3.64 9.79 M1.46 16.26 C5.43 12.21, 9.35 9.08, 10.77 6.75 M3.25 16.61 C5.02 13.56, 8.35 10.59, 11.46 7.52 M8.05 17.96 C8.68 13.92, 12.66 12.17, 18.68 4.98 M6.64 19.44 C8.31 16.29, 12.17 13.4, 18.42 4.85 M9 18.11 C16.51 14.07, 19.49 8.77, 23.4 2.05 M10.21 20.7 C13.55 15.62, 17.57 13.47, 24.83 3.07 M13.36 20.34 C19.76 14.58, 24.28 9.35, 29.9 1.72 M14.89 20.22 C19.73 15.32, 25.61 9.52, 30.87 2.14 M19.2 23.01 C22.27 16.75, 26.52 11.61, 36.32 1.89 M19.82 21.32 C23.79 17.3, 27.5 10.98, 36.49 3.71 M22.8 25.02 C31.11 15.7, 38.44 8.75, 40 3.67 M22.44 24.85 C28.81 16.57, 35.23 10.25, 41.49 3.04 M28.89 26.8 C33.74 17.65, 40.91 10.67, 46.38 2.95 M28.31 24.55 C34.27 18.47, 39.32 11.37, 46.08 3 M33.05 25.32 C38.68 18.58, 45.23 13.79, 51.91 3.16 M33.11 26.48 C40.71 15.16, 49.13 6.17, 53.41 3.09 M37.17 25.55 C40.86 21.65, 45.49 13.94, 59.67 -0.26 M37.75 24.89 C42.57 19.1, 48.43 11.69, 58.74 2.39 M43.75 26.51 C51.89 16.61, 61.04 8.45, 63.56 -0.09 M42.29 26.57 C48.43 18.79, 54.56 11.77, 63.36 1.65 M47.48 25.72 C51.06 21.33, 57.94 13.72, 67.93 3.15 M47.14 27.73 C53.77 18.38, 61.13 9.78, 69.78 2.16 M51.44 26.47 C58.55 21.07, 63.69 14.71, 74.48 1.99 M52.88 25.62 C58.96 18.89, 67.7 10.96, 74.25 0.88 M58.81 27.36 C66.67 16.2, 74.02 7.41, 77.84 2.95 M59.59 26.45 C66.38 17.15, 73.11 8.31, 80.02 1.85 M64.99 24.99 C66.35 22.14, 73.25 15.75, 86.51 1.1 M62.63 26.46 C68.43 20.04, 73.73 14.52, 83.84 1.02 M68.55 27.21 C74.72 17.16, 84.1 10.16, 89.04 2.02 M69.17 25.56 C75.83 17.26, 82.97 10.43, 89.82 0.62 M75.54 25.43 C79.5 16.95, 89.69 8.18, 96.41 3.82 M74.14 25.98 C79.59 19.99, 86.73 12.48, 95.39 1.59 M80.98 24.32 C84.03 18.04, 91.54 11.81, 102.15 0.38 M79.37 26.34 C84.71 21.18, 88.22 16.15, 101.06 3.15 M83.86 27.58 C89.11 20.09, 95.38 11.25, 103.31 4.85 M84.2 25.86 C91.51 18.53, 99.32 9.96, 105.05 2.71 M88.01 28.42 C95.77 21.18, 96.88 18.34, 107.38 6.42 M89.94 27.15 C93.12 21.13, 98.22 18.55, 109.8 4.96 M97 26.81 C100.55 18.23, 104.63 13.14, 115.21 3.52 M96.44 25.87 C101.12 18.22, 108.54 12.46, 114.47 5.54 M103.13 25.04 C107.87 18.56, 112.79 13.48, 119.25 5.89 M102.71 24.62 C106.52 18.69, 110.59 15.68, 118.92 5.37 M107.63 22.88 C112.21 16.28, 119.48 9.86, 123.79 5.77 M108.68 22.56 C112.72 18.59, 114.36 16.03, 123.49 6.31 M115.45 22.7 C117.04 19.54, 120.68 14.21, 125.31 10.11 M115.66 21.18 C117.79 18.1, 120.65 15.88, 125.04 9.77 M119.21 23.18 C121.13 20.1, 124.18 16.14, 128.87 11.79 M119.79 22.79 C122.86 19.44, 124.24 16.39, 128.74 11.86" stroke="#fff" stroke-width="0.5" fill="none"></path><path d="M94.49 1.04 C104.76 1.96, 115.02 3.8, 121.05 5.94 C127.07 8.08, 131.01 11.37, 130.63 13.88 C130.26 16.39, 125.62 19.01, 118.78 20.99 C111.94 22.98, 100.56 25.04, 89.58 25.78 C78.6 26.52, 64.52 26.08, 52.9 25.45 C41.27 24.83, 28.41 23.6, 19.82 22.04 C11.24 20.47, 4.09 18.09, 1.38 16.06 C-1.33 14.03, -0.18 12.11, 3.58 9.86 C7.33 7.6, 14.85 4.03, 23.89 2.52 C32.93 1.02, 45.44 0.82, 57.82 0.81 C70.19 0.8, 91.33 2.29, 98.14 2.44 C104.96 2.58, 99.34 1.67, 98.69 1.67 M65.29 0.44 C76.13 0.27, 89.25 1.39, 99.41 2.6 C109.57 3.82, 121.32 5.53, 126.25 7.73 C131.18 9.94, 130.73 13.23, 129.02 15.84 C127.3 18.44, 123.41 21.92, 115.96 23.35 C108.51 24.79, 95.61 23.79, 84.34 24.45 C73.06 25.1, 59.49 27.7, 48.3 27.28 C37.12 26.86, 25.21 24.15, 17.23 21.94 C9.25 19.73, 2.22 16.56, 0.42 14.04 C-1.37 11.53, 1.68 9, 6.45 6.86 C11.22 4.73, 19.28 2.15, 29.05 1.22 C38.81 0.3, 58.89 1.37, 65.05 1.31 C71.21 1.25, 66.12 0.86, 65.98 0.84" stroke="#343a40" stroke-width="1" fill="none"></path></g><g stroke-linecap="round" transform="translate(1431.7177470535426 419.07189053764694) rotate(0 9.574615773422693 10.391389118992208)"><path d="M4.18 0.99 C4.18 0.99, 4.18 0.99, 4.18 0.99 M4.18 0.99 C4.18 0.99, 4.18 0.99, 4.18 0.99 M3.59 8.29 C5.72 7, 8.16 3.92, 8.76 0.01 M2.34 8.69 C4.5 6.64, 6.36 4.51, 10.27 0.31 M0.99 16.63 C5.67 12.59, 6.16 10.51, 15.07 1.65 M2.55 15.96 C4.62 12.27, 7.84 9.7, 13.74 3.06 M5.27 18.5 C7.92 15.39, 8.79 11.52, 15.45 2.51 M3.16 18.54 C8.48 12.73, 13.76 8, 16.66 5.1 M9.57 19.33 C11.36 16.4, 15.21 14.71, 17.04 8.73 M8.48 19.47 C11.67 16.42, 15.23 13.47, 18.11 8.65" stroke="#fff" stroke-width="0.5" fill="none"></path><path d="M4.44 0.69 C6.14 -0.34, 9.42 -0.21, 11.51 0.37 C13.6 0.94, 15.79 2.36, 16.97 4.14 C18.15 5.91, 18.73 8.94, 18.59 11.01 C18.44 13.07, 17.52 15.05, 16.11 16.52 C14.71 18, 12.17 19.46, 10.15 19.85 C8.12 20.24, 5.55 19.76, 3.97 18.87 C2.39 17.99, 1.31 16.65, 0.66 14.54 C0.01 12.43, -0.85 8.44, 0.07 6.21 C0.99 3.97, 4.61 2.02, 6.18 1.15 C7.76 0.27, 9.51 1, 9.52 0.94 M10.03 0.45 C12.08 0.31, 14.11 1.25, 15.39 2.62 C16.66 3.99, 16.99 6.59, 17.68 8.7 C18.37 10.8, 20.44 13.23, 19.53 15.24 C18.62 17.25, 14.16 19.66, 12.22 20.75 C10.28 21.84, 9.61 22.81, 7.92 21.77 C6.23 20.73, 3.17 16.39, 2.1 14.49 C1.02 12.59, 1.1 12.33, 1.49 10.38 C1.88 8.42, 3.18 4.68, 4.43 2.77 C5.67 0.87, 8.08 -0.47, 8.96 -1.04 C9.85 -1.61, 9.87 -0.84, 9.75 -0.64" stroke="#343a40" stroke-width="1" fill="none"></path></g><g stroke-linecap="round" transform="translate(1431.7177470535426 464.6900496899565) rotate(0 9.574615773422693 10.391389118992208)"><path d="M1.1 4.93 C1.1 4.93, 1.1 4.93, 1.1 4.93 M1.1 4.93 C1.1 4.93, 1.1 4.93, 1.1 4.93 M1.77 12.2 C3.98 9.27, 3.79 5.75, 9.03 0.41 M0.65 11.39 C3.42 8.3, 7.13 4.46, 8.98 1.2 M3.63 15.32 C5.44 11.75, 12.38 5.17, 12.98 1.28 M2.79 14.66 C6.08 11.86, 8.34 9.53, 13.81 2.3 M5.01 19.28 C7.39 13.78, 11.75 7.32, 18.21 4.12 M3.65 18.7 C8.11 15.1, 11.96 11.16, 16.53 4.42 M8.18 20.32 C13.64 17.15, 15.27 10.88, 19.47 7.55 M8.1 20.82 C12.37 17.38, 15.54 12.06, 18.91 8.7" stroke="#fff" stroke-width="0.5" fill="none"></path><path d="M7.81 0.34 C9.78 -0.06, 12.46 0.42, 14.15 1.53 C15.84 2.65, 17.33 5.13, 17.97 7.05 C18.6 8.97, 18.71 11.15, 17.98 13.05 C17.26 14.96, 15.39 17.3, 13.64 18.5 C11.88 19.7, 9.3 20.35, 7.44 20.27 C5.59 20.19, 3.84 19.72, 2.49 18.04 C1.15 16.35, -0.42 12.41, -0.6 10.16 C-0.78 7.91, -0.18 6.12, 1.42 4.56 C3.03 3, 7.91 1.61, 9.05 0.78 C10.19 -0.04, 8.35 -0.37, 8.26 -0.4 M9.52 0.44 C11.13 0.32, 12.65 1.58, 14.48 2.94 C16.31 4.3, 20.09 6.36, 20.49 8.6 C20.89 10.83, 17.95 14.16, 16.89 16.33 C15.83 18.5, 15.78 21.24, 14.12 21.64 C12.46 22.04, 8.82 19.49, 6.92 18.71 C5.01 17.94, 3.6 18.65, 2.68 16.97 C1.77 15.3, 1.35 11.26, 1.43 8.66 C1.51 6.06, 1.73 2.97, 3.18 1.38 C4.63 -0.2, 9.22 -0.52, 10.12 -0.86 C11.02 -1.2, 8.74 -1.2, 8.6 -0.67" stroke="#343a40" stroke-width="1" fill="none"></path></g><g stroke-linecap="round" transform="translate(1431.7177470535426 514.2709273705351) rotate(0 9.574615773422693 10.391389118992208)"><path d="M1.91 5.64 C1.91 5.64, 1.91 5.64, 1.91 5.64 M1.91 5.64 C1.91 5.64, 1.91 5.64, 1.91 5.64 M1.5 13.93 C1.16 10.16, 4.4 7.11, 10.02 2.29 M-0.01 13.79 C3.36 10.4, 4.79 7.63, 9.86 2.71 M1.37 18.03 C8.42 11.32, 9.45 6.77, 14.04 4.4 M3.57 16.56 C6.54 13.5, 9.33 9.15, 15.83 3.16 M3.6 19.7 C6.61 14.68, 13.24 11.47, 18.66 3.42 M4.74 20.34 C7.42 18, 10.53 13.14, 19.04 5.59 M10.32 22.34 C10.69 18.13, 14.68 14.83, 19.05 9.73 M9.56 21.98 C11.68 18.14, 13.99 16.08, 19.1 10.82" stroke="#fff" stroke-width="0.5" fill="none"></path><path d="M6.8 0.63 C8.54 -0.06, 11.09 0.49, 12.87 1.23 C14.66 1.96, 16.67 3.24, 17.53 5.04 C18.39 6.85, 18.52 9.82, 18.03 12.05 C17.55 14.27, 16.12 16.8, 14.64 18.4 C13.15 19.99, 11.16 21.76, 9.11 21.62 C7.07 21.47, 3.98 19.08, 2.35 17.52 C0.72 15.96, -0.65 14.29, -0.67 12.26 C-0.7 10.23, 0.96 7.44, 2.18 5.33 C3.4 3.22, 5.63 0.53, 6.63 -0.38 C7.63 -1.29, 8 -0.51, 8.18 -0.14 M9.74 0.62 C11.95 0.73, 16.83 1.81, 18.24 3.52 C19.64 5.22, 18.15 8.39, 18.17 10.87 C18.19 13.34, 19.35 16.97, 18.33 18.35 C17.32 19.73, 14.09 18.71, 12.1 19.13 C10.11 19.56, 8.09 21.72, 6.4 20.91 C4.71 20.1, 2.97 16.75, 1.95 14.27 C0.93 11.8, -0.27 8.31, 0.26 6.04 C0.79 3.78, 3.49 1.8, 5.12 0.67 C6.75 -0.46, 9.09 -0.92, 10.02 -0.76 C10.94 -0.6, 10.42 1.22, 10.67 1.63" stroke="#343a40" stroke-width="1" fill="none"></path></g><g transform="translate(1337.344377747901 555.5049363824986) rotate(0 54.37369383457053 14.273094631574736)"><text x="0" y="20.546189263149525" font-family="Virgil, Segoe UI Emoji" font-size="21.74947753382821px" fill="#343a40" text-anchor="start" style="white-space: pre;" direction="ltr">Database</text></g><g stroke-linecap="round"><g transform="translate(88.12158412592953 254.76604327015895) rotate(89.99999999999994 39.357112884682465 104.1627231061135)" fill-rule="evenodd"><path d="M3.28 -1.13 C3.28 -1.13, 3.28 -1.13, 3.28 -1.13 M3.28 -1.13 C3.28 -1.13, 3.28 -1.13, 3.28 -1.13 M-0.13 8.47 C4.89 4.35, 4.77 0.62, 11.37 -4.76 M0.46 7.65 C3.35 4.25, 6.13 0.66, 11.98 -5.1 M0.47 15.1 C3.82 6.78, 9.32 4.38, 19.43 -7.47 M2.31 14.01 C8.29 6.25, 13.97 -0.66, 19.96 -7.96 M0.14 18.33 C7.86 14.87, 10.87 8.81, 24.76 -9.54 M1.83 20.07 C5.91 12.15, 11.48 6.4, 25.19 -8.12 M2.11 24.47 C14.98 10.32, 25.71 -2.39, 32.55 -8.84 M1.82 26.88 C9.43 16.44, 16.71 8.35, 32.83 -9.49 M-0.1 32.95 C11 19.96, 22.24 7.21, 39.26 -10.25 M1.79 32.21 C9.93 22.8, 16.88 13.34, 39.05 -10.95 M2.87 39.06 C13.4 22.7, 24.6 10.27, 44.19 -10.08 M1.96 38.73 C13.07 24.68, 25.12 10.3, 43.13 -11.1 M0.5 44.91 C9.64 31.57, 22.35 21.1, 47.87 -10.79 M1.95 44.61 C18.88 23.49, 37.5 3.09, 48.27 -9.39 M0.92 49.75 C12.44 36.48, 24.37 26.04, 53.87 -10.47 M1.72 49.41 C17.23 31.42, 32.79 14.23, 51.72 -8.06 M-0.72 56.91 C11.88 42.02, 23.45 30.04, 55.89 -5.9 M0.22 56.71 C20.7 33.68, 42.59 9.63, 56.22 -7.42 M-0.53 60.33 C20.56 42.65, 39.19 21.68, 62.78 -5.71 M1.58 62.21 C23.25 36.66, 45.33 10.65, 61.5 -7.53 M-0.05 67.03 C20.67 48.63, 36.59 28.47, 67.72 -7.21 M1.29 67.9 C26.32 38.75, 51.58 9.87, 65.74 -5.31 M2.08 72.17 C28.16 43.35, 50.82 14.23, 71.87 -4.58 M0.85 74.61 C26.59 44.16, 53.24 14.82, 69.63 -5.17 M0.61 81.23 C29.4 51.14, 54.19 17.9, 72.19 -4.17 M0.7 79.98 C25 54.76, 45.9 28.78, 72.56 -2.63 M0.05 85.06 C25.07 61.46, 48.51 33.35, 77.8 -1.49 M0.95 87.02 C18.05 67.82, 34.25 48.49, 77.37 0.29 M0.41 94.33 C18.85 70.91, 35.84 53.26, 77.77 3.59 M1.48 92.23 C30.87 57.1, 61.67 22.4, 78.5 3.45 M3.02 98.12 C31.56 64.05, 57.52 32.11, 81.56 6.26 M0.13 99.78 C22.13 75.39, 42.98 51.16, 80.78 5.77 M2.86 102.8 C34.18 66.66, 63.24 31.31, 82.06 13.87 M1.42 104.08 C26.07 75.69, 51.66 47.08, 80.92 11.76 M3.04 110.38 C29.41 77.2, 55.93 46.96, 81.94 18.53 M1.44 111.69 C17.18 92.59, 33.98 72.78, 82.15 17.94 M-0.82 117.45 C31.46 84.36, 60.67 53.01, 83.58 24.79 M0.53 117.92 C33.23 79.66, 64.23 44, 82.57 23.99 M1.18 121.73 C18.06 103.49, 36.48 84.57, 83.96 29.48 M1.44 122.97 C22.02 99.29, 42.36 74.19, 82.42 30.34 M2.97 128.51 C23.96 107.42, 42.17 84.3, 81.26 36.1 M1.54 130.06 C30.58 96.11, 58.58 64.05, 81.02 36.06 M2.89 133.69 C20.36 112.88, 40.15 94.93, 83.1 41.71 M1.47 136.04 C31.72 99.45, 61.5 64.83, 81.44 43.47 M2.19 142.03 C25.87 111.22, 49.74 87.05, 80.42 47.46 M2.07 141.27 C29.59 109.7, 58.76 77.03, 82.69 48.3 M1.35 146.15 C23.46 121.15, 47.13 94.78, 81.19 53.15 M1.05 148.25 C31.03 111.51, 62.77 76.23, 81.85 55.78 M1.87 152.99 C16.01 133.44, 35.85 113.83, 82.78 60.13 M1.18 153.73 C27.88 123.93, 54.15 92.62, 82.81 61.26 M0.06 158.38 C30.04 126.66, 62.77 88.95, 82.45 65.63 M0.46 160.88 C24.57 133.88, 49.57 105.38, 81.12 66.13 M2.73 166.71 C27.97 132.63, 58.77 102.88, 81.73 73.75 M0.11 166.59 C23.73 140.09, 46.28 114.6, 80.75 74.41 M0.95 173.51 C34.17 136.57, 62.83 101.38, 80.16 77.88 M0.83 171.66 C30.13 139.03, 57.15 107.84, 82.21 78.87 M-0.14 179.9 C19.12 159.34, 34.36 141.7, 81.06 87.33 M0.87 178.9 C33.08 140.18, 65.99 103.1, 80.7 85.17 M2.97 183.58 C21.48 158.9, 45.06 137.51, 83.94 90.21 M0.78 183.75 C32.78 148.01, 64.99 111.42, 82.86 90.49 M2.73 189.13 C28.56 160.57, 51.5 129.9, 82.93 95.77 M0.29 190.17 C27.05 162.84, 50.43 132.87, 81.64 97.39 M0.79 194.97 C23.25 175.65, 43.53 150.64, 83.16 105.33 M1.05 197.26 C26.35 166.08, 54.87 134.42, 81 104.44 M1.2 204.62 C27.55 174.98, 49.26 143.75, 82.54 110.84 M0.06 204.11 C22.64 179.51, 42.7 155.84, 82.07 110.35 M0.07 208.69 C24.29 183.81, 43.95 158.87, 81.52 117.33 M1.84 207.46 C21 184.23, 42.36 160.73, 81.32 116.09 M3.4 211.41 C30.17 186.39, 50.59 158.14, 83.47 121.93 M4.55 209.8 C26.87 186.73, 47.69 159.68, 81.27 121.52 M8.83 213.11 C32.16 183.61, 55.91 157.62, 81.13 128.14 M8.14 213.55 C27.28 189.57, 47.87 167.93, 81.36 127.27 M9.99 217.22 C30.13 192.1, 50.94 169.61, 81.01 132.81 M11.08 215.59 C30.11 195.03, 49.06 172.57, 80.68 135.34 M14.94 216.02 C36.2 193.56, 52.86 171.4, 81.12 140.62 M15.2 218.72 C36.48 194.23, 57.8 169.18, 82.13 139.24 M20.59 220.38 C36.89 195.81, 58.64 175.16, 80.79 146.62 M18.42 218.99 C39.39 195.12, 59.61 171.88, 82.54 146.14 M24.51 220.05 C41.2 197.67, 62.4 176.78, 81.01 151.2 M22.99 219.58 C42.82 196.97, 64.13 173.61, 81.45 151.44 M26.57 221.61 C48.57 196.13, 65.37 173.46, 82.88 158.37 M27.48 220.43 C45.59 199.14, 64.75 177.66, 81.92 158.71 M32.8 221.25 C47.93 205.73, 59.66 187.5, 80.68 165.98 M31.03 222.66 C48.94 202.86, 66.73 182.64, 81.96 163.5 M38.35 220.74 C49.67 207.03, 58 194.19, 80.34 171.97 M36.67 222.08 C49.37 208.35, 60.19 195.87, 81.36 171.27 M44 219.97 C53.07 209.79, 67.23 193.78, 79.75 177.4 M42.23 221.43 C53.27 208.16, 63.51 196.55, 82.44 175.99 M48.61 220.45 C57.61 208.05, 69.75 195.95, 82.62 180.92 M49.13 221.46 C56.98 213.12, 63.98 203.52, 82.2 182.25 M54.09 219.51 C65.15 209.3, 72.82 196.95, 80.17 189.3 M55.73 220.81 C65.74 207.89, 74.7 196.3, 82.46 189.42 M59.89 220.6 C69.29 210.17, 73.81 203.83, 83.55 196.38 M60.24 217.86 C66.43 212.86, 71.29 208.55, 82.62 194.23 M68.09 220.02 C71.6 212.65, 75.59 207.24, 80.98 202.89 M66.13 219.16 C69.89 214.82, 74.13 209.56, 81.14 202.23" stroke="#fab005" stroke-width="0.5" fill="none"></path><path d="M-1.05 7.08 C-0.76 36.56, 1.01 150.78, 1.07 183.6 C1.14 216.42, -1.31 199.3, -0.68 204 C-0.04 208.7, 1.71 209.47, 4.88 211.8 C8.05 214.13, 12.1 216.35, 18.32 217.99 C24.54 219.63, 34.41 221.89, 42.22 221.64 C50.03 221.39, 59.48 218.66, 65.18 216.5 C70.88 214.33, 73.99 211.28, 76.39 208.65 C78.79 206.02, 79.34 204.49, 79.58 200.71 C79.83 196.92, 77.93 215.88, 77.84 185.95 C77.75 156.01, 78.79 51.25, 79.07 21.1 C79.35 -9.05, 80.62 9.06, 79.52 5.05 C78.43 1.03, 75.48 -0.6, 72.49 -2.98 C69.5 -5.37, 67.21 -7.72, 61.58 -9.28 C55.94 -10.84, 45.93 -12.34, 38.65 -12.35 C31.37 -12.35, 23.91 -11, 17.91 -9.3 C11.91 -7.61, 5.81 -4.85, 2.63 -2.19 C-0.56 0.47, -0.85 5.12, -1.21 6.65 C-1.56 8.17, 0.37 6.87, 0.5 6.95 M0.59 6.45 C0.85 35.57, 0.33 149.29, 0.54 181.92 C0.75 214.56, 1.01 197.08, 1.85 202.26 C2.68 207.45, 3.03 210.44, 5.54 213.05 C8.05 215.66, 10.55 216.62, 16.9 217.92 C23.26 219.22, 35.51 220.79, 43.69 220.85 C51.87 220.91, 60.13 220.38, 65.96 218.28 C71.79 216.18, 76.62 210.85, 78.68 208.24 C80.75 205.63, 78.46 206.35, 78.35 202.62 C78.23 198.89, 77.8 215.96, 78 185.87 C78.19 155.78, 79.41 52.35, 79.52 22.09 C79.64 -8.16, 79.92 8.65, 78.71 4.34 C77.5 0.03, 74.74 -1.96, 72.28 -3.76 C69.83 -5.56, 69.5 -4.91, 63.98 -6.44 C58.46 -7.96, 46.76 -12.08, 39.18 -12.92 C31.6 -13.75, 24.26 -13.28, 18.5 -11.45 C12.74 -9.61, 7.62 -5.04, 4.63 -1.92 C1.64 1.19, 1.43 5.68, 0.55 7.26 C-0.33 8.84, -0.51 7.8, -0.63 7.56" stroke="#343a40" stroke-width="1" fill="none"></path></g></g><g stroke-linecap="round"><g transform="translate(51.514450478211074 350.93964115715295) rotate(89.99999999999994 38.115107772430065 10.124610244738875)"><path d="M0.79 1.1 C1.2 2.43, 1.02 4.9, 2.87 7.24 C4.72 9.58, 8.59 13.3, 11.88 15.15 C15.17 17.01, 17.97 17.75, 22.58 18.35 C27.2 18.94, 32.99 19.04, 39.57 18.71 C46.16 18.39, 56.54 18.42, 62.11 16.38 C67.68 14.34, 70.59 9.16, 72.98 6.47 C75.38 3.78, 76 1.61, 76.49 0.24 M-0.26 0.47 C0.04 2.04, 0.37 6.28, 2.37 8.41 C4.36 10.53, 8.29 11.38, 11.72 13.23 C15.16 15.08, 18.05 18.52, 22.98 19.51 C27.91 20.5, 35.11 19.84, 41.3 19.16 C47.49 18.49, 54.81 17.26, 60.11 15.48 C65.41 13.69, 70.55 10.96, 73.1 8.44 C75.65 5.92, 74.66 1.75, 75.4 0.34" stroke="#343a40" stroke-width="1" fill="none"></path></g></g><g stroke-linecap="round"><g transform="translate(120.1398020955653 350.4786508125187) rotate(89.99999999999994 38.48763009343361 7.079651043044095)"><path d="M0.8 1.09 C1.19 2.17, -0.47 5.74, 1.31 7.52 C3.09 9.31, 7.98 10.75, 11.49 11.79 C14.99 12.83, 17.52 13.15, 22.35 13.75 C27.17 14.35, 33.89 15.69, 40.45 15.39 C47.01 15.08, 56.26 13.55, 61.71 11.92 C67.15 10.28, 70.54 7.77, 73.12 5.59 C75.71 3.41, 76.87 -0.28, 77.22 -1.17 M-0.24 0.49 C0.64 1.2, 1.75 3.88, 3.65 6.01 C5.55 8.14, 7.97 11.86, 11.14 13.25 C14.31 14.65, 18 13.93, 22.65 14.39 C27.3 14.85, 32.27 16.1, 39.04 16.03 C45.81 15.97, 57.52 15.98, 63.25 14.01 C68.98 12.03, 71.19 6.83, 73.42 4.18 C75.65 1.53, 76.09 -1.05, 76.63 -1.87" stroke="#343a40" stroke-width="1" fill="none"></path></g></g><g stroke-linecap="round" transform="translate(190.66144874417978 342.5940238799211) rotate(89.99999999999994 38.728632453228784 17.217916644776693)"><path d="M32.89 -0.49 C40.81 -1.07, 51.82 1.39, 58.82 3.27 C65.82 5.15, 72.34 7.51, 74.89 10.81 C77.44 14.11, 76.95 19.59, 74.1 23.07 C71.26 26.55, 64.82 29.66, 57.82 31.67 C50.81 33.68, 40.33 35.67, 32.07 35.12 C23.8 34.57, 13.63 31.41, 8.22 28.38 C2.81 25.35, -0.5 20.81, -0.38 16.95 C-0.25 13.09, 1.85 8.13, 8.97 5.2 C16.09 2.27, 35.46 0.12, 42.32 -0.64 C49.18 -1.41, 50.27 0.27, 50.15 0.59 M56.13 2.57 C63.47 4.35, 70.41 8.07, 73.73 11.56 C77.05 15.04, 78.59 19.9, 76.04 23.48 C73.49 27.06, 65.27 31.04, 58.42 33.05 C51.56 35.05, 42.96 36.14, 34.93 35.53 C26.89 34.91, 15.99 32.4, 10.23 29.35 C4.48 26.29, 0.58 21.19, 0.39 17.21 C0.21 13.24, 4.02 8.46, 9.12 5.49 C14.23 2.52, 23.26 0.12, 31.04 -0.62 C38.82 -1.37, 51.45 0.36, 55.83 1.01 C60.2 1.65, 57.6 2.66, 57.31 3.26" stroke="none" stroke-width="0" fill="#fab005"></path><path d="M56.77 1.23 C63.89 2.69, 71.46 7.67, 74.64 11.07 C77.82 14.46, 78.47 18.16, 75.85 21.59 C73.23 25.02, 65.85 29.64, 58.92 31.66 C51.99 33.68, 42.57 34.07, 34.28 33.7 C25.98 33.33, 14.82 32.04, 9.15 29.42 C3.48 26.79, 0.27 21.8, 0.25 17.94 C0.22 14.08, 4.09 9.17, 9 6.26 C13.92 3.35, 21.42 1.22, 29.74 0.48 C38.06 -0.27, 53.46 1.21, 58.93 1.79 C64.41 2.37, 62.9 3.49, 62.58 3.96 M27.11 1.49 C34.77 0.33, 46.05 -0.38, 53.84 0.69 C61.64 1.75, 70.14 4.45, 73.9 7.88 C77.66 11.3, 78.18 17.58, 76.43 21.24 C74.68 24.89, 69.83 27.58, 63.42 29.81 C57 32.05, 46.41 34.53, 37.93 34.65 C29.45 34.78, 18.82 33.09, 12.54 30.55 C6.27 28.01, 1.43 23.36, 0.27 19.43 C-0.88 15.5, 1.12 10.05, 5.6 6.95 C10.08 3.84, 23.74 2, 27.16 0.8 C30.58 -0.41, 25.94 -0.81, 26.13 -0.28" stroke="#343a40" stroke-width="1" fill="none"></path></g><g transform="translate(51.27555623448188 404.8506103036631) rotate(0 76.28187668873602 15.860588222410456)"><text x="0" y="22.721176444820877" font-family="Virgil, Segoe UI Emoji" font-size="24.168515386530192px" fill="#343a40" text-anchor="start" style="white-space: pre;" direction="ltr">Message bus</text></g><g stroke-linecap="round"><g transform="translate(779.2572993796812 189.31690030941058) rotate(269.97732772573056 -0.39332469180226326 173.62073765903358)"><path d="M-1.54 1.95 C60.39 34.98, 120.38 68.5, 149.9 86.83 M-0.56 -0.34 C37.13 21.32, 74.12 42.68, 151.28 87.29 M150.89 87.63 C149.69 153.09, 149.68 223.29, 150.59 260.38 M150.04 86.29 C151.12 146.4, 151.68 206.92, 150.46 260.79 M149.68 261.01 C110.06 284.28, 70.11 307.83, -0.39 345.44 M150.85 260.49 C94.63 292.63, 39.89 326.36, 0.33 347.93 M0.1 345.92 C-32.28 327.33, -60.6 312.65, -151.4 259.33 M-0.58 347.11 C-49.18 319.06, -96.4 292.85, -150.14 259.86 M-152.07 259.55 C-151.59 200.79, -152.16 143.54, -149.1 88.05 M-149.34 260.34 C-151.18 219.15, -151.09 176.9, -150.67 87.66 M-151.39 87.77 C-113.17 64.24, -75.15 42.37, -1.36 -0.03 M-151.23 86.36 C-101.42 58, -51.28 29.25, 0.21 -0.69" stroke="#000000" stroke-width="1" fill="none"></path></g></g><g transform="translate(733.5818267964087 320.93400501779684) rotate(0 49.5 43)"><text x="49.5" y="30" font-family="Virgil, Segoe UI Emoji" font-size="33.533171673474094px" fill="#000000" text-anchor="middle" style="white-space: pre;" direction="ltr">Use</text><text x="49.5" y="73" font-family="Virgil, Segoe UI Emoji" font-size="33.533171673474094px" fill="#000000" text-anchor="middle" style="white-space: pre;" direction="ltr">Cases</text></g><g stroke-linecap="round" transform="translate(776.8874492351633 211.16328360735656) rotate(0 0.7125000000007731 0.7125000000008583)"><path d="M1.18 -0.87 C1.33 -0.7, 1.17 0.41, 1.14 0.47 C1.12 0.53, 1.06 -0.53, 1.05 -0.51 C1.04 -0.5, 1 0.19, 1.07 0.57 C1.13 0.96, 1.41 1.52, 1.43 1.77 C1.45 2.03, 1.27 2.25, 1.17 2.13 C1.07 2, 1.18 1.13, 0.84 1.02 C0.5 0.9, -0.66 1.41, -0.87 1.44 C-1.09 1.47, -0.8 1.43, -0.47 1.21 C-0.14 0.99, 0.93 0.47, 1.11 0.11 C1.29 -0.25, 0.64 -1.11, 0.62 -0.96" stroke="none" stroke-width="0" fill="#000"></path><path d="M0.15 -0.67 C0.4 -0.79, 1.37 -0.63, 1.52 -0.43 C1.67 -0.23, 1.06 0.4, 1.06 0.52 C1.05 0.64, 1.56 -0.02, 1.51 0.27 C1.46 0.57, 0.84 1.96, 0.76 2.3 C0.67 2.64, 1.14 2.52, 1.02 2.31 C0.9 2.09, 0.18 1.24, 0.05 1.04 C-0.07 0.83, 0.29 1.33, 0.28 1.07 C0.26 0.81, -0.09 -0.42, -0.05 -0.52 C-0.01 -0.62, 0.35 0.39, 0.53 0.48 C0.72 0.58, 0.94 0.04, 1.06 0.04" stroke="#000" stroke-width="1.5" fill="none" stroke-dasharray="8 9"></path></g><g stroke-linecap="round" transform="translate(776.269304073875 512.0576664113822) rotate(0 1.330645161290704 1.330645161290704)"><path d="M0.88 0.53 C0.95 0.39, 1.15 -0.84, 1.35 -0.89 C1.55 -0.94, 1.81 -0.24, 2.08 0.23 C2.35 0.69, 2.85 1.45, 2.97 1.9 C3.09 2.36, 2.95 2.87, 2.81 2.97 C2.66 3.06, 2.62 2.44, 2.1 2.46 C1.58 2.48, 0.15 3.08, -0.29 3.1 C-0.74 3.12, -0.71 2.97, -0.55 2.6 C-0.4 2.23, 0.4 1.47, 0.63 0.89 C0.87 0.3, 0.73 -0.92, 0.87 -0.91 C1 -0.89, 1.38 0.67, 1.44 0.97" stroke="none" stroke-width="0" fill="#000"></path><path d="M1.75 -0.56 C2.04 -0.46, 1.68 0.16, 1.85 0.31 C2.02 0.47, 2.73 -0.07, 2.79 0.37 C2.85 0.81, 2.3 2.43, 2.22 2.95 C2.13 3.47, 2.5 3.56, 2.26 3.49 C2.03 3.41, 1.09 2.67, 0.79 2.49 C0.49 2.31, 0.62 2.76, 0.45 2.4 C0.28 2.05, -0.2 0.63, -0.23 0.36 C-0.27 0.09, -0.09 0.84, 0.22 0.79 C0.53 0.73, 1.3 0.06, 1.61 0 C1.93 -0.05, 2.24 0.48, 2.11 0.46" stroke="#000000" stroke-width="1.5" fill="none" stroke-dasharray="8 9"></path></g><g stroke-linecap="round"><g transform="translate(775.1344382075395 -42.47729949903828) rotate(269.97732772573056 0.06265327754135797 405.97343190867736)"><path d="M-1.24 -0.76 C86.66 49.66, 173.23 99.67, 353.64 204.04 M0.31 0.46 C136.76 78.75, 273.98 159.32, 351.67 202.95 M350.88 201.82 C353.54 342.43, 354.78 483.93, 351.81 609.77 M351.17 203.3 C347.86 312.67, 348.11 421.92, 351.32 607.9 M352.69 609.1 C221.13 684.72, 93.09 763.4, 0.73 813.49 M351.59 608.17 C280.5 645.91, 210.53 688.58, -0.59 811.24 M-1.29 811.64 C-114.91 746.35, -225.47 684.86, -351.09 607.69 M-0.96 811.36 C-120.83 745.6, -241.4 677.36, -350.85 609.57 M-349.32 608.76 C-353.51 512.39, -353.32 413.68, -352.27 204.89 M-352.12 609.41 C-347.6 509.65, -346.78 410.54, -352.29 202.94 M-353.51 201.97 C-237.25 135.74, -120.11 68.56, 0.47 -1.54 M-351.3 202.3 C-251.49 145.24, -149.89 84.77, 0 1.08" stroke="#000000" stroke-width="1" fill="none"></path></g></g><g stroke-linecap="round" transform="translate(774.3995578862259 11.568110504896822) rotate(269.97732772573056 0.29156867509573203 0.2915686750957178)"><path d="M1.15 1.07 C1.55 1.15, 1.97 1.73, 1.81 1.29 C1.64 0.84, 0.14 -1.24, 0.15 -1.6 C0.17 -1.96, 1.56 -1.38, 1.92 -0.86 C2.27 -0.33, 2.53 1.32, 2.3 1.55 C2.06 1.78, 1.18 0.56, 0.49 0.51 C-0.2 0.47, -2.08 1.2, -1.86 1.28 C-1.63 1.36, 1.28 1.51, 1.84 0.99 C2.4 0.48, 1.66 -1.35, 1.53 -1.81 C1.4 -2.27, 1.24 -1.88, 1.05 -1.79 C0.85 -1.69, 0.74 -1.4, 0.36 -1.26" stroke="none" stroke-width="0" fill="#000"></path><path d="M2.23 0.98 C2.83 1.04, 2.62 -0.03, 2.32 -0.06 C2.01 -0.08, 0.57 0.83, 0.41 0.83 C0.25 0.84, 1.61 0.09, 1.35 -0.04 C1.1 -0.17, -1.08 -0.08, -1.12 0.06 C-1.16 0.2, 0.93 0.58, 1.11 0.8 C1.3 1.02, 0.05 1.68, 0 1.37 C-0.05 1.05, 0.88 -0.7, 0.81 -1.09 C0.73 -1.48, -0.42 -0.87, -0.45 -0.98 C-0.47 -1.09, 0.26 -1.64, 0.65 -1.75 C1.03 -1.86, 1.83 -2.07, 1.84 -1.63" stroke="#000000" stroke-width="1.5" fill="none" stroke-dasharray="8 9"></path></g><g stroke-linecap="round" transform="translate(773.8504412382108 714.0163543816851) rotate(269.97732772573056 0.8406853230865181 0.840685323086575)"><path d="M2.51 1.31 C2.45 0.88, 1.08 -1.1, 1.16 -1.36 C1.24 -1.62, 2.67 -0.89, 3.01 -0.25 C3.35 0.39, 3.55 2.19, 3.23 2.5 C2.9 2.81, 1.88 1.65, 1.07 1.61 C0.26 1.57, -1.76 2.26, -1.63 2.27 C-1.5 2.28, 1.32 2.3, 1.86 1.68 C2.39 1.05, 1.67 -0.94, 1.58 -1.5 C1.5 -2.07, 1.37 -1.8, 1.35 -1.73 C1.33 -1.66, 1.67 -1.29, 1.45 -1.1 C1.23 -0.91, -0.06 -1.11, 0.02 -0.57" stroke="none" stroke-width="0" fill="#000"></path><path d="M2.43 -0.13 C2.25 -0.25, 1.02 0.61, 1.02 0.63 C1.03 0.65, 2.58 -0.01, 2.44 -0.02 C2.3 -0.04, 0.21 0.24, 0.18 0.54 C0.16 0.84, 2.19 1.43, 2.28 1.78 C2.38 2.13, 0.96 2.92, 0.75 2.65 C0.54 2.38, 1.26 0.61, 1.04 0.15 C0.82 -0.31, -0.47 0.16, -0.58 -0.1 C-0.7 -0.37, -0.1 -1.16, 0.34 -1.44 C0.79 -1.72, 1.94 -2.16, 2.09 -1.78 C2.23 -1.4, 1.52 0.82, 1.2 0.83" stroke="#000000" stroke-width="1.5" fill="none" stroke-dasharray="8 9"></path></g><g stroke-linecap="round"><g transform="translate(777.6359079843287 210.1636611764659) rotate(0 -1.5029958774766783 -98.50693229204194)"><path d="M0 0 C-0.5 -32.84, -2.5 -164.18, -3.01 -197.01" stroke="#000000" stroke-width="1.5" fill="none" stroke-dasharray="8 9"></path></g></g><g stroke-linecap="round"><g transform="translate(777.4778957628705 515.715758632812) rotate(0 -1.4524030397597016 98.65219214956028)"><path d="M0 0 C-0.48 32.88, -2.42 164.42, -2.9 197.3" stroke="#000000" stroke-width="1.5" fill="none" stroke-dasharray="8 9"></path></g></g><g stroke-linecap="round" transform="translate(413.04520559885486 169.77914711450444) rotate(0 56.864802105813624 54.30859385877119)"><path d="M0.13 1.42 L113 1.09 L114.25 109.2 L-1.46 107.62" stroke="none" stroke-width="0" fill="#fff"></path><path d="M1.55 0.56 C33.54 -1.79, 69.63 -1.94, 112.7 0.49 M-0.58 0.32 C30.66 -0.17, 63.05 -0.54, 114.24 0.22 M113.63 1.22 C112.67 26.53, 111.7 50.19, 112.34 107.7 M113.13 -0.21 C112.64 31.77, 113.95 64.74, 113.88 109.35 M112.71 108.42 C67.48 106.77, 23.67 108.6, 1.57 107.01 M113.99 109.29 C88.93 109.78, 66.65 109.14, -0.17 109.25 M-0.31 108.73 C-1.4 79.57, 0.83 53.33, 0.79 0.91 M0.71 107.83 C-1.69 85.02, -1.2 60.01, -0.62 -0.32" stroke="#000000" stroke-width="1" fill="none"></path></g><g transform="translate(436.41000770462824 210.884279201229) rotate(0 33.5 12)"><text x="33.5" y="17" font-family="Virgil, Segoe UI Emoji" font-size="18.618047516930353px" fill="#000000" text-anchor="middle" style="white-space: pre;" direction="ltr">Queries</text></g><g stroke-linecap="round" transform="translate(424.04520559885486 480.77914711450444) rotate(0 56.864802105813624 54.30859385877119)"><path d="M-1.21 -1.47 L112.44 -0.05 L114.24 108.28 L-0.6 110.18" stroke="none" stroke-width="0" fill="#fff"></path><path d="M1.41 -1.03 C33.1 -0.69, 68.96 1.39, 114.17 0.21 M0.93 0.79 C40.76 -0.98, 80.76 0.07, 112.92 -0.92 M115.59 -0.39 C113.53 23.8, 114.08 43.75, 114.64 107.43 M114.34 0.42 C114.91 31.95, 115.07 62.57, 113.68 108.58 M115.56 110.29 C91.55 108.99, 67.31 108.71, -1.84 109.22 M112.91 109.09 C80.65 107.87, 46.6 108.2, -0.42 109.59 M0.83 106.98 C2.03 69.25, -1.49 27.04, 1.38 -1.69 M0.26 109.28 C-0.88 79.14, -1.47 51, -0.27 -0.83" stroke="#000000" stroke-width="1" fill="none"></path></g><g transform="translate(439.6273990089758 529.5799313751421) rotate(0 43.891304347826235 11.326788218793865)"><text x="43.891304347826235" y="15.653576437587734" font-family="Virgil, Segoe UI Emoji" font-size="17.573556772642593px" fill="#000000" text-anchor="middle" style="white-space: pre;" direction="ltr">Mutations</text></g><g stroke-linecap="round"><g transform="translate(528.4660141614982 242.31082621748715) rotate(0 23.9898775547872 7.720109829161629)"><path d="M0 0 C8 2.57, 39.98 12.87, 47.98 15.44 M0 0 C8 2.57, 39.98 12.87, 47.98 15.44" stroke="#000000" stroke-width="1" fill="none"></path></g></g><g stroke-linecap="round"><g transform="translate(539.4660141614982 500.23351446056324) rotate(0 24.4898775547872 -14.4293359828157)"><path d="M0 0 C8.16 -4.81, 40.82 -24.05, 48.98 -28.86 M0 0 C8.16 -4.81, 40.82 -24.05, 48.98 -28.86" stroke="#000000" stroke-width="1" fill="none"></path></g></g><g stroke-linecap="round" transform="translate(581.366592900305 221.71664711450444) rotate(0 56.864802105813624 54.30859385877119)"><path d="M1.09 0.52 L114.31 -1.46 L112.73 108.45 L-1.11 108.82" stroke="none" stroke-width="0" fill="#fff"></path><path d="M-0.71 0.41 C42.06 -0.42, 86.34 0.11, 114.28 1.31 M0.57 0.49 C27.78 1.21, 55.38 0.07, 112.81 -0.1 M114.55 -1.03 C113.18 30.63, 113.48 63.93, 112.77 110.36 M113.56 0.74 C114.37 26.27, 114.23 53.13, 114.17 108 M112.58 107.4 C86.08 109.15, 55.47 105.78, -1.08 110.41 M113.87 109.4 C76.19 107.46, 40.29 107.2, 0.39 109.31 M-1.11 109.88 C0.52 78.5, 0.85 45.24, 1.9 -0.07 M0.5 108.45 C0.45 67.66, 0.54 28.01, 0.71 -0.37" stroke="#087f5b" stroke-width="1" fill="none"></path></g><g transform="translate(600.2313950060825 251.821779201229) rotate(0 38 24)"><text x="38" y="17" font-family="Virgil, Segoe UI Emoji" font-size="18.618047516930353px" fill="#000000" text-anchor="middle" style="white-space: pre;" direction="ltr">Query</text><text x="38" y="41" font-family="Virgil, Segoe UI Emoji" font-size="18.618047516930353px" fill="#000000" text-anchor="middle" style="white-space: pre;" direction="ltr">Handlers</text></g><g stroke-linecap="round" transform="translate(593.366592900305 378.71664711450444) rotate(0 56.864802105813624 54.30859385877119)"><path d="M-0.05 0.51 L113.39 -0.6 L115.29 107.61 L1.87 110.47" stroke="none" stroke-width="0" fill="#fff"></path><path d="M-1.15 1.4 C43.07 0.83, 84.47 1.44, 112.8 1.18 M-0.31 0.56 C45.41 -1.56, 88.42 -1.7, 113.97 -0.14 M115.27 0.09 C112.75 43.58, 112.33 85.05, 115.05 108.69 M114.6 0.62 C114.6 39.19, 114.15 77.51, 112.86 108.03 M114.76 108.55 C69.98 107.34, 25.32 109.17, -1.24 108.71 M112.93 109.56 C88.49 109.29, 65.14 110.47, -0.09 107.72 M1.53 107.03 C1.1 72.91, -0.8 33.73, 1.66 -0.6 M-0.76 108.05 C-0.91 72.95, -1.55 37.21, -0.74 -0.64" stroke="#087f5b" stroke-width="1" fill="none"></path></g><g transform="translate(611.2313950060825 408.821779201229) rotate(0 39 24)"><text x="39" y="17" font-family="Virgil, Segoe UI Emoji" font-size="18.618047516930353px" fill="#000000" text-anchor="middle" style="white-space: pre;" direction="ltr">Command</text><text x="39" y="41" font-family="Virgil, Segoe UI Emoji" font-size="18.618047516930353px" fill="#000000" text-anchor="middle" style="white-space: pre;" direction="ltr">Handlers</text></g><g stroke-linecap="round" transform="translate(874.3617166189824 385.4005304505579) rotate(0 51.03068715452878 48.73673626529637)"><path d="M0.58 -1.46 L101.06 -0.17 L100.95 97.67 L0.69 95.77" stroke="none" stroke-width="0" fill="#fff"></path><path d="M-0.86 -1.03 C25.65 -0.71, 50.86 1.1, 100.91 0.64 M0.21 0.51 C24.53 -1.13, 47.69 -0.6, 102.01 0.61 M100.85 -1.39 C101.55 28.83, 101.51 59.65, 100.87 97.04 M102.94 0.15 C102.63 24.54, 102.34 46.66, 101.55 97.38 M102.74 99.04 C79.17 95.06, 58.42 98.64, 0.51 98.81 M101.56 97.31 C80.98 97.84, 59.02 98.96, -0.15 97.53 M0.58 98.27 C1.45 71.42, 2.44 48.42, 1.43 -1.57 M-0.41 96.86 C-0.81 74.74, 0.22 51.52, 0.54 0.26" stroke="#c92a2a" stroke-width="1" fill="none"></path></g><g transform="translate(880.9765187247567 412.5918302923392) rotate(0 44.484375 22.8125)"><text x="44.484375000000014" y="16.812500000000004" font-family="Virgil, Segoe UI Emoji" font-size="17.303578884369315px" fill="#000000" text-anchor="middle" style="white-space: pre;" direction="ltr">IPost</text><text x="44.484375000000014" y="39.62500000000001" font-family="Virgil, Segoe UI Emoji" font-size="17.303578884369315px" fill="#000000" text-anchor="middle" style="white-space: pre;" direction="ltr">Repository</text></g><g stroke-linecap="round"><g transform="translate(977.4230909280404 460.7088150966646) rotate(0 26.141697615380508 13.356351980151885)"><path d="M0 0 C8.71 4.45, 43.57 22.26, 52.28 26.71" stroke="#000000" stroke-width="1.5" fill="none" stroke-dasharray="8 9"></path></g></g><g stroke-linecap="round" transform="translate(1032.0221172250886 465.3976655228515) rotate(0 51.03068715452878 48.73673626529637)"><path d="M-1.11 0.2 L102.75 -1.71 L103.35 98.56 L0.49 98.86" stroke="none" stroke-width="0" fill="#fa5252"></path><path d="M0.55 1.31 C24.23 0.89, 49.53 1.4, 103.04 0.41 M-0.92 -0.1 C35.77 1.25, 71.61 1.06, 101.55 -0.61 M101.11 1.74 C100.42 22.04, 100.47 44.6, 103.53 99.23 M102.5 -0.61 C102.27 30.64, 101.86 60.91, 101.45 97.81 M100.98 99.26 C63.94 97.9, 23.05 96.85, 1.56 96.48 M102.46 98.17 C72.99 97.09, 43.73 96.48, 0.63 97.77 M1.9 97.4 C0.98 62.79, -1.77 32.26, -0.33 -0.82 M0.71 97.11 C0.85 74.52, 0.6 50.31, -0.5 -0.08" stroke="#000000" stroke-width="1" fill="none"></path></g><g transform="translate(1051.853376337719 496.0816680771421) rotate(0 29.778314470993337 19.08866312243157)"><text x="29.778314470993294" y="27.177326244863117" font-family="Virgil, Segoe UI Emoji" font-size="30.541860995890552px" fill="#fff" text-anchor="middle" style="white-space: pre;" direction="ltr">Impl</text></g><g stroke-linecap="round"><g transform="translate(248.79564953108365 361.68147386018813) rotate(0 80.97382243881407 -69.06863611598578)"><path d="M0 0 C26.99 -23.02, 134.96 -115.11, 161.95 -138.14 M0 0 C26.99 -23.02, 134.96 -115.11, 161.95 -138.14" stroke="#343a40" stroke-width="2" fill="none"></path></g><g transform="translate(248.79564953108365 361.68147386018813) rotate(0 80.97382243881407 -69.06863611598578)"><path d="M147.16 -112.04 C151.19 -119.16, 155.23 -126.28, 161.95 -138.14 M147.16 -112.04 C151.47 -119.64, 155.78 -127.25, 161.95 -138.14" stroke="#343a40" stroke-width="2" fill="none"></path></g><g transform="translate(248.79564953108365 361.68147386018813) rotate(0 80.97382243881407 -69.06863611598578)"><path d="M133.84 -127.65 C141.51 -130.51, 149.18 -133.37, 161.95 -138.14 M133.84 -127.65 C142.03 -130.71, 150.22 -133.76, 161.95 -138.14" stroke="#343a40" stroke-width="2" fill="none"></path></g></g><g stroke-linecap="round"><g transform="translate(410.14180337723747 221.8737815524958) rotate(0 -80.56463909964737 70.93136388401419)"><path d="M0 0 C-26.85 23.64, -134.27 118.22, -161.13 141.86 M0 0 C-26.85 23.64, -134.27 118.22, -161.13 141.86" stroke="#343a40" stroke-width="2" fill="none"></path></g><g transform="translate(410.14180337723747 221.8737815524958) rotate(0 -80.56463909964737 70.93136388401419)"><path d="M-146.75 115.53 C-150.15 121.76, -153.56 127.99, -161.13 141.86 M-146.75 115.53 C-152.5 126.06, -158.25 136.58, -161.13 141.86" stroke="#343a40" stroke-width="2" fill="none"></path></g><g transform="translate(410.14180337723747 221.8737815524958) rotate(0 -80.56463909964737 70.93136388401419)"><path d="M-133.19 130.94 C-139.8 133.52, -146.41 136.11, -161.13 141.86 M-133.19 130.94 C-144.36 135.3, -155.53 139.67, -161.13 141.86" stroke="#343a40" stroke-width="2" fill="none"></path></g></g><g stroke-linecap="round"><g transform="translate(248.86072963291144 360.27703180587116) rotate(0 85.89780412703067 90.15942943840315)"><path d="M0 0 C28.63 30.05, 143.16 150.27, 171.8 180.32 M0 0 C28.63 30.05, 143.16 150.27, 171.8 180.32" stroke="#343a40" stroke-width="2" fill="none"></path></g><g transform="translate(248.86072963291144 360.27703180587116) rotate(0 85.89780412703067 90.15942943840315)"><path d="M144.92 166.99 C151.32 170.16, 157.72 173.34, 171.8 180.32 M144.92 166.99 C154.23 171.61, 163.54 176.22, 171.8 180.32" stroke="#343a40" stroke-width="2" fill="none"></path></g><g transform="translate(248.86072963291144 360.27703180587116) rotate(0 85.89780412703067 90.15942943840315)"><path d="M159.78 152.83 C162.64 159.38, 165.5 165.93, 171.8 180.32 M159.78 152.83 C163.94 162.35, 168.11 171.88, 171.8 180.32" stroke="#343a40" stroke-width="2" fill="none"></path></g></g><g stroke-linecap="round"><g transform="translate(418.09149886368004 537.969339498179) rotate(0 -84.1021958729691 -87.91749363851994)"><path d="M0 0 C-28.03 -29.31, -140.17 -146.53, -168.2 -175.83 M0 0 C-28.03 -29.31, -140.17 -146.53, -168.2 -175.83" stroke="#343a40" stroke-width="2" fill="none"></path></g><g transform="translate(418.09149886368004 537.969339498179) rotate(0 -84.1021958729691 -87.91749363851994)"><path d="M-141.3 -162.56 C-148.84 -166.28, -156.38 -170, -168.2 -175.83 M-141.3 -162.56 C-151.09 -167.39, -160.87 -172.22, -168.2 -175.83" stroke="#343a40" stroke-width="2" fill="none"></path></g><g transform="translate(418.09149886368004 537.969339498179) rotate(0 -84.1021958729691 -87.91749363851994)"><path d="M-156.13 -148.37 C-159.51 -156.07, -162.9 -163.76, -168.2 -175.83 M-156.13 -148.37 C-160.52 -158.36, -164.91 -168.35, -168.2 -175.83" stroke="#343a40" stroke-width="2" fill="none"></path></g></g><g stroke-linecap="round"><g transform="translate(1136.184405930489 514.074065514539) rotate(0 94.72094916351148 -25.355481043457985)"><path d="M1.37 2.53 C33.28 -6.78, 159.05 -44.18, 190.78 -53.24 M-1.34 1.44 C30.25 -6.22, 156.47 -40.05, 188.42 -49.74" stroke="#343a40" stroke-width="2" fill="none"></path></g><g transform="translate(1136.184405930489 514.074065514539) rotate(0 94.72094916351148 -25.355481043457985)"><path d="M167.7 -32.51 C170.07 -36.14, 178.75 -43.07, 185.49 -50.78 M165.06 -31.41 C171.22 -38.89, 179.96 -44.22, 186.62 -48.44" stroke="#343a40" stroke-width="2" fill="none"></path></g><g transform="translate(1136.184405930489 514.074065514539) rotate(0 94.72094916351148 -25.355481043457985)"><path d="M162.12 -52.26 C166.39 -50.54, 176.6 -52.05, 185.49 -50.78 M159.47 -51.15 C167.63 -51.76, 178.32 -50.22, 186.62 -48.44" stroke="#343a40" stroke-width="2" fill="none"></path></g></g><g stroke-linecap="round"><g transform="translate(1315.3624994204934 469.8249215236648) rotate(0 -88.10518920831373 20.929945209473374)"><path d="M1.18 -0.25 C-28.32 7.07, -146.24 35.22, -176.44 42.4 M-1.63 -2.85 C-31.33 4.86, -147.25 36.76, -177.39 44.71" stroke="#343a40" stroke-width="2" fill="none"></path></g><g transform="translate(1315.3624994204934 469.8249215236648) rotate(0 -88.10518920831373 20.929945209473374)"><path d="M-153.2 30.84 C-164.34 31.5, -171.55 38.26, -181.34 48.54 M-152.52 29.16 C-159.52 33.3, -171.49 40.36, -178.32 44.15" stroke="#343a40" stroke-width="2" fill="none"></path></g><g transform="translate(1315.3624994204934 469.8249215236648) rotate(0 -88.10518920831373 20.929945209473374)"><path d="M-147.85 50.65 C-160.49 45.02, -169.41 45.44, -181.34 48.54 M-147.17 48.98 C-156.35 45.89, -170.25 45.78, -178.32 44.15" stroke="#343a40" stroke-width="2" fill="none"></path></g></g></svg>