<svg version="1.1" xmlns="http://www.w3.org/2000/svg" viewBox="0 0 1582.3809275555222 729.7971605506266" width="1582.3809275555222" height="729.7971605506266">
  <!-- svg-source:excalidraw -->
  
  <defs>
    <style>
      @font-face {
        font-family: "Virgil";
        src: url("https://excalidraw.com/Virgil.woff2");
      }
      @font-face {
        font-family: "Cascadia";
        src: url("https://excalidraw.com/Cascadia.woff2");
      }
    </style>
  </defs>
  <rect x="0" y="0" width="1582.3809275555222" height="729.7971605506266" fill="#ffffff"></rect><g stroke-linecap="round"><g transform="translate(822.438609288105 191.05597059366033) rotate(269.97732772573056 -0.9988234080374809 175.2557181997562)"><path d="M-0.19 0.14 C50.72 28.97, 100.51 60.32, 150.81 85.36 M-1.77 -0.49 C58.49 31.02, 113.24 66.93, 149.7 84.93 M148.48 83.98 C146.35 149.54, 151.66 204.12, 151.34 259.51 M151.04 87.61 C151.49 145.01, 149.63 199.49, 152.24 258.86 M146.54 259.72 C105.68 284.17, 60.27 315.75, -0.22 347.61 M149.42 258.74 C113.99 284.52, 78.16 306.17, 0.1 345.95 M-1.03 351.01 C-38.61 327.55, -79.18 301.33, -154.23 261.52 M-1.27 346.9 C-41.78 324.26, -82.01 298.41, -149.58 261.69 M-146.94 258.06 C-144.82 213.21, -148.58 164.1, -151.53 82.91 M-151.69 262.38 C-151.22 223.47, -149.75 187.33, -150.75 85.39 M-146.42 86.93 C-94.31 55.19, -36.43 24.7, -0.32 3.04 M-149.64 85.3 C-115.68 63.24, -78.86 42.2, -1.6 0.14" stroke="#000000" stroke-width="1" fill="none"></path></g></g><g transform="translate(776.7631367048325 322.6730753020466) rotate(0 49.5 43)"><text x="49.5" y="30" font-family="Virgil, Segoe UI Emoji" font-size="33.533171673474094px" fill="#000000" text-anchor="middle" style="white-space: pre;" direction="ltr">Use</text><text x="49.5" y="73" font-family="Virgil, Segoe UI Emoji" font-size="33.533171673474094px" fill="#000000" text-anchor="middle" style="white-space: pre;" direction="ltr">Cases</text></g><g stroke-linecap="round" transform="translate(820.0687591435872 212.9023538916063) rotate(0 0.7125000000008299 0.7125000000008583)"><path d="M0.93 -1.73 C1.08 -2.1, 3.17 -1.46, 3.25 -1.14 C3.32 -0.82, 1.78 0.08, 1.38 0.17 C0.98 0.26, 1.02 -0.9, 0.85 -0.61 C0.68 -0.33, 0.58 1.52, 0.33 1.86 C0.09 2.2, -0.91 1.62, -0.64 1.42 C-0.36 1.22, 1.81 1.05, 1.97 0.68 C2.13 0.32, 0.24 -0.95, 0.33 -0.76 C0.41 -0.57, 2.47 1.91, 2.48 1.81 C2.49 1.71, 0.75 -1.17, 0.38 -1.34 C0.02 -1.51, 0.16 0.45, 0.31 0.8" stroke="none" stroke-width="0" fill="#000"></path><path d="M2.43 -1.17 C2.69 -1.34, 2.37 -2.19, 2.12 -1.57 C1.87 -0.95, 1.21 2.26, 0.93 2.55 C0.64 2.84, 0.13 0.47, 0.42 0.17 C0.71 -0.13, 3 0.43, 2.68 0.76 C2.37 1.09, -0.96 1.89, -1.45 2.15 C-1.94 2.41, -0.34 2.81, -0.24 2.31 C-0.15 1.8, -0.71 -0.83, -0.91 -0.88 C-1.1 -0.92, -1.88 1.93, -1.42 2.04 C-0.96 2.15, 1.37 0.17, 1.88 -0.23 C2.38 -0.62, 1.66 -0.31, 1.6 -0.31" stroke="#000" stroke-width="1.5" fill="none" stroke-dasharray="8 9"></path></g><g stroke-linecap="round" transform="translate(819.4506139822988 513.7967366956327) rotate(0 1.330645161290704 1.330645161290704)"><path d="M3.85 -1.38 C4.1 -1.09, 2.79 -0.08, 2.54 0.12 C2.28 0.32, 2.45 -0.62, 2.31 -0.16 C2.17 0.3, 2.04 2.39, 1.7 2.89 C1.37 3.39, 0.19 2.97, 0.29 2.84 C0.39 2.71, 2.32 2.54, 2.31 2.11 C2.3 1.69, 0.22 0.27, 0.21 0.3 C0.2 0.33, 2.26 2.62, 2.25 2.3 C2.24 1.98, 0.25 -1.48, 0.13 -1.62 C0.02 -1.76, 1.26 0.7, 1.56 1.45 C1.87 2.21, 1.78 3.15, 1.96 2.92" stroke="none" stroke-width="0" fill="#000"></path><path d="M1.77 -1.69 C1.66 -1.29, 1.31 1.75, 1.28 1.98 C1.25 2.21, 1.07 -0.12, 1.6 -0.29 C2.12 -0.47, 4.64 0.34, 4.43 0.91 C4.22 1.48, 0.9 2.62, 0.33 3.13 C-0.24 3.64, 1.16 4.32, 1.03 3.95 C0.9 3.59, 0.01 1.03, -0.44 0.95 C-0.9 0.87, -1.95 3.57, -1.7 3.48 C-1.44 3.39, 0.46 1.06, 1.1 0.41 C1.74 -0.24, 1.85 -0.35, 2.15 -0.41 C2.44 -0.46, 3.12 -0.13, 2.89 0.08" stroke="#000000" stroke-width="1.5" fill="none" stroke-dasharray="8 9"></path></g><g stroke-linecap="round"><g transform="translate(818.3157481159633 -40.73822921478853) rotate(269.97732772573056 0.14788646088049973 405.6476170002661)"><path d="M0.95 -1.01 C132.49 74.8, 265.13 152.69, 351.02 202.85 M-0.59 0.09 C106.53 62.55, 214.04 123.91, 352.04 201.97 M350.48 204.94 C355.13 312.61, 356.72 426.07, 352.97 607.84 M352.05 202.81 C347.93 295.86, 347.98 389.05, 351.07 609.26 M351.46 606.88 C235.95 678.19, 114.07 748.24, -0.32 809.72 M351.64 609.97 C252.44 664.76, 152.38 723.2, 0.99 811.32 M0.04 812.31 C-75.11 766.54, -152.27 724.85, -350.4 608.3 M1.06 811.84 C-141.95 734.38, -280.14 653.02, -351.75 608.17 M-351.81 608.58 C-347.25 494.37, -348.41 375.53, -353.12 204.85 M-351.67 609.68 C-355.57 509.72, -356.19 412.76, -351.11 202.2 M-350.82 204.53 C-210.65 119.71, -67.76 41.34, -2.1 2.18 M-352.27 203.76 C-243.93 142.74, -137.81 80.36, 0.74 0.39" stroke="#000000" stroke-width="1" fill="none"></path></g></g><g stroke-linecap="round" transform="translate(817.5808677946497 13.307180789146571) rotate(269.97732772573056 0.29156867509573203 0.2915686750957178)"><path d="M1.03 -0.32 C1.01 -0.29, 1.4 -0.31, 1.18 -0.06 C0.95 0.2, -0.32 0.79, -0.33 1.2 C-0.34 1.6, 0.89 2.5, 1.13 2.38 C1.37 2.26, 1.58 0.49, 1.1 0.47 C0.61 0.45, -1.35 2.32, -1.78 2.27 C-2.21 2.21, -1.71 0.57, -1.51 0.14 C-1.3 -0.28, -0.54 -0.18, -0.54 -0.26 C-0.55 -0.34, -1.79 -0.25, -1.53 -0.33 C-1.28 -0.4, 0.6 -1.12, 0.98 -0.71 C1.36 -0.3, 0.84 1.96, 0.74 2.15" stroke="none" stroke-width="0" fill="#000"></path><path d="M-0.31 -0.06 C-0.39 -0.12, 0.39 -0.12, 0.42 -0.27 C0.44 -0.41, -0.22 -1.08, -0.17 -0.95 C-0.11 -0.82, 0.75 0.01, 0.75 0.53 C0.74 1.05, 0.06 1.99, -0.21 2.15 C-0.47 2.3, -0.6 1.83, -0.83 1.49 C-1.07 1.14, -2.09 0.38, -1.63 0.05 C-1.17 -0.28, 1.8 -0.81, 1.92 -0.49 C2.04 -0.17, -0.56 2.2, -0.93 1.97 C-1.3 1.74, -0.67 -1.5, -0.3 -1.86 C0.07 -2.23, 0.97 -0.38, 1.29 -0.22" stroke="#000000" stroke-width="1.5" fill="none" stroke-dasharray="8 9"></path></g><g stroke-linecap="round" transform="translate(817.0317511466346 715.7554246659356) rotate(269.97732772573056 0.840685323086575 0.840685323086575)"><path d="M1.32 -0.37 C1.27 -0.21, 0.27 0.37, 0.46 0.83 C0.65 1.29, 2.1 2.34, 2.45 2.38 C2.81 2.43, 3.09 0.91, 2.59 1.1 C2.09 1.28, 0.02 3.39, -0.56 3.48 C-1.14 3.57, -0.88 2.04, -0.87 1.64 C-0.87 1.23, -0.36 1.26, -0.53 1.07 C-0.7 0.87, -2.09 0.74, -1.9 0.47 C-1.7 0.19, 0.06 -0.89, 0.65 -0.59 C1.25 -0.29, 1.54 1.96, 1.69 2.28 C1.83 2.6, 1.72 1.33, 1.5 1.34" stroke="none" stroke-width="0" fill="#000"></path><path d="M0.87 -0.27 C1 -0.45, 0.5 -1.08, 0.66 -0.89 C0.82 -0.7, 1.79 0.25, 1.82 0.88 C1.86 1.51, 1.18 2.61, 0.87 2.88 C0.57 3.16, 0.34 2.81, 0 2.52 C-0.34 2.23, -1.52 1.5, -1.18 1.15 C-0.84 0.8, 2 0.19, 2.04 0.42 C2.08 0.65, -0.54 2.87, -0.94 2.52 C-1.34 2.18, -0.87 -1.18, -0.37 -1.64 C0.13 -2.09, 1.5 -0.4, 2.04 -0.21 C2.58 -0.02, 3.23 -0.26, 2.85 -0.49" stroke="#000000" stroke-width="1.5" fill="none" stroke-dasharray="8 9"></path></g><g stroke-linecap="round"><g transform="translate(820.8172178927525 211.90273146071655) rotate(0 -1.5029958774766783 -98.50693229204194)"><path d="M0 0 C-0.5 -32.84, -2.5 -164.18, -3.01 -197.01" stroke="#000000" stroke-width="1.5" fill="none" stroke-dasharray="8 9"></path></g></g><g stroke-linecap="round"><g transform="translate(820.6592056712943 517.4548289170616) rotate(0 -1.4524030397597016 98.65219214956028)"><path d="M0 0 C-0.48 32.88, -2.42 164.42, -2.9 197.3" stroke="#000000" stroke-width="1.5" fill="none" stroke-dasharray="8 9"></path></g></g><g stroke-linecap="round" transform="translate(415.2265155072783 414.5182173987542) rotate(0 56.86480210581357 54.30859385877119)"><path d="M0.22 1.93 L115.67 -1.52 L112.83 110.11 L1.95 107.92" stroke="none" stroke-width="0" fill="#82c91e"></path><path d="M0.03 -0.24 C26.53 -1.05, 48.28 2.05, 112.03 0.64 M0.08 0.3 C28.71 0, 57.51 -1.22, 114.3 0.79 M113.95 -0.33 C111.17 33.28, 113.35 66.08, 112.56 108.59 M112.83 -0.84 C114.18 39.66, 114.1 80, 114.32 107.84 M114.06 108.51 C70.14 109.22, 30.35 108.39, 1.79 107.45 M114.39 109.25 C74.09 108.95, 35.51 107.5, 0.36 108.02 M1.88 108.75 C-0.25 78.3, -0.16 44.63, 0.65 1.11 M-0.7 108.65 C-0.11 76.7, -0.04 43.87, 0.14 -0.12" stroke="#000000" stroke-width="1" fill="none"></path></g><g transform="translate(426.67465094638493 448.62334948547874) rotate(0 47.45833333333337 17)"><text x="47.45833333333336" y="24.00000000000003" font-family="Virgil, Segoe UI Emoji" font-size="26.375567315651356px" fill="#fff" text-anchor="middle" style="white-space: pre;" direction="ltr">Queries</text></g><g stroke-linecap="round" transform="translate(441.2265155072783 159.5182173987542) rotate(0 56.86480210581357 54.30859385877119)"><path d="M-0.01 -0.46 L115.42 1.62 L112.64 108.24 L-0.65 108.04" stroke="none" stroke-width="0" fill="#82c91e"></path><path d="M-1.16 0.18 C28.97 2.06, 52.63 1.54, 112.95 -0.33 M-0.28 -0.93 C38.54 0.42, 75.97 0.15, 113.37 0.21 M114.86 0.59 C112.55 25.76, 114.27 53.65, 113.65 107.01 M113.33 0.4 C113.8 31.41, 113.3 61.68, 114.3 108.45 M115.61 109.63 C76.28 111.02, 43.72 109.78, 0.79 108.77 M114.44 108.41 C87.48 107.46, 63.5 108.65, 0.83 108.87 M-1.73 109.07 C1.26 76.11, 2.13 45.08, 0.95 -1.86 M0.24 109.03 C0.54 79.93, 0.79 49.55, 0.35 0.87" stroke="#000000" stroke-width="1" fill="none"></path></g><g transform="translate(455.6329842797183 193.62334948547874) rotate(0 44.5 17)"><text x="44.5" y="24" font-family="Virgil, Segoe UI Emoji" font-size="26.375567315651356px" fill="#fff" text-anchor="middle" style="white-space: pre;" direction="ltr">Events</text></g><g stroke-linecap="round" transform="translate(500.2265155072783 566.5182173987544) rotate(0 56.86480210581357 54.30859385877119)"><path d="M1.51 -1.93 L115.18 1.76 L112.37 110.21 L-0.21 110.19" stroke="none" stroke-width="0" fill="#82c91e"></path><path d="M-0.01 1.65 C41.93 -0.54, 79.09 1.05, 115.67 0.97 M0.78 -1 C45.02 0.59, 89.23 1.5, 114.57 0.1 M112.61 0.42 C114.55 27.68, 112.85 58.14, 115.26 108.12 M113.74 0.22 C113.58 40.56, 112.92 80.63, 112.96 109.08 M112.7 108.89 C71.7 110.42, 34.99 110.45, 0.55 107.85 M113.35 108.14 C75.18 109.21, 37.3 108.74, -0.22 108.81 M-1.59 108.5 C1.69 69.68, 0.11 32.2, 1.36 -1.25 M0.76 109.45 C-0.63 85.9, -1.59 64.2, -0.76 0.52" stroke="#000000" stroke-width="1" fill="none"></path></g><g transform="translate(507.4663176130517 613.6233494854787) rotate(0 50.0625 13.5)"><text x="50.062500000000014" y="19" font-family="Virgil, Segoe UI Emoji" font-size="20.945303456546654px" fill="#fff" text-anchor="middle" style="white-space: pre;" direction="ltr">Commands</text></g><g stroke-linecap="round" transform="translate(83.03798400404793 501.8773423674273) rotate(0 65.0533336090507 62.12903137443425)"><path d="M1.56 -0.39 L131.85 1.67 L130.04 123.4 L1.42 122.58" stroke="none" stroke-width="0" fill="#228be6"></path><path d="M-1.56 -1.34 C33.79 -1.32, 62.79 1.66, 129.49 1.29 M0.88 -0.82 C27.41 -0.4, 55.65 1.48, 129.27 -0.45 M129.22 1.79 C131.43 45.69, 131.82 96.01, 128.95 126.11 M130.33 0.53 C129.31 40.26, 128.97 81.02, 129.21 123.65 M129.86 123.45 C96.17 126.46, 64.3 123.68, -0.28 124.71 M130.32 125.12 C100.83 124.35, 73.28 125.91, 0.14 124.68 M-0.76 124.5 C1.68 97.9, 1.57 66.21, 1.31 -0.1 M-0.5 123.68 C-0.52 98.67, -0.29 73.06, 0.06 0.87" stroke="#000000" stroke-width="1" fill="none"></path></g><g transform="translate(94.59131761305167 530.3336134746414) rotate(0 56.46428571428575 34)"><text x="56.464285714285744" y="24.000000000000007" font-family="Virgil, Segoe UI Emoji" font-size="25.863127722090127px" fill="#fff" text-anchor="middle" style="white-space: pre;" direction="ltr">API </text><text x="56.464285714285744" y="58.000000000000014" font-family="Virgil, Segoe UI Emoji" font-size="25.863127722090127px" fill="#fff" text-anchor="middle" style="white-space: pre;" direction="ltr">Gateway</text></g><g stroke-linecap="round"><g transform="translate(530.3991806032275 442.0855438812053) rotate(0 38.99126285221075 -11.475004384693875)"><path d="M0 0 C13 -3.83, 64.99 -19.13, 77.98 -22.95 M0 0 C13 -3.83, 64.99 -19.13, 77.98 -22.95" stroke="#000000" stroke-width="1" fill="none"></path></g></g><g stroke-linecap="round"><g transform="translate(558.3991806032275 217.72226372804556) rotate(0 46.49126285221081 23.80658355440599)"><path d="M0 0 C15.5 7.94, 77.49 39.68, 92.98 47.61 M0 0 C15.5 7.94, 77.49 39.68, 92.98 47.61" stroke="#000000" stroke-width="1" fill="none"></path></g></g><g stroke-linecap="round"><g transform="translate(616.2524547113828 616.7294195743809) rotate(0 35.81849420947617 -52.57081872365046)"><path d="M0 0 C11.94 -17.52, 59.7 -87.62, 71.64 -105.14 M0 0 C11.94 -17.52, 59.7 -87.62, 71.64 -105.14" stroke="#000000" stroke-width="1" fill="none"></path></g></g><g stroke-linecap="round" transform="translate(609.381706307649 343.4557173987542) rotate(0 48.52126330227617 46.34011699002144)"><path d="M-1.52 -0.9 L98.54 1.95 L96.34 94.32 L0.24 91.11" stroke="none" stroke-width="0" fill="#fff"></path><path d="M-1.32 -1.37 C31.04 -2.52, 59.17 -1.85, 98.28 1.4 M0.79 0.93 C29.44 0.16, 60.52 -0.29, 96.25 0.28 M96.49 0.48 C95.31 27.66, 96.86 59.1, 97.65 92.83 M96.32 0.04 C95.5 20.06, 95.48 39.64, 97.72 93.28 M96.96 93.58 C65.4 93.77, 34.4 92.88, 0.44 91.6 M97.99 93 C61.02 92.68, 25.39 92.27, -0.36 92.64 M1.78 92.13 C0.14 56.84, 1.05 19.67, 0.85 0.7 M0.57 93.09 C0.19 71.48, -0.15 50.11, 0.96 0.97" stroke="#087f5b" stroke-width="1" fill="none"></path></g><g transform="translate(629.7449240407616 369.14364713095705) rotate(0 28.15804556913099 20.47857859573162)"><text x="28.15804556913101" y="14.478578595731644" font-family="Virgil, Segoe UI Emoji" font-size="15.886297890605185px" fill="#000000" text-anchor="middle" style="white-space: pre;" direction="ltr">Query</text><text x="28.15804556913101" y="34.95715719146329" font-family="Virgil, Segoe UI Emoji" font-size="15.886297890605185px" fill="#000000" text-anchor="middle" style="white-space: pre;" direction="ltr">Handler</text></g><g stroke-linecap="round" transform="translate(653.381706307649 204.4557173987542) rotate(0 48.52126330227617 46.34011699002144)"><path d="M1.66 1.65 L97.9 -1.48 L96.31 93.58 L1.09 90.73" stroke="none" stroke-width="0" fill="#fff"></path><path d="M0.81 -1.19 C33.72 1.27, 63.22 1.05, 96.76 0.28 M-0.5 0.04 C19.75 0.02, 40.98 -1.41, 97.35 -0.41 M96.41 0.11 C95.15 27.74, 97.78 56.17, 97.79 93.5 M96.8 -0.69 C95.72 23.81, 97.26 47.24, 97.55 92.33 M99 92.97 C74.7 92.7, 52.73 94.16, 0.4 92.9 M97.47 92.3 C66.18 92.52, 34.45 93.33, -0.42 91.97 M0.65 94.55 C1.55 67.55, 1.04 43.54, -1.06 -1.3 M-0.36 93.24 C-0.13 67.94, 1.33 43.95, 0.87 0.95" stroke="#087f5b" stroke-width="1" fill="none"></path></g><g transform="translate(673.4029696098926 230.14364713095705) rotate(0 28.5 21)"><text x="28.5" y="15" font-family="Virgil, Segoe UI Emoji" font-size="15.886297890605185px" fill="#000000" text-anchor="middle" style="white-space: pre;" direction="ltr">Event</text><text x="28.5" y="36" font-family="Virgil, Segoe UI Emoji" font-size="15.886297890605185px" fill="#000000" text-anchor="middle" style="white-space: pre;" direction="ltr">Handler</text></g><g stroke-linecap="round" transform="translate(691.2349804158036 462.39267113625357) rotate(0 48.52126330227617 46.34011699002144)"><path d="M1.45 1.76 L95.68 1.59 L96.83 94.26 L-1.78 92.66" stroke="none" stroke-width="0" fill="#fff"></path><path d="M1.95 -0.29 C30.38 0.51, 64.43 0.18, 98.86 1.38 M0.57 -0.01 C24.29 1.86, 48.79 1.06, 96.68 -0.3 M98.19 -0.95 C95.97 19.53, 98.05 36.8, 98.45 92.04 M97.24 0.32 C96.59 23.86, 96.28 47.9, 97.58 93.12 M95.3 93.43 C60.8 93.59, 21.43 92.04, 0.75 93.28 M96.85 93.25 C68.02 92.32, 38.21 92.41, 0.47 92.59 M1.59 91.38 C0.75 63.28, 2.1 34.92, -1.91 1.17 M0.01 92.15 C-1.65 68.92, -1.46 45.77, 0.76 -0.96" stroke="#087f5b" stroke-width="1" fill="none"></path></g><g transform="translate(706.4785534999851 488.080600868458) rotate(0 33.277690218063924 20.47857859573162)"><text x="33.27769021806393" y="14.478578595731644" font-family="Virgil, Segoe UI Emoji" font-size="15.886297890605206px" fill="#000000" text-anchor="middle" style="white-space: pre;" direction="ltr">Command</text><text x="33.27769021806393" y="34.95715719146329" font-family="Virgil, Segoe UI Emoji" font-size="15.886297890605206px" fill="#000000" text-anchor="middle" style="white-space: pre;" direction="ltr">Handler</text></g><g stroke-linecap="round" transform="translate(917.5430265274063 387.13960073480854) rotate(0 51.03068715452878 48.73673626529637)"><path d="M1.5 1.95 L101.36 1.64 L102.3 95.9 L0.39 99.4" stroke="none" stroke-width="0" fill="#fff"></path><path d="M1.78 -1.7 C39.95 -0.33, 79.86 2.1, 102.22 0.6 M-0.42 0.57 C35.68 -0.83, 68.98 -0.66, 102.17 -0.17 M100.48 -1.17 C101.76 22.39, 102.4 42.07, 100.26 95.79 M101.3 0.59 C100.58 31.11, 102.03 61.41, 102.23 97.42 M101.15 99.27 C77.68 98.84, 56.07 96.85, 1.32 98.74 M101.56 97.84 C74.64 97.75, 48.05 97.76, 0.94 97.54 M0.2 98.13 C0.24 71.37, -0.02 45.99, -1.4 0.08 M0.22 97.61 C-0.67 64.91, 0.41 33.09, -0.76 -0.45" stroke="#c92a2a" stroke-width="1" fill="none"></path></g><g transform="translate(941.4078286331805 417.38645613214527) rotate(0 26.5 24)"><text x="26.5" y="17" font-family="Virgil, Segoe UI Emoji" font-size="18.618047516930353px" fill="#000000" text-anchor="middle" style="white-space: pre;" direction="ltr">Post </text><text x="26.5" y="41" font-family="Virgil, Segoe UI Emoji" font-size="18.618047516930353px" fill="#000000" text-anchor="middle" style="white-space: pre;" direction="ltr">store</text></g><g stroke-linecap="round" transform="translate(917.5430265274063 235.13960073480848) rotate(0 51.03068715452878 48.73673626529637)"><path d="M-0.1 -0.12 L103.14 0.57 L101.03 96.2 L0.33 98.53" stroke="none" stroke-width="0" fill="#fff"></path><path d="M1.15 1.75 C22.76 0.23, 47.67 0.77, 100.61 0.94 M-0.85 0.49 C26.24 -0.64, 52.9 0.12, 101.5 0.74 M101 0.5 C100.79 37.72, 99.86 76.15, 100.68 96.65 M101.67 -0.44 C102.74 22.49, 102.72 43.91, 102.35 97.6 M102.83 96.85 C74.6 97.68, 45.71 96.97, -1.77 95.65 M102.7 97.61 C72.35 98.34, 41.67 99.04, 0.5 97.87 M0.68 98.41 C-0.82 69.31, 0.86 41.09, 1.08 -1.09 M0.09 97.02 C0.88 72.49, 0.97 46.56, 0.77 0.98" stroke="#c92a2a" stroke-width="1" fill="none"></path></g><g transform="translate(934.9078286331805 265.3864561321452) rotate(0 33 24)"><text x="33" y="17" font-family="Virgil, Segoe UI Emoji" font-size="18.618047516930353px" fill="#000000" text-anchor="middle" style="white-space: pre;" direction="ltr">Event</text><text x="33" y="41" font-family="Virgil, Segoe UI Emoji" font-size="18.618047516930353px" fill="#000000" text-anchor="middle" style="white-space: pre;" direction="ltr">Handler</text></g><g stroke-linecap="round"><g transform="translate(1020.6044008364638 463.9439763712092) rotate(0 26.141697615380508 13.87177250957842)"><path d="M0 0 C8.71 4.62, 43.57 23.12, 52.28 27.74 M0 0 C8.71 4.62, 43.57 23.12, 52.28 27.74" stroke="#000000" stroke-width="1" fill="none"></path></g></g><g stroke-linecap="round" transform="translate(1075.2034271335124 470.7081643785305) rotate(0 51.03068715452878 48.73673626529637)"><path d="M0.24 -1.57 L102.45 1.93 L101.43 96.85 L0.03 97.36" stroke="none" stroke-width="0" fill="#fa5252"></path><path d="M1.24 1.4 C22.12 1.12, 44.76 2.11, 103.91 -0.85 M-0.79 0.28 C36.5 -0.28, 71.93 -0.39, 102.3 -0.79 M102.67 0.15 C100.25 21.84, 102.29 45.59, 102.14 95.94 M102.73 0.6 C101.47 34.97, 100.57 70.01, 102.51 97.02 M102.5 96.39 C63.62 99.2, 21.79 99.83, 0.64 96.47 M101.7 97.44 C68.66 97.5, 33.05 98.32, -0.28 97.57 M0.85 98.17 C-1.94 65.13, 0.16 33.77, 0.83 0.44 M0.96 98.44 C-0.65 66.42, 0.86 37.26, -0.35 0.82" stroke="#000000" stroke-width="1" fill="none"></path></g><g transform="translate(1078.9100109214676 477.1584006990549) rotate(0 47.5 42)"><text x="47.5" y="20" font-family="Virgil, Segoe UI Emoji" font-size="21.814588268617836px" fill="#fff" text-anchor="middle" style="white-space: pre;" direction="ltr">MongoDB</text><text x="47.5" y="48" font-family="Virgil, Segoe UI Emoji" font-size="21.814588268617836px" fill="#fff" text-anchor="middle" style="white-space: pre;" direction="ltr">Post </text><text x="47.5" y="76" font-family="Virgil, Segoe UI Emoji" font-size="21.814588268617836px" fill="#fff" text-anchor="middle" style="white-space: pre;" direction="ltr">store</text></g><g stroke-linecap="round" transform="translate(1088.2034271335124 149.7081643785305) rotate(0 51.03068715452878 48.73673626529637)"><path d="M0.32 0.63 L102.01 1.19 L100.39 96.28 L0.98 98.91" stroke="none" stroke-width="0" fill="#fa5252"></path><path d="M-1.81 -0.53 C35.24 1.27, 69.42 0.41, 100.93 1.2 M0.61 -0.19 C34.81 -0.75, 70.74 -0.35, 101.15 -0.4 M103.21 0.29 C99.84 20.52, 99.62 42.75, 102.27 99.28 M101.36 -0.57 C102.01 28.98, 102.6 56.57, 101.25 96.8 M100.86 97.44 C72.11 96.26, 40.04 97.76, 1.47 97.61 M101.86 97.1 C70.81 97.1, 39.83 98.25, -0.97 97.36 M0.93 98.77 C-0.45 62.08, 1.08 27.57, -1.87 1.44 M0.1 97.08 C-1.44 77.31, -0.93 57.43, -0.6 0.58" stroke="#000000" stroke-width="1" fill="none"></path></g><g transform="translate(1088.9100109214676 156.15840069905488) rotate(0 50.5 42)"><text x="50.5" y="20" font-family="Virgil, Segoe UI Emoji" font-size="21.814588268617836px" fill="#fff" text-anchor="middle" style="white-space: pre;" direction="ltr">RabbitMQ</text><text x="50.5" y="48" font-family="Virgil, Segoe UI Emoji" font-size="21.814588268617836px" fill="#fff" text-anchor="middle" style="white-space: pre;" direction="ltr">Event</text><text x="50.5" y="76" font-family="Virgil, Segoe UI Emoji" font-size="21.814588268617836px" fill="#fff" text-anchor="middle" style="white-space: pre;" direction="ltr">Store</text></g><g stroke-linecap="round"><g transform="translate(1361.303340690322 450.0348500895255) rotate(0 67.33707648034874 76.41263921567042)" fill-rule="evenodd"><path d="M2.91 -1.45 C2.91 -1.45, 2.91 -1.45, 2.91 -1.45 M2.91 -1.45 C2.91 -1.45, 2.91 -1.45, 2.91 -1.45 M1.98 4.18 C5.19 2.58, 6.78 1.27, 9.83 -4.34 M2.18 4.64 C5.41 1.19, 8.41 -1.41, 10.4 -3.66 M1.89 12.27 C7.36 6.18, 11.64 3.84, 17.9 -4.02 M3.17 11.07 C6.1 5.86, 10.45 1.86, 16.52 -5.08 M4.56 15.83 C6.16 12.13, 13.43 6.46, 24.52 -5.4 M2.41 16 C10.39 7.01, 18.97 -0.85, 24.76 -6.57 M1.81 24.52 C11.91 13.8, 18.66 3.54, 29.41 -6.57 M2.28 24.07 C11.5 12.28, 22.06 0.57, 30.43 -9.02 M1.99 31.21 C11.65 21.06, 20.26 9.39, 35.49 -8.72 M2.57 30.22 C11.26 19.61, 19.1 11.29, 33.78 -6.64 M0.84 36.53 C12.75 25.33, 21.54 16.31, 41.56 -6.56 M3.57 36.3 C15.73 20.34, 29.5 3.95, 39.18 -7.13 M0.76 41.84 C12.8 30.76, 21.47 16.2, 45.72 -6.28 M1.46 41.98 C17.28 24.53, 32.3 7.76, 46.67 -7.69 M4.67 46.75 C17.8 27.06, 37.47 8.17, 52.52 -9.59 M2.3 48.14 C22.29 27.19, 39 6.27, 51.21 -9.23 M3.97 53.88 C16.57 41.81, 28.7 25.4, 56.88 -9.45 M2.15 53.46 C18.07 36.07, 32.12 19.45, 56.75 -8.23 M0.43 58.3 C16.07 46.09, 26.35 33.55, 61.35 -7.36 M3.02 59.82 C17.81 42.72, 32.07 24.46, 63.62 -10.09 M1.47 64.61 C22.1 44.49, 45.34 17.11, 69.38 -10.53 M2.32 65.16 C25.34 39.51, 49.77 12.24, 67.9 -10.51 M3.39 71.9 C24.9 44.39, 49.99 16.68, 73.89 -8.46 M2.2 72.36 C23.84 45.42, 47.11 19.87, 74.12 -10.12 M0.61 79.97 C29.52 44.87, 59.4 13.49, 76.49 -8.4 M2.93 79.39 C20.37 56.06, 39.39 36.33, 78.63 -8.15 M0.94 82.39 C19.83 62.94, 38.07 39.94, 82.76 -10.35 M2.26 84.11 C20.06 63.21, 39.44 40.77, 83.01 -9.47 M0.83 91.47 C25.77 61.84, 51.88 36.17, 87.53 -8.33 M2.84 91.26 C24.1 64.72, 48.61 37.07, 87.39 -8.03 M3.26 95.75 C24.77 69.74, 49.15 44.27, 90.7 -6.62 M2.21 95.72 C31.36 64.72, 58.74 31.46, 92.52 -7.2 M1.7 104.78 C33.51 66.95, 61.05 32.89, 98.62 -8.5 M2.88 103.22 C30.08 68.87, 58.8 35.91, 97.18 -6.67 M1.99 110.59 C30.23 76.79, 56.69 42.56, 103.9 -4.49 M2.35 109.66 C26.05 81.53, 50.84 54.86, 102.15 -6.81 M1.6 116.69 C37.59 75.26, 70.15 41.07, 106.04 -4.91 M2.48 114.01 C31.13 81.05, 59.25 48.24, 106.99 -5.3 M0.89 123.11 C28.48 91.54, 54.69 61.05, 112.69 -5.05 M2.89 121.19 C40.94 75.82, 79.01 32.1, 113.35 -6.5 M0.36 128.61 C39.39 83.25, 79.85 40.15, 116.19 -5.72 M2.33 128.19 C29.83 92.84, 59.57 58.19, 117.75 -4.07 M3.86 131.69 C29.49 102.56, 54.77 72.25, 120.87 -4.75 M2.01 132.92 C40.58 89.83, 77.49 47.43, 120.86 -2.63 M1.92 139.58 C30.39 108.55, 57.25 77.93, 127.57 -5.47 M3.06 139.13 C30.38 108.12, 57.79 74.88, 126.28 -4.34 M1.58 145.78 C42.75 98.68, 79.52 56.98, 129.67 0.06 M2.48 145.74 C41.35 98.76, 81.77 52.63, 130.63 -2.28 M1.7 151.61 C27.51 121.58, 57.21 85.87, 132.39 -1.36 M2.49 152.29 C33.73 115.08, 65.32 77.33, 134.71 0.79 M4.14 157.08 C56.85 92.95, 111.62 34.73, 137.82 2.16 M4.27 156.09 C34.27 122.08, 62.56 88.61, 137.95 1.82 M5.81 156.39 C51.93 105.27, 99.64 53.99, 138.18 6.36 M7.31 158.31 C46.9 113.75, 84.39 69.03, 137.29 7.38 M11.78 157.22 C57.63 106.33, 104.21 50.98, 138.92 14.09 M11.39 159.05 C39.59 127.49, 65.97 96.14, 136.82 13.75 M14.63 159.67 C46.27 126.38, 77.29 89.67, 137.76 20.01 M15.74 160.59 C49.52 121.54, 82.45 82.57, 137.84 19.75 M18.29 163.17 C56.98 121.29, 89.33 82.99, 139.11 27.49 M19.08 162.91 C67.69 109.17, 114.56 53.98, 137.53 26.09 M25.97 162.89 C63.09 117.07, 103.43 70.98, 135.88 34.13 M23.62 163.75 C67.11 115, 109.27 66.86, 136.95 32.62 M29.5 165.02 C56.35 135.29, 84.26 102.78, 137.48 40.55 M28.55 163.84 C66.61 120.61, 106.98 74.89, 137.17 39.03 M33.08 165.96 C57.88 135.22, 86.31 104.86, 135.69 43.83 M33.94 163.95 C62.33 131.03, 92.27 95.76, 137.19 44.2 M37.38 165.13 C66.03 133.06, 93.55 102.9, 135.9 50.55 M38.91 165.56 C77.97 118.36, 117.73 73.57, 137.41 51.06 M43.33 164.67 C77.69 126.65, 111.64 86.79, 136.44 57.82 M43.61 164.46 C64.71 142.1, 85.47 117.96, 137 57.51 M48.73 164.98 C72.11 141.41, 92.28 114.49, 138.37 62.67 M47.92 166.12 C77.44 132.57, 105.71 98.29, 137.88 63.74 M54.2 166.68 C78.68 137.95, 101.9 110.04, 137.53 70.95 M53.51 165.58 C78.23 137.61, 102.85 108.1, 136.82 68.9 M57.76 164.42 C91.22 128.4, 122.33 92.16, 138.34 74.7 M58.56 165.09 C79.75 143.42, 100.16 119.46, 137.45 76.45 M64.02 165.05 C79.03 148.9, 93.9 127.67, 137.14 81.21 M65.11 166.2 C88.29 139.4, 110.13 112.73, 137.65 81.03 M70.83 165.43 C94.87 134.98, 122.09 105.41, 137.38 86.03 M69.79 165.4 C83.57 147.96, 98.17 131.84, 136.94 87.37 M75.17 166.42 C93.46 139.63, 116.14 115.34, 139.57 94.43 M73.82 165.99 C88 150.66, 102.31 136.22, 138.46 93.61 M79.06 166.85 C94.45 150.89, 105.84 135.07, 137.2 98.21 M79.12 165.98 C99.64 144.09, 118.95 122.49, 137.11 99.99 M84.84 164.57 C97.36 150.55, 109.55 135.15, 139.27 104.36 M85.62 164.94 C98.25 152.68, 109.4 138.83, 138.14 105.42 M90.39 164.91 C108.97 145.72, 125.33 125.29, 138.29 111.9 M90.7 164.38 C101.97 152.79, 112.76 139.97, 137.32 112.13 M97.71 164.18 C109.17 150.97, 121.75 134.81, 136.12 117.33 M95.81 165.12 C108.24 152.72, 118.03 139.81, 136.86 119.05 M102.21 164.45 C109.42 155.27, 117.72 145.24, 139.27 123.63 M101.95 163.94 C110.97 154.18, 121.67 142.32, 136.87 124.66 M109.9 164.28 C117.98 155.04, 128.26 142.83, 138.13 129.31 M108.94 164.16 C114.57 156.87, 120.34 149.11, 136.71 129.89 M114.7 165.47 C119.07 157.71, 125.98 149.42, 136.88 137.83 M112.89 164.31 C120.21 156.55, 127.61 147.18, 137 135.5 M120.97 162.28 C128.11 155.12, 136.28 146.95, 137.44 142.42 M120.81 161.22 C124.67 157.14, 127.21 152.85, 137.74 142.68 M127.91 161.36 C129.66 154.48, 136.05 151.84, 137.36 147.75 M127.35 160.09 C128.72 158.08, 131.52 155.33, 138.08 148.47 M2.06 154.63 C2.06 154.63, 2.06 154.63, 2.06 154.63 M2.06 154.63 C2.06 154.63, 2.06 154.63, 2.06 154.63 M13.63 159.6 C9.46 156.59, 7.15 152.75, 2.01 147.29 M12.46 158.2 C9.63 154.68, 5.18 152.22, 0.44 147.76 M20.18 156.69 C14.22 154.82, 8.76 148.85, 1.12 141.78 M19.25 159.17 C15.4 155.39, 11.3 151.06, 1.12 144.26 M24.93 161.77 C19.82 154.61, 7.98 145.61, -0.65 139.16 M26.1 159.36 C20.8 155.97, 15.03 150.34, 0.82 137 M32.36 161.25 C21.58 149.69, 11.38 140.66, 2.26 134.42 M33.41 159.71 C23.69 153.24, 16.13 144.03, 1.11 132.61 M37.96 159.2 C25.01 150.67, 13.48 139.54, 1.27 126.15 M40.26 160.08 C26.35 148.93, 13.81 139.63, 0.23 127.06 M46.82 162.32 C31.54 145.98, 15.38 133.41, 1.18 120.32 M44.81 159.84 C35.57 152.48, 24.47 141.87, 0.48 121.38 M52.45 160.09 C38.13 148.75, 28.08 139.63, 0.18 116.43 M51.26 161.8 C40.82 151.41, 29.33 141.57, 2.23 117.71 M57.95 159.47 C40.46 142.42, 19.56 127.4, 1.32 112.22 M59.14 160.86 C38.37 143.11, 16.47 122.71, 1.61 111.86 M65.33 159.66 C45.07 143.98, 28.64 127.79, 0.06 108.37 M64.75 160.58 C51.5 150.16, 36.31 137.46, 2.15 105.94 M74.99 164.84 C51.53 145.37, 28.97 125, 0.22 102.71 M72.77 163.81 C53.8 145.98, 32.61 129.07, 0.85 100.38 M81.16 162.34 C61.99 151.53, 48.46 137.27, 1.28 94.15 M79.83 162.8 C56.63 144.63, 34.59 124.42, 1.57 95.79 M85.03 163.22 C60.39 141.62, 35.21 116.37, 1.58 88.26 M85.72 163.56 C61.83 144.16, 40.53 125.2, 0.45 90.36 M88.61 163.15 C54.76 131.35, 22.28 103.09, 1.59 85.19 M91.47 162.68 C60.41 136.29, 30.37 110.58, 1.22 85.69 M95.09 163.8 C67.77 137.96, 37.69 113.05, -0.81 81.23 M95.74 162.57 C67.56 138.61, 41.27 114.1, 0.62 80.24 M102 163.58 C64.14 130.81, 29.68 97.54, 0.86 72.77 M102.16 162.07 C65.38 130.75, 30.53 99.63, 1.77 75.14 M106.53 160.38 C65.91 123.91, 23.93 87.87, 0.98 69.84 M106.76 161.09 C75.53 133.81, 44.68 108.23, 1.52 69.57 M114 161.68 C77.91 131.79, 43.93 100.01, 1.08 64.06 M112.54 160.58 C83.88 135.08, 54.97 110.39, 1.84 64.69 M117.35 161.29 C87.09 131.38, 53.05 105.95, 1.78 58.85 M117.14 159.12 C86.19 132.24, 54.89 103.43, 1.96 59.59 M120.16 160.07 C77.14 116.65, 29.25 76.84, 2.37 54.09 M121.93 157.57 C91.37 131.17, 58.99 103.25, 1.97 53.96 M125.91 156.73 C94.37 132.12, 66.41 104.13, 0.25 46.91 M125.42 155.69 C83.29 119.66, 40.23 81.61, 2.47 48.64 M129.43 156.55 C90.59 120.47, 52.97 88.37, 2.97 41.78 M130.86 154.76 C92.17 122.57, 54.73 90.3, 0.66 43.65 M136.71 152.78 C85.37 108.42, 33.5 61.07, 3.45 38.54 M136.11 152.88 C88.11 114.4, 42.09 72.24, 1.75 38.09 M136.84 148.82 C104.51 121.73, 74.36 94.7, 3.26 33.91 M135.76 148.98 C87.56 107.54, 37.97 64.49, 0.32 31.5 M136.08 144.15 C83.95 98.47, 31.72 49.45, -0.18 25.46 M137.32 144.64 C110.4 119.25, 81.18 94.97, 1.7 27.73 M136.56 139.83 C100.72 105.91, 61.96 76.92, 1.72 21.14 M136.02 139.48 C104.56 110.19, 73.55 82.55, 1.32 22.32 M138.05 133.25 C90.41 94.07, 44.39 56.16, -0.09 15.27 M136.71 133.77 C88.82 91.3, 42.37 50.78, 2.14 16.38 M134.69 128.92 C86.38 86.68, 35.57 42.86, 2.98 10.01 M136.74 129.08 C94.35 90.64, 49.83 53.44, 1.96 9.97 M138.25 122.45 C98.49 86.29, 57.31 52.31, 0.4 7.44 M137.34 124.2 C91.81 82.39, 46.66 43.76, 0.85 5.96 M137.39 118.07 C107.04 92.98, 75.26 65.62, 2.54 -0.4 M136.96 118.45 C84.83 73.28, 33.59 27.67, 1.24 0.06 M136.91 112.64 C95.43 73.43, 51.92 38.06, 2.37 -4.71 M136.69 111.62 C108.92 90.34, 82.75 65.41, 3.8 -2.6 M137.74 105.79 C90.75 69.05, 46.16 29.89, 10.54 -3.23 M136.37 107.96 C103.63 78.59, 69.68 47.88, 8.6 -4.83 M136.42 100.62 C103.81 72.4, 69.11 44.61, 11.27 -6.02 M136.19 102.78 C98.09 68.88, 58.02 36.56, 13.15 -5.33 M136.65 96.48 C105.97 68.83, 69.36 40.46, 18.21 -7.59 M136.37 97.07 C99.29 64.2, 61.24 30.22, 18.39 -6.92 M137.26 91.05 C111.69 69.16, 89.46 50.35, 24.12 -6.64 M137.21 91.49 C100.47 60.49, 64.26 28.39, 22.46 -8.4 M135.45 84.4 C106.57 59.2, 75.64 32.87, 29.16 -8.75 M136.54 86.28 C110.98 64.03, 84.74 42.25, 27.15 -9.4 M138.05 80.46 C95.31 44.97, 57.06 10.44, 33.35 -8.24 M137.03 80.62 C95.07 44.09, 53.29 9.01, 32.48 -10.31 M136.8 75.03 C111.43 55.15, 85.08 32.24, 38.63 -8.8 M137.64 76.49 C99.29 43.57, 63.76 11.61, 38.86 -11.08 M135.54 69.27 C116.11 52.72, 95.47 34.69, 43.78 -10.67 M136.91 70.1 C116.83 51.39, 96.58 34.02, 44.18 -10.53 M137.52 65.72 C112.73 44.93, 85.83 22.47, 48.75 -9.3 M136.39 65.68 C103.56 34.77, 67.85 5.39, 50.21 -11.07 M136.59 57.77 C109.74 36.16, 79.57 12.93, 56.08 -11.86 M136 58.93 C105.9 32.41, 75.5 5.69, 56.2 -11.43 M136.53 53.68 C116.88 38.71, 98.97 21.68, 60.74 -10.56 M137.43 54.86 C113.04 34.15, 89.55 13.54, 60.79 -12.02 M138.21 50.11 C122.08 36.07, 107.07 21.91, 67.55 -11.18 M135.44 49.17 C113.18 26.65, 88.59 6.78, 65.61 -11.64 M134.9 44.03 C120.53 30.45, 106.97 17.1, 73.74 -9.72 M137.33 44.13 C111.1 21.26, 86.58 0.52, 73.92 -12.25 M135.5 38.33 C124.78 27.36, 111.08 16.88, 80.39 -10.21 M136.25 37.94 C119.39 22.69, 101.81 6.94, 80.2 -10.83 M135.81 33.74 C122.76 21.61, 106.37 6.62, 88.24 -8.72 M136.62 32.64 C124.51 22.9, 111.13 12.71, 86.08 -9.66 M137.72 26.35 C118.91 14.68, 103.19 -0.87, 91.39 -9.23 M135.45 27.43 C119.35 12.54, 102.26 -1.19, 94.16 -10.15 M136.56 23.64 C123.52 10.94, 113.23 2.71, 100.61 -7.58 M135.76 22.6 C122.91 11.16, 109.15 -2.14, 101.44 -9.07 M136.23 17.95 C127.4 9.03, 118.71 0.22, 106.49 -10.02 M135.93 16.88 C125.36 7.57, 113.73 -2.39, 106.64 -9.08 M136.58 10.48 C127.9 5.75, 121.49 0.56, 115.58 -8.49 M137.13 11.31 C127.85 5.34, 118.79 -3.07, 114.37 -6.27 M136.51 4.95 C134.43 1.79, 128.3 1.62, 123.88 -4.6 M136.55 6.58 C133.88 4.29, 130.44 1.5, 122.95 -6" stroke="#40c057" stroke-width="0.5" fill="none"></path><path d="M0.74 2.13 C0.55 24.2, 0.03 111.34, 0.07 135.9 C0.11 160.46, -0.27 145.92, 0.97 149.5 C2.22 153.08, 2.65 155.07, 7.57 157.38 C12.49 159.68, 19.66 162.31, 30.48 163.32 C41.3 164.33, 58.99 163.84, 72.49 163.45 C85.98 163.05, 101.42 162.27, 111.43 160.96 C121.43 159.66, 128.37 157.63, 132.53 155.59 C136.68 153.55, 135.63 151.57, 136.34 148.72 C137.05 145.88, 136.99 161.03, 136.78 138.53 C136.58 116.02, 135.47 36.41, 135.11 13.69 C134.75 -9.04, 135.95 5.03, 134.64 2.18 C133.33 -0.68, 131.79 -1.88, 127.24 -3.45 C122.68 -5.02, 117.55 -5.88, 107.32 -7.24 C97.09 -8.6, 78.46 -11.36, 65.86 -11.62 C53.25 -11.89, 41.84 -10.39, 31.68 -8.82 C21.52 -7.25, 10.22 -4.23, 4.9 -2.2 C-0.43 -0.17, 0.57 2.66, -0.27 3.36 C-1.12 4.05, -0.17 1.98, -0.17 1.98 M-0.34 4.4 C-0.82 26.03, -1.26 109.64, -1.08 133.94 C-0.91 158.24, -0.83 146.09, 0.7 150.19 C2.23 154.29, 2.85 156.26, 8.1 158.56 C13.35 160.86, 21.24 162.85, 32.21 164.01 C43.17 165.17, 60.61 165.72, 73.89 165.53 C87.16 165.34, 102.28 164.55, 111.87 162.88 C121.45 161.21, 127.55 157.54, 131.41 155.48 C135.27 153.43, 134.56 153.34, 135.04 150.53 C135.52 147.73, 134.26 161.31, 134.27 138.64 C134.28 115.98, 134.7 37.37, 135.1 14.54 C135.51 -8.28, 137.89 4.77, 136.7 1.7 C135.51 -1.36, 133.04 -2.4, 127.98 -3.85 C122.91 -5.31, 116.63 -5.59, 106.33 -7.01 C96.02 -8.44, 78.48 -11.74, 66.15 -12.4 C53.83 -13.06, 42.29 -12.86, 32.4 -10.97 C22.51 -9.09, 12.48 -3.6, 6.81 -1.09 C1.13 1.41, -0.26 3.58, -1.67 4.06 C-3.08 4.54, -1.94 2.17, -1.65 1.8" stroke="#000000" stroke-width="1" fill="none"></path></g></g><g stroke-linecap="round"><g transform="translate(1361.8479621315291 552.9674077585234) rotate(0 68.01726183456503 6.91315569328799)"><path d="M-0.66 -0.15 C-0.13 0.89, 0.82 5.21, 3.91 7.21 C7 9.21, 11.89 10.82, 17.88 11.87 C23.86 12.92, 30.72 13.04, 39.82 13.51 C48.93 13.97, 61.05 14.84, 72.51 14.65 C83.97 14.45, 98.86 13.86, 108.58 12.33 C118.3 10.8, 126.15 7.47, 130.84 5.45 C135.53 3.44, 135.94 1.11, 136.7 0.25 M1.19 -1.4 C1.53 -0.75, -0.03 3.71, 3.13 5.58 C6.29 7.45, 13.98 8.39, 20.15 9.81 C26.32 11.24, 31.62 13.28, 40.15 14.15 C48.68 15.02, 59.79 15.54, 71.34 15.03 C82.89 14.52, 99.5 12.92, 109.45 11.09 C119.41 9.25, 126.67 5.82, 131.08 4.02 C135.49 2.21, 134.94 1.06, 135.9 0.27" stroke="#000000" stroke-width="1" fill="none"></path></g></g><g stroke-linecap="round"><g transform="translate(1360.300293707187 502.02933457779824) rotate(0 68.28228145701019 6.436705732972939)"><path d="M-0.39 0.56 C0.24 1.48, 1.19 3.26, 4.53 5.08 C7.86 6.9, 13.9 9.83, 19.61 11.48 C25.33 13.13, 30.07 14.6, 38.79 14.96 C47.51 15.32, 60.19 14.14, 71.92 13.64 C83.66 13.14, 99.3 13.22, 109.22 11.96 C119.14 10.69, 126.81 8.28, 131.43 6.07 C136.05 3.85, 136.03 -0.43, 136.96 -1.34 M1.6 -0.31 C2.1 0.76, 1.15 3.79, 4.07 5.99 C7 8.19, 13.38 11.76, 19.13 12.88 C24.88 13.99, 30.02 12.6, 38.57 12.7 C47.12 12.8, 58.47 13.25, 70.44 13.49 C82.42 13.74, 100.17 15.6, 110.43 14.18 C120.68 12.75, 127.67 7.67, 131.98 4.95 C136.29 2.23, 135.68 -1.29, 136.3 -2.15" stroke="#000000" stroke-width="1" fill="none"></path></g></g><g stroke-linecap="round" transform="translate(1358.1916074725914 439.87420068005855) rotate(0 67.62201798398905 13.67604439593157)"><path d="M93.77 0.62 C103.85 1.25, 114.83 2.93, 121.61 5 C128.39 7.06, 133.14 10.53, 134.45 13.01 C135.76 15.48, 133.96 17.98, 129.46 19.87 C124.96 21.76, 116.59 23.14, 107.46 24.33 C98.32 25.52, 85.69 26.61, 74.64 27.01 C63.59 27.42, 51.45 27.48, 41.15 26.74 C30.86 25.99, 19.57 24.41, 12.89 22.53 C6.21 20.64, 2.15 17.84, 1.1 15.44 C0.05 13.05, 2.29 10.34, 6.59 8.14 C10.88 5.94, 17.85 3.65, 26.87 2.26 C35.89 0.87, 48.84 0.01, 60.71 -0.19 C72.59 -0.39, 91.32 0.54, 98.12 1.05 C104.93 1.55, 102.1 2.38, 101.55 2.82 M48.12 -0.2 C57.6 -0.74, 69.79 0.09, 80.7 0.81 C91.61 1.52, 104.95 2.41, 113.59 4.07 C122.23 5.73, 128.96 8.66, 132.51 10.78 C136.06 12.9, 137.14 14.89, 134.89 16.8 C132.63 18.72, 126.99 20.69, 119 22.28 C111.01 23.87, 98.07 25.44, 86.97 26.35 C75.86 27.26, 63.04 27.92, 52.38 27.75 C41.72 27.57, 31.06 26.91, 23.02 25.31 C14.99 23.72, 7.64 20.44, 4.17 18.18 C0.69 15.91, 0.05 13.86, 2.17 11.73 C4.29 9.59, 9.35 7.12, 16.87 5.36 C24.4 3.61, 42.45 1.86, 47.34 1.18 C52.23 0.51, 46.05 0.99, 46.22 1.34" stroke="none" stroke-width="0" fill="#fff"></path><path d="M34.62 2.13 C43.49 0.76, 58.04 -0.73, 69.38 -0.85 C80.71 -0.98, 93.05 -0.01, 102.64 1.38 C112.22 2.78, 121.38 5.53, 126.91 7.52 C132.43 9.5, 135.97 10.93, 135.8 13.29 C135.63 15.66, 131.95 19.69, 125.88 21.73 C119.81 23.76, 109.42 24.56, 99.37 25.49 C89.31 26.41, 76.59 27.18, 65.55 27.27 C54.5 27.36, 42.73 27.07, 33.1 26.01 C23.46 24.94, 13.26 23.03, 7.74 20.86 C2.22 18.69, -0.31 15.29, -0.03 12.97 C0.26 10.65, 1.78 8.9, 9.46 6.94 C17.14 4.98, 37.79 2.24, 46.05 1.23 C54.3 0.23, 58.56 0.91, 59.01 0.91 M58.87 -0.74 C69.17 -0.99, 82.79 1.44, 93.26 2.45 C103.73 3.47, 114.87 3.63, 121.69 5.35 C128.51 7.08, 132.72 10.68, 134.18 12.79 C135.64 14.91, 134.71 16.1, 130.45 18.05 C126.2 20, 117.59 22.78, 108.66 24.48 C99.73 26.18, 87.93 28.18, 76.88 28.23 C65.84 28.29, 52.68 25.94, 42.39 24.81 C32.1 23.69, 22.35 22.89, 15.13 21.49 C7.91 20.08, 0.75 18.74, -0.95 16.38 C-2.65 14.03, 0.57 9.48, 4.94 7.38 C9.3 5.28, 16.36 5.18, 25.25 3.81 C34.14 2.43, 52.49 -0.24, 58.29 -0.85 C64.1 -1.46, 59.71 -0.38, 60.07 0.13" stroke="#000000" stroke-width="1" fill="none"></path></g><g stroke-linecap="round" transform="translate(1468.530255307303 477.794365833487) rotate(0 9.910654948430192 10.75609449301055)"><path d="M6.11 -0.05 C8.22 -1.03, 11.83 -0.47, 13.96 0.54 C16.09 1.55, 18.03 4.01, 18.88 6.02 C19.73 8.02, 19.38 10.34, 19.07 12.59 C18.75 14.83, 18.58 18.14, 16.98 19.49 C15.39 20.85, 11.83 20.89, 9.48 20.73 C7.14 20.57, 4.56 19.98, 2.91 18.54 C1.26 17.11, -0.31 14.36, -0.41 12.11 C-0.52 9.86, 0.76 7.1, 2.29 5.04 C3.82 2.99, 7.64 0.69, 8.78 -0.23 C9.91 -1.14, 9.24 -0.78, 9.1 -0.45 M13.43 0.67 C15.76 0.9, 18.56 2.69, 19.5 4.42 C20.44 6.14, 19.28 8.76, 19.05 11.01 C18.82 13.26, 19.69 16.29, 18.13 17.91 C16.57 19.53, 12.19 20.29, 9.67 20.71 C7.16 21.13, 4.84 21.38, 3.05 20.43 C1.26 19.47, -0.57 17.12, -1.08 14.98 C-1.59 12.84, -0.92 9.71, -0.03 7.61 C0.86 5.5, 2.34 3.74, 4.27 2.36 C6.21 0.98, 10.13 -0.5, 11.57 -0.69 C13 -0.87, 12.7 0.8, 12.89 1.24" stroke="none" stroke-width="0" fill="#fff"></path><path d="M12.61 0.26 C14.44 0.68, 15.87 2.14, 16.97 3.96 C18.06 5.78, 19.08 8.72, 19.17 11.17 C19.27 13.62, 18.99 16.86, 17.53 18.67 C16.06 20.48, 12.4 21.94, 10.38 22.04 C8.36 22.13, 7.11 20.67, 5.42 19.26 C3.73 17.85, 1.01 15.59, 0.23 13.6 C-0.56 11.62, -0.27 9.52, 0.71 7.37 C1.68 5.22, 4.01 1.9, 6.08 0.72 C8.15 -0.45, 12.08 0.41, 13.14 0.32 C14.2 0.23, 12.5 0.12, 12.41 0.17 M12.47 -0.59 C14.43 -0.13, 16.56 3.42, 17.78 5.47 C19.01 7.52, 20.14 9.61, 19.82 11.7 C19.51 13.79, 17.21 16.33, 15.9 18 C14.58 19.66, 13.91 21.56, 11.93 21.71 C9.94 21.85, 5.79 20.21, 3.98 18.89 C2.18 17.57, 1.76 15.9, 1.12 13.77 C0.47 11.64, -0.68 8.13, 0.11 6.11 C0.9 4.1, 3.59 2.45, 5.85 1.66 C8.12 0.88, 12.8 1.33, 13.69 1.39 C14.58 1.44, 11.46 2.23, 11.18 2" stroke="#000000" stroke-width="1" fill="none"></path></g><g stroke-linecap="round" transform="translate(1468.530255307303 525.0135802061502) rotate(0 9.910654948430192 10.75609449301055)"><path d="M4.6 1.78 C6.18 0.78, 9.52 0.25, 11.79 0.54 C14.05 0.84, 16.9 1.64, 18.21 3.54 C19.51 5.44, 19.71 9.58, 19.62 11.93 C19.53 14.29, 19.2 16.17, 17.68 17.66 C16.17 19.16, 12.75 20.61, 10.52 20.89 C8.3 21.17, 6.06 20.33, 4.33 19.35 C2.6 18.36, 0.77 16.96, 0.13 14.98 C-0.5 13.01, -0.36 9.88, 0.52 7.49 C1.4 5.1, 4.52 1.76, 5.41 0.62 C6.29 -0.53, 5.6 0.33, 5.82 0.64 M8.26 1.71 C10.02 0.85, 12.81 -0.48, 14.52 0.57 C16.22 1.62, 17.77 5.93, 18.5 8.01 C19.23 10.09, 19.58 11.25, 18.89 13.04 C18.19 14.83, 15.93 17.57, 14.32 18.73 C12.72 19.88, 11.01 20.26, 9.27 19.96 C7.53 19.66, 5.19 18.66, 3.88 16.93 C2.56 15.21, 1.42 11.9, 1.36 9.61 C1.3 7.32, 2.57 4.66, 3.5 3.18 C4.42 1.7, 6.05 1.08, 6.91 0.72 C7.77 0.35, 8.36 0.66, 8.66 0.97" stroke="none" stroke-width="0" fill="#fff"></path><path d="M10.52 -0.83 C12.61 -1.02, 14.91 0.54, 16.42 2.33 C17.94 4.13, 19.23 7.66, 19.62 9.93 C20 12.2, 19.8 13.96, 18.75 15.97 C17.69 17.98, 15.53 21.24, 13.31 21.98 C11.09 22.72, 7.52 21.49, 5.42 20.4 C3.32 19.32, 1.45 17.38, 0.73 15.46 C0.01 13.54, 0.62 11.01, 1.09 8.89 C1.57 6.78, 1.83 4.27, 3.58 2.76 C5.33 1.24, 10.16 0.1, 11.58 -0.18 C13.01 -0.47, 12.3 0.72, 12.15 1.05 M8 -0.34 C9.98 -0.62, 14.38 0.76, 16.25 2 C18.12 3.24, 18.88 4.65, 19.23 7.1 C19.58 9.55, 19.17 14.45, 18.35 16.67 C17.54 18.89, 16.25 19.56, 14.33 20.45 C12.41 21.33, 8.84 22.73, 6.84 21.99 C4.83 21.25, 3.4 18.06, 2.29 16.02 C1.18 13.98, -0.06 11.73, 0.17 9.75 C0.4 7.78, 2.02 6.02, 3.65 4.15 C5.29 2.29, 8.85 -0.7, 9.98 -1.43 C11.1 -2.16, 10.79 -0.79, 10.4 -0.2" stroke="#000000" stroke-width="1" fill="none"></path></g><g stroke-linecap="round" transform="translate(1468.530255307303 576.3345921778789) rotate(0 9.910654948430192 10.75609449301055)"><path d="M13.74 0.45 C15.82 1.24, 17.87 3.81, 18.76 5.79 C19.66 7.77, 19.37 10.08, 19.11 12.33 C18.84 14.59, 18.73 17.93, 17.17 19.33 C15.6 20.73, 12.07 20.83, 9.72 20.73 C7.37 20.63, 4.77 20.11, 3.09 18.71 C1.41 17.31, -0.22 14.6, -0.37 12.36 C-0.53 10.12, 0.91 7.28, 2.17 5.27 C3.43 3.25, 5.35 1.12, 7.19 0.26 C9.03 -0.61, 12.16 -0.14, 13.22 0.07 C14.28 0.29, 13.48 1.35, 13.56 1.56 M14.84 0.53 C16.49 1, 16.78 2.83, 17.78 4.78 C18.78 6.74, 21.29 10.01, 20.84 12.25 C20.4 14.5, 17.13 16.59, 15.1 18.27 C13.07 19.96, 10.83 22, 8.66 22.35 C6.48 22.7, 3.65 21.76, 2.08 20.36 C0.5 18.96, -0.44 16.21, -0.8 13.93 C-1.15 11.65, -1.14 9.06, -0.06 6.67 C1.02 4.28, 3.38 0.48, 5.69 -0.41 C8.01 -1.3, 12.49 1.04, 13.85 1.34 C15.2 1.65, 13.75 1.18, 13.82 1.43" stroke="none" stroke-width="0" fill="#fff"></path><path d="M5.49 0.4 C7.15 -0.54, 10.28 -0.46, 12.49 0.44 C14.71 1.34, 17.69 3.69, 18.77 5.79 C19.85 7.89, 19.2 10.94, 18.96 13.03 C18.72 15.13, 18.83 16.99, 17.32 18.35 C15.81 19.71, 12.17 20.95, 9.89 21.21 C7.6 21.47, 5.11 21.41, 3.6 19.93 C2.1 18.46, 1.14 14.77, 0.85 12.37 C0.57 9.96, 0.75 7.62, 1.9 5.5 C3.04 3.39, 6.32 0.7, 7.71 -0.32 C9.1 -1.33, 10.06 -0.8, 10.24 -0.57 M12.14 1.05 C14.16 1.62, 16.98 2.68, 18.12 4.37 C19.25 6.06, 18.9 8.82, 18.93 11.19 C18.95 13.56, 19.65 16.98, 18.28 18.61 C16.9 20.23, 12.89 20.71, 10.68 20.95 C8.48 21.18, 6.91 21.24, 5.03 20.02 C3.15 18.81, 0.1 15.82, -0.59 13.63 C-1.29 11.45, -0.36 8.88, 0.86 6.93 C2.08 4.98, 5.05 2.81, 6.75 1.94 C8.44 1.07, 10.17 2.21, 11.04 1.73 C11.92 1.26, 11.63 -0.79, 12 -0.9" stroke="#000000" stroke-width="1" fill="none"></path></g><g transform="translate(1375.1973054319383 628.2743155510079) rotate(0 52.46153846153845 15.5)"><text x="0" y="22.000000000000014" font-family="Virgil, Segoe UI Emoji" font-size="23.846153846153847px" fill="#000000" text-anchor="start" style="white-space: pre;" direction="ltr">MongoDB</text></g><g stroke-linecap="round"><g transform="translate(1175.231298166423 521.4022599913803) rotate(0 93.04802442506525 3.223438984427162)"><path d="M0.18 -0.48 C31.4 0.5, 156.28 5.38, 187.28 6.85 M-1.18 -1.77 C29.88 -0.7, 154.74 6.83, 186.35 8.22" stroke="#000000" stroke-width="1" fill="none"></path></g><g transform="translate(1175.231298166423 521.4022599913803) rotate(0 93.04802442506525 3.223438984427162)"><path d="M27.95 -9.61 C19.83 -8.7, 13.78 -4.41, 1.21 -0.95 M28.77 -9.49 C22.44 -7.82, 14.98 -5.73, 0.29 -1.4" stroke="#000000" stroke-width="1" fill="none"></path></g><g transform="translate(1175.231298166423 521.4022599913803) rotate(0 93.04802442506525 3.223438984427162)"><path d="M27.17 10.9 C19.12 5.73, 13.3 3.94, 1.21 -0.95 M27.99 11.01 C21.66 7.76, 14.39 4.93, 0.29 -1.4" stroke="#000000" stroke-width="1" fill="none"></path></g><g transform="translate(1175.231298166423 521.4022599913803) rotate(0 93.04802442506525 3.223438984427162)"><path d="M156.86 17.03 C165.58 12.54, 176.5 11.5, 187.38 7.75 M157.69 17.14 C164.93 14.29, 171.21 12.07, 186.46 7.3" stroke="#000000" stroke-width="1" fill="none"></path></g><g transform="translate(1175.231298166423 521.4022599913803) rotate(0 93.04802442506525 3.223438984427162)"><path d="M157.94 -3.46 C166.5 -1.88, 177.11 3.17, 187.38 7.75 M158.77 -3.35 C165.94 -1.28, 171.95 1.42, 186.46 7.3" stroke="#000000" stroke-width="1" fill="none"></path></g></g><g stroke-linecap="round"><g transform="translate(412.85558713695156 443.5061882744304) rotate(0 -97.61512245681911 49.2956144070655)"><path d="M-0.33 -0.05 C-33.13 16.76, -163.59 83.21, -196.3 99.71 M1.69 -1.12 C-31.26 15.47, -163.77 81.21, -196.92 98.14" stroke="#000000" stroke-width="1" fill="none"></path></g><g transform="translate(412.85558713695156 443.5061882744304) rotate(0 -97.61512245681911 49.2956144070655)"><path d="M-20.87 22.93 C-11.85 14.96, -6.06 5.01, 0.71 -1.12 M-21.49 22.07 C-15.2 16.08, -8.29 8.26, -0.21 -0.16" stroke="#000000" stroke-width="1" fill="none"></path></g><g transform="translate(412.85558713695156 443.5061882744304) rotate(0 -97.61512245681911 49.2956144070655)"><path d="M-30.19 4.64 C-18.14 2.96, -9.16 -0.72, 0.71 -1.12 M-30.8 3.79 C-21.53 3.53, -11.71 1.42, -0.21 -0.16" stroke="#000000" stroke-width="1" fill="none"></path></g><g transform="translate(412.85558713695156 443.5061882744304) rotate(0 -97.61512245681911 49.2956144070655)"><path d="M-176.42 77.34 C-181.86 84.26, -190.14 89.3, -195.88 97.06 M-177.04 76.49 C-183.35 84.03, -189.24 89.86, -196.8 98.03" stroke="#000000" stroke-width="1" fill="none"></path></g><g transform="translate(412.85558713695156 443.5061882744304) rotate(0 -97.61512245681911 49.2956144070655)"><path d="M-167.21 95.68 C-175.63 96.29, -187.06 95.05, -195.88 97.06 M-167.82 94.83 C-177.1 96.61, -185.87 96.73, -196.8 98.03" stroke="#000000" stroke-width="1" fill="none"></path></g></g><g stroke-linecap="round"><g transform="translate(493.9385774045947 624.1427450179276) rotate(0 -138.53738474267539 -17.00116180553556)"><path d="M1.08 0.01 C-45.3 -5.42, -231.03 -26.96, -277.51 -32.49 M0.2 -1.03 C-46.37 -6.77, -231.72 -28.3, -278.16 -34.02" stroke="#000000" stroke-width="1" fill="none"></path></g><g transform="translate(493.9385774045947 624.1427450179276) rotate(0 -138.53738474267539 -17.00116180553556)"><path d="M-28.08 7.89 C-15.46 4.56, -5.87 0.35, 0.58 -0.38 M-28.93 6.83 C-18.38 4.29, -7.24 2.67, 1.98 -0.91" stroke="#000000" stroke-width="1" fill="none"></path></g><g transform="translate(493.9385774045947 624.1427450179276) rotate(0 -138.53738474267539 -17.00116180553556)"><path d="M-25.71 -12.49 C-13.94 -8.29, -5.23 -4.99, 0.58 -0.38 M-26.56 -13.56 C-16.83 -9.08, -6.51 -3.68, 1.98 -0.91" stroke="#000000" stroke-width="1" fill="none"></path></g><g transform="translate(493.9385774045947 624.1427450179276) rotate(0 -138.53738474267539 -17.00116180553556)"><path d="M-248.93 -39.92 C-257.81 -37.64, -269.73 -36.77, -278.67 -34.4 M-249.78 -40.99 C-259.35 -39.02, -268.33 -35.89, -277.26 -34.94" stroke="#000000" stroke-width="1" fill="none"></path></g><g transform="translate(493.9385774045947 624.1427450179276) rotate(0 -138.53738474267539 -17.00116180553556)"><path d="M-251.36 -19.54 C-259.36 -24.79, -270.39 -31.43, -278.67 -34.4 M-252.21 -20.61 C-260.94 -25.65, -269.08 -29.54, -277.26 -34.94" stroke="#000000" stroke-width="1" fill="none"></path></g></g><g stroke-linecap="round"><g transform="translate(1367.907976115994 28.925729918487235) rotate(89.99999999999994 50.41595149057218 138.67094395468945)" fill-rule="evenodd"><path d="M4.1 2.24 C4.1 2.24, 4.1 2.24, 4.1 2.24 M4.1 2.24 C4.1 2.24, 4.1 2.24, 4.1 2.24 M0.57 13.57 C5.07 10.15, 5.54 5.84, 13.66 -4.01 M0.15 12.64 C2.6 8.63, 5.88 5.54, 14.88 -4.35 M-1.01 19.82 C9.94 7.54, 20.72 -3.39, 26.38 -10.08 M0.51 18.02 C6.54 10.31, 11.49 5.69, 23.65 -9 M-0.6 22.83 C9.12 18.48, 11.63 11.01, 29.9 -9.12 M-0.06 24.01 C11.66 13.37, 21.54 0.69, 29.93 -9.99 M0.02 30.89 C13.3 16.6, 26.18 -0.75, 37.26 -10.19 M0.49 30.18 C14.27 14.1, 29.43 -1.24, 35.59 -9.91 M2.09 36.14 C15.72 19.28, 33.27 -2.01, 42.61 -12.18 M1.51 36.38 C12.97 21.34, 27.77 6.16, 42.85 -11.7 M-1.39 42.15 C19.8 20.17, 37.41 -0.45, 45.93 -12.86 M0.33 42.32 C16.85 24.86, 31.74 5.84, 46.81 -11.57 M1.69 47.81 C16.99 30.37, 36.4 10.06, 51.17 -10.86 M1.48 47.71 C20.74 26.82, 38.86 4.56, 51.47 -10.83 M0.06 54.71 C17 36.58, 34.66 13.09, 56.85 -8.91 M0.03 55.63 C19.9 33.7, 37.67 12.71, 56.27 -9.08 M2.43 63.03 C19.44 37.47, 40.09 15.61, 59.6 -8.9 M0.87 60.65 C17.4 39.98, 35.1 19.1, 61.43 -9.03 M2.24 67.08 C22.42 40.63, 42.19 19.15, 67.57 -9.05 M1.3 66.46 C15.03 50.75, 30.08 32.84, 65.26 -7.64 M2.43 74.84 C13.62 57.82, 31.96 37.55, 71.78 -7.96 M-0.25 73.52 C20.93 48.87, 42.02 24.22, 71.4 -8 M2.85 79.87 C28.75 48.76, 55.91 16.47, 76.27 -6.09 M0.93 79.12 C19.97 55.19, 40.49 32.72, 74.82 -6.72 M1.7 84.67 C22.73 61.9, 45.82 33.51, 78.82 -6.77 M1.27 84.84 C30.24 50.1, 59.7 16.55, 80.47 -6.76 M-1.14 92.58 C19.69 68.27, 39.15 44, 83.01 -4.47 M0.1 92.6 C26.33 62.12, 53.35 31.52, 85.13 -5.6 M0.76 99.34 C33.03 62.34, 65.67 25, 86.36 -4.48 M0.3 98.33 C29.51 64.76, 56.36 31.19, 87.48 -2.86 M1.05 104.58 C24.57 73.21, 53.5 44.72, 93.69 -0.75 M1.01 103.57 C35.42 63.43, 70.71 23.5, 91.35 -1.89 M0.02 107.78 C39.31 67.39, 72.32 24.33, 93.26 0.43 M0.78 109.61 C30.1 74.28, 58.64 41.66, 95.66 2.55 M2.1 115.6 C29.02 82.52, 62.58 46.48, 98.12 2.63 M0.99 116.88 C31.74 79.7, 63.17 45, 97.74 4.73 M-0.87 121.79 C38.81 80.76, 78.4 36.38, 98.91 6.81 M1.05 123.04 C33.84 84.36, 66.55 47.12, 99.93 7.52 M-0.76 126.77 C29.39 95.19, 55.12 65.92, 102.61 8.58 M1.07 128.6 C35.19 88.88, 69.53 49.49, 102.26 9.8 M-0.44 133.06 C32.11 99.07, 61.28 67.23, 103.28 15.42 M0.48 134.61 C34.85 93.97, 69.33 55.52, 103.02 15.81 M0.93 142.08 C20.38 115.72, 43.43 94.44, 104.1 24.2 M0.66 141.46 C27.03 111.65, 51.92 81.16, 102.7 22.78 M0.68 145.63 C37.44 103.1, 73.95 59.95, 105.49 29.39 M1.54 146.54 C32.56 111.51, 64.12 75.54, 103.97 27.33 M1.43 153.4 C29.28 123.25, 54.33 90.16, 105.25 35.38 M0.25 151.88 C30.92 119.89, 59.07 84.87, 103.73 33.8 M2.41 156.95 C35.98 120.11, 69.94 78.15, 102.52 39.68 M0.4 158.23 C41.09 112.99, 79.3 67.9, 102.89 39.67 M0.96 164.98 C30.85 130.55, 62.76 92.89, 103.35 48.19 M1.39 164.48 C23.14 137.02, 47.47 108.3, 103.85 46.93 M-0.12 171.32 C29.98 137.8, 58.4 102.73, 103.95 51.17 M-0.33 171.75 C35.41 132.48, 69.34 92.45, 103.64 52.15 M0.22 178.43 C30.35 144.07, 56.87 111.74, 103.56 58.79 M1.36 177.05 C31.87 141.36, 61.86 105.63, 104.62 58.18 M2.06 184.92 C39.31 140.23, 77.06 94.32, 105.18 64.6 M0.96 182.87 C31.14 148.99, 59.98 113.37, 103.13 65.74 M-0.17 189.51 C26.43 158.94, 53.2 127.94, 102.92 69.51 M0.5 189.33 C30.87 157.24, 58.74 123.18, 104.67 69.52 M-0.17 194.31 C29.5 161.27, 54.4 129.91, 103.52 77.08 M0.99 195.55 C22.89 168.21, 44.66 143.93, 103.35 77.62 M-0.4 200.82 C23.26 173.02, 48.11 144.51, 101.69 81.51 M-0.44 201.75 C35.24 159.14, 72.47 116.79, 103.03 83.6 M0.62 205.42 C35.25 163.36, 72.87 123.35, 104.84 87.12 M0.19 206.93 C22.95 182.32, 46.48 156.97, 104.02 88.15 M1.18 214.86 C28.36 180.65, 56.28 148.39, 101.96 95.86 M0.31 214.42 C31.49 179.56, 63 142.41, 103.74 94.73 M-0.31 218.3 C32.65 180.3, 64.83 146.08, 102.86 99.33 M0.06 220.09 C25.25 191.67, 48.94 163.88, 103.92 101.63 M0.16 226.51 C38.34 182.3, 75.8 139.76, 103.74 105.99 M-0.36 225.64 C31.79 190.36, 62.48 154.73, 103.97 107.44 M-0.43 231.89 C35.6 191.59, 68.61 151.21, 102.51 113.21 M0.51 232.8 C40.86 186.64, 80.62 141.17, 104.23 113.06 M0.63 236 C21.75 211.74, 42.48 190.9, 103.57 118.7 M0.12 236.9 C33.87 201.25, 65.39 162.72, 104.59 119.43 M0.59 245 C32.93 208.46, 63.18 170.42, 102.59 124.12 M0.47 244.52 C40.75 197.23, 80.15 151.1, 103.17 125.1 M2.57 249.7 C40.49 204.37, 78.79 156.33, 105.86 130.93 M1.41 249.62 C33.02 214.64, 63.12 176.81, 103.53 132.35 M1.02 256.8 C27.86 228.85, 52.87 197.5, 103.78 135.8 M-0.04 256.9 C34.3 215.37, 69.14 175.2, 104.05 138.61 M1.16 260.87 C20.81 236.73, 46.3 209.02, 102.24 142.49 M-0.43 261.92 C25.38 234.37, 49.26 207.56, 103.13 144.54 M0.96 266.34 C28.3 235.21, 53.3 206.55, 103.32 149.39 M2.05 267.24 C38.64 225.76, 73.86 185.01, 103.89 149.65 M3.41 272.34 C36.41 235.84, 67.96 198.37, 102.18 157.05 M1.66 273.32 C25.59 245.53, 51.4 216.38, 102.77 155.99 M3.72 275.56 C38.7 235.3, 70.75 196.37, 102.31 160.12 M6.2 275.57 C38.43 237.9, 69.21 200.94, 104.79 162.2 M10.24 279.36 C28.98 254.49, 46.95 232.08, 105.07 166.67 M7.84 277.56 C34.16 247.95, 59.49 218.17, 102.91 168.93 M12.49 280.49 C33.03 256.76, 56.34 230.58, 105.05 174.12 M10.94 279.83 C43.91 245.09, 73.04 208.89, 103.24 174.95 M13.19 281.32 C41.62 252.95, 67.82 223.56, 102.82 180.78 M14.07 282.33 C37.01 254.15, 62.33 226.85, 103.73 180.75 M19.72 286.35 C48.45 248.51, 81.2 210.96, 101.72 185.36 M17.24 284.95 C42.78 258.28, 64.51 231.3, 102.78 186.24 M21.56 284.96 C47.24 257.6, 75.57 224.13, 103.21 190.94 M23.28 286.48 C51.95 254.68, 80.67 221.9, 104.49 192.78 M24.35 289.42 C46.37 264.11, 69.88 239.2, 104.38 200.23 M25.75 288.73 C44.11 268.87, 58.99 249.68, 104.02 198.63 M28.62 287.64 C53.94 262.3, 77.48 232.8, 105.26 203.59 M29.53 289.34 C48.38 267.76, 65.95 248.31, 102.83 205.04 M36.55 288.9 C62.96 256.84, 87.24 227.46, 105.63 210.47 M35.52 289.7 C50.32 271.83, 66.98 253.68, 103.31 209.86 M39.44 288.36 C57.05 272.65, 72.57 252.96, 101.8 217.02 M39.89 289.61 C58.17 269.98, 75.11 249.35, 103.45 217.23 M45.7 290.84 C61.82 274.51, 73.52 256.79, 101.95 221.95 M46.03 289.08 C67.31 263.26, 89.33 237.64, 104.04 223.61 M51.01 288.75 C67.08 269.99, 86.24 249.65, 103.61 229.91 M50.54 290.5 C69.99 268.58, 88.76 247.06, 104.11 229.24 M57.7 290.67 C73.68 272.16, 89.21 253.1, 105.03 235.41 M56.47 289.25 C71.68 272.89, 86.8 253.84, 104.04 236.23 M63.51 288.8 C77.99 273.68, 91.24 254.8, 101.95 242.34 M62 289.35 C77.65 272.21, 92.94 254.2, 104.31 242.16 M66.35 289.96 C78.69 274.72, 92.11 258.95, 104.4 247.48 M67.06 288.54 C78.52 275.43, 91.74 262.74, 104.13 247.77 M73.69 290.37 C84.73 278.01, 94.36 263.18, 104 252.47 M72.59 289.22 C79.06 280.55, 86.79 272.9, 104.63 253.01 M81.3 288.37 C84.6 279.14, 92.36 274.26, 103.51 259.13 M79.14 287.23 C85.42 281.37, 89.26 275.68, 104.26 260.48 M88.09 286.7 C89.21 279.37, 93.97 275.99, 102.17 267.64 M85.59 286.33 C90.15 281.79, 93.67 278, 102.04 267.76 M12.63 281.17 C12.63 281.17, 12.63 281.17, 12.63 281.17 M12.63 281.17 C12.63 281.17, 12.63 281.17, 12.63 281.17 M25.24 284.9 C16.81 281.38, 12.99 276.68, 3.03 268.17 M23.45 284.61 C18.66 280.39, 13.89 275.54, 4.91 269.19 M0.16 265.03 C0.16 265.03, 0.16 265.03, 0.16 265.03 M0.16 265.03 C0.16 265.03, 0.16 265.03, 0.16 265.03 M30.05 284.74 C21.38 277.16, 11.7 272.65, 2.38 261.45 M30.21 286.43 C24.63 281.23, 18.8 274.21, -0.03 261 M38.26 288.53 C28.74 279.39, 14.41 265.52, -1.48 252.59 M38.76 288.83 C30.2 280.98, 22.29 273.81, 0.79 254.1 M45.99 290 C25.38 272.38, 10.42 258.05, 0.21 248.06 M45.64 288.01 C30.8 275.73, 16.04 262.99, 1.38 249.82 M50.8 287.88 C35.9 275.29, 23.14 261.34, -1.08 244.9 M51.31 287.61 C39.56 279.94, 30.1 270.12, 0.04 244.4 M56.24 286.74 C36.69 266.14, 14.37 251.29, -0.32 239.16 M56.4 287.64 C39.05 272.75, 23.55 260.27, -0.36 238.71 M60.4 286.78 C46.42 273.71, 33.11 261.74, 1.69 233.9 M62.15 286.33 C46.54 274.77, 33.25 260.98, 0.22 232.37 M67.31 287.25 C44.71 264.78, 19.24 245, -0.8 229.69 M67.69 285.69 C44.55 264.96, 19.29 244.54, -0.34 228.34 M71.76 284.93 C55 270.26, 40.81 256.46, -1.83 220.59 M70.73 284.15 C51.12 266.68, 28.53 248.02, 0.28 223.1 M74.77 284.06 C50.39 263.37, 25.44 240.98, 1.06 216.69 M76.95 284.55 C48.57 257.51, 17.03 231.7, -0.54 217.27 M80.14 283.59 C57.25 263.29, 36.58 242.21, -0.42 212.08 M82.3 283.59 C49.05 253.63, 17.96 226.88, 0.27 211.67 M85.12 282.45 C65.93 262.21, 47.21 248.01, -0.57 207.36 M85.71 281.18 C64.77 263.86, 44.4 246.65, 0.1 206.02 M89.47 278.78 C60.88 256.68, 35.06 232.38, 1.03 201.62 M89.91 279.77 C61.02 254.95, 31.17 228.83, -0.73 201.04 M91.94 277.17 C70.73 256.58, 48.53 239.69, 0.33 194.99 M93.82 277.8 C62.52 250.07, 32.2 223, -0.32 197.05 M96.27 273.3 C61.12 245.66, 26.85 217.13, 1.5 192.58 M96.42 274.39 C69.75 250.92, 43.54 227.99, -0.57 190.14 M99.2 271.76 C69.38 243.84, 37.7 219.85, 1.69 187.02 M100.66 271.29 C67.49 245.31, 35.39 218.43, -0.59 184.76 M100.96 268.09 C70.41 238.19, 36.73 211.14, -0.18 178.45 M101.78 269.09 C77.61 248.51, 53.57 226.65, -0.03 179.85 M102.89 264.23 C102.89 264.23, 102.89 264.23, 102.89 264.23 M102.89 264.23 C102.89 264.23, 102.89 264.23, 102.89 264.23 M99.68 263.91 C74.96 239.35, 50.23 218.4, -0.88 176.49 M100.85 263.17 C62.36 228.62, 22.9 195.15, -0.44 174.59 M101.7 257.71 C80.43 239.11, 57.28 217.65, 1.18 170.27 M102.88 258.28 C74.96 234.1, 46.23 208.84, -0.28 169.11 M104.13 253.87 C73.89 228.23, 42.33 203.43, 1.22 165.16 M103.19 254.07 C73.79 227.05, 45.61 201.49, 0.75 163.83 M102.65 247.06 C76.85 224.91, 50.34 200.92, 2.12 161.34 M102.74 247.44 C71.8 222.53, 42.9 196.75, -0.41 158.57 M102.95 243.64 C74.37 216.65, 45.67 192.73, 0.97 153.98 M102.56 243.6 C72.08 216.97, 41.12 190.11, 0.35 153.88 M102.95 238.98 C72.05 210.15, 38.91 183.01, 1.9 147.78 M101.85 237.51 C73.3 211.55, 45.27 186.4, 0.97 149.66 M101.56 231.97 C66.73 200.32, 27.32 164.23, 0.74 144.94 M102.64 232.49 C63.34 196.62, 24.35 162.87, -0.19 143.35 M103.45 224.98 C77 205.92, 55.47 185.93, 1.83 139.66 M102.41 226.35 C77.91 203.45, 51.38 183.06, 0.34 138.46 M103.76 222.41 C79.24 202.97, 55.37 180.25, -1.26 134.15 M102.69 222.05 C72.46 193.89, 40.77 166.22, -0.32 132.79 M100.88 214.66 C63.49 181.63, 25.71 149.21, -0.95 129.15 M101.71 215.76 C62.94 181.27, 22.39 147.56, 1.27 126.98 M101.21 212.64 C79.18 190.69, 60.38 174.5, 1.07 119.87 M103.01 211.56 C63.07 175.44, 21.62 140.39, -0.48 122.68 M104.6 204.43 C78.87 185.61, 53.77 166.29, -1.39 118.56 M102.84 206.14 C73.21 179.97, 42.5 154.19, 0.39 117.17 M101.43 198.48 C64.32 166.9, 21.62 132.17, 1.71 110.46 M102.98 200.21 C79.88 181.76, 59.99 163.36, 0.01 111.47 M101.57 194.84 C65.66 161.7, 30.69 128.52, 1.42 104.32 M103.69 195.83 C66.03 162.72, 28.16 129.65, 1.37 106.94 M103.85 189.84 C67.07 158.16, 31.63 125.7, -1.49 100.41 M103.03 189.17 C76.86 166.59, 50.23 143.73, 0.85 101.49 M104.88 186.55 C78.08 165.84, 54.49 144.08, 0.26 97 M103.5 185.13 C65.02 151.85, 29.38 119.05, 0.96 96.12 M103.75 178.8 C65.04 145.42, 23.68 110.86, 1.19 90.35 M102.65 179.5 C75.5 155.53, 46.93 129.87, 0.83 89.07 M102.78 173.67 C74.58 151.58, 46.69 126.18, -0.19 85.26 M103.77 173.56 C74.43 149.79, 47.21 126.58, 0.97 84.46 M104.29 167.52 C76.26 146.73, 50.12 124.6, -0.65 79.02 M102.41 168.22 C62.75 132.71, 21.79 97.55, -0.22 78.42 M103.35 164.45 C68.65 131.98, 34.51 103.55, 0.58 75.92 M103.11 162.63 C78.1 141.52, 50.38 119.69, 0.27 73.69 M104.52 156.32 C75.78 134.34, 48.58 109.1, -0.77 67.93 M101.93 158.3 C69.21 128.87, 38.05 101.62, 1.37 68.39 M102.58 153.26 C80.69 133.6, 53.74 110.83, -0.99 61.91 M103.17 153.75 C73.37 128.37, 46.3 104.54, 0.81 63.43 M103.33 147.63 C75.75 123.17, 51.85 104.64, 0.66 58.79 M101.9 146.62 C65.94 114.87, 29.79 83.46, 0.04 57.78 M104.31 140.59 C73.69 116.87, 46.79 91.31, -0.63 54.28 M102.66 142.29 C71.89 118.11, 43.34 92.37, -0.43 53.28 M103.53 138.01 C71.76 110.72, 45.38 87.44, 1.61 49.35 M102.05 136.01 C80.88 118.03, 58.71 99.46, -0.41 47.28 M104.26 133.06 C75.08 105.66, 47.15 83.83, 1.82 42.22 M103.36 131.55 C78.09 110.87, 53.28 89.26, 0.61 42.75 M103.76 126.13 C62.89 89.71, 23.51 57.04, -0.8 38.87 M103.2 125.25 C64.68 92.98, 24.08 58.77, 0.1 36.9 M102.04 119.41 C66.54 89.6, 31.16 61.63, -1.59 33.04 M102.12 120.76 C74.59 95.41, 44.23 70.66, 1.07 31.3 M102.58 116.81 C74.09 88.09, 40.38 62.25, 2.39 28.72 M103.23 115.04 C66.66 85.4, 30.31 52.69, 0.73 26.54 M101.12 110.52 C71.83 83.62, 39.4 53.48, 1.05 20.16 M102.84 111.1 C67.34 78.81, 30.76 48.77, 1.11 20.32 M102.39 104.97 C78.67 86.25, 54.88 63.45, 0.04 14.38 M103.06 104.03 C79.51 86.17, 56.74 67.16, -0.31 16.08 M100.85 99.37 C70.11 70.98, 40.62 45.32, 2.27 11.8 M102.47 99.68 C68.42 68.77, 30.49 37.16, 0.75 11.79 M101.47 95.67 C71.44 66.31, 37.47 39.5, 2.38 6.79 M102.69 94.79 C78.45 73.26, 53.84 52.33, 1.77 6.62 M104.46 89.09 C63.92 56.63, 29.08 25.6, 3.25 2.95 M103.06 89.56 C79.58 69.27, 55.21 48.11, 3.8 2.31 M102 84.1 C83.45 64.9, 60.48 46.93, 7.51 -0.99 M103.19 83.84 C72.83 58.82, 43.91 32.84, 6.82 -0.78 M103.04 76.93 C80.02 59.56, 55.57 37.43, 8.28 -1.92 M101.69 77.71 C74.3 53.99, 45.07 27.38, 10.39 -2.27 M102.76 72.21 C81.2 54.64, 56.54 32.38, 15.17 -3.76 M103.43 74.3 C80.68 54.21, 58.65 35.37, 13.49 -5.1 M103.57 66.24 C69.54 40.6, 39.19 10.58, 19.27 -6.2 M102.51 67.07 C77.64 47.84, 53.1 25.55, 17.44 -6.12 M104.15 62.13 C81.77 42.5, 58.66 20.17, 20.93 -6.16 M103.08 63.24 C72.96 37.9, 45.07 12.75, 21.49 -7.4 M100.89 58.53 C77.43 35.51, 51.53 13.61, 25.98 -11.15 M102.74 56.5 C81.74 38.53, 60.81 20.39, 24.94 -9.47 M104.72 52.07 C81.7 33.86, 62.69 18.03, 31.52 -11.41 M103.15 51.66 C84.07 35.24, 63.33 17.69, 28.83 -11.42 M101.74 45.41 C78.77 26.66, 52.67 4.16, 33.86 -12.6 M102.66 46.79 C78.43 25.37, 54.19 3.47, 33.72 -13.34 M102.12 41.7 C82.7 23.22, 65.87 8.05, 39.04 -15.24 M102.95 41.82 C87.31 27.89, 71.13 14.23, 38.12 -15.69 M100.72 36.63 C90.56 23.83, 77.33 11.1, 43.66 -16.22 M101.62 36.68 C87.14 22.8, 73.08 10.3, 45.14 -14.72 M101.91 32.85 C88.28 15.58, 72.12 2.55, 51.99 -15.36 M102.85 31.93 C88.29 17.91, 71.59 3.24, 51.53 -14.84 M104.29 24.05 C93.96 15.36, 84.48 10.2, 58.08 -12.31 M102 24.86 C92.41 17.2, 83.2 8.23, 57.65 -13.46 M101.48 21.43 C89.96 8.1, 74.14 -4.28, 63.96 -13.25 M102.27 20.13 C92.94 10.92, 81.28 3, 65.51 -11.49 M102.81 13.68 C93.41 7.73, 86.48 -1.42, 75.15 -8.96 M103.28 13.92 C92.42 5.63, 81.55 -1.67, 74.24 -9.37 M102.81 9.76 C102.81 9.76, 102.81 9.76, 102.81 9.76 M102.81 9.76 C102.81 9.76, 102.81 9.76, 102.81 9.76 M102.89 11.27 C95.05 4.98, 86.97 -3.23, 83.36 -7.03 M102.39 10.06 C96.74 3.65, 90.39 -0.94, 83.55 -7.23" stroke="#fab005" stroke-width="0.5" fill="none"></path><path d="M0.73 11.54 C1.07 49.42, 0.97 197.27, 1.01 239.59 C1.04 281.91, 0.13 259.57, 0.95 265.48 C1.77 271.4, 2.05 271.54, 5.93 275.06 C9.8 278.59, 15.98 284.49, 24.2 286.61 C32.43 288.74, 45.3 288.29, 55.28 287.8 C65.27 287.32, 76.94 286.42, 84.12 283.7 C91.31 280.98, 95.42 275.03, 98.4 271.47 C101.39 267.9, 101.53 266.99, 102.02 262.31 C102.52 257.62, 101.61 281.96, 101.36 243.36 C101.12 204.76, 100.64 69.37, 100.56 30.73 C100.48 -7.9, 102.09 16.88, 100.87 11.57 C99.66 6.25, 96.64 1.76, 93.28 -1.14 C89.92 -4.04, 87.94 -4.03, 80.71 -5.86 C73.48 -7.69, 59.31 -11.38, 49.9 -12.11 C40.48 -12.83, 31.76 -12.52, 24.21 -10.2 C16.65 -7.89, 8.59 -1.8, 4.57 1.78 C0.54 5.37, 0.68 9.46, 0.06 11.3 C-0.57 13.14, 0.77 12.67, 0.82 12.84 M-0.36 10.44 C-0.03 47.91, 0.23 195.61, 0.4 237.78 C0.57 279.95, -0.36 257.15, 0.66 263.47 C1.68 269.78, 2.78 272.24, 6.52 275.65 C10.26 279.06, 15.27 281.51, 23.11 283.92 C30.95 286.32, 43.26 290.34, 53.58 290.08 C63.9 289.81, 77.18 284.96, 85.02 282.32 C92.85 279.68, 97.98 277.26, 100.58 274.24 C103.19 271.22, 100.42 269.33, 100.64 264.21 C100.87 259.09, 101.96 282.28, 101.91 243.53 C101.86 204.78, 100.79 70.38, 100.37 31.72 C99.95 -6.94, 100.65 16.64, 99.4 11.57 C98.15 6.5, 96.12 4.16, 92.89 1.31 C89.66 -1.53, 87.07 -3.2, 80.01 -5.51 C72.95 -7.83, 59.66 -11.88, 50.53 -12.55 C41.41 -13.22, 33.12 -12.04, 25.27 -9.54 C17.41 -7.04, 7.82 -1.06, 3.41 2.46 C-1 5.98, -0.59 10.29, -1.18 11.56 C-1.77 12.82, -0.52 10.16, -0.15 10.05" stroke="#000000" stroke-width="1" fill="none"></path></g></g><g stroke-linecap="round"><g transform="translate(1319.6738664405202 155.88619430436142) rotate(89.99999999999994 49.058281254004896 12.660830086268419)"><path d="M-0.11 1.2 C0.31 2.87, 0.78 8.29, 3.2 11.31 C5.63 14.33, 10.34 17.14, 14.43 19.32 C18.52 21.51, 21.29 23.42, 27.75 24.4 C34.21 25.37, 44.71 25.66, 53.21 25.16 C61.71 24.67, 71.72 24.2, 78.73 21.42 C85.74 18.64, 92.11 12.06, 95.26 8.48 C98.42 4.91, 97.2 1.55, 97.66 -0.03 M-1.63 0.49 C-1.37 1.78, -0.03 6.85, 2.57 9.66 C5.17 12.47, 9.84 15.23, 13.99 17.33 C18.14 19.42, 21.09 21.37, 27.48 22.22 C33.87 23.07, 43.59 22.7, 52.31 22.44 C61.03 22.17, 72.54 22.64, 79.8 20.63 C87.06 18.61, 92.55 13.8, 95.88 10.34 C99.2 6.89, 99.13 1.47, 99.75 -0.08" stroke="#000000" stroke-width="1" fill="none"></path></g></g><g stroke-linecap="round"><g transform="translate(1409.1633793196797 154.83282309801496) rotate(89.99999999999994 49.24469454333871 9.195655788325013)"><path d="M0.64 1.04 C1.11 2.48, 1.2 6.8, 3.5 8.95 C5.8 11.11, 10.12 12.12, 14.43 13.98 C18.75 15.83, 22.95 19.29, 29.38 20.07 C35.81 20.86, 44.62 19.24, 53 18.68 C61.38 18.12, 72.78 18.77, 79.64 16.73 C86.51 14.69, 90.96 9.44, 94.18 6.46 C97.41 3.47, 98.33 -0.22, 98.97 -1.18 M-0.48 0.32 C-0.15 1.41, 0.61 4.75, 3.03 7.16 C5.44 9.57, 9.52 12.95, 14.01 14.78 C18.51 16.6, 23.66 17.43, 30.01 18.09 C36.35 18.75, 44.13 19.13, 52.07 18.73 C60.01 18.32, 70.59 17.41, 77.64 15.66 C84.69 13.91, 90.94 11.15, 94.37 8.23 C97.8 5.3, 97.33 -0.51, 98.23 -1.89" stroke="#000000" stroke-width="1" fill="none"></path></g></g><g stroke-linecap="round" transform="translate(1500.3066739310987 145.23102733472842) rotate(89.99999999999994 49.89293035878427 22.18132326563932)"><path d="M50.49 -0.35 C59.67 -0.83, 71.47 1.45, 79.24 3.92 C87 6.39, 94.09 10.35, 97.08 14.48 C100.07 18.61, 100.23 24.38, 97.18 28.69 C94.12 33.01, 86.79 37.84, 78.74 40.37 C70.7 42.9, 58.71 43.96, 48.91 43.88 C39.12 43.79, 27.63 42.51, 19.97 39.88 C12.31 37.24, 5.75 32.27, 2.95 28.08 C0.16 23.9, 0.43 18.91, 3.22 14.76 C6.02 10.62, 10.72 5.66, 19.72 3.23 C28.72 0.8, 50.17 0.36, 57.23 0.17 C64.29 -0.02, 62.45 1.59, 62.09 2.11 M39.09 -0.03 C48.08 -1.3, 60.03 -0.17, 68.65 1.33 C77.27 2.83, 85.4 5.48, 90.81 8.99 C96.23 12.5, 101.59 18.04, 101.15 22.4 C100.72 26.77, 94.77 31.76, 88.2 35.17 C81.62 38.57, 71.37 41.77, 61.69 42.83 C52.01 43.88, 38.89 42.85, 30.11 41.51 C21.33 40.17, 14.24 38.15, 9 34.8 C3.76 31.45, -1.65 25.76, -1.31 21.42 C-0.98 17.07, 4.39 12.03, 11.03 8.74 C17.67 5.44, 34.08 3.11, 38.52 1.64 C42.96 0.18, 37.69 -0.49, 37.68 -0.05" stroke="none" stroke-width="0" fill="#fff"></path><path d="M63.18 1.64 C72.38 2.45, 83.23 4.39, 89.38 7.59 C95.53 10.79, 99.81 16.58, 100.1 20.87 C100.4 25.15, 96.42 29.74, 91.15 33.31 C85.87 36.87, 77.51 40.37, 68.46 42.26 C59.41 44.14, 46.53 45.62, 36.86 44.62 C27.2 43.61, 16.6 39.64, 10.46 36.23 C4.31 32.81, 0.57 28.57, -0.02 24.13 C-0.6 19.69, 1.64 13.21, 6.94 9.59 C12.24 5.96, 20.61 3.49, 31.8 2.36 C43 1.24, 65.62 2.39, 74.09 2.84 C82.57 3.3, 83.12 4.83, 82.67 5.1 M53.17 0.46 C62.66 0.32, 73.82 2.96, 81.49 5.8 C89.16 8.64, 96.74 13.73, 99.19 17.5 C101.65 21.27, 99.81 24.5, 96.22 28.43 C92.62 32.35, 85.55 38.23, 77.63 41.04 C69.71 43.84, 58.59 45.29, 48.68 45.24 C38.78 45.19, 26.25 43.54, 18.22 40.75 C10.19 37.95, 3.18 32.65, 0.52 28.46 C-2.13 24.26, -1.5 19.52, 2.3 15.57 C6.1 11.61, 15.24 7.18, 23.33 4.73 C31.42 2.28, 46.16 1.8, 50.85 0.88 C55.54 -0.05, 51.55 -0.8, 51.47 -0.83" stroke="#000000" stroke-width="1" fill="none"></path></g><g transform="translate(1297.7673268411934 224.3344351799143) rotate(0 122.69230769230762 14.5)"><text x="0" y="20.999999999999986" font-family="Virgil, Segoe UI Emoji" font-size="22.307692307692296px" fill="#000000" text-anchor="start" style="white-space: pre;" direction="ltr">RabbitMQ messageBus</text></g><g stroke-linecap="round"><g transform="translate(109.90797611599413 39.92572991848729) rotate(89.99999999999994 50.83246296079459 137.69522020340864)" fill-rule="evenodd"><path d="M4.1 2.24 C4.1 2.24, 4.1 2.24, 4.1 2.24 M4.1 2.24 C4.1 2.24, 4.1 2.24, 4.1 2.24 M0.16 10.93 C3.37 9.13, 8.88 5.79, 16.08 -4.15 M-0.26 13.22 C4.3 8.65, 9.1 4.21, 13.85 -4 M0.25 17.9 C9.45 11.02, 15.32 2.84, 26.17 -8.15 M0.74 17.26 C5.27 12.06, 11.5 5.62, 24.96 -9.76 M2.44 22.71 C10.75 13.63, 17.84 4.06, 30.95 -10.06 M-0.23 24.56 C7.52 17.96, 12.41 9.71, 30.79 -10.42 M2.18 32.63 C9.16 19.84, 19.36 8.71, 36.69 -9.67 M1.33 30.58 C14.36 15.25, 27.75 0.03, 36.04 -10.19 M1.3 35.7 C15.76 16.68, 35.84 -0.83, 40.67 -10.28 M0.9 37.22 C14.38 20.24, 29.08 2.23, 42.18 -10.19 M-0.71 41.71 C13.12 29.17, 24.85 17.52, 46.39 -10.18 M0.38 43.72 C12.96 27.36, 25.77 14.46, 48.75 -12.1 M-0.84 47.65 C12.46 34.91, 23.97 17.71, 52.17 -11.17 M0.03 47.99 C14.12 33.36, 27.69 17.07, 52.09 -10.77 M-0.58 54.54 C17.61 39.46, 32.8 19.59, 56.34 -8.32 M0.6 55.26 C19.02 33.38, 38.07 11.23, 56.68 -10.14 M-0.07 60.89 C20.33 36.68, 41.27 11.93, 63.22 -7.46 M1.32 61.45 C13.67 46.07, 25.2 32.03, 61.21 -8.8 M1.19 67.67 C28.14 35.99, 52.03 7.13, 67.02 -8.9 M1.29 66.05 C24.66 39.94, 47.32 12.27, 66.64 -7.92 M-0.39 71.39 C26.41 44.06, 56.22 11.72, 69.73 -5.98 M0.87 73.01 C25.07 43.57, 48.93 15.55, 70.19 -7.85 M1.35 77.51 C17.5 59.16, 37.38 37.12, 77.73 -5.05 M1.68 78.05 C17.48 59.26, 33.98 41.03, 76.09 -6.24 M2.33 85.26 C20.57 63.17, 40.32 42.14, 81.06 -4.95 M0.72 85.38 C31.36 50.73, 62.56 15.36, 80.95 -5.67 M2.1 93.1 C23.69 67.05, 45.42 39.78, 83.93 -3.8 M0.3 90.99 C23.97 65.12, 48.76 37.54, 84.44 -4.54 M-0.95 95.73 C19.76 75.56, 38.41 56.86, 87.39 -1.2 M1.51 97.59 C25.67 68.86, 48.6 42.65, 88.04 -3.44 M1.76 105.1 C26.48 74.96, 54.28 44.87, 93.18 -2.54 M1.57 103.43 C23.2 77.06, 46.54 51.55, 91.04 -1.49 M2.8 107.89 C36.38 69.61, 68.63 32.13, 94.36 2.81 M1.82 109.73 C32.16 74.95, 64.11 38.3, 95.27 1.22 M-1.22 114.29 C29.73 80.61, 59.96 44.65, 99.17 5.2 M-0.13 115.25 C31.42 81.32, 61.84 47.02, 97.14 3.31 M0.13 123.47 C38.15 80.49, 73.35 39.89, 102.34 7.74 M-0.48 121.71 C33 82.28, 66.82 45.08, 101.02 6.97 M2.42 128.59 C39.36 83.07, 76.4 40.89, 102.34 9.02 M0.21 128.63 C37.61 85.05, 74.49 44.05, 102.61 10.58 M1.64 133.82 C25.93 102.5, 56.11 74.37, 102.6 13.9 M0.38 134.24 C42.37 86.68, 83.86 39.1, 104.34 15.33 M-0.63 140.55 C28.55 108.65, 53.75 77.14, 104.06 20.43 M0.84 141.57 C21.44 115.23, 43.77 91.75, 104.01 22.12 M2.11 144.41 C33.52 108.13, 65.73 68.03, 103.78 29.68 M0.13 147.35 C35.54 106.29, 67.6 68.76, 103.51 27.12 M0.46 152.3 C40.82 103.94, 80.22 59.89, 101.61 35.48 M-0.05 152.87 C37.71 109.57, 75.77 66.95, 103.65 33.5 M-0.91 159.84 C39.61 110.86, 82.41 66.04, 102.62 41.11 M1.11 159.37 C25.05 131.66, 47.77 104.05, 104.7 39.94 M0.65 164.15 C37.79 124.35, 74.23 80.98, 105.18 48.15 M-0.33 164.66 C26.02 134.64, 51.85 107.95, 104.57 45.35 M-0.37 169.34 C33.46 134.42, 67.38 93.59, 102.72 53.86 M0.92 170.48 C35.3 132.43, 69.98 92.43, 102.74 52.21 M1.67 175.5 C36.42 136.32, 70.41 97.24, 103.07 60.29 M0.75 177.38 C39.98 131.48, 79.05 86.71, 103.71 57.41 M-1.18 183.75 C35.76 139.75, 69.85 102.45, 103.74 63.2 M1.08 183.62 C39.39 138.47, 77.72 94.11, 104.37 65.19 M-0.6 189.65 C36.4 148.73, 68.91 108.38, 105.73 69.62 M1.85 188.52 C41.89 142.99, 83.08 96.96, 103.97 70.45 M-0.04 196.05 C28.98 160.17, 58.97 128.9, 105.54 78.56 M1.09 195.08 C39.69 149.81, 79.27 105.19, 104.28 77.43 M-0.83 202.51 C28.98 163.92, 60.79 128.27, 105.04 82.51 M0.94 201.39 C23.86 174.5, 48.97 146.56, 103.53 83.06 M1.09 206.34 C40.94 163.37, 77.78 120.91, 102.73 88.46 M1.02 207.45 C29.92 174.63, 58.6 141.01, 103.79 89.81 M2.42 215.6 C24.35 184.55, 51.39 159.87, 105.01 94.91 M-0.13 214.11 C35.22 175.21, 71.15 133.24, 104.46 94.64 M2.39 218.59 C22.6 194.85, 42.04 168.15, 104.06 101.32 M0.89 218.38 C35.72 178.86, 71.17 136.37, 104.13 100.27 M-1.27 224.61 C30.08 192.56, 59.39 158.47, 101.78 108.92 M0.48 226.11 C28.53 194.34, 55.2 164.7, 102.81 107.9 M1.52 233.42 C23.65 204.84, 47.97 178.91, 103.73 114.18 M0.01 231.34 C32.14 195.84, 62.98 159.98, 103.82 114.54 M0.48 236.3 C19.62 213.3, 43.52 190.88, 102.29 117.79 M1.2 237.16 C25.78 208.88, 50.88 180.67, 103.24 119.88 M0.23 245.03 C25.41 216.93, 49.01 190.72, 104.05 125.7 M-0.43 244.61 C24.86 216.18, 48.19 189.57, 103.29 125.2 M2.15 249.35 C39.71 209.61, 72.96 167.07, 103.59 130.59 M0.38 250.04 C29.1 218.36, 55.83 186.26, 104.31 130.67 M0.4 257.77 C41.41 208.46, 83.34 160.19, 103.49 136.66 M0.75 255.77 C27.43 224.27, 57.78 190.03, 102.91 138.1 M-0.28 263.04 C27.89 230.48, 56.61 198.68, 104.21 145.07 M-0.33 263.39 C40.52 216.71, 80.54 172.4, 103.9 144.18 M4.04 265.62 C34.77 224.63, 71.83 188.1, 103.3 150.98 M2.64 267.22 C36.18 227.42, 68.83 188.45, 103.7 149.43 M3.2 272.02 C34.76 237.17, 65.61 200.28, 102.76 156.56 M2.58 272.38 C41.4 226.82, 79.83 182.6, 103.77 157.1 M6.61 275.17 C28.03 248.22, 52.67 221.7, 102.83 160.45 M5.59 275.17 C42.63 235.2, 76.65 193.55, 104.56 162.45 M6.77 277.06 C47.33 233.84, 85.01 190.24, 102.02 166.54 M8.61 277.49 C38.74 241.24, 70.06 205.36, 103.65 167.48 M9.69 280.89 C37.33 252.2, 59.64 224.68, 102.93 173.47 M11.91 280.9 C33.78 252.77, 57.54 227.33, 103.71 174.22 M13.5 284.86 C36.22 257.07, 59.52 233.63, 103.55 179.61 M13.92 282.3 C33.66 260.32, 54.91 236.8, 103.89 179.66 M18.38 284.14 C33.96 264.47, 55.39 243.72, 104.53 188.09 M17.21 285.76 C53 246.73, 86.4 207.8, 103.25 186.6 M22.48 287.18 C55.81 247.37, 88.32 210.17, 103.03 192.25 M22.55 286.67 C52.48 250.9, 80.85 218.38, 104.74 193.03 M26.51 287.14 C42.22 269.38, 59.08 249.08, 104.72 200.46 M25.65 287.14 C47.75 263.38, 70.12 237.06, 103.27 198.77 M30.96 288.2 C55.14 258.9, 80.59 231.21, 101.62 205.56 M30.49 288.06 C54.77 259.69, 78.29 233.69, 103.76 204.82 M37.39 288.74 C55.28 269.45, 71.59 247.29, 103.37 209.88 M34.71 288.28 C57.41 263.45, 80.34 237, 104.45 210.24 M42.31 291.44 C55.83 272.96, 67.86 257.36, 104.54 218.26 M39.66 290.45 C54.88 271.15, 69.81 253.8, 104.4 217.05 M43.79 288.43 C62.4 268.98, 82.71 245.62, 102.47 223.51 M45.11 290.19 C58.41 273.9, 72.93 258.82, 103.39 223.57 M50.03 288.84 C67.27 271.8, 84.76 249.78, 105.22 231.19 M49.94 289.41 C65.87 271.16, 83.31 252.24, 104.09 229.07 M57.27 288.79 C68.63 273.14, 83.16 254.97, 101.48 237.13 M56.19 290.22 C66.8 278.32, 76.83 267.53, 103.99 235.13 M61.07 288.42 C74.04 274.15, 90.06 259.02, 103.81 240.34 M62.45 289.8 C72.7 277.66, 82.09 265.69, 102.85 240.52 M67.52 288.31 C80.74 273.05, 95.37 256.69, 103.96 248.15 M67.21 288.77 C81.06 272.55, 95.19 256.42, 104.05 248.09 M73.19 289.85 C81.39 278.91, 93.34 265.72, 102.65 253.56 M72.95 289.32 C81.14 279.19, 90.99 268.37, 104.63 254.12 M78.33 289.34 C87.26 279.76, 90.5 271.61, 105.62 260.11 M79.39 287.31 C87.61 277.67, 98.74 267.24, 103.34 258.97 M88.21 285.89 C88.03 281.49, 91.51 278.66, 99.52 269.58 M87.05 285.94 C90.63 278.62, 96.05 274.05, 100.7 268.68 M12.63 281.17 C12.63 281.17, 12.63 281.17, 12.63 281.17 M12.63 281.17 C12.63 281.17, 12.63 281.17, 12.63 281.17 M22.18 284.96 C19.63 280.55, 14.76 276.26, 4.65 269.9 M24.44 284.48 C17.49 280.56, 12.06 274.89, 4.55 268.91 M0.16 265.03 C0.16 265.03, 0.16 265.03, 0.16 265.03 M0.16 265.03 C0.16 265.03, 0.16 265.03, 0.16 265.03 M31.77 285.87 C21.88 278.54, 11.34 266.71, -0.28 260.85 M31.21 285.31 C24.62 280.12, 18.12 273.72, 0.97 259.59 M39.63 288.48 C27.45 276.81, 13.1 264.68, 1.39 254.25 M39.46 286.87 C31.11 281.41, 21.85 274.51, -0.02 255.05 M46.49 289.19 C30.41 276.32, 17.21 260.48, 0.88 247.65 M44.11 287.81 C35.37 279.87, 25.33 270.76, 0.98 249.54 M51.52 289.61 C35.72 273.11, 17.4 258.01, 1.81 244.68 M51.28 288.35 C34 273.49, 17.88 259.91, 1.01 243.61 M53.77 287.52 C39.71 275.44, 24.07 262.54, 1.69 239.88 M55.64 286.51 C43.42 275.4, 28.82 262.46, 0.86 239.16 M59.21 288.24 C37.8 265.11, 19.6 248.67, -0.86 232.12 M61.67 287.22 C38.32 266.17, 13.93 246.61, 0.45 232.76 M66.64 285.45 C51.89 274.77, 36.73 261.57, 1.19 228.65 M67.68 285.16 C43.52 267.02, 21.07 247.29, 0.19 227.54 M71.03 285.26 C52.81 267.25, 32.78 250.95, -1.51 222.59 M71.23 284.6 C52.97 268.02, 33.25 251.91, 0.35 222.6 M77.46 285.56 C60.27 267.09, 43.48 252.34, 0.57 216.93 M77.27 284.67 C55.09 264.86, 32.87 246.35, 0.48 216.84 M80.15 280.83 C48.67 255.79, 16.51 226.04, -0.9 210.02 M81.23 282.07 C53.11 258.91, 24.95 234.5, 0.71 212.34 M83.71 280.91 C57.99 260.11, 34.52 234.92, -0.86 207.57 M86.41 281.63 C57.86 256.29, 28.12 231.41, 1.19 206.26 M90.63 279.65 C53.08 250.22, 17.85 216.4, -1.64 200.18 M89.61 278.95 C63.91 255.9, 36.43 232.26, -0.56 202.21 M92.28 275.78 C63.72 250.68, 32.03 222.58, -1.67 195.3 M94.26 277.03 C66.06 252.24, 37.83 227.57, -0.28 196.09 M97.4 274.94 C61.48 245.22, 27.55 215.28, -0.26 190.75 M97.02 274.27 C66.79 247.21, 36.73 222.63, 0.41 191.52 M98.64 273.03 C70.75 243.59, 43.11 220.56, 1.69 186.71 M100.44 271.63 C75.2 248.83, 50.86 228.77, -0.6 185.67 M101.51 267.79 C65.79 235.75, 26.79 202.45, 0.87 179.25 M102.04 268.11 C73.15 246.67, 45.7 222.29, -0.58 180.66 M102.89 264.23 C102.89 264.23, 102.89 264.23, 102.89 264.23 M102.89 264.23 C102.89 264.23, 102.89 264.23, 102.89 264.23 M102.02 264.89 C74.34 237.27, 42.84 212.97, 1.89 176.75 M101.06 263.33 C64.09 231.34, 26.37 198.33, 0.6 174.69 M100.74 257.72 C65.66 228.54, 25.83 192.42, 2.18 172.01 M103.27 258.96 C62.32 223.48, 21.6 187.14, 1.59 170.4 M103.74 255.03 C64.19 222.71, 27.45 188.97, -0.11 165.24 M102.03 254.09 C70.96 226.55, 38.1 198.16, 0.83 164.82 M100.46 246.48 C74.02 221.09, 43.04 194.95, 0.65 160.83 M103.22 248.77 C71.86 220.89, 40.33 194.72, 0.06 159.89 M102.72 241.28 C74.35 220.63, 48.24 193.48, -0.77 155.54 M101.98 242.03 C69.96 214.79, 35.49 184.97, 0.12 154.26 M101.47 238.99 C79.27 216.39, 57.2 199.18, -1.22 150.48 M101.58 236.6 C81.6 220.75, 60.9 201.5, 0.38 149.13 M102.04 233.56 C77.26 210.04, 51.91 189.75, 2.06 144.66 M102.76 232.79 C72.32 204.15, 42.33 178.02, 0.03 143.63 M103.38 226.79 C69.97 194.75, 35.12 164.89, -1.26 138.94 M103.14 225.83 C69.25 197.4, 36.16 169.54, -0.44 138.75 M101.37 220.34 C68.9 191.34, 34.22 161.22, 0.6 133.54 M102.61 221.78 C76.07 198.6, 48.8 175.44, 0.04 132.62 M103.95 217.27 C78.52 194.13, 53.25 175.21, 0.83 128.06 M102.65 216.89 C64.38 181.15, 23.14 146.63, 0.56 128.48 M102.51 209.98 C65.33 177, 28.26 145.77, 1.24 122.95 M101.76 211.46 C67.66 180.5, 30.66 148.3, -0.43 121.97 M103.79 206.4 C73.3 178.37, 42.88 152.7, -0.5 115.56 M103.54 205.93 C78.97 185.43, 56.27 164.12, 0.27 117.09 M101.41 198.7 C63.5 164.14, 24.08 132.67, 0.45 109.57 M102.35 201.37 C62.11 164.83, 20.37 130.45, -0.01 111.49 M103.39 196.01 C72.46 169.4, 39.54 140.23, -0.7 107.04 M102.91 196.2 C62.5 161.73, 23.94 129.2, -0.47 106.43 M104.11 190.59 C80.91 172.03, 61.46 155.71, 0.87 101.91 M102.45 190.1 C67.12 161.08, 34.15 130.82, 0.59 100.06 M103.62 185.8 C79.05 163.38, 55.3 145.24, -1.09 95.98 M102.07 183.98 C74.28 158.23, 45.71 132.58, 1.1 95.39 M102.81 177.63 C77.08 156.79, 53.26 136.6, -0.76 88.4 M102.09 179.29 C81.67 161.35, 58.61 141.44, 0.62 89.6 M102.73 174.69 C80.38 154.4, 58.79 135.98, -0.87 83.72 M103.49 173.95 C72.57 146.22, 43.33 121.4, -0.31 85.95 M103.79 167.68 C68.72 142.41, 39.75 114.96, -1.57 81.33 M103.22 167.67 C61.74 132.61, 21.93 99.88, -0.76 79.12 M101.08 165.45 C76.33 140.81, 52.39 119.35, -1.1 75.5 M103.61 163.86 C75.85 141.05, 47.48 116.98, -0.05 75.13 M103.51 156.45 C82.52 139.43, 55.99 117.71, 0.18 69.51 M101.73 157.01 C70.42 129.93, 39.34 101.78, 0.34 69.34 M101.17 152.76 C76.19 131.28, 48.5 105.11, -0.73 64.41 M102.79 152.52 C65.18 120.75, 27.98 87.97, 0.44 63.03 M100.51 147.55 C63.25 112.92, 25.79 80.94, 2.1 59.67 M103.46 148.15 C65.95 114.97, 29.56 83.92, 1.43 58.05 M103.63 143.14 C79.46 122.83, 58.4 103.97, -0.57 51.42 M103.33 141.81 C76.5 121.77, 52.2 99.49, -0.3 52.79 M103.48 136.45 C66.87 105.82, 31.05 74.71, 2.2 48.37 M102.18 137 C63.45 102.2, 23.51 68.5, 0.28 48.1 M103.18 131.02 C76.32 111.14, 52.14 87.97, 0.68 41.38 M103.46 132.65 C73.03 105.45, 42.3 80.54, 0.18 42.64 M103.22 126.5 C70.22 98, 33.83 69.21, -0.16 39.41 M101.59 126.52 C62.91 92.47, 21.83 56.41, -0.2 36.74 M104.71 122.67 C75.27 95.92, 47.3 71.62, -1.54 31.03 M103.36 121.05 C62.88 85.42, 24.04 50.47, 0.27 31.84 M100.66 116.92 C71.92 89.52, 38.97 61.08, 0.51 28.44 M103.33 114.74 C76.11 93.09, 50.5 69.33, 0.85 26.28 M103.2 112.26 C78.65 91.42, 55.89 68.49, -1.68 20.95 M103.15 110.05 C69.79 81.89, 36.38 53.57, 0.3 20.75 M102.86 102.82 C76.84 80.72, 50.2 59.82, -0.15 15 M102.98 104.75 C66.75 72.73, 29.89 41.45, 0.24 16.09 M103.78 97.84 C78.25 78.47, 51.71 57.63, 0.69 12.29 M102.87 99.8 C63.81 66.04, 24.96 32.18, 1.29 11.41 M103 95.17 C69.14 63.15, 31.35 33.38, 1.09 7.82 M102.07 94.71 C62.51 60.08, 23.58 26.94, 2.21 5.92 M101.7 89.3 C81.66 70.23, 57.62 52.91, 4.9 2.69 M102.51 89.46 C67.42 57.61, 30.73 27.44, 2.97 3.62 M100.4 84.81 C71.49 57.96, 37.99 27.26, 5.62 -0.5 M102.05 83.83 C67 52.66, 31.73 21.55, 6.94 0.58 M102.3 80.43 C76.91 54.78, 53.47 34.22, 11.63 -2.95 M101.99 79.29 C66.69 47.13, 30.79 15.97, 10.23 -2.45 M101.23 75.14 C69.56 45.6, 36.21 14.99, 14.68 -3.47 M103.07 73.04 C67.97 42.9, 31.31 12.09, 12.3 -4.04 M101.11 68.91 C78.49 43.47, 49.57 22.09, 17.42 -5.85 M103.18 68.6 C81.02 50.08, 60.09 30.36, 17.64 -5.52 M103.54 63.43 C71.71 34.85, 40.18 5.03, 19.63 -6.69 M102.95 62.38 C78.11 41.82, 55.89 19.96, 22.08 -6.96 M103.72 56.26 C86.29 43.45, 67.27 26.79, 24.96 -11.35 M101.88 57.75 C81.33 37.44, 60.13 19.63, 25.71 -11.24 M101.77 52.82 C77.62 26.9, 49.21 4.41, 29.21 -12.57 M103.71 52.9 C75.93 29.14, 48.69 4.92, 29.25 -10.81 M101.89 47.9 C84.03 29.09, 61.9 11.9, 34.8 -13.63 M101.82 46.19 C82.87 29.13, 62.25 11.32, 34.66 -12.94 M103.72 41.65 C88.31 30.08, 71.25 14.66, 39.78 -14.32 M102.56 42.07 C85.11 24.91, 66.61 10.15, 38.25 -13.85 M101.49 37.11 C80.32 16.42, 59.12 -4.31, 45.12 -14.94 M102.68 36.41 C89.08 24.62, 76.42 12.67, 44.12 -14.8 M103.33 32.16 C89.24 18.77, 71.63 3.28, 50.37 -13.34 M102.65 30.41 C86.22 16.67, 68.66 2.2, 49.95 -13.32 M102.51 25.06 C90.67 16.03, 82.42 9.04, 58.25 -12.38 M102.07 25.97 C89.03 12.24, 74.49 0.16, 57.7 -12.7 M104.66 18.44 C90.42 9.55, 82.41 1.2, 67.34 -13.07 M103.04 19.53 C88.26 9.03, 75.37 -2.56, 66.41 -11.33 M103.06 12.79 C93.92 7.04, 86.63 1.1, 74.11 -11.16 M101.54 15.49 C94.03 6.47, 85.36 -0.33, 74.4 -9.4 M102.81 9.76 C102.81 9.76, 102.81 9.76, 102.81 9.76 M102.81 9.76 C102.81 9.76, 102.81 9.76, 102.81 9.76 M103.8 10.84 C96.56 3.66, 91.84 -2.66, 85.34 -7.45 M102.97 10.3 C98.18 5.16, 92.36 1.05, 83.77 -7.47" stroke="#fab005" stroke-width="0.5" fill="none"></path><path d="M1.23 12.52 C1.15 50.49, -0.1 196.74, -0.49 238.63 C-0.87 280.52, -2.11 257.5, -1.09 263.86 C-0.07 270.22, 1.75 273.16, 5.65 276.78 C9.54 280.41, 14.36 283.67, 22.3 285.61 C30.25 287.55, 43.26 288.55, 53.29 288.43 C63.33 288.32, 75.04 287.6, 82.52 284.91 C90 282.22, 94.98 276.07, 98.19 272.29 C101.4 268.51, 101.18 267.22, 101.79 262.24 C102.4 257.27, 101.76 280.86, 101.85 242.45 C101.94 204.04, 102.66 70.52, 102.33 31.76 C102 -6.99, 101.35 15.47, 99.88 9.94 C98.41 4.41, 96.71 1.52, 93.53 -1.42 C90.35 -4.36, 88.2 -5.88, 80.81 -7.7 C73.41 -9.52, 58.6 -12.21, 49.16 -12.34 C39.72 -12.48, 31.75 -10.71, 24.17 -8.51 C16.59 -6.31, 7.6 -2.3, 3.69 0.87 C-0.22 4.03, 1.36 8.58, 0.69 10.46 C0.01 12.35, -0.37 12.05, -0.36 12.18 M0.4 11.93 C0.7 50.14, 1.65 197.87, 1.78 239.99 C1.92 282.1, 0.49 258.88, 1.21 264.65 C1.93 270.42, 2.31 271.04, 6.09 274.61 C9.87 278.18, 15.86 283.92, 23.88 286.05 C31.9 288.18, 44.42 287.69, 54.21 287.38 C63.99 287.07, 74.9 286.76, 82.57 284.17 C90.25 281.58, 97.3 275.18, 100.25 271.84 C103.21 268.5, 99.88 269.06, 100.28 264.11 C100.68 259.16, 102.19 281.22, 102.65 242.14 C103.12 203.06, 103.25 68.48, 103.07 29.63 C102.89 -9.21, 103.18 13.88, 101.55 9.09 C99.91 4.29, 96.83 3.79, 93.27 0.88 C89.7 -2.02, 87.48 -6.02, 80.17 -8.32 C72.86 -10.62, 58.56 -12.53, 49.4 -12.91 C40.24 -13.3, 32.48 -12.95, 25.2 -10.62 C17.93 -8.29, 9.97 -2.42, 5.73 1.06 C1.5 4.54, 0.45 8.34, -0.22 10.28 C-0.89 12.22, 1.4 12.27, 1.71 12.71" stroke="#000000" stroke-width="1" fill="none"></path></g></g><g stroke-linecap="round"><g transform="translate(61.673866440520385 166.88619430436114) rotate(89.99999999999994 49.13412057989443 11.5364472050166)"><path d="M0.87 -0.3 C1.38 0.96, 0.26 6.05, 2.25 9.27 C4.24 12.49, 8.27 16.84, 12.81 19.04 C17.34 21.25, 22.9 21.81, 29.47 22.5 C36.03 23.19, 43.89 23.62, 52.21 23.17 C60.52 22.73, 71.98 22.3, 79.36 19.81 C86.74 17.33, 93.29 11.62, 96.48 8.27 C99.66 4.92, 98.24 1.2, 98.48 -0.27 M-0.14 1.87 C0.26 3.74, -1.44 7.71, 1.11 10.21 C3.66 12.71, 10.34 14.77, 15.17 16.9 C20 19.03, 24.16 21.96, 30.1 22.99 C36.03 24.02, 42.34 23.26, 50.79 23.07 C59.23 22.87, 73.55 24.02, 80.76 21.84 C87.97 19.67, 91.3 13.73, 94.07 10.02 C96.83 6.3, 96.44 1.54, 97.35 -0.44" stroke="#000000" stroke-width="1" fill="none"></path></g></g><g stroke-linecap="round"><g transform="translate(151.1633793196799 165.83282309801467) rotate(89.99999999999994 48.94055673336834 9.319956738218877)"><path d="M-0.85 0.09 C-0.81 1.09, -1.04 4.73, 1.46 7.33 C3.96 9.93, 9.81 13.74, 14.15 15.69 C18.49 17.65, 21.34 18.47, 27.48 19.07 C33.63 19.67, 42.58 19.5, 51.01 19.31 C59.44 19.12, 70.88 19.95, 78.04 17.94 C85.2 15.94, 90.52 10.48, 93.97 7.28 C97.42 4.08, 97.98 0, 98.73 -1.24 M0.91 -1.14 C1.2 -0.1, 1.46 5.86, 3.58 8.34 C5.69 10.82, 9.66 11.75, 13.58 13.73 C17.5 15.72, 20.59 19.23, 27.11 20.22 C33.63 21.22, 44.07 20.14, 52.7 19.69 C61.32 19.24, 71.97 19.82, 78.86 17.51 C85.75 15.2, 90.88 9.07, 94.04 5.83 C97.21 2.58, 97.4 -0.78, 97.87 -1.99" stroke="#000000" stroke-width="1" fill="none"></path></g></g><g stroke-linecap="round" transform="translate(242.30667393109883 156.23102733472814) rotate(89.99999999999994 49.89293035878424 22.18132326563932)"><path d="M45.12 1.04 C54.48 0.51, 67.08 1.9, 75.43 3.9 C83.78 5.9, 91.36 9.17, 95.21 13.03 C99.06 16.89, 100.68 22.63, 98.53 27.05 C96.37 31.47, 89.56 36.57, 82.27 39.55 C74.98 42.52, 64.21 44.5, 54.77 44.9 C45.33 45.3, 34.13 44.32, 25.62 41.93 C17.12 39.53, 7.83 34.66, 3.72 30.54 C-0.39 26.41, -1.32 21.4, 0.96 17.19 C3.23 12.98, 9.29 7.99, 17.38 5.27 C25.47 2.55, 43.3 1.59, 49.49 0.88 C55.68 0.17, 54.47 0.66, 54.51 1.02 M62.12 0.3 C71.29 0.7, 80.47 3.1, 86.76 6.48 C93.05 9.86, 98.98 15.93, 99.86 20.58 C100.73 25.24, 97.35 30.74, 92.01 34.41 C86.67 38.08, 76.72 40.88, 67.84 42.63 C58.95 44.37, 47.82 46.1, 38.71 44.86 C29.59 43.63, 19.41 38.76, 13.14 35.21 C6.88 31.66, 2.13 27.64, 1.12 23.57 C0.11 19.49, 2.1 14.36, 7.09 10.74 C12.07 7.11, 22.15 3.37, 31.03 1.81 C39.91 0.25, 55.26 1.73, 60.39 1.38 C65.52 1.02, 61.76 -0.72, 61.81 -0.33" stroke="none" stroke-width="0" fill="#fff"></path><path d="M28.58 2.01 C36.6 -0.06, 49.85 -0.59, 59.43 0.46 C69 1.5, 79.47 5.08, 86 8.29 C92.53 11.49, 97.38 15.61, 98.61 19.66 C99.84 23.72, 98.11 28.77, 93.39 32.61 C88.67 36.44, 79.15 40.64, 70.29 42.66 C61.43 44.68, 49.96 45.8, 40.23 44.75 C30.5 43.7, 18.71 39.87, 11.93 36.36 C5.14 32.85, 0.37 28.01, -0.49 23.68 C-1.35 19.36, 1.5 14.11, 6.76 10.43 C12.02 6.75, 26.66 2.96, 31.07 1.6 C35.48 0.23, 32.98 2.02, 33.22 2.22 M65.21 1.93 C74.42 2.78, 83.54 4.63, 89.26 7.9 C94.98 11.17, 99.18 17, 99.55 21.54 C99.92 26.07, 97.21 31.32, 91.47 35.1 C85.72 38.89, 74.38 42.75, 65.06 44.26 C55.74 45.78, 44.47 45.41, 35.53 44.19 C26.59 42.97, 17.52 40.53, 11.43 36.97 C5.34 33.4, -0.81 27.61, -1 22.78 C-1.19 17.96, 4.37 11.73, 10.29 8 C16.2 4.27, 25.69 1.48, 34.5 0.41 C43.32 -0.67, 58.09 1.41, 63.17 1.54 C68.24 1.68, 64.99 1.1, 64.97 1.2" stroke="#000000" stroke-width="1" fill="none"></path></g><g transform="translate(39.76732684119355 235.334435179914) rotate(0 122.69230769230765 14.5)"><text x="0" y="20.999999999999986" font-family="Virgil, Segoe UI Emoji" font-size="22.307692307692296px" fill="#000000" text-anchor="start" style="white-space: pre;" direction="ltr">RabbitMQ messageBus</text></g><g stroke-linecap="round"><g transform="translate(1192.0614004840227 189.83836401885264) rotate(0 38.30021265447124 -6.691568463152009)"><path d="M-0.78 0.44 C12.15 -1.52, 64.37 -9.84, 77.38 -12.28 M1.01 -0.37 C13.76 -2.6, 63.63 -11.68, 76.15 -13.83" stroke="#000000" stroke-width="1" fill="none"></path></g><g transform="translate(1192.0614004840227 189.83836401885264) rotate(0 38.30021265447124 -6.691568463152009)"><path d="M50.92 0.3 C59.39 -3.96, 63.56 -6.67, 76.58 -15.81 M50.83 1.57 C60.29 -4.67, 68.12 -10.61, 77.02 -12.92" stroke="#000000" stroke-width="1" fill="none"></path></g><g transform="translate(1192.0614004840227 189.83836401885264) rotate(0 38.30021265447124 -6.691568463152009)"><path d="M47.33 -19.9 C56.73 -18.45, 61.91 -15.47, 76.58 -15.81 M47.24 -18.64 C58.2 -17.48, 67.35 -16, 77.02 -12.92" stroke="#000000" stroke-width="1" fill="none"></path></g></g><g stroke-linecap="round"><g transform="translate(1020.0614004840227 278.36690079677606) rotate(0 33.67525998872702 -37.75926003119443)"><path d="M0.95 1.13 C11.72 -11.5, 54.08 -62.07, 65.11 -74.69 M-0.01 0.68 C11.1 -11.81, 56.19 -63.76, 67.36 -76.65" stroke="#000000" stroke-width="1" fill="none"></path></g></g><g stroke-linecap="round"><g transform="translate(317.34283769049927 178.13673826638535) rotate(0 61.24126892240554 10.474999498341532)"><path d="M0.65 -0.61 C20.83 3.09, 100.67 17.82, 120.84 21.56 M-0.47 1.68 C20.08 5.1, 102.75 16.78, 122.95 19.84" stroke="#000000" stroke-width="1" fill="none"></path></g><g transform="translate(317.34283769049927 178.13673826638535) rotate(0 61.24126892240554 10.474999498341532)"><path d="M92.55 24.02 C103.16 23.55, 111.9 23.09, 121.47 20.02 M92.92 26.23 C101.52 24.47, 110.66 22.67, 122.72 19.19" stroke="#000000" stroke-width="1" fill="none"></path></g><g transform="translate(317.34283769049927 178.13673826638535) rotate(0 61.24126892240554 10.474999498341532)"><path d="M95.52 3.71 C105.19 8.98, 113.09 14.23, 121.47 20.02 M95.89 5.92 C103.56 9.97, 111.85 13.98, 122.72 19.19" stroke="#000000" stroke-width="1" fill="none"></path></g></g></svg>