<?xml version="1.0" encoding="UTF-8" standalone="no" ?>
<!DOCTYPE svg PUBLIC "-//W3C//DTD SVG 1.1//EN" "http://www.w3.org/Graphics/SVG/1.1/DTD/svg11.dtd">
<svg xmlns="http://www.w3.org/2000/svg" xmlns:xlink="http://www.w3.org/1999/xlink" version="1.1" width="640" height="240" viewBox="0 0 640 240" xml:space="preserve">
<desc>stolen from ✨the internet✨</desc>
<defs>
</defs>
<g transform="matrix(0.04 0 0 -0.04 106.93 119.54)"  >
	<path style="stroke: none; stroke-width: 1; stroke-dasharray: none; stroke-linecap: butt; stroke-dashoffset: 0; stroke-linejoin: miter; stroke-miterlimit: 4; fill: rgb(255,255,255); fill-rule: nonzero; opacity: 1;"  transform=" translate(-3535.52, -2794.97)" d="M 3335 5263 c -526 -47 -1011 -250 -1401 -587 c -294 -253 -506 -539 -660 -889 c -45 -104 -114 -303 -114 -331 c 0 -12 -4 -26 -9 -32 c -13 -13 -47 -184 -66 -327 c -25 -197 -18 -531 16 -717 c 15 -86 40 -193 49 -215 c 4 -11 13 -45 20 -75 c 40 -171 176 -463 311 -665 c 449 -673 1172 -1076 1974 -1102 c 414 -13 790 68 1160 252 c 328 163 570 349 788 606 c 394 466 598 1008 598 1594 c 1 800 -358 1527 -986 1999 c -360 271 -747 425 -1205 481 c -112 13 -366 18 -475 8 z m 346 -223 c 388 -23 767 -150 1090 -366 c 466 -311 805 -788 938 -1320 c 53 -213 65 -317 66 -564 c 0 -241 -8 -312 -55 -515 c -152 -643 -590 -1194 -1187 -1493 c -449 -226 -957 -292 -1452 -191 c -828 169 -1506 815 -1716 1633 c -18 72 -40 181 -49 241 c -16 116 -25 218 -20 212 c 2 -2 35 -66 73 -143 c 223 -443 618 -749 1101 -851 c 108 -23 150 -27 305 -27 c 131 -1 206 4 275 17 c 214 40 423 124 604 244 c 130 86 348 301 429 424 c 333 503 374 1103 112 1634 c -219 445 -631 760 -1119 857 c -59 12 -168 22 -265 26 l -163 7 l 70 27 c 196 76 445 132 657 148 c 144 10 136 10 306 0 z m -630 -430 c 265 -54 481 -173 685 -375 c 210 -209 341 -464 389 -760 c 23 -137 20 -146 -21 -70 c -126 239 -346 414 -611 487 c -114 31 -363 31 -477 0 c -177 -49 -319 -133 -451 -267 c -110 -112 -175 -217 -229 -375 c -37 -109 -40 -123 -44 -261 c -7 -221 35 -387 140 -560 c 60 -100 224 -267 310 -317 c 138 -81 283 -130 416 -139 c 45 -3 82 -9 82 -13 c 0 -10 -134 -46 -243 -67 c -127 -24 -400 -13 -532 20 c -522 134 -915 551 -1022 1084 c -24 124 -24 396 0 513 c 91 426 341 772 697 963 c 226 122 435 171 684 162 c 71 -3 173 -14 227 -25 z m 347 -926 c 155 -32 283 -105 393 -222 c 223 -239 269 -581 116 -877 c -60 -117 -200 -255 -317 -313 c -125 -62 -192 -77 -340 -77 c -142 0 -223 19 -341 82 c -241 126 -399 390 -399 668 c 0 470 435 833 888 739 z" stroke-linecap="round" />
</g>
<g transform="matrix(8.79 0 0 8.79 428.52 132.3)" style=""  >
		<text xml:space="preserve" font-family="'Open Sans', sans-serif" font-size="18" font-style="normal" font-weight="normal" style="stroke: none; stroke-width: 1; stroke-dasharray: none; stroke-linecap: butt; stroke-dashoffset: 0; stroke-linejoin: miter; stroke-miterlimit: 4; fill: rgb(255,255,255); fill-rule: nonzero; opacity: 1; white-space: pre;" ><tspan x="-25.64" y="5.65" style="font-weight: bold; ">NEXU</tspan></text>
</g>
</svg>