<svg version="1.1" xmlns="http://www.w3.org/2000/svg" viewBox="0 0 735.6666666666667 397.5255966367626" width="735.6666666666667" height="397.5255966367626">
  <!-- svg-source:excalidraw -->
  
  <defs>
    <style>
      @font-face {
        font-family: "Virgil";
        src: url("https://excalidraw.com/Virgil.woff2");
      }
      @font-face {
        font-family: "Cascadia";
        src: url("https://excalidraw.com/Cascadia.woff2");
      }
    </style>
  </defs>
  <rect x="0" y="0" width="735.6666666666667" height="397.5255966367626" fill="#ffffff"></rect><g stroke-linecap="round" transform="translate(10 315.4422633034293) rotate(0 96.33333333333337 36.04166666666666)"><path d="M0 0 C0 0, 0 0, 0 0 M0 0 C0 0, 0 0, 0 0 M-0.44 7.14 C1.08 5.36, 1.96 4.25, 4.89 -0.35 M-0.43 6.1 C0.83 4.85, 2.32 4.14, 5.26 0.62 M-1.35 12.51 C4.89 9.95, 5.21 6.23, 11.44 -1.33 M-0.17 12.1 C3.3 8.22, 8.32 3.05, 10.92 0.67 M-1.96 19.76 C4.2 10.38, 12.38 7.87, 14.43 -1.19 M0.3 18.22 C4.15 13.6, 5.87 10.51, 14.92 1.28 M-0.67 22.18 C8.58 14.37, 14.69 6.18, 22.36 -1.77 M0.51 23.95 C5.02 18.97, 11.28 11.81, 21.09 -0.96 M0.12 31.84 C8.97 22.26, 17.4 11.25, 24.44 -0.21 M0.72 30.73 C9.58 18.27, 20.19 6.44, 26.73 -0.44 M-1.22 36.26 C8.47 24.53, 19.54 14.32, 33.2 -1.02 M-0.58 37.41 C6.52 29.1, 14.28 20.37, 32.59 0.2 M-1.46 42.31 C9.22 32.01, 19.37 19.2, 37.92 -0.81 M0.03 41.81 C10.28 32.48, 18.31 21.89, 36.49 -0.47 M0.09 48.01 C11.77 35.96, 25.63 20.8, 44.41 -0.86 M-0.31 48.18 C11.34 34.53, 24.52 21.8, 43.31 0.57 M0.58 54.71 C10.12 42.79, 21.68 30.21, 48.25 0.43 M0.58 55.22 C11.89 40.67, 24.39 26.12, 48.47 0.02 M-1.01 62.62 C12.17 48.31, 19.76 34.53, 54.53 -0.99 M-0.56 61.33 C16.98 42.55, 33.81 22.49, 53.96 -0.46 M-0.9 67.07 C10.8 53, 24.16 39.79, 59.09 0.68 M-1.09 66.6 C20.06 44.56, 41.08 20.56, 57.82 0.98 M2.78 73.49 C21.48 49.16, 38.92 25.79, 64.31 0.61 M0.97 71.56 C21.11 49.32, 40.58 26.99, 64.13 -0.38 M5.08 74.15 C25.68 48.31, 45.7 26.37, 68.33 -1.15 M6.33 71.67 C18.05 57.39, 31.02 43.4, 68.55 -0.53 M9.55 73.98 C31.64 49.34, 53.58 23.44, 72.79 -0.24 M11.99 72.87 C24.61 55.91, 40.5 39.81, 74.28 0.45 M14.58 71.01 C39.63 46.92, 61.06 22.27, 80.11 -0.4 M15.83 71.81 C39.78 46.25, 62.92 18.57, 79.57 -0.3 M20.6 73.08 C44.14 48.96, 63.92 26.39, 85.22 -2.02 M22.05 72.29 C39.47 53.4, 56.54 33.4, 85.74 -1.22 M27.28 73.45 C47.3 47.98, 69.34 23.48, 88.82 1.37 M26.65 72.58 C48.82 46.69, 73.1 20.5, 90.65 0.98 M32.66 70.96 C53.42 46.42, 78.83 19.53, 97.13 -1.42 M32.77 73.38 C56.72 44.56, 81.79 15.96, 94.72 0.51 M37.68 73.79 C53 53.36, 67.18 37.95, 99.12 0.31 M37.49 73.35 C60.3 46.68, 82.65 20.29, 100.43 -0.23 M42.7 71.27 C58.33 53.16, 75.12 36.36, 106.29 -1.4 M42.6 72.59 C58.58 55.61, 73.62 36.91, 106.3 0.63 M46.57 74.06 C66.36 49.28, 86.69 29.16, 109.9 -1.65 M47.95 72.64 C66.92 51.42, 86.13 29.09, 110.43 -0.36 M51.94 73.7 C72.6 52.08, 87.95 29.61, 116.07 1.58 M52.92 73.75 C66.26 57.35, 78.11 43.64, 115.79 0.04 M56.96 74.06 C75.26 54.82, 89.93 34.6, 122.3 -0.85 M58.47 72.08 C84.39 43.39, 108.81 16.68, 121.05 -0.73 M64.54 70.9 C80.23 56.63, 94.55 39.68, 126.03 -1.44 M64.62 73.04 C87.11 46.4, 107.32 22.21, 127.33 0.49 M70.12 71.32 C89.19 49.68, 107.3 29.03, 131.71 0.13 M70.41 72.44 C92.34 45.82, 117.13 18.95, 131.57 0.51 M74.89 73.3 C95.1 48.15, 116.27 23.97, 136.05 0.59 M75.46 71.8 C91.31 53.52, 109.06 34.64, 137.98 1.12 M81.57 73.15 C100.81 45.18, 124.67 21.48, 143.79 0.46 M79.95 71.58 C98.84 50.46, 117.72 27.63, 144.12 0.28 M83.64 73.06 C105.11 48.6, 128.38 21.5, 148.9 -0.3 M86.1 72.47 C104.08 52.87, 121.22 32.51, 148.32 -0.57 M89.09 72.58 C104.07 56.94, 118.1 41.45, 154.41 1.06 M90.19 72.54 C112.74 48.6, 133.03 23.86, 153.73 0.68 M97.68 72.1 C113.35 52.34, 135.46 30.81, 157.6 1.7 M96.06 72.62 C107.32 56.83, 121.66 42.94, 157.81 0.08 M100.68 72.4 C124.17 50.28, 142.23 26.31, 165.74 0.59 M101.09 71.43 C124.5 45.49, 147 19.57, 164.3 -1.12 M106.15 74.1 C127.33 47.31, 148 25.74, 169.41 2.12 M105.74 72.95 C129.76 45.6, 151.34 19.77, 168.78 0.8 M110.62 73.17 C128.84 51.3, 144.74 32.32, 174.16 -0.52 M111.48 71.53 C134.43 46.47, 158.54 20.59, 174.6 -0.78 M116.44 72.46 C129.73 54.33, 143.98 39.59, 181.85 -1.75 M116.39 73.28 C131.06 57.58, 144.25 41.3, 180.44 0.49 M123.44 73.17 C142.88 49.51, 161.7 29.34, 186.32 -0.12 M123.07 73.21 C137.03 55.06, 151.22 39.34, 186.28 -0.86 M126.21 74.36 C144.85 51.07, 165.72 31.23, 190.7 1.15 M128.19 72.56 C145.7 51.49, 165.3 29.57, 190.88 -0.84 M133.89 72.45 C157.6 46.82, 179.25 19.14, 193.15 3.99 M132.45 71.98 C157.99 44.77, 181.33 17.93, 193.88 1.48 M139.35 72.72 C155.97 51.78, 176.11 31.67, 195.41 7.15 M138.13 72.86 C154.92 53.03, 172.28 34.14, 194.49 7.49 M142.34 73.55 C159.93 56.15, 171.6 39.16, 195.22 13.01 M142.41 73.24 C161.58 51.85, 180.62 30.9, 194.24 13.48 M150 74.19 C165.4 53.71, 185.29 31.65, 194.88 19.78 M148.13 73.38 C168.06 53, 184.51 31.23, 195.74 18.72 M153.38 74.51 C168.05 57.66, 183.83 37.73, 194.47 24.56 M154.6 73.24 C170.23 54.62, 185.75 36.81, 194.17 26.16 M158.55 71.21 C167.31 64.03, 174.54 54.48, 194.91 31.55 M158.94 72.44 C169.76 61.03, 179.16 50.84, 194.61 32.46 M163.86 73.37 C169.9 66.09, 178.21 55.84, 194.53 39.8 M165.58 73.6 C170.63 64.89, 177.81 57.4, 194.81 37.46 M171.66 73.93 C175.25 63.65, 182.95 58.81, 193.57 42.99 M170.23 71.49 C179.03 62.31, 187.68 52.18, 193.99 43.71 M173.56 73.18 C181.53 64.55, 187.03 55.8, 193.3 49.65 M175.43 72.35 C180.56 65.15, 187.2 59.23, 194.18 50.45 M182.21 74.28 C186.34 67.63, 187.89 63.1, 193.24 54.67 M180.5 73.1 C185.4 67.88, 190.61 61.8, 193.7 56.86 M184.97 74.05 C188.29 70.35, 190.78 67.59, 194.31 63.33 M185.36 72.68 C188.45 69.89, 189.7 68.33, 194.47 62.39 M191.95 72.76 C192.24 71.13, 193.33 70.43, 194.87 68.48 M191.4 72.53 C192.29 71.55, 193.28 70.37, 194.84 68.62 M-0.22 71.89 C-0.22 71.89, -0.22 71.89, -0.22 71.89 M-0.22 71.89 C-0.22 71.89, -0.22 71.89, -0.22 71.89 M6.32 72.13 C4.07 70, 2.18 68.75, 0.14 67.69 M6.33 71.99 C3.9 70.59, 2.26 68.88, -0.11 67.06 M10.47 70.39 C7.85 70.16, 4.46 68.01, -0.82 61.27 M11.06 71.1 C8.21 68.67, 3.57 65.31, 0.33 61.97 M18.71 70.22 C12.34 66.15, 4.8 60, -0.73 54.8 M19.08 71.61 C13.62 67.47, 7.38 62.81, -0.47 56.54 M25.56 71.64 C17.45 67.09, 11.84 62.76, 0.43 51.07 M24.71 72.38 C14.81 63.61, 7.55 57.45, 0.32 50.46 M30.4 71.16 C21.74 61.48, 9.71 54.26, 1.97 45.64 M29.44 71.59 C24.57 66.05, 17.5 60.49, 0.44 45.48 M36.05 70.98 C25.5 65.02, 18.59 56.27, -0.25 40.32 M36.2 72.47 C25.81 62.97, 15.52 53.26, 0.13 40.71 M42.51 72.21 C30.68 61.72, 21.52 54.97, -1.47 33.91 M43.28 72.52 C29.79 61.87, 16.14 49.03, -0.91 35.36 M47.63 70.29 C34.78 58.08, 17.11 43.97, 0.41 30.44 M49.44 72.63 C38.01 62.81, 29.01 54.41, -0.83 28.71 M55.93 70.49 C36.67 56.53, 17.49 40.3, 1.45 25.92 M54.86 72.41 C44.85 62.26, 31.44 50.73, -0.81 24.58 M59.8 72.84 C41.77 54.21, 24.22 40.72, 0.79 21.25 M60.63 72.75 C36.9 49.57, 13.4 29.61, 0.36 20.06 M68.05 70.83 C39.85 48.94, 14.68 28.2, 1.51 13.7 M67.57 72.37 C53.59 60.74, 39.14 47.13, -0.68 14.65 M75.11 72.34 C58.16 58.34, 41.28 44.09, -0.71 8.36 M73.63 72.48 C58.19 59.16, 41.98 46, 1.19 9.53 M77.78 71.13 C65 57.61, 48.41 45.12, -0.28 3.05 M78.95 71.97 C52.19 49.6, 25.4 25.58, -1.05 2.2 M84.05 70.28 C53.41 46.6, 25.14 19.45, -0.45 -0.25 M84.87 72.65 C57.26 49.21, 30.52 25.58, 1.07 -0.38 M90.26 71.08 C64.67 47.48, 37.53 22.43, 6.92 0.08 M91.38 71.9 C64.03 47.1, 35.38 23.56, 7.95 -0.46 M97.66 71.83 C76.96 54.38, 53.76 37.11, 12.54 -2.99 M97.94 71.18 C69.71 47.96, 42.3 24.4, 13.35 -2.15 M105.63 72.73 C72.64 45.58, 44.19 18.96, 17.59 -0.56 M104.9 72.65 C86.62 56.8, 69.09 41.86, 18.52 -1.05 M108.44 71.31 C77.96 45.19, 46.79 19.67, 25.58 0.49 M110.56 72.45 C81.42 48.99, 55.58 26.25, 24.35 -2.19 M116.03 73.95 C100.06 58.32, 79.37 43.1, 30.97 0.26 M116.14 71.85 C87.11 46.56, 55.72 20.85, 32.2 -1.51 M123.18 72.76 C101.88 55.67, 80.16 36.37, 36.32 -1.25 M121.3 71.97 C95.92 48.57, 68.3 26.29, 37.34 -1.26 M126.11 72.32 C107.56 56.14, 90.41 39.55, 45.09 -0.68 M128.88 72.23 C107.38 55.86, 89.04 38.45, 43.97 -0.71 M135.64 70.61 C110.09 51.3, 85.96 27.47, 50.4 0.14 M134.39 73.03 C114.15 55.3, 94.26 37.62, 50.22 -0.98 M142.01 70.49 C114.57 46.48, 87.04 23.83, 56.22 -0.84 M141.01 72.98 C122.84 56.78, 105.46 40.33, 55.64 -2.37 M147.59 71.11 C124.41 54.14, 102.07 35.08, 61.96 0.75 M146.64 72.08 C116.6 46.77, 89.82 22.63, 62 -1.86 M152.14 72.89 C133.08 56.74, 113.19 39.86, 67.63 0.73 M151.31 72.43 C118.79 43.15, 87.88 15.32, 68.69 -0.46 M157.3 72.2 C132.44 49.81, 102.19 24.45, 74.65 -2.26 M158.02 72.66 C128.36 47.01, 98.2 21.12, 73.83 -1.97 M163.88 74.34 C133.39 42.93, 100.36 13.11, 78.58 0.77 M164.18 72.68 C133.01 44.98, 99.71 17.19, 81.2 -1.79 M172.54 72.93 C138.52 41.96, 103.34 13.95, 86.36 -1.97 M170.62 72.79 C140.92 45.94, 112.8 20.04, 85.74 -2.24 M176.62 73.45 C145.66 47.9, 118.03 19.74, 92.84 -0.28 M176.62 72.98 C149.7 49.93, 125.24 27.27, 92.36 -2.06 M183.33 70.09 C163.53 53.75, 144.81 37.9, 97.99 -1.07 M183.38 71.58 C157.57 51.27, 132.53 28.74, 99.38 -1.79 M190.27 72.54 C160.93 49.49, 133.77 23.86, 103.69 -0.88 M188.79 71.71 C155.82 42.72, 120.78 14.64, 103.53 -0.51 M193.18 69.56 C170.7 49.15, 145.86 28.68, 110.44 -2.43 M193.4 70.66 C170.09 50.36, 144.74 29.57, 111.01 -0.64 M194.67 64.47 C174.73 50.13, 156.04 34.83, 114.64 -1.72 M193.42 65.11 C163.28 37.96, 132.16 12.97, 116.9 -1.26 M194.05 58.46 C168.6 38.54, 143.27 16.91, 121.09 -1.25 M194.81 60.21 C168.83 38.67, 145.06 17.11, 122.02 -1.67 M192.48 53.03 C177.74 38.84, 158.41 25.94, 128.22 -1.12 M192.67 55.76 C169.21 34.03, 147.33 14.69, 130.32 -0.65 M194.02 48.66 C179.85 37.81, 165.56 26.77, 136.84 0.41 M194.53 50.59 C172.59 32.87, 153.03 14.7, 135.95 -1.31 M194.12 45.07 C178.47 31.52, 161.41 15.26, 142.93 -1.59 M193.09 44.66 C179.98 31.97, 165.9 20.71, 142.24 -1.84 M192.12 39.96 C180.11 27.03, 170.2 18.18, 146.84 -1.8 M193 39.44 C176.93 25.12, 160.9 11.93, 147.19 -0.86 M191.75 33.27 C179.06 22.5, 168.12 13.09, 153.81 -1.93 M193.57 34.01 C178.82 21.52, 163.05 6.86, 154.24 -0.92 M193.62 29.91 C186.15 20.71, 173.58 10.97, 159.23 -1.79 M193.56 29.51 C184.27 20.36, 174.29 13.04, 159.76 -1.85 M191.75 24.04 C182.91 12.9, 174.8 4.99, 165.37 0.16 M193.89 23.15 C185.6 15.22, 177.18 8.07, 166.03 -1.52 M194.04 17.8 C185.88 9.64, 179.22 3.24, 170.15 -1.72 M194.42 18.69 C186.27 10.74, 177.47 4.32, 172.3 -0.64 M194.77 13.55 C187.92 8.97, 180.85 1.7, 176.38 -3.3 M192.69 12.5 C188.04 7.59, 181.64 2.38, 178.2 -2.11 M194.65 8.18 C189.79 5.28, 188.78 1.8, 184.14 -0.43 M194.34 7.75 C191.1 6.08, 190.23 3.31, 184.36 -0.76 M193.01 1.26 C192.62 1.35, 192.01 0.71, 189.98 -1.15 M193.37 1.65 C192.3 0.75, 191.25 -0.07, 190.45 -1.06" stroke="#228be6" stroke-width="0.5" fill="none"></path><path d="M-1.99 -1.78 C51.09 -0.63, 100.3 1.74, 193.12 0.65 M0.77 0.77 C67.89 -1.09, 136.39 0.02, 191.74 0.19 M192.13 -1.71 C192.72 15.41, 194.2 28.97, 193.93 70.09 M193.43 -0.9 C193.46 28.4, 194.32 55.84, 192.53 72.93 M192.8 71.02 C134.44 71.28, 72.32 70.81, -0.67 71.81 M192.26 71.99 C131.52 71.37, 71.54 71.23, 0.63 71.95 M1.49 71.03 C-2.24 51.8, -1.02 32.19, 0.12 -1.22 M-0.4 71.24 C0.15 44.1, -1.02 17.19, 0.07 -0.25" stroke="#000000" stroke-width="1" fill="none"></path></g><g transform="translate(32.166666666666515 337.2755966367626) rotate(0 74.5 13)"><text x="0" y="19" font-family="Virgil, Segoe UI Emoji" font-size="20px" fill="#000000" text-anchor="start" style="white-space: pre;" direction="ltr">posts subgraph</text></g><g stroke-linecap="round" transform="translate(270.0769230769231 313.90380176496774) rotate(0 96.33333333333337 36.04166666666666)"><path d="M0 0 C0 0, 0 0, 0 0 M0 0 C0 0, 0 0, 0 0 M0.15 5.97 C1.08 4.11, 2.66 2.48, 4.41 0.79 M-0.42 6.11 C1.62 4.6, 3.82 2.1, 4.81 0.35 M1.64 11.47 C3.71 6.89, 8.48 2.45, 9.44 -0.82 M0.76 12.61 C1.81 9.74, 4.35 6.59, 10.69 -0.12 M0.62 18.65 C3.65 14.95, 8.19 8.46, 16.93 -0.18 M0.83 18.24 C3.84 13.17, 9.92 6.64, 16.45 1.12 M1.64 23.26 C6.75 15.35, 14.22 8.96, 22 0.11 M1.08 23.8 C7.12 15.04, 16.61 5.72, 21.12 -0.73 M0.96 30.97 C9.35 20.91, 14.9 9.81, 24.74 -0.58 M-0.32 31.27 C9.66 19.41, 18.71 9.44, 26.87 0.91 M0.27 37.7 C8.35 27.36, 16.15 18.89, 30.52 0.14 M0.09 36.71 C10.16 24.63, 19.39 13.29, 32.67 -0.65 M-0.3 41.21 C7.95 30.74, 20.9 21.72, 35 -0.96 M-0.08 41.84 C10.82 31.45, 20.24 18.12, 37.76 -0.17 M-1.75 48.92 C15.11 31.49, 31.12 11.81, 43.85 -1.25 M-0.25 49.61 C11 36.76, 22.53 22.38, 41.74 0.79 M0.98 54.05 C15.49 36.96, 27.38 20.67, 45.99 -0.76 M0.44 54.14 C16.79 36.83, 32.31 17.55, 47.96 1.13 M0.19 59.22 C15.85 42.45, 32.57 22.02, 53.38 1.35 M0.71 60.02 C19.27 38.35, 39.06 16.29, 53.61 -0.57 M-1.45 68.64 C18.34 47.07, 35.19 26.41, 58.22 -1.71 M0.37 68.26 C19.48 44.63, 39.09 22.58, 57.17 -0.79 M2.26 71.14 C23.72 47.23, 41.48 24.8, 64.75 -0.89 M-0.15 73.06 C17.52 53.22, 35.29 32.72, 64.43 0.2 M4.25 72.87 C19.75 58.82, 32.26 43.05, 70.47 0.24 M5.55 72.33 C29.75 43.98, 53.54 16.87, 67.97 -0.43 M11.42 71.16 C25.75 55.14, 41.59 36.98, 73.87 0.95 M11.43 73.18 C33.51 46.72, 55.71 20.65, 75.21 -0.82 M15.03 70.91 C31.39 53.58, 44.91 36.97, 79.75 -1.12 M15.56 72.19 C34.99 52.12, 53.66 29.62, 79.83 0.85 M21.85 73.38 C39.77 52.43, 62.65 27.77, 86.88 1.53 M21.57 71.84 C38.74 51.02, 56.34 31.29, 85.85 -0.43 M27.43 71.71 C50.38 48.01, 70.04 23.61, 89.33 1.76 M26.18 71.83 C38.81 56.21, 52.25 42.32, 89.08 0.8 M31.16 71.12 C51.08 49.99, 70.72 31.5, 96.17 1.28 M32.46 73.04 C47.07 55.53, 62.36 39.9, 95.13 -0.32 M36.84 72.69 C57.95 49.89, 76.2 31.27, 100.73 -1.82 M36.69 73.06 C60.68 46.45, 83.5 19.14, 100.93 0.32 M41.18 73.14 C58.26 53.27, 74.62 36.97, 104.38 -1.63 M43.11 73.67 C63.21 50.05, 81.91 26.96, 106.69 -1.03 M48.91 73.02 C61.81 56.42, 76.5 40.81, 109.73 -0.84 M49.25 72.84 C69.57 50.04, 89.82 25.05, 111.46 -0.6 M54.03 72.26 C74.43 47.05, 95.71 25.36, 115.76 1.46 M53.45 71.99 C74.47 47.65, 97.69 20.9, 116.4 0.77 M59.54 73.62 C76.58 53.13, 92.48 31.1, 122.34 1.52 M58.86 73.23 C81.57 46.42, 103.57 21.62, 121.63 -0.81 M62.73 74.25 C84.81 46.92, 112.02 19.07, 126.76 -1.29 M62.94 72.63 C79.87 52.86, 95.84 34.78, 126.96 1.25 M70.87 73.15 C93.54 45.4, 114.68 19.5, 130.83 -0.22 M69.43 71.44 C85.2 55.09, 100.89 37.83, 133.27 -0.05 M74.53 74.67 C91.98 55.66, 107.97 33.85, 138.12 2.3 M73.91 73.35 C92.03 52.04, 109.1 31.61, 137.99 0.01 M79.29 72.03 C95.43 55.73, 106 40.64, 141.71 -1.76 M79.73 71.77 C96.04 53.05, 113.23 33, 143.1 -0.94 M86.98 70.81 C96.81 57.69, 112.52 42.13, 149.48 1.4 M85.57 73.05 C107.55 47.82, 130.32 21.25, 148.64 0.97 M91.45 72.43 C107.17 50.23, 126.8 30.95, 155.77 -1.05 M91.4 71.7 C107.56 53.53, 123.24 34.04, 154.7 -0.97 M95.83 73.71 C114.48 50.79, 133.88 29.81, 158.74 -1.08 M96.01 71.71 C119.58 46.33, 141.34 19.42, 158.92 1.23 M100.24 74.28 C122.58 50.13, 141.49 25.6, 164.02 1.69 M100.97 71.77 C121.38 48.85, 141.38 26.25, 164.52 -0.5 M107.1 72.16 C126.3 48.37, 146.69 25.07, 170.04 -0.47 M106.18 72.5 C123.67 51.74, 141.53 31.7, 169.74 0.97 M112.81 71.23 C133.59 50.72, 150.7 25, 175.73 0.02 M111.83 71.7 C130.46 50.52, 147.36 31.01, 175.91 -0.79 M117.07 72.71 C139.66 46.94, 157.8 22.35, 181.78 1.65 M117.92 71.65 C142.23 44.74, 164.76 17.58, 180.87 -0.49 M122.56 70.7 C149.6 44.48, 174.03 16.38, 186.42 1.22 M122.26 72.3 C140.82 49.86, 161.62 26.82, 185.06 0.07 M128.25 71.65 C145.75 51.1, 166.75 28.36, 190.61 1.44 M127.94 72.56 C143.66 52.23, 161.63 32.56, 190.95 -0.69 M133.11 73.86 C153.44 45.97, 176.12 24.54, 195.88 0.61 M133.39 71.52 C147.56 56.47, 163.13 39.87, 195.1 1.35 M137.41 71.02 C153.11 56.71, 166.35 40.54, 192.85 8.38 M137.83 71.74 C153.6 55.7, 169.05 37.13, 194.94 7.49 M141.73 72.39 C158.21 56.68, 173.52 40.91, 193.59 12.51 M142.61 73.19 C156.01 57.27, 169.69 44.21, 195.43 14.71 M147.57 70.62 C163.86 55.33, 177.81 40.22, 196.27 19.11 M148.03 72.81 C167.05 52, 185.49 29.65, 195.87 19.71 M153.85 73.45 C166.44 57.29, 179.22 40.03, 194.33 27.67 M154.1 72 C163.02 62.38, 172.56 53.28, 195.4 25.63 M160.01 71.98 C169.12 59.72, 178.56 49.22, 195.55 31.27 M159.89 72.55 C173.94 55.72, 187.62 40.88, 194.28 32.04 M163.23 72.2 C176.41 60.08, 186.68 46.25, 194.63 36.37 M165 72.02 C176.08 60.32, 185.8 48.95, 194.73 38.47 M170.23 74.41 C177.34 62.57, 185.65 56.82, 193.65 42.53 M169.61 72.84 C177.43 63.27, 185.86 54.06, 193.64 43.9 M174.5 72.81 C182.85 64.32, 189.21 54.36, 193.25 50.66 M175.94 73.69 C182.76 65.86, 187.62 57.96, 193.99 50.75 M180.02 70.94 C185.2 68.97, 189.93 64.12, 193.81 58.55 M180.28 72.68 C184.67 67.78, 189.18 62.83, 194.31 56.13 M186.31 73.06 C189.35 68.67, 191.93 66.67, 194.5 61.74 M186.24 72.66 C187.76 70.77, 188.78 68.75, 194.13 63.54 M191.96 72.38 C191.79 71.86, 192.65 70.17, 194.61 68.96 M191.58 72.34 C192.33 71.22, 193.56 70.22, 194.62 68.43 M-0.22 71.89 C-0.22 71.89, -0.22 71.89, -0.22 71.89 M-0.22 71.89 C-0.22 71.89, -0.22 71.89, -0.22 71.89 M5.57 71.71 C4.97 71.61, 3.87 70.07, 0.23 67.17 M5.8 72.29 C3.93 70.02, 1.37 67.84, -0.2 67.29 M12.44 72.61 C6.72 69.27, 5.59 66.61, 0.74 60.83 M11.45 71.23 C9.16 68.56, 6.37 67.09, -0.97 61.18 M19.66 73.55 C10.9 65.44, 5.68 61.8, 0.37 58.24 M17.41 72.22 C12.19 65.83, 5.94 60.41, 0.59 56.19 M25.05 74.13 C20.46 65.72, 11.04 61.95, 1.44 50.12 M24.61 72.95 C20.39 68.76, 14.75 64.01, -0.95 50.12 M31.8 71.83 C21.01 64.02, 16.6 59.59, 0.52 46.84 M29.62 72.78 C18.24 61.66, 7.38 53.13, 0.04 46.43 M35.62 71.74 C21.39 60, 11.84 49.76, -0.18 39.58 M37.52 72.91 C26.75 63.33, 18.95 55.2, -0.76 40.94 M42.85 72.34 C31.82 61.46, 20.45 51.73, -0.05 35.04 M42.07 71.48 C26.99 58.9, 10.2 43.31, -0.96 34.28 M47.2 72.97 C33.23 58.03, 17.16 42.94, 0.4 27.64 M48.73 72.85 C30.89 56.17, 12.5 40.38, -0.76 29.89 M54.57 73.3 C39.34 59.7, 22.82 44.69, 0.05 26.27 M55.6 72.76 C42.5 61.26, 31.63 50.95, -0.15 24.54 M60.19 70.24 C43.75 56.76, 26.13 41.56, -1.56 19.24 M61 71.07 C45.95 57.93, 30.22 46.1, 0.53 18.99 M65.24 72.67 C44.86 52.95, 28.3 39.24, 0.47 13.69 M66.17 72.17 C51.52 58.19, 34.13 43.9, -0.38 13.18 M73.99 74.37 C50.54 52.9, 27.38 33.2, 1.21 7.11 M72.76 71.69 C49.75 53.43, 27.41 33.9, 1.17 9.46 M78.62 73.48 C49.86 44.09, 18.81 18.87, -0.9 4.22 M79.85 71.71 C55.6 52.37, 32.94 32.3, 0.38 3.26 M83.97 71.97 C57.52 46.43, 28.88 20.51, 1.24 0.37 M84.99 71.96 C63.74 53.64, 43.3 34.51, 1.14 -1.76 M92.74 72.54 C60.03 48.99, 31.34 23.37, 7.63 -2.91 M91.62 72.52 C60.2 45.06, 28.32 18.16, 6.55 -0.45 M98.05 73.37 C64.68 42.97, 36.12 17.61, 14.36 -2.26 M97.87 72.25 C70.62 48.7, 42.6 26.43, 12.33 -0.73 M104.63 73.03 C82.36 56.8, 63.04 40.01, 21.44 0.1 M104.05 71.51 C73.29 45.28, 44.69 20.12, 18.91 -1.27 M109.61 73.97 C84.56 50.82, 57.07 26.93, 24.77 -3.33 M109.65 71.36 C86.78 54.22, 65.12 34.71, 25.64 -1.41 M115.28 73.95 C85.1 44.57, 50.47 13.45, 32.64 -2.54 M116.34 72.76 C95.03 53.54, 74.75 35.68, 31.57 -0.68 M122.3 70.96 C92.86 47.01, 62.5 17.96, 38.99 -1.14 M121.48 71.25 C96.77 49.36, 69.2 25.48, 38.9 -0.13 M126.23 73.99 C106.26 50.94, 82.13 29.91, 44.14 -0.89 M128.85 71.43 C99.59 46.42, 69.18 21.85, 44.04 -1.1 M134.76 71.9 C118.11 56.39, 98.27 40.74, 51.54 -2.21 M134.15 71.64 C111.98 51.32, 88.31 31.94, 50.56 -2.06 M140.49 72.94 C106.73 43.47, 73.74 12.84, 57.06 -3.29 M140.01 71.16 C112.55 48.99, 86.5 26.85, 54.72 -1.85 M145.65 72.15 C127.48 55.29, 108.39 39.67, 61.45 -1.34 M147.03 71.43 C113.2 42.68, 79.39 14.23, 62.21 -1.29 M151.34 72.35 C121.87 44.75, 88.87 16.03, 67.57 0.34 M151.18 72.71 C131.45 54.28, 110.03 35.39, 67.65 -0.44 M158.09 70.79 C135.55 51.47, 114.52 31.31, 73.22 -0.23 M158.66 72.58 C132.49 50.67, 107.84 28.85, 73.57 -1.43 M163.04 72.16 C139.24 49.39, 108.96 24.43, 79.8 -0.16 M165.31 72.61 C146.1 56.77, 126.03 39.41, 79.45 -1.23 M168.74 71.98 C147.94 50.67, 122.21 32, 85.62 -2.85 M169.67 71.56 C146.32 49.81, 123.47 29.42, 85.2 -0.98 M175.87 72.1 C159.33 56.57, 139.64 37.38, 94.39 -3.2 M177.97 72.58 C158.65 56.44, 141.63 41.73, 91.91 -1.51 M184.49 73.63 C159 48.57, 134.6 29.77, 100.45 -2.74 M183.6 71.92 C151.98 45.42, 121.5 19.75, 99.34 -0.65 M190.58 71.64 C158.35 43.82, 128.74 18.43, 105.5 -2.12 M189.89 71.38 C167.54 52.08, 145.94 33.11, 104.92 -2.06 M193.73 70.77 C174.25 55.08, 154.97 34.73, 111.44 -1.68 M194.08 71.71 C171.32 52.03, 149.32 31.37, 110.79 -1.98 M193.91 64.74 C173.68 48.04, 151.95 28.89, 117.51 -0.5 M194.34 65.74 C164.56 39.42, 135.89 14.27, 117.25 -0.57 M193.3 59.62 C171.03 40.74, 150.32 20.13, 124.88 -1.71 M193.82 59.56 C176.7 44.77, 157 27.83, 123.53 -1.44 M193.4 56.32 C177.37 41.73, 162.08 28.26, 129.83 0.48 M194.06 54.65 C177.14 40.41, 160.25 25.99, 129.3 -0.94 M192.15 49.2 C181.64 39.83, 167.68 27.67, 136.54 0.21 M194.29 50.28 C178.32 36.16, 161.21 22.31, 135.64 -1.01 M192.33 42.37 C173.75 27, 151.25 6.68, 141.84 -0.57 M194.15 43.56 C177.2 28.77, 160.35 15.95, 142.09 -1.91 M194.17 40.42 C175.56 26.12, 159.81 12.82, 148.44 -3.14 M194.5 39.92 C174.04 23.19, 157.03 5.69, 146.08 -1.57 M191.74 32.67 C179.54 22.8, 165.39 8.69, 153.44 -1.32 M194.09 33.1 C183.03 22.82, 171.52 13.56, 153.76 -1.11 M193.53 27.94 C180.94 17.7, 169.63 9.16, 161.59 -0.54 M194.36 27.68 C187.79 22.3, 180.08 16.05, 159.44 -0.19 M194.89 22.78 C188.23 18.03, 179.39 9.16, 166.02 -2.36 M194.19 23.04 C183.42 13.1, 171.72 4.25, 164.59 -1.74 M194.6 16.2 C185.6 10.09, 176.06 3.62, 173.02 -1.02 M194.63 17.9 C185.54 9.66, 176.31 3.49, 170.91 -0.8 M195.29 13.97 C190.17 8.16, 185.14 5.11, 179.24 -2.52 M193.67 12.27 C187.1 7.54, 180.14 1.56, 177.73 -1.84 M192.63 7.33 C190.42 3.81, 186.85 1.82, 184.13 -1.65 M193.24 7.76 C189.97 4.76, 187.17 0.89, 184.52 -0.59 M193.22 1.58 C192.01 0.52, 191.63 -0.43, 190.6 -1.22 M193.2 1.48 C192.36 0.88, 191.15 -0.31, 190.25 -1.11" stroke="#228be6" stroke-width="0.5" fill="none"></path><path d="M1.01 -1.62 C76.77 -1.42, 150.41 -2.47, 192.8 -1.44 M0.36 0.88 C69.25 0.87, 138.04 0.01, 193.33 -0.51 M191.48 -1.52 C191.61 13.48, 193.51 30.76, 192.23 73.61 M191.97 0.96 C192.58 14.52, 191.65 29.31, 191.72 72.45 M193.77 70.39 C144.99 71.87, 99.16 71.85, -0.26 71.58 M192.5 71.19 C122.63 69.9, 50.83 70.82, 0.68 71.94 M-1.81 71.58 C2.03 43.63, -0.43 16.7, 0.49 -1.14 M0.48 71.35 C0.36 55.35, -0.41 37.67, -0.31 -0.88" stroke="#000000" stroke-width="1" fill="none"></path></g><g transform="translate(272.2435897435896 337.27559663676254) rotate(0 93.5 13)"><text x="0" y="19" font-family="Virgil, Segoe UI Emoji" font-size="20px" fill="#000000" text-anchor="start" style="white-space: pre;" direction="ltr">Comments subgraph</text></g><g stroke-linecap="round" transform="translate(533 311.4422633034293) rotate(0 96.33333333333337 36.04166666666666)"><path d="M0 0 C0 0, 0 0, 0 0 M0 0 C0 0, 0 0, 0 0 M-0.93 5.79 C1.25 4.79, 3.34 2.55, 4.73 0.99 M0.14 6.65 C1.61 4.36, 2.83 2.3, 5.09 0.52 M0.41 10.94 C3.69 8.37, 6.16 5.63, 11.19 -0.31 M-0.15 12.66 C3.19 7.79, 6.38 4.55, 10.45 -0.56 M0.97 16.56 C1.88 14.22, 5.75 11.61, 15.18 -1.04 M-1.07 19.33 C4.71 13.16, 10.29 6.42, 14.8 0.33 M1.39 25.41 C3.73 18, 11.56 13.34, 21 1.32 M-0.65 23.3 C8.31 15.53, 15.39 7.39, 21.61 -0.33 M-1.16 28.96 C8.96 20.07, 18.16 7.39, 26.59 -0.55 M-0.73 30.93 C9.36 20.83, 17.54 11.51, 26.34 -0.58 M-0.27 37.1 C9.76 28.26, 18.47 17.51, 33.29 -1.98 M-0.14 37.34 C10.09 24.34, 21.33 11.84, 31.29 0.54 M-0.66 42.6 C11.49 27.93, 28 12.44, 38.12 2.06 M0.45 41.55 C12.64 27.18, 27.14 11.67, 37.61 -0.3 M1.35 49.89 C15.96 29.58, 33.05 10.41, 40.61 1.5 M-0.12 49.56 C10.11 36.3, 19.85 25.54, 41.75 -0.01 M-0.1 56.26 C17.29 36.21, 33.4 16.32, 47.04 -0.33 M0.29 53.77 C12.18 40.23, 24.56 27.24, 47.5 -0.31 M-0.11 60.42 C13.99 47.15, 25.95 30.6, 53.15 1.77 M-0.86 61.76 C15.64 41.81, 32.35 24.22, 52.46 -1 M-0.97 67.71 C16.34 47.8, 34.7 26.21, 56.42 -0.57 M-0.93 67.79 C17.03 48.08, 32.46 27.93, 58.03 0.79 M0.05 74.08 C14.67 56.5, 25.62 43.71, 62.81 -0.88 M-0.19 73.06 C17.28 54.29, 32.58 35.03, 63.97 -0.62 M4.86 71.91 C32.08 42.65, 56.56 17.26, 67.03 -1.26 M6.1 71.66 C21.38 56.5, 35.64 39.86, 68.33 -0.74 M12.81 72.71 C35.42 45.08, 54.03 21.78, 75.27 0.05 M11.71 71.67 C31.06 49.56, 49.68 28.23, 73.99 -0.15 M18.1 72.65 C38.25 46.66, 64.49 19.79, 77.43 1.24 M16.59 72.84 C36.7 48.36, 57.63 24.37, 78.66 0.26 M23.87 70.26 C38.17 53.08, 56.61 34.95, 85.94 1.35 M22.75 72.57 C43.36 45.85, 66.55 21.04, 85.34 0 M26.56 70.98 C45.26 50.89, 64.1 27.01, 91.91 0.83 M26.27 72.7 C47.58 47.98, 70.03 21.99, 90.4 -0.2 M33.87 72.38 C51.66 53.32, 68.27 32.94, 95.98 -1.98 M31.16 73.02 C45.01 57.57, 58.6 42.26, 95.97 0.28 M36.41 72.92 C60.36 49.32, 79.57 24.41, 100.51 1.65 M38.61 72.21 C56 51.45, 76.61 29.7, 100.06 0.78 M43.16 72.71 C53.48 56.41, 69.42 43.3, 104.33 -0.67 M42.28 72.92 C64.68 50.02, 84.01 26.18, 106.95 0.03 M47.58 70.74 C71.27 45.05, 93.43 19.46, 111.02 -1.91 M48.16 73.19 C69.19 47.57, 89.89 24.85, 111.28 0.97 M51.88 73.41 C77.61 45.54, 97.77 20.34, 114.98 1.57 M52.56 73.28 C70.34 52.74, 86.83 33.43, 115.82 0.21 M57.73 70.97 C80.44 46.34, 106.04 20.61, 120.99 -1.2 M58.62 72.35 C72.45 55.13, 86.81 39.43, 122.82 -0.98 M62.56 74.11 C78.47 58.34, 91.59 41.05, 127.68 0.98 M64.28 73.27 C83.39 50.21, 102.5 28.97, 127.22 0.39 M70.28 74.36 C83.41 54.8, 97.3 40.04, 133.7 -1.32 M68.82 73.29 C87.55 50.9, 107.46 30.09, 132.56 0.46 M75.52 72.7 C91.89 52.34, 112.32 30.1, 137.93 -1.64 M74.82 72.89 C98.54 46.44, 121.41 18.73, 136.93 1.3 M78.4 71.95 C106.53 44.24, 130.25 16.98, 142.21 -1.14 M80.7 72.45 C100.31 48.9, 121.7 25.83, 143.51 -0.33 M84.78 73.34 C103.4 50.74, 123.29 30.02, 147.64 -0.05 M84.69 73.04 C104.51 51.9, 121.09 31.04, 148.53 -0.25 M89 72.99 C113.38 46.31, 137.24 20.78, 153.3 -1.25 M91.34 73.17 C114.4 45.86, 139.34 17.59, 153.8 -0.08 M94.14 74.42 C122.47 46.43, 144.09 15.84, 160.5 -1.71 M95.53 73.5 C119.02 47.12, 142.76 18.92, 158.71 -0.53 M102.76 73.01 C126.99 44.07, 150.93 16.61, 163.52 -0.01 M100.94 71.66 C114.65 57, 127.71 41.38, 164.71 -0.63 M105.14 72.58 C124.98 51.86, 141.99 33.54, 169.91 0.15 M106.08 72.92 C120.15 56.77, 135.13 39.19, 169.31 1.04 M114.08 73.78 C124.78 55.72, 139.7 40.1, 175.16 -1.53 M112.8 73 C127.89 51.81, 145.38 33.7, 174.61 -0.96 M117.08 70.71 C139.71 46.49, 162.05 20.42, 179.04 -1.46 M116.25 72.81 C138.15 47.35, 158.98 22.18, 179.26 -0.09 M123.15 71.32 C140.74 48.36, 161.34 28.12, 184.27 0.33 M123.4 73.16 C142.35 50.47, 159.5 29.37, 185 -1.18 M127.01 73.97 C149.25 49.32, 171.81 23.18, 188.81 0.73 M127.03 73.57 C145.58 51.78, 163.92 30.76, 190.64 0.42 M131.87 71.89 C149.92 53.77, 162.34 39.11, 194.66 0.24 M134.28 72.96 C151.2 50.6, 169.65 30.48, 194.57 1.75 M137.7 73.74 C153.61 56.17, 170.1 36.82, 195.34 7.79 M138.57 72.47 C157.76 50.84, 177.37 28.46, 194.08 7.32 M143.26 72.78 C157.53 55.42, 174.43 37.63, 195.33 12.39 M143.5 72.88 C164.2 49.25, 185.17 26.9, 194.5 15.03 M149.71 71.67 C162 55.6, 178.02 38.59, 193.65 20.47 M148.12 71.66 C160.02 59.8, 171.24 46.9, 194.53 19.69 M152.06 71.24 C167.34 58.81, 178.15 43.9, 196.08 27.86 M154.2 71.98 C169.83 55.44, 185.13 37.45, 194.21 25.35 M161.32 71.66 C171.76 60.66, 180.73 48.77, 193.21 33.02 M160.07 72.16 C167.65 62.78, 176.61 53.36, 194.72 32.7 M164.76 73.04 C173.91 58.17, 188.39 48.96, 195.98 37.79 M164.65 72.48 C175.71 60.61, 185.1 49.65, 195.71 38.12 M168.59 71.85 C176.39 66.48, 179.62 60.38, 195.23 44.19 M169.92 71.87 C176.2 65.28, 184.25 57.72, 194.54 44.68 M174.29 73.46 C179.55 66.31, 185.23 58.57, 195.8 51.58 M174.94 72.71 C178.86 66.61, 184.13 62.3, 194.14 49.61 M181.3 72.63 C185.68 69.22, 189.33 61.81, 192.74 57.26 M180.32 71.55 C186.29 67.33, 189.86 62.05, 195.02 57.1 M186.8 73.58 C187.22 69.86, 190.6 68.44, 193.76 62.1 M186.11 72.19 C188.75 69.48, 191.46 66.15, 194.84 63.46 M191.36 72.45 C192.7 71.85, 192.51 70.35, 194.36 68.71 M191.37 72.5 C192.52 71.03, 193.75 70.22, 194.82 68.84 M-0.22 71.89 C-0.22 71.89, -0.22 71.89, -0.22 71.89 M-0.22 71.89 C-0.22 71.89, -0.22 71.89, -0.22 71.89 M6.53 72.33 C5.38 71.63, 4.14 69.72, -0.37 67.62 M6.49 72.14 C5.1 71.13, 3.74 70.04, -0.07 66.82 M11.97 71.88 C8.99 68.88, 5.24 67.11, 1.12 62.48 M11.26 71.41 C10.13 69.44, 7.58 68, -0.34 61.23 M17.76 71.94 C12.07 68.35, 6.91 62.41, -1.86 54.42 M17.46 71.02 C10.91 66.65, 5.42 60.6, -0.64 56.75 M23.2 73.04 C14.79 66.7, 8.2 60.19, -0.24 52.29 M24.14 71.88 C16.93 64.98, 9.03 57.38, -0.55 51.14 M30.59 71.94 C22.01 61.66, 9.92 53.88, 1.09 46.62 M30.28 71.73 C22.93 65.54, 14.35 59.53, -0.2 44.82 M37.31 70.23 C24.32 60.85, 12.86 51.43, 0.21 38.38 M37.46 72.31 C22.88 60.41, 10.6 48.79, -1.27 40.26 M44.83 72.91 C34.15 63.54, 26.04 57.08, -1.9 35.06 M42.45 72.06 C26.94 58.76, 11.07 45.76, 0.26 36 M50.5 72.9 C31.14 58.77, 18.01 46.8, -1.92 27.94 M48.68 72.86 C39.3 63.77, 27.55 54.95, -0.64 30.11 M55.27 71.44 C36.97 55.47, 14.76 39.31, 1.35 23.78 M55.84 72.72 C42.02 61.48, 28.04 49.12, -0.8 24.23 M59.95 72.07 C43.17 54.48, 21.97 39.51, -0.8 18.78 M59.75 71.97 C46.31 60.25, 33.51 48.28, 1.13 19.73 M68.71 72.33 C49.49 60.08, 35.8 45.23, 0.76 15.03 M67.71 71.25 C47.45 54.98, 27.99 36.63, 0.18 14.37 M73.33 73.67 C55.39 57.82, 38.95 42.75, 0.83 8.98 M74.47 71.65 C50.95 50.81, 27.3 30.9, 0.63 9.08 M80.93 73.96 C63.58 58.32, 47.21 41.4, 0 1.34 M79.71 71.44 C58.6 54.94, 37.81 37.05, -0.09 4.11 M85.79 71.91 C54.71 46.32, 29.65 22.82, 1.03 -2.5 M85.55 72.78 C66.25 56.07, 46.81 39.38, 0.66 -0.36 M89.49 72.99 C57.17 42.6, 27.86 15.19, 8.02 0.04 M90.58 71.92 C64.8 49.14, 36.07 24.64, 7.75 -1.4 M96.51 73.21 C67.31 47.16, 36.52 21.08, 12.66 -2.59 M97.07 73.11 C65.21 42.97, 32.24 13.75, 12.16 -0.41 M102.42 72.97 C72.28 45.53, 38.07 18.09, 20.99 -2.49 M104.98 72.87 C71.68 43.24, 37.63 14.93, 19.62 -1.32 M109.66 73.58 C79.39 45.64, 52.28 19.15, 24.44 -2.98 M109.46 72.6 C79.27 46.68, 50.55 19.64, 25.31 -1 M115.27 73.72 C87.84 50.04, 65.05 27.44, 31.28 -2.89 M116.39 71.38 C97.13 54.72, 78.29 38.55, 31.08 -1.26 M123.15 71.31 C96.55 52.28, 71.4 28.88, 38.91 -2.62 M122.31 72.08 C93.89 48.64, 66.45 23.78, 37.51 -0.71 M127.57 71.3 C95.5 42.25, 59.16 15.41, 41.57 0.34 M127.71 71.38 C103.9 50.12, 78.95 29, 43.32 -2.01 M133.41 71.56 C110.75 51.33, 84.32 30.83, 50.13 -0.17 M135.05 71.91 C113.92 55.25, 93.49 37.95, 49 -1.2 M139.88 71.36 C107.32 41.2, 72.64 15.17, 56.28 -1.03 M140.21 71.01 C110.18 46.14, 80.45 20.48, 54.67 -1.49 M148.35 71.8 C116.11 46.19, 88.36 20.27, 60.12 -2.1 M146.02 71.38 C124.93 52.41, 101.11 33.65, 61.43 -1.29 M150.49 73.78 C119.75 44.1, 92.04 19.35, 70.32 -0.32 M152.25 71.29 C132.74 54.78, 112.96 38.28, 69.32 -0.07 M159.88 73.69 C127.52 48.16, 100.14 22.04, 75.93 -1.24 M158.9 72.58 C133.52 50.34, 107.19 26.74, 74.81 -1.59 M164.19 73.36 C142.91 52.44, 119.83 34.32, 82.11 -2.57 M164.12 72.78 C142.02 51.92, 120.44 33.05, 80.34 -1.24 M168.93 72.51 C140.02 46.54, 111.13 22.92, 86.36 -0.22 M169.77 71.86 C143.09 49.38, 117.3 27.02, 86.27 -1.83 M177.26 73.2 C146.05 46.76, 112.83 15.97, 94.07 -0.61 M176.92 72.94 C154.31 51.94, 129.07 30.59, 92.18 -1.63 M182.17 73.78 C159.24 51.84, 134.98 33.46, 98.71 -2.72 M181.83 72.43 C152.22 44.53, 123.04 18.74, 98.83 -0.2 M190.01 72.59 C164.66 49.28, 139.16 27.43, 105.62 -1.66 M189.19 72.06 C158.44 45.09, 128.54 18.8, 103.66 -1.66 M195.25 72.61 C164.07 44.21, 131.94 18.73, 111.75 -0.17 M194.64 71.71 C162.05 44.32, 129.56 15.52, 110.35 -1.99 M192.18 65.87 C166.85 42.11, 138.21 17.92, 117.92 -2.71 M194.25 66.11 C170.02 45.43, 148.22 24.48, 116.74 -0.87 M195.78 61.83 C177.09 49.02, 165.89 33.08, 124.29 0.24 M193.09 59.48 C177.57 47.85, 161.76 33.85, 122.11 -1.66 M193.83 54.8 C171.37 36.08, 149.54 17.95, 130.64 -1.84 M193.14 55.12 C169.6 34.34, 145.86 12.79, 129.22 -1.27 M195 51.56 C178.94 34.34, 163.58 24.74, 136.12 -3.1 M193.07 49.41 C171.43 29.08, 146.5 8.97, 135.75 -1.43 M192.29 44.71 C171.65 28.2, 150.17 10.33, 142.96 -0.83 M193.51 43.28 C174.3 28.47, 155.52 10.94, 141.82 -1.96 M194.58 40.32 C178.87 27.71, 162.62 12.03, 148.77 -1.55 M194.28 38.21 C179.62 25.83, 165.27 12.62, 148.01 -0.65 M194.09 35.25 C177.75 22.74, 165.83 6.56, 154.03 -1.26 M193.63 33.74 C180.65 22.96, 168.01 12.69, 152.59 -1.2 M193.93 28.87 C183.54 21.11, 176.12 9.65, 158.31 0.45 M193.53 29.47 C185.22 20.99, 175.46 12.14, 159.54 -1.14 M191.54 24.32 C186.33 18.87, 181.98 11.6, 164.03 -3.11 M192.88 22.53 C183.07 14.45, 173.94 7.21, 166 -1.04 M194.23 16.24 C183.72 9.42, 176.83 4.32, 172.25 -1.27 M192.78 17.64 C188.55 13.63, 182.45 9.12, 171.84 -1.83 M194.66 12.05 C189.02 8.17, 188.01 4.68, 178.87 -0.11 M193.77 12.55 C189.4 8.15, 185 4.39, 177.6 -0.63 M194.16 7.55 C191.8 4.07, 187.66 1.29, 182.78 -2.17 M193.32 7.79 C190.22 4.23, 186.93 1.57, 183.84 -0.94 M193.73 1.49 C191.98 1.02, 191.65 0.22, 190.46 -0.6 M193.46 1.63 C192.35 0.78, 191.7 0.34, 190.43 -1.1" stroke="#228be6" stroke-width="0.5" fill="none"></path><path d="M-0.65 1.06 C41.2 -0.31, 84.95 -1.51, 194.06 0.6 M-0.8 -0.1 C50.54 1.62, 101.74 0.81, 193.19 -0.53 M192.46 -1.43 C193.4 19.54, 190.68 38.4, 191.89 70.64 M192.77 -0.45 C193.34 21.86, 194.05 42.45, 193.61 71.72 M192.3 70.6 C138.32 71.15, 87.67 72.87, 1.57 73.5 M192.82 72.16 C150.16 70.8, 108.34 70.48, 0.37 72.19 M0.62 73.4 C-1.15 53.47, -0.88 33.94, 1.92 -0.4 M-0.51 72.91 C0.54 57.38, -1.06 42.07, 0.69 -0.41" stroke="#000000" stroke-width="1" fill="none"></path></g><g transform="translate(555.1666666666665 333.2755966367626) rotate(0 75.5 13)"><text x="0" y="19" font-family="Virgil, Segoe UI Emoji" font-size="20px" fill="#000000" text-anchor="start" style="white-space: pre;" direction="ltr">Users subgraph</text></g><g stroke-linecap="round" transform="translate(228.77947528545667 139.89742554739476) rotate(0 133.84615384615398 40.76923076923079)"><path d="M0 0 C0 0, 0 0, 0 0 M0 0 C0 0, 0 0, 0 0 M0.27 6.01 C1.54 3.66, 3.06 1.66, 4.2 1.01 M-0.51 6.47 C1.04 5.07, 2.56 3.08, 4.8 0.22 M0.77 10.65 C3.14 6.12, 6.8 1.93, 11.13 -1.55 M-0.17 11.69 C3.33 7.84, 7.29 3.73, 11.18 0.16 M0.18 19.3 C6.28 11.76, 10.59 6.62, 16.17 -0.75 M0.49 18.02 C4.69 13.81, 8.83 8.27, 16.46 0.36 M1.6 22.12 C5.56 19.56, 10.63 14.06, 21.6 0.47 M-0.32 23.34 C7.36 15.8, 13.61 7.81, 22.17 -1.03 M1.78 31.38 C7.77 24.51, 13.87 14.77, 27.63 1.07 M0.26 30.78 C6.63 23.49, 12.25 17.09, 26 -0.49 M-1.85 38.76 C8.67 28.38, 17.49 18.35, 30.35 0.23 M-0.94 37.25 C6.97 27.82, 14.26 18.83, 32.81 -0.36 M1.52 42.83 C11.27 25.71, 27.09 13.16, 35.14 0.5 M-0.42 42.82 C13.29 28.21, 25.44 13.04, 36.24 0.47 M0.64 48.77 C17.27 30.63, 31.7 11.38, 44.38 -0.72 M0.8 48.32 C9.7 36.8, 19.18 27.89, 42.77 -0.21 M1.27 52.59 C10.51 42.78, 19.23 30.4, 46.73 0.33 M0.49 55.21 C18.81 33.99, 36.5 11.99, 47.14 -0.64 M-0.55 60.69 C13.95 43.95, 31 27.44, 52.85 1.27 M0.71 60.95 C17.21 43.25, 33.16 24.82, 52.44 0.12 M0.54 66.07 C24.44 40.16, 45.83 12.54, 56.68 1.1 M-0.8 66.9 C15.93 50.32, 31.1 30.76, 57.53 -0.54 M-0.16 72.07 C12.95 55.34, 28.22 39.86, 63.15 -0.36 M0.12 73.9 C13.58 56.98, 28.01 42.74, 63.1 0.45 M-0.97 80.17 C24.61 50.97, 50.28 22.99, 69.49 1.1 M0.82 79.71 C25.55 49.07, 50.62 20.53, 69.12 1.14 M2.65 84.69 C19.15 62.87, 39.17 40.64, 72.92 1.53 M2.54 83.54 C17.79 65.38, 33.13 47.64, 74.89 -0.27 M7.94 83.53 C21.61 65, 41.51 42.76, 79.94 0.38 M6.54 82.53 C36.92 50.53, 64.77 17, 78.5 -0.09 M13.51 82.53 C39.6 50.73, 69.31 17.72, 86.06 -0.11 M12.95 83.83 C31.1 60.85, 50.43 38.67, 84.84 0.03 M18.24 82.58 C36.94 60.56, 55.24 39.11, 89.05 0.72 M17.96 83.47 C44.41 53, 72.7 20.44, 89.11 0.41 M23.27 82.96 C44.45 58.46, 66.63 30.02, 96.71 1.36 M22.1 83.46 C40.09 63.66, 56.76 41.91, 94.83 0.55 M27.78 84.77 C52.88 53.99, 80.57 20.22, 100.09 1.68 M28.18 82.99 C43.86 64.69, 61.92 44.97, 101.31 0.41 M34.19 82.51 C60.68 49.98, 88.03 21.56, 105.26 -1.62 M32.84 83.7 C57.05 55.28, 81.43 28.71, 105.65 -0.38 M39.96 83.51 C65.67 50.79, 91.32 22.14, 110.57 0.54 M38.49 82.92 C55.22 64.14, 69.32 46.51, 112.29 0.78 M42.8 83.49 C59.89 63.65, 79.02 46.61, 117.71 1.86 M44.87 82.93 C60.72 64.49, 78.58 44.79, 116.28 -0.58 M48.43 81.98 C72.67 55.48, 99.12 28.03, 120.27 0.36 M49.02 82.2 C70.17 60.06, 90.82 37, 122.13 -0.47 M55.85 81.93 C71.84 64.82, 85.79 48.34, 128.26 2.21 M54.77 82.66 C80.28 53.73, 107.03 23.38, 126.56 1.03 M61.07 81.09 C79.72 60.16, 100 38, 131.21 1.91 M60.79 82.92 C82.21 57.31, 103.84 31.81, 131.81 -0.2 M66.37 83.63 C91.65 52.22, 120.51 22.16, 139.4 1.85 M66.02 83.53 C83.62 62.25, 101.54 41, 137.22 0.9 M72.04 83.51 C87.63 64.21, 103.26 44.18, 143.65 -0.25 M71.71 82.25 C88.46 62.04, 107.52 40.25, 143.15 -0.15 M77.64 84.12 C89.29 67.99, 105.53 49.11, 148.53 0.2 M76.93 83.29 C101.18 55.03, 123.52 27.94, 148.54 -0.15 M81.73 81.66 C96.75 65.49, 109.61 50.5, 152.12 -1.84 M82.55 82.54 C98.28 63.95, 115.37 43.85, 152.86 -0.94 M87.16 84.71 C111.56 58.54, 134.46 28.23, 159.28 -1.56 M86.73 82.84 C111.59 53.35, 138.95 23.83, 159.66 -0.17 M92.78 81.7 C121.48 48.53, 150.59 15.71, 165.39 -0.8 M92.95 83.22 C110.88 62.3, 128.42 40.94, 164.53 -0.06 M98.72 84.44 C112.6 66.31, 128 46.97, 169.56 -0.53 M97.49 84.17 C125.86 49.96, 154.71 17.83, 168.61 -0.1 M102.09 83.56 C129.46 51.6, 155.51 23.43, 174.46 -1.36 M103.43 82.87 C119.29 62.82, 135.25 43.61, 174.61 0.13 M106.32 84.09 C126.27 62.96, 142.59 44.28, 179.51 -0.03 M108.17 82.43 C122.71 66.67, 138.69 50.05, 180.28 0.27 M112.15 81.65 C137.12 56.06, 160.38 27.05, 184.63 -1.95 M112.74 83.93 C142.17 49.5, 170.82 17.97, 186.44 0.39 M118.24 82.22 C137.39 60.59, 156.67 38.15, 191.52 -1.65 M118.6 83.87 C140.12 58.47, 159.41 34.6, 190.44 0.27 M121.66 81.89 C152.49 51.05, 180 17.81, 195.39 0.7 M124.45 83.73 C146.19 59.55, 165.7 33.38, 196.22 0.6 M129 83.11 C151.1 61.82, 171.3 37.78, 202.23 -1.22 M129.5 83.89 C147.47 61.78, 164.79 42.73, 201.75 0.33 M133.61 82.19 C161.51 51.57, 185.08 22.14, 208.53 -0.36 M135.06 82.96 C161.05 50.15, 188.33 20.23, 207.05 -0.22 M139.37 84.8 C161.83 58.79, 179.13 38.65, 210.55 -0.81 M140.46 82.98 C168.4 50.16, 196.38 17.66, 211.72 0.02 M145.9 81.48 C164.16 58.97, 189.03 33.03, 216.06 -2.33 M144.59 82.7 C161.52 64.55, 177.46 45.49, 216.88 0.05 M152.36 83.1 C166.86 66.11, 179.58 48.03, 221.61 -0.77 M149.92 82.78 C176.38 53.49, 202 24, 222.74 0.06 M154.67 84.42 C185.74 49.49, 212.99 19.03, 228.26 -0.67 M155.94 83.13 C177.59 57.86, 201.52 31.58, 228.54 -1.33 M161.25 83.54 C180.86 59.95, 202.17 34.92, 234.82 0.33 M161.22 82.06 C180.06 59.94, 197.58 40.11, 234.09 0.25 M166.31 81.44 C188.01 59.63, 209.02 32.11, 236.98 -0.34 M166.87 83.6 C184.3 64.03, 201.18 44.27, 239.09 0.8 M173.56 81.42 C185.85 62.72, 202.8 45.06, 243.81 1.65 M172.57 82.7 C198.3 53.53, 223.42 22.88, 243.92 -0.46 M177.47 84.69 C201.69 53.14, 228.75 25.26, 250.31 1.2 M176.04 82.54 C198.8 58.06, 221.55 32.19, 248.43 0.42 M183.05 81.78 C209.42 50.31, 236.57 20.64, 252.48 0.11 M183.06 83.71 C199.87 61.38, 218.09 41.33, 255.25 0.02 M187.05 84.1 C202.53 66.67, 216.59 48.49, 260.6 -1.5 M186.96 83.52 C212.53 53.05, 236.18 25.33, 259.35 0.92 M193.74 83.41 C211.31 62.04, 228.84 38.98, 266.97 -1.62 M192.64 83.22 C219.84 51.79, 246.33 21.95, 265.97 0.87 M196.18 83.34 C221.33 52.6, 248.08 25.82, 270.49 -0.14 M198.04 83.25 C218.9 60.82, 238.68 37.04, 269.53 0.83 M203.92 82.85 C216.2 65.18, 232.63 49.29, 269.12 8.42 M204.15 82.49 C223.79 61.02, 243.33 37.16, 268.3 7.96 M208.27 83.81 C224.02 67, 235.76 51.43, 267.63 13.88 M208.53 83.54 C228.97 59.66, 251.52 35.14, 268.35 14.34 M214.08 82.41 C228.86 66.6, 246.99 45.74, 268.2 21.39 M213.3 81.91 C236.37 59.01, 256.26 34.18, 268.5 19.73 M220.96 84.7 C233.56 66.82, 250.13 47.3, 270.96 26.78 M218.6 83.34 C235.59 65.51, 252.02 45.97, 269.04 26.63 M223.01 82.11 C234.35 71.16, 245.61 56.73, 269.04 32.68 M224.67 82.98 C233.83 72.45, 242.77 62.3, 269.04 32.21 M230.13 82.92 C236.32 71.83, 245.59 62.72, 269.84 36.11 M229.26 82.72 C240.42 71.41, 250.95 59.63, 269.9 37.6 M235.07 84.52 C242.76 72.72, 253.83 61.15, 270.12 44.7 M235.06 83.11 C244.71 72.86, 254.68 60.84, 268.65 43.87 M241.95 81.14 C252.8 71.04, 261.93 58.36, 268.54 48.41 M240.41 82.89 C250.02 71.38, 260.45 60.61, 268.76 49.51 M246.83 83.65 C254.73 72.66, 262.56 64.8, 270.16 55.36 M246.12 82.53 C252.12 76.57, 259.4 67.4, 268.92 56 M252.8 83.77 C258.02 76.76, 265.03 68.17, 269.57 59.98 M250.81 82.16 C256.34 77.6, 261.44 70.67, 270.34 61.73 M255.17 81.57 C258.24 79.36, 260.21 78.12, 268.14 66.59 M256.41 82.88 C260.68 78.84, 265.72 73.34, 268.33 69.32 M261.49 84.12 C263.57 80.64, 264.19 79.5, 268.99 74.13 M261.93 83.57 C264.14 81.15, 265.13 79.11, 269.27 75.19 M-0.37 81.21 C-0.37 81.21, -0.37 81.21, -0.37 81.21 M-0.37 81.21 C-0.37 81.21, -0.37 81.21, -0.37 81.21 M6.06 82.14 C3.87 79.82, 2.1 78.73, -0.7 76.54 M6.24 81.43 C4.61 80.51, 3.51 79.49, -0.35 76.33 M13.69 81.96 C10.19 79.14, 5.99 77.45, -1.01 71.02 M12.86 81.88 C9.62 80.11, 7.66 77.76, 0.45 71.62 M16.33 82.93 C12.23 75.4, 5.01 70.55, -0.23 66.96 M17.54 81.04 C10.53 74.79, 4.05 69.61, -0.29 66.56 M25.08 81.43 C16.13 76.78, 11.44 68.4, -1.35 61.74 M24.34 81.55 C18.6 75.96, 11.47 70.34, 0.79 60.84 M30.41 82.95 C19.15 73.31, 8.25 62.64, 0.18 54.84 M30.36 81 C21.4 74.64, 13.29 66.19, 0.57 55.73 M37.32 82.3 C23.8 71.31, 9.82 57.89, 1.67 51.25 M36.52 80.9 C23.16 71.38, 12.38 59.98, -0.41 50.2 M42.49 83.08 C27.56 69.32, 12.97 56.56, 1.29 45.7 M42.67 81.9 C33.92 72.93, 24.43 64.94, 0.82 45.03 M47.47 82.66 C39.08 71.18, 28.04 65.32, -1.39 37.42 M49.09 80.49 C33.7 69.46, 20.87 57.4, 0.4 39.35 M55.22 82.88 C37.86 69.01, 20.55 54.44, -0.91 34.34 M55.24 81.46 C37.22 66.83, 20.02 52.17, 0.41 34.58 M63.32 82.97 C40.45 66.95, 21.4 48.3, -1.4 27.91 M61.27 82.6 C38.37 62.32, 16.02 41.41, -0.39 28.99 M68.74 83.02 C49.92 67.52, 31.67 51.3, -0.13 21.29 M66.98 81.88 C47.93 66.31, 31 50.53, 0.18 23.64 M72.62 83.45 C50.5 62.33, 26.71 41.53, 1.05 16.14 M72.88 82.69 C50.18 61.97, 25.08 40.67, 0.5 18.94 M77.45 81.92 C58.65 64.99, 40.5 46.32, 0.15 12.85 M79.64 80.48 C57.77 62.26, 36.1 43.68, -0.16 12.6 M83.65 80.06 C63.57 61.95, 41.21 44.36, -0.41 9.29 M84.88 81.29 C51.02 51.59, 16.47 23.46, -0.8 8.16 M90.75 80.4 C67.82 63.8, 49.37 43.27, -1.32 1.06 M92.64 82.37 C71.14 63.85, 49.43 44.01, -0.03 0.97 M98.18 81.83 C78.46 63.35, 61.07 46.71, -0.36 -2.43 M98.37 81.42 C62.74 51.32, 30.66 22.4, 2.26 -1.97 M102.02 83.07 C81.86 61.41, 57.38 41.65, 8.81 -1.07 M103.98 81.8 C69.16 51.64, 33.48 20.18, 8.34 -1.4 M108.23 79.56 C71.65 49.77, 37.19 16.74, 12.39 -0.46 M109.29 81.2 C85.75 59.62, 61.26 37.81, 14.62 -2.39 M117.16 82.25 C97.67 64.81, 74.99 48.4, 21.26 -1.93 M116.82 82.13 C94 63.11, 72.76 44.76, 20.73 -2.69 M120.81 82.46 C84.57 49.7, 48.96 19.12, 27.67 -1.57 M123.24 82.56 C91.46 56.08, 62.5 31.38, 26.48 -1.96 M127.57 83.37 C96.48 55.32, 65.9 29.33, 33.78 -3.51 M128.42 81.18 C105.14 61.99, 82.56 41.36, 32.61 -1.3 M134.95 83.49 C112.65 61.06, 87.08 42.81, 36.88 -2.95 M134.41 82.57 C113.76 63.8, 94.93 47.43, 38.26 -2.57 M138.88 81.58 C113.83 58.25, 86.19 37.72, 42.14 -2.77 M140.94 81.9 C104.78 51.7, 70.48 20.63, 44.04 -1.21 M146.17 83.36 C117.63 56.73, 87.22 30.27, 51.41 -1.98 M146.15 81.39 C111.91 51.34, 76.79 21.15, 50.96 -0.96 M151.76 82.46 C125.42 61.55, 101.15 40.67, 56.37 -2.91 M152.14 81.01 C126.34 58.51, 98.73 35.9, 55.98 -1.28 M159.48 79.86 C120.07 47.39, 82.19 17.44, 63.15 -0.35 M157.92 81.66 C130.21 55.62, 99.37 30.84, 62.74 -2.79 M162.83 83.37 C129.59 53.87, 98.28 24.09, 69.48 -0.73 M164.43 82.41 C130.39 52.08, 97.16 23.17, 69.03 -0.62 M170.16 80.54 C150.01 61.49, 124.75 43.18, 73.5 -2.63 M170.04 81.14 C144.62 58.36, 119.07 36.05, 73.86 -1.22 M177.24 81.39 C148.98 57.33, 118.19 32.32, 82.49 -1.26 M177.32 81.07 C149.17 56.63, 121.96 33.27, 80.39 -1.13 M184.48 83.34 C161.49 63.23, 141.61 44.68, 86.1 -3.65 M182.48 81.37 C161.03 61.98, 139.62 44.81, 87.47 -2.31 M189.65 82.68 C152.88 50.27, 118.15 22.02, 92.91 -1.8 M188.45 82.43 C159.7 57.91, 133.82 34.55, 92.39 -1.65 M196.69 82 C171.06 62.82, 147.76 40.37, 99.61 0.16 M195.82 81.04 C157.25 49.48, 119.41 16.3, 100.35 -2.33 M200.93 83.15 C176.15 58.06, 149.96 35.4, 103.78 -2.54 M200.36 81.07 C174.18 59.88, 145.93 35.35, 105.49 -2.56 M205.58 81.96 C176.8 56.9, 150.34 35.01, 112.66 0.15 M207.77 81.95 C169.42 48.86, 132.03 15.11, 111.88 -2.4 M215 81.14 C191.15 64.56, 168 44.38, 116.36 -1.96 M213.19 81.35 C184.69 57.71, 158.38 33.64, 117.02 -3.08 M219.42 81.76 C199.11 66.03, 178.28 47.2, 124.39 -0.6 M220.16 82.36 C191.61 57.32, 162.53 32.88, 122.6 -2.53 M227.73 82.74 C191.43 52.36, 159.33 21.6, 130.91 -0.1 M225.7 80.77 C200.46 58.8, 173.68 37.67, 129.96 -0.69 M232.72 81.71 C195.15 50.66, 158.37 18.68, 135.46 -1.92 M231.71 81.65 C201.4 56.88, 174.57 32.59, 135.14 -2.29 M239.54 81.79 C213.86 58.45, 186.41 39.89, 143.72 -1.22 M237.8 81.93 C212.37 60.41, 187.86 39.08, 141.87 -1.68 M243 80.49 C206.83 49.45, 166.11 16.49, 148.75 -1.9 M244.75 80.99 C213.62 56.29, 184.31 29.66, 147.03 -2.1 M248.3 81.2 C228.66 66.96, 211.85 46.55, 155.54 -1.89 M249.51 81.91 C226.62 61.43, 203.57 39.14, 153.47 -1.25 M255.78 80.6 C235.05 65, 213.67 44.69, 162.17 -0.21 M256.23 82.7 C218.45 49.95, 183.5 16.66, 159.42 -2.6 M262.17 81.63 C225 48.1, 191.8 20.16, 164.64 -1.55 M261.72 80.91 C231.87 55.38, 202.9 28.22, 165.59 -2.16 M269.08 80.22 C243.79 60.35, 219.76 41.65, 173.6 -0.75 M268.23 82.19 C246.97 63.07, 224.88 43.65, 172.08 -1.29 M269.5 76.26 C249.84 59.65, 229.79 43.39, 179.56 -1.92 M268.16 75 C245.59 57.93, 225.74 38.03, 177.94 -2.02 M266.35 72.16 C251.02 56.36, 233.05 42.07, 185.44 -3.68 M268.91 70.86 C242.57 48.88, 217.82 27.36, 183.9 -2.56 M266.93 65.26 C244.63 45.22, 223.8 26.24, 191.8 -2.29 M267.49 64.62 C241.42 42.52, 213.78 18, 191.86 -0.65 M269.43 59.95 C249.92 45.77, 230.81 28.54, 197.58 -0.1 M267.4 60.21 C241.19 36.05, 212.41 12.25, 195.9 -2.34 M267.41 55.8 C254.42 42.99, 239.73 31.16, 204.89 -2.18 M267.27 54.61 C252.27 40.59, 236.12 26.33, 203.3 -2.74 M266.34 50.39 C252.26 35.81, 231.33 16.61, 208.18 -3.34 M267.68 50.37 C249.52 33.06, 229.89 14.79, 207.98 -1.43 M268.07 43.53 C251.96 28.39, 235.77 13.13, 214.84 -1.4 M267.88 43.64 C253.28 31.46, 238.4 18.49, 215.34 -1.88 M267.35 40.01 C257.02 27.24, 242.19 14.76, 222.37 -0.32 M268.57 38.61 C252.27 24.97, 236.96 12.15, 221.68 -0.85 M268.31 33.88 C260.3 28.26, 252.76 21.11, 227.17 -2.66 M268.6 33.56 C255.98 22.97, 244.43 13.53, 227.21 -1.17 M268.98 27.13 C258.77 20.28, 249.14 10.14, 233.3 -2.18 M267.78 29.31 C258.61 18.68, 247.3 9.41, 233.11 -2.48 M265.77 22.01 C256.41 15.4, 245.13 3.45, 237.66 -2.9 M267.58 23.29 C262.67 18.59, 256.03 12.78, 238.97 -2.61 M270 19.77 C257.63 8.11, 248.69 3.99, 246.61 -0.35 M267.91 17.98 C262.71 13.89, 256.93 8.73, 245.57 -1.08 M268.35 12.85 C265.55 8, 262.14 6.92, 253.08 -0.68 M267.84 12.93 C263.13 7.7, 257.54 3.45, 252.35 -2.41 M267.61 7.55 C266.18 5.89, 262.18 2.29, 257.46 -1.43 M268.3 7.23 C265.4 4.67, 261.92 1.91, 258.16 -2.67 M267.29 1.4 C266 0.66, 264.9 -0.64, 263.96 -2.02 M267.57 1.55 C266.86 0.77, 266.01 -0.25, 263.84 -1.73" stroke="#fa5252" stroke-width="0.5" fill="none"></path><path d="M0.3 0.98 C56.27 -0.45, 109.5 -0.35, 268.19 -1.53 M0.23 0.58 C53.71 0.5, 108.11 -0.85, 268.27 0.38 M267.16 -1.91 C269.11 20.42, 268.8 43.11, 267.7 82.83 M267.63 -0.77 C267.02 28.4, 267.29 56.07, 267.51 82.39 M268.85 81.17 C185.83 79.88, 104.02 79.5, 0.03 80.29 M268.06 81.54 C202.58 80.23, 138.54 80.5, -0.05 81.33 M-0.58 81.54 C1.53 52.28, -0.88 23.16, -1.74 1.59 M0.29 80.85 C-0.34 61.77, -0.24 41.24, -0.36 0.17" stroke="#000000" stroke-width="1" fill="none"></path></g><g transform="translate(266.4717829777644 165.01281016277935) rotate(0 100 13.000000000000014)"><text x="0" y="19" font-family="Virgil, Segoe UI Emoji" font-size="20px" fill="#000000" text-anchor="start" style="white-space: pre;" direction="ltr">API-Gateway Graph</text></g><g stroke-linecap="round"><g transform="translate(110.68660324944108 312.97434862431777) rotate(0 78.73062356488981 -45.4196058606872)"><path d="M0.87 0.01 C26.94 -15.1, 131.25 -75.71, 157.6 -90.85 M-0.14 -1.03 C25.64 -15.93, 129.91 -74.58, 156.37 -89.33" stroke="#000000" stroke-width="1" fill="none"></path></g><g transform="translate(110.68660324944108 312.97434862431777) rotate(0 78.73062356488981 -45.4196058606872)"><path d="M136.81 -67.48 C144.5 -74.31, 152.27 -82.78, 157.67 -87.46 M137.8 -66.82 C143.57 -74.43, 150.39 -82.4, 156.08 -89.72" stroke="#000000" stroke-width="1" fill="none"></path></g><g transform="translate(110.68660324944108 312.97434862431777) rotate(0 78.73062356488981 -45.4196058606872)"><path d="M126.78 -85.38 C138.4 -85.22, 150.14 -86.61, 157.67 -87.46 M127.76 -84.72 C137.02 -85.92, 147.44 -87.46, 156.08 -89.72" stroke="#000000" stroke-width="1" fill="none"></path></g></g><g stroke-linecap="round"><g transform="translate(364.58221534156587 309.12819477816396) rotate(0 0.12217018109879518 -42.332655653815976)"><path d="M-0.53 -0.04 C-0.78 -14.14, -0.67 -70.66, -0.64 -84.63 M1.39 -1.1 C0.98 -15.01, -0.83 -68.98, -1.15 -83.09" stroke="#000000" stroke-width="1" fill="none"></path></g><g transform="translate(364.58221534156587 309.12819477816396) rotate(0 0.12217018109879518 -42.332655653815976)"><path d="M9.85 -53.81 C5.78 -63.72, 2.98 -74.15, 0.05 -84.51 M9.49 -54.81 C5.35 -63.81, 2.07 -73.97, -1.82 -83.83" stroke="#000000" stroke-width="1" fill="none"></path></g><g transform="translate(364.58221534156587 309.12819477816396) rotate(0 0.12217018109879518 -42.332655653815976)"><path d="M-10.66 -53.22 C-7.1 -63.27, -2.26 -73.91, 0.05 -84.51 M-11.02 -54.22 C-8.42 -63.37, -4.95 -73.72, -1.82 -83.83" stroke="#000000" stroke-width="1" fill="none"></path></g></g><g stroke-linecap="round"><g transform="translate(620.8539793119901 307.5897332397024) rotate(0 -81.45465759412207 -42.00946618630226)"><path d="M0.84 -0.01 C-26.3 -13.72, -136.03 -68.57, -163.4 -82.3 M-0.18 -1.06 C-27.33 -15.11, -136.51 -70.13, -163.75 -84.01" stroke="#000000" stroke-width="1" fill="none"></path></g><g transform="translate(620.8539793119901 307.5897332397024) rotate(0 -81.45465759412207 -42.00946618630226)"><path d="M-133.98 -78.51 C-140.28 -79.26, -148 -83.46, -163.17 -82.01 M-134.61 -79.83 C-142.5 -81.68, -151.13 -83.02, -163.3 -84.31" stroke="#000000" stroke-width="1" fill="none"></path></g><g transform="translate(620.8539793119901 307.5897332397024) rotate(0 -81.45465759412207 -42.00946618630226)"><path d="M-143.26 -60.2 C-147.17 -65.7, -152.53 -74.58, -163.17 -82.01 M-143.88 -61.52 C-149.12 -68.49, -155.19 -74.9, -163.3 -84.31" stroke="#000000" stroke-width="1" fill="none"></path></g></g><g stroke-linecap="round" transform="translate(298.8462472203157 10) rotate(0 63.941917866069446 38.26851694988882)"><path d="M-0.92 -0.52 C41.15 1.31, 87.12 1.07, 129.58 -0.45 M-0.45 -0.22 C49.01 -1.22, 98.19 -0.87, 127.07 -0.43 M126.06 -1.17 C127.52 22.87, 127.37 41.65, 127.3 77.16 M128.81 0.17 C128.05 29.92, 128.32 61, 127.27 77.52 M127.02 76.46 C99.51 75.94, 69.87 75.67, 0.33 75.89 M128.33 76.77 C94.59 76.37, 61.68 76.15, -0.27 75.62 M1.63 75.48 C-1.72 52.71, -0.95 29.51, 1.22 0.31 M0.36 76.96 C0.06 55.38, 0.21 33.39, 0.17 -0.12" stroke="#000000" stroke-width="1" fill="none"></path></g><g stroke-linecap="round"><g transform="translate(297.7706494694205 20.716534392244057) rotate(0 64.69454483746836 0.1524557893630174)"><path d="M-0.55 -0.31 C20.92 -0.12, 106.09 0.13, 127.78 0.19 M1.36 -1.52 C23.28 -1.03, 108.62 1.34, 129.94 1.82" stroke="#000000" stroke-width="1" fill="none"></path></g></g><g stroke-linecap="round" transform="translate(303.3342826892706 14.27156980000882) rotate(0 2.5009765625 2.5009765625)"><path d="M5 2.5 C5 2.65, 4.99 2.79, 4.96 2.94 C4.94 3.08, 4.9 3.22, 4.85 3.36 C4.8 3.49, 4.74 3.63, 4.67 3.75 C4.59 3.88, 4.51 4, 4.42 4.11 C4.32 4.22, 4.22 4.32, 4.11 4.42 C4 4.51, 3.88 4.59, 3.75 4.67 C3.63 4.74, 3.49 4.8, 3.36 4.85 C3.22 4.9, 3.08 4.94, 2.94 4.96 C2.79 4.99, 2.65 5, 2.5 5 C2.36 5, 2.21 4.99, 2.07 4.96 C1.92 4.94, 1.78 4.9, 1.65 4.85 C1.51 4.8, 1.38 4.74, 1.25 4.67 C1.13 4.59, 1 4.51, 0.89 4.42 C0.78 4.32, 0.68 4.22, 0.59 4.11 C0.49 4, 0.41 3.88, 0.34 3.75 C0.26 3.63, 0.2 3.49, 0.15 3.36 C0.1 3.22, 0.06 3.08, 0.04 2.94 C0.01 2.79, 0 2.65, 0 2.5 C0 2.36, 0.01 2.21, 0.04 2.07 C0.06 1.92, 0.1 1.78, 0.15 1.65 C0.2 1.51, 0.26 1.38, 0.34 1.25 C0.41 1.13, 0.49 1, 0.59 0.89 C0.68 0.78, 0.78 0.68, 0.89 0.59 C1 0.49, 1.13 0.41, 1.25 0.34 C1.38 0.26, 1.51 0.2, 1.65 0.15 C1.78 0.1, 1.92 0.06, 2.07 0.04 C2.21 0.01, 2.36 0, 2.5 0 C2.65 0, 2.79 0.01, 2.94 0.04 C3.08 0.06, 3.22 0.1, 3.36 0.15 C3.49 0.2, 3.63 0.26, 3.75 0.34 C3.88 0.41, 4 0.49, 4.11 0.59 C4.22 0.68, 4.32 0.78, 4.42 0.89 C4.51 1, 4.59 1.13, 4.67 1.25 C4.74 1.38, 4.8 1.51, 4.85 1.65 C4.9 1.78, 4.94 1.92, 4.96 2.07 C4.99 2.21, 5 2.43, 5 2.5 C5.01 2.57, 5.01 2.43, 5 2.5" stroke="none" stroke-width="0" fill="#fa5252"></path><path d="M5 2.5 C5 2.65, 4.99 2.79, 4.96 2.94 C4.94 3.08, 4.9 3.22, 4.85 3.36 C4.8 3.49, 4.74 3.63, 4.67 3.75 C4.59 3.88, 4.51 4, 4.42 4.11 C4.32 4.22, 4.22 4.32, 4.11 4.42 C4 4.51, 3.88 4.59, 3.75 4.67 C3.63 4.74, 3.49 4.8, 3.36 4.85 C3.22 4.9, 3.08 4.94, 2.94 4.96 C2.79 4.99, 2.65 5, 2.5 5 C2.36 5, 2.21 4.99, 2.07 4.96 C1.92 4.94, 1.78 4.9, 1.65 4.85 C1.51 4.8, 1.38 4.74, 1.25 4.67 C1.13 4.59, 1 4.51, 0.89 4.42 C0.78 4.32, 0.68 4.22, 0.59 4.11 C0.49 4, 0.41 3.88, 0.34 3.75 C0.26 3.63, 0.2 3.49, 0.15 3.36 C0.1 3.22, 0.06 3.08, 0.04 2.94 C0.01 2.79, 0 2.65, 0 2.5 C0 2.36, 0.01 2.21, 0.04 2.07 C0.06 1.92, 0.1 1.78, 0.15 1.65 C0.2 1.51, 0.26 1.38, 0.34 1.25 C0.41 1.13, 0.49 1, 0.59 0.89 C0.68 0.78, 0.78 0.68, 0.89 0.59 C1 0.49, 1.13 0.41, 1.25 0.34 C1.38 0.26, 1.51 0.2, 1.65 0.15 C1.78 0.1, 1.92 0.06, 2.07 0.04 C2.21 0.01, 2.36 0, 2.5 0 C2.65 0, 2.79 0.01, 2.94 0.04 C3.08 0.06, 3.22 0.1, 3.36 0.15 C3.49 0.2, 3.63 0.26, 3.75 0.34 C3.88 0.41, 4 0.49, 4.11 0.59 C4.22 0.68, 4.32 0.78, 4.42 0.89 C4.51 1, 4.59 1.13, 4.67 1.25 C4.74 1.38, 4.8 1.51, 4.85 1.65 C4.9 1.78, 4.94 1.92, 4.96 2.07 C4.99 2.21, 5 2.43, 5 2.5 C5.01 2.57, 5.01 2.43, 5 2.5" stroke="#000000" stroke-width="1" fill="none"></path></g><g stroke-linecap="round" transform="translate(313.5969780017706 14.27156980000882) rotate(0 2.5009765625 2.5009765625)"><path d="M5 2.5 C5 2.65, 4.99 2.79, 4.96 2.94 C4.94 3.08, 4.9 3.22, 4.85 3.36 C4.8 3.49, 4.74 3.63, 4.67 3.75 C4.59 3.88, 4.51 4, 4.42 4.11 C4.32 4.22, 4.22 4.32, 4.11 4.42 C4 4.51, 3.88 4.59, 3.75 4.67 C3.63 4.74, 3.49 4.8, 3.36 4.85 C3.22 4.9, 3.08 4.94, 2.94 4.96 C2.79 4.99, 2.65 5, 2.5 5 C2.36 5, 2.21 4.99, 2.07 4.96 C1.92 4.94, 1.78 4.9, 1.65 4.85 C1.51 4.8, 1.38 4.74, 1.25 4.67 C1.13 4.59, 1 4.51, 0.89 4.42 C0.78 4.32, 0.68 4.22, 0.59 4.11 C0.49 4, 0.41 3.88, 0.34 3.75 C0.26 3.63, 0.2 3.49, 0.15 3.36 C0.1 3.22, 0.06 3.08, 0.04 2.94 C0.01 2.79, 0 2.65, 0 2.5 C0 2.36, 0.01 2.21, 0.04 2.07 C0.06 1.92, 0.1 1.78, 0.15 1.65 C0.2 1.51, 0.26 1.38, 0.34 1.25 C0.41 1.13, 0.49 1, 0.59 0.89 C0.68 0.78, 0.78 0.68, 0.89 0.59 C1 0.49, 1.13 0.41, 1.25 0.34 C1.38 0.26, 1.51 0.2, 1.65 0.15 C1.78 0.1, 1.92 0.06, 2.07 0.04 C2.21 0.01, 2.36 0, 2.5 0 C2.65 0, 2.79 0.01, 2.94 0.04 C3.08 0.06, 3.22 0.1, 3.36 0.15 C3.49 0.2, 3.63 0.26, 3.75 0.34 C3.88 0.41, 4 0.49, 4.11 0.59 C4.22 0.68, 4.32 0.78, 4.42 0.89 C4.51 1, 4.59 1.13, 4.67 1.25 C4.74 1.38, 4.8 1.51, 4.85 1.65 C4.9 1.78, 4.94 1.92, 4.96 2.07 C4.99 2.21, 5 2.43, 5 2.5 C5.01 2.57, 5.01 2.43, 5 2.5" stroke="none" stroke-width="0" fill="#fab005"></path><path d="M5 2.5 C5 2.65, 4.99 2.79, 4.96 2.94 C4.94 3.08, 4.9 3.22, 4.85 3.36 C4.8 3.49, 4.74 3.63, 4.67 3.75 C4.59 3.88, 4.51 4, 4.42 4.11 C4.32 4.22, 4.22 4.32, 4.11 4.42 C4 4.51, 3.88 4.59, 3.75 4.67 C3.63 4.74, 3.49 4.8, 3.36 4.85 C3.22 4.9, 3.08 4.94, 2.94 4.96 C2.79 4.99, 2.65 5, 2.5 5 C2.36 5, 2.21 4.99, 2.07 4.96 C1.92 4.94, 1.78 4.9, 1.65 4.85 C1.51 4.8, 1.38 4.74, 1.25 4.67 C1.13 4.59, 1 4.51, 0.89 4.42 C0.78 4.32, 0.68 4.22, 0.59 4.11 C0.49 4, 0.41 3.88, 0.34 3.75 C0.26 3.63, 0.2 3.49, 0.15 3.36 C0.1 3.22, 0.06 3.08, 0.04 2.94 C0.01 2.79, 0 2.65, 0 2.5 C0 2.36, 0.01 2.21, 0.04 2.07 C0.06 1.92, 0.1 1.78, 0.15 1.65 C0.2 1.51, 0.26 1.38, 0.34 1.25 C0.41 1.13, 0.49 1, 0.59 0.89 C0.68 0.78, 0.78 0.68, 0.89 0.59 C1 0.49, 1.13 0.41, 1.25 0.34 C1.38 0.26, 1.51 0.2, 1.65 0.15 C1.78 0.1, 1.92 0.06, 2.07 0.04 C2.21 0.01, 2.36 0, 2.5 0 C2.65 0, 2.79 0.01, 2.94 0.04 C3.08 0.06, 3.22 0.1, 3.36 0.15 C3.49 0.2, 3.63 0.26, 3.75 0.34 C3.88 0.41, 4 0.49, 4.11 0.59 C4.22 0.68, 4.32 0.78, 4.42 0.89 C4.51 1, 4.59 1.13, 4.67 1.25 C4.74 1.38, 4.8 1.51, 4.85 1.65 C4.9 1.78, 4.94 1.92, 4.96 2.07 C4.99 2.21, 5 2.43, 5 2.5 C5.01 2.57, 5.01 2.43, 5 2.5" stroke="#000000" stroke-width="1" fill="none"></path></g><g stroke-linecap="round" transform="translate(324.3103944681168 14.722290953855008) rotate(0 2.5009765625 2.5009765625)"><path d="M5 2.5 C5 2.65, 4.99 2.79, 4.96 2.94 C4.94 3.08, 4.9 3.22, 4.85 3.36 C4.8 3.49, 4.74 3.63, 4.67 3.75 C4.59 3.88, 4.51 4, 4.42 4.11 C4.32 4.22, 4.22 4.32, 4.11 4.42 C4 4.51, 3.88 4.59, 3.75 4.67 C3.63 4.74, 3.49 4.8, 3.36 4.85 C3.22 4.9, 3.08 4.94, 2.94 4.96 C2.79 4.99, 2.65 5, 2.5 5 C2.36 5, 2.21 4.99, 2.07 4.96 C1.92 4.94, 1.78 4.9, 1.65 4.85 C1.51 4.8, 1.38 4.74, 1.25 4.67 C1.13 4.59, 1 4.51, 0.89 4.42 C0.78 4.32, 0.68 4.22, 0.59 4.11 C0.49 4, 0.41 3.88, 0.34 3.75 C0.26 3.63, 0.2 3.49, 0.15 3.36 C0.1 3.22, 0.06 3.08, 0.04 2.94 C0.01 2.79, 0 2.65, 0 2.5 C0 2.36, 0.01 2.21, 0.04 2.07 C0.06 1.92, 0.1 1.78, 0.15 1.65 C0.2 1.51, 0.26 1.38, 0.34 1.25 C0.41 1.13, 0.49 1, 0.59 0.89 C0.68 0.78, 0.78 0.68, 0.89 0.59 C1 0.49, 1.13 0.41, 1.25 0.34 C1.38 0.26, 1.51 0.2, 1.65 0.15 C1.78 0.1, 1.92 0.06, 2.07 0.04 C2.21 0.01, 2.36 0, 2.5 0 C2.65 0, 2.79 0.01, 2.94 0.04 C3.08 0.06, 3.22 0.1, 3.36 0.15 C3.49 0.2, 3.63 0.26, 3.75 0.34 C3.88 0.41, 4 0.49, 4.11 0.59 C4.22 0.68, 4.32 0.78, 4.42 0.89 C4.51 1, 4.59 1.13, 4.67 1.25 C4.74 1.38, 4.8 1.51, 4.85 1.65 C4.9 1.78, 4.94 1.92, 4.96 2.07 C4.99 2.21, 5 2.43, 5 2.5 C5.01 2.57, 5.01 2.43, 5 2.5" stroke="none" stroke-width="0" fill="#40c057"></path><path d="M5 2.5 C5 2.65, 4.99 2.79, 4.96 2.94 C4.94 3.08, 4.9 3.22, 4.85 3.36 C4.8 3.49, 4.74 3.63, 4.67 3.75 C4.59 3.88, 4.51 4, 4.42 4.11 C4.32 4.22, 4.22 4.32, 4.11 4.42 C4 4.51, 3.88 4.59, 3.75 4.67 C3.63 4.74, 3.49 4.8, 3.36 4.85 C3.22 4.9, 3.08 4.94, 2.94 4.96 C2.79 4.99, 2.65 5, 2.5 5 C2.36 5, 2.21 4.99, 2.07 4.96 C1.92 4.94, 1.78 4.9, 1.65 4.85 C1.51 4.8, 1.38 4.74, 1.25 4.67 C1.13 4.59, 1 4.51, 0.89 4.42 C0.78 4.32, 0.68 4.22, 0.59 4.11 C0.49 4, 0.41 3.88, 0.34 3.75 C0.26 3.63, 0.2 3.49, 0.15 3.36 C0.1 3.22, 0.06 3.08, 0.04 2.94 C0.01 2.79, 0 2.65, 0 2.5 C0 2.36, 0.01 2.21, 0.04 2.07 C0.06 1.92, 0.1 1.78, 0.15 1.65 C0.2 1.51, 0.26 1.38, 0.34 1.25 C0.41 1.13, 0.49 1, 0.59 0.89 C0.68 0.78, 0.78 0.68, 0.89 0.59 C1 0.49, 1.13 0.41, 1.25 0.34 C1.38 0.26, 1.51 0.2, 1.65 0.15 C1.78 0.1, 1.92 0.06, 2.07 0.04 C2.21 0.01, 2.36 0, 2.5 0 C2.65 0, 2.79 0.01, 2.94 0.04 C3.08 0.06, 3.22 0.1, 3.36 0.15 C3.49 0.2, 3.63 0.26, 3.75 0.34 C3.88 0.41, 4 0.49, 4.11 0.59 C4.22 0.68, 4.32 0.78, 4.42 0.89 C4.51 1, 4.59 1.13, 4.67 1.25 C4.74 1.38, 4.8 1.51, 4.85 1.65 C4.9 1.78, 4.94 1.92, 4.96 2.07 C4.99 2.21, 5 2.43, 5 2.5 C5.01 2.57, 5.01 2.43, 5 2.5" stroke="#000000" stroke-width="1" fill="none"></path></g><g stroke-opacity="0.9" fill-opacity="0.9" stroke-linecap="round" transform="translate(340.337455457744 30.77465983187085) rotate(0 21.360101269687846 21.36010126968786)"><path d="M12.27 3 C15.96 0.68, 21.64 -1.06, 25.95 -0.16 C30.26 0.73, 35.44 4.44, 38.12 8.36 C40.8 12.29, 42.2 18.81, 42 23.4 C41.8 28, 40.14 32.72, 36.92 35.94 C33.7 39.15, 27.2 42.08, 22.68 42.68 C18.17 43.28, 13.57 42.07, 9.82 39.52 C6.06 36.98, 1.58 31.98, 0.16 27.41 C-1.26 22.83, -1.14 16.5, 1.29 12.09 C3.73 7.69, 12.05 2.99, 14.76 0.97 C17.47 -1.04, 17.33 -0.25, 17.55 0 M21.41 0.93 C25.85 1.12, 32.09 3.74, 35.37 6.7 C38.65 9.67, 40.66 14.18, 41.07 18.7 C41.49 23.22, 39.9 30.03, 37.85 33.8 C35.81 37.58, 33.14 40.23, 28.81 41.33 C24.48 42.43, 16.34 41.94, 11.85 40.41 C7.36 38.87, 3.63 36.25, 1.87 32.12 C0.12 27.98, 0.36 20.43, 1.31 15.59 C2.26 10.75, 4.05 5.51, 7.55 3.07 C11.06 0.63, 19.8 1.29, 22.33 0.96 C24.86 0.63, 22.93 1.08, 22.74 1.09" stroke="none" stroke-width="0" fill="#04aaf7"></path><path d="M30.24 2.54 C34.27 3.9, 38.18 7.92, 40.16 11.87 C42.13 15.82, 43.1 21.77, 42.09 26.24 C41.07 30.7, 37.91 36, 34.06 38.66 C30.2 41.33, 23.59 42.46, 18.95 42.23 C14.31 41.99, 9.33 40.51, 6.22 37.24 C3.11 33.96, 0.79 27.3, 0.28 22.58 C-0.24 17.87, 0.43 12.64, 3.12 8.93 C5.81 5.22, 11.42 1.23, 16.41 0.32 C21.41 -0.59, 29.77 2.28, 33.11 3.47 C36.44 4.65, 36.52 7.02, 36.41 7.43 M30.64 2.7 C34.81 4.24, 40.04 8, 42.15 11.94 C44.26 15.89, 45.02 21.88, 43.3 26.36 C41.59 30.84, 36.04 36.12, 31.87 38.82 C27.7 41.51, 22.52 43.02, 18.27 42.52 C14.02 42.03, 9.39 39.21, 6.36 35.83 C3.33 32.45, 0.42 26.84, 0.1 22.23 C-0.21 17.61, 1.83 11.97, 4.45 8.15 C7.07 4.33, 11.6 0.19, 15.82 -0.68 C20.03 -1.55, 27.2 2.33, 29.74 2.92 C32.28 3.5, 30.83 2.46, 31.07 2.82" stroke="#000000" stroke-width="1" fill="none"></path></g><g stroke-linecap="round"><g transform="translate(367.4156195197196 46.9990118963284) rotate(0 -3.4669568227483865 6.479860744560774)" fill-rule="evenodd"><path d="M0 0 L-1.83 -0.41 L-7.57 -6.27 L-9.75 -6.1 L-11.36 -4.35 L-12.61 2.37 L-11.27 6.74 L-17.42 8.89 L-18 11.42 L-17.2 13.64 L-15.01 14.04 L-12.38 13.35 L-8.7 9.48 L-3.62 17.87 L-1.49 19.38 L-0.42 18.17 L-3.78 4.8 L-1.52 3.64 L1.39 4.35 L3.16 5.87 L6.21 6.29 L9.24 5.87 L10.81 3.22 L10.8 0.63 L4.22 1.11 L5.49 -5.76 L4.23 -6.26 L2.47 -5.35 L-0.24 -0.92 L0 0" stroke="none" stroke-width="0" fill="#40c057" fill-rule="evenodd"></path><path d="M0 0 C-0.31 -0.07, -0.57 0.63, -1.83 -0.41 C-3.09 -1.46, -5.98 -5.62, -7.57 -6.27 C-9.16 -6.93, -10.52 -5.79, -11.36 -4.35 C-12.2 -2.91, -12.63 0.53, -12.61 2.37 C-12.6 4.22, -10.47 5.65, -11.27 6.74 C-12.07 7.83, -16.44 7.74, -17.42 8.89 C-18.41 10.04, -18.04 12.9, -17.2 13.64 C-16.36 14.39, -13.8 14.04, -12.38 13.35 C-10.96 12.66, -10.16 8.72, -8.7 9.48 C-7.24 10.23, -5 16.42, -3.62 17.87 C-2.24 19.32, -0.39 20.35, -0.42 18.17 C-0.44 15.99, -4.08 7.1, -3.78 4.8 C-3.48 2.5, 0.23 4.17, 1.39 4.35 C2.54 4.53, 1.85 5.61, 3.16 5.87 C4.47 6.12, 7.96 6.74, 9.24 5.87 C10.51 5, 11.64 1.43, 10.8 0.63 C9.97 -0.16, 5.11 2.18, 4.22 1.11 C3.34 0.04, 5.78 -4.68, 5.49 -5.76 C5.19 -6.84, 3.43 -6.15, 2.47 -5.35 C1.52 -4.54, 0.17 -1.81, -0.24 -0.92 C-0.65 -0.03, -0.04 -0.15, 0 0 M0 0 C-0.31 -0.07, -0.57 0.63, -1.83 -0.41 C-3.09 -1.46, -5.98 -5.62, -7.57 -6.27 C-9.16 -6.93, -10.52 -5.79, -11.36 -4.35 C-12.2 -2.91, -12.63 0.53, -12.61 2.37 C-12.6 4.22, -10.47 5.65, -11.27 6.74 C-12.07 7.83, -16.44 7.74, -17.42 8.89 C-18.41 10.04, -18.04 12.9, -17.2 13.64 C-16.36 14.39, -13.8 14.04, -12.38 13.35 C-10.96 12.66, -10.16 8.72, -8.7 9.48 C-7.24 10.23, -5 16.42, -3.62 17.87 C-2.24 19.32, -0.39 20.35, -0.42 18.17 C-0.44 15.99, -4.08 7.1, -3.78 4.8 C-3.48 2.5, 0.23 4.17, 1.39 4.35 C2.54 4.53, 1.85 5.61, 3.16 5.87 C4.47 6.12, 7.96 6.74, 9.24 5.87 C10.51 5, 11.64 1.43, 10.8 0.63 C9.97 -0.16, 5.11 2.18, 4.22 1.11 C3.34 0.04, 5.78 -4.68, 5.49 -5.76 C5.19 -6.84, 3.43 -6.15, 2.47 -5.35 C1.52 -4.54, 0.17 -1.81, -0.24 -0.92 C-0.65 -0.03, -0.04 -0.15, 0 0" stroke="#087f5b" stroke-width="1" fill="none"></path></g></g><g stroke-linecap="round"><g stroke-opacity="0.9" fill-opacity="0.9" transform="translate(341.39651793177154 51.73753339505174) rotate(0 21.59131207802369 0.12761863402090512)"><path d="M1.02 -0.27 C8.07 -0.26, 36.11 0.16, 43.09 0.12 M0.09 -1.46 C7 -1.24, 35.59 1.39, 42.67 1.71" stroke="#000000" stroke-width="1" fill="none"></path></g></g><g stroke-linecap="round"><g stroke-opacity="0.9" fill-opacity="0.9" transform="translate(346.4918469615459 36.303004468085646) rotate(0 14.659303301924297 2.6275724513134264)"><path d="M0 0 C0.13 0.38, 0.09 1.58, 0.77 2.28 C1.46 2.97, 2.81 3.68, 4.1 4.19 C5.4 4.7, 6.64 5.13, 8.54 5.34 C10.43 5.55, 12.97 5.55, 15.48 5.45 C17.99 5.34, 21.44 5.28, 23.58 4.71 C25.72 4.14, 27.36 2.86, 28.32 2.03 C29.27 1.2, 29.15 0.12, 29.32 -0.26 M0 0 C0.13 0.38, 0.09 1.58, 0.77 2.28 C1.46 2.97, 2.81 3.68, 4.1 4.19 C5.4 4.7, 6.64 5.13, 8.54 5.34 C10.43 5.55, 12.97 5.55, 15.48 5.45 C17.99 5.34, 21.44 5.28, 23.58 4.71 C25.72 4.14, 27.36 2.86, 28.32 2.03 C29.27 1.2, 29.15 0.12, 29.32 -0.26" stroke="#000000" stroke-width="1" fill="none"></path></g></g><g stroke-opacity="0.9" fill-opacity="0.9" stroke-linecap="round" transform="translate(354.56576288546535 29.392130202278167) rotate(0 7.764217176558077 22.41115194065472)"><path d="M10.28 0.79 C11.92 2.01, 13.9 6.63, 14.62 10.72 C15.34 14.81, 14.95 20.5, 14.62 25.35 C14.3 30.2, 13.74 36.73, 12.66 39.82 C11.58 42.91, 9.84 43.96, 8.12 43.91 C6.39 43.85, 3.51 42.43, 2.33 39.5 C1.14 36.58, 1.29 31.02, 1 26.33 C0.71 21.65, -0.11 15.35, 0.59 11.37 C1.3 7.39, 3.38 3.8, 5.25 2.47 C7.12 1.14, 10.42 2.78, 11.83 3.38 C13.24 3.98, 13.8 5.84, 13.71 6.07 M10.37 -0.85 C11.54 -0.37, 11.57 3.41, 12.32 7.18 C13.07 10.94, 14.54 16.92, 14.88 21.75 C15.22 26.58, 15.27 32.43, 14.36 36.13 C13.44 39.83, 11.06 43.04, 9.38 43.95 C7.71 44.87, 5.88 44.06, 4.31 41.63 C2.74 39.2, 0.81 33.65, -0.04 29.38 C-0.89 25.1, -1.45 20.29, -0.77 15.98 C-0.09 11.67, 2.23 5.96, 4.05 3.5 C5.87 1.03, 9.2 1.73, 10.15 1.2 C11.11 0.66, 10.25 0.07, 9.8 0.28" stroke="#000000" stroke-width="1" fill="none"></path></g><g stroke-linecap="round"><g stroke-opacity="0.9" fill-opacity="0.9" transform="translate(348.0077984711718 68.04009652652655) rotate(0 14.659303301924297 -2.712622320327597)"><path d="M0 0 C0.68 -0.72, 2.68 -3.4, 4.1 -4.32 C5.53 -5.24, 6.64 -5.3, 8.54 -5.52 C10.43 -5.73, 12.97 -5.73, 15.48 -5.63 C17.99 -5.52, 21.44 -5.45, 23.58 -4.86 C25.72 -4.28, 27.36 -2.95, 28.32 -2.1 C29.27 -1.24, 29.15 -0.12, 29.32 0.27 M0 0 C0.68 -0.72, 2.68 -3.4, 4.1 -4.32 C5.53 -5.24, 6.64 -5.3, 8.54 -5.52 C10.43 -5.73, 12.97 -5.73, 15.48 -5.63 C17.99 -5.52, 21.44 -5.45, 23.58 -4.86 C25.72 -4.28, 27.36 -2.95, 28.32 -2.1 C29.27 -1.24, 29.15 -0.12, 29.32 0.27" stroke="#000000" stroke-width="1" fill="none"></path></g></g><g stroke-linecap="round"><g transform="translate(362.4816050533302 85.76769325744556) rotate(0 1.0727306502034253 26.741495711662424)"><path d="M0.51 0.77 C0.86 9.65, 1.44 44.2, 1.64 52.71" stroke="#000000" stroke-width="1.5" fill="none" stroke-dasharray="8 9"></path></g></g><g stroke-linecap="round" transform="translate(368.1273696679209 299.6920298566179) rotate(0 2.819487749596192 2.795107826457439)"><path d="M4.59 -0.69 C5.06 -0.31, 4.65 1.62, 4.87 2.46 C5.09 3.3, 6.18 3.99, 5.93 4.33 C5.67 4.67, 4.05 4.37, 3.35 4.48 C2.66 4.59, 2.15 5.03, 1.76 4.99 C1.37 4.96, 1.26 4.66, 1.02 4.28 C0.78 3.89, 0.44 3.1, 0.33 2.69 C0.23 2.28, 0.17 2.33, 0.39 1.82 C0.61 1.3, 0.87 -0.01, 1.67 -0.38 C2.47 -0.76, 4.85 -0.57, 5.19 -0.44 C5.54 -0.32, 3.93 0.07, 3.72 0.38 M3.06 0.68 C3.58 0.94, 2.35 1.29, 2.86 1.64 C3.36 2, 5.61 2.24, 6.11 2.8 C6.61 3.37, 6.13 4.64, 5.85 5.03 C5.57 5.42, 4.77 4.96, 4.42 5.13 C4.07 5.3, 4.27 5.92, 3.74 6.03 C3.22 6.14, 1.76 6.56, 1.27 5.81 C0.79 5.07, 1.13 2.21, 0.83 1.55 C0.54 0.88, -0.65 2.07, -0.49 1.83 C-0.34 1.58, 1.36 0.61, 1.76 0.1 C2.17 -0.42, 1.86 -1.35, 1.95 -1.27" stroke="#e10098" stroke-width="1" fill="none"></path></g><g stroke-linecap="round" transform="translate(368.34838427522163 316.2294315820049) rotate(0 2.819487749596192 2.795107826457439)"><path d="M1.51 -0.53 C2.23 -0.64, 4.34 0.62, 5.13 0.88 C5.92 1.14, 6.3 0.62, 6.23 1.01 C6.17 1.4, 5.2 2.45, 4.74 3.21 C4.29 3.97, 4 5.13, 3.5 5.56 C3 6, 2.27 6.06, 1.74 5.84 C1.21 5.63, 0.47 4.9, 0.3 4.27 C0.13 3.65, 0.71 2.5, 0.71 2.1 C0.72 1.7, 0.09 2.3, 0.32 1.86 C0.56 1.42, 1.62 -0.23, 2.1 -0.55 C2.58 -0.86, 2.94 -0.12, 3.2 -0.03 M2.38 -1.22 C3.28 -1.48, 4.28 0.26, 4.9 0.75 C5.52 1.23, 5.78 1.25, 6.1 1.69 C6.42 2.14, 7.08 2.63, 6.83 3.41 C6.58 4.18, 5.17 5.86, 4.61 6.33 C4.04 6.81, 3.81 6.32, 3.44 6.24 C3.07 6.16, 3.13 6.52, 2.38 5.84 C1.62 5.17, -0.92 3.04, -1.11 2.21 C-1.31 1.38, 0.71 1.28, 1.2 0.87 C1.68 0.47, 1.94 -0.11, 1.81 -0.24 C1.67 -0.36, 0.35 -0.08, 0.4 0.14" stroke="#e10098" stroke-width="1" fill="none"></path></g><g stroke-linecap="round" transform="translate(395.77554130726276 298.96499577456285) rotate(0 2.819487749596192 2.795107826457439)"><path d="M2.04 0.76 C2.6 0.96, 4.44 1.11, 4.86 1.22 C5.28 1.33, 4.58 1.06, 4.55 1.42 C4.52 1.79, 4.71 2.83, 4.66 3.41 C4.61 4, 4.64 4.61, 4.26 4.92 C3.89 5.22, 3.06 5.21, 2.41 5.24 C1.75 5.27, 0.81 5.62, 0.32 5.09 C-0.17 4.57, -0.76 2.93, -0.51 2.08 C-0.26 1.24, 1.33 0.37, 1.83 0.01 C2.33 -0.35, 2.23 -0.23, 2.47 -0.08 C2.72 0.07, 3.28 0.98, 3.31 0.91 M0.41 1.41 C0.92 1.22, 3.51 0.87, 4.38 1.06 C5.26 1.26, 5.41 2.25, 5.65 2.6 C5.9 2.94, 5.77 2.68, 5.85 3.15 C5.93 3.62, 6.52 4.8, 6.12 5.42 C5.73 6.04, 4.2 7.14, 3.49 6.86 C2.78 6.59, 2.63 4.22, 1.85 3.77 C1.08 3.32, -0.8 4.56, -1.15 4.18 C-1.5 3.79, -0.69 2.37, -0.26 1.48 C0.16 0.59, 1.06 -1.02, 1.39 -1.19 C1.72 -1.36, 1.54 0.42, 1.73 0.46" stroke="#e10098" stroke-width="1" fill="none"></path></g><g stroke-linecap="round" transform="translate(395.9965559145644 315.5023974999545) rotate(0 2.819487749596192 2.795107826457439)"><path d="M4.24 0.49 C5.09 0.52, 5.68 -0.15, 5.8 0.15 C5.93 0.44, 5.23 1.46, 4.97 2.27 C4.72 3.08, 4.66 4.39, 4.28 4.99 C3.9 5.6, 3.25 5.91, 2.71 5.9 C2.16 5.89, 1.32 5.41, 1 4.94 C0.69 4.46, 1.02 3.44, 0.82 3.06 C0.62 2.68, -0.21 3.21, -0.21 2.66 C-0.22 2.11, 0.12 0.18, 0.77 -0.26 C1.42 -0.7, 3.03 -0.01, 3.71 0.04 C4.39 0.1, 4.98 0.1, 4.84 0.05 M4.68 0.69 C5.29 1.08, 5.6 1.09, 5.97 1.51 C6.33 1.92, 7.05 2.4, 6.85 3.18 C6.65 3.96, 5.3 5.66, 4.77 6.17 C4.24 6.68, 4.04 6.25, 3.67 6.22 C3.3 6.19, 3.35 6.61, 2.57 5.98 C1.78 5.35, -0.81 3.25, -1.05 2.43 C-1.3 1.61, 0.66 1.51, 1.1 1.08 C1.54 0.65, 1.43 0.05, 1.59 -0.14 C1.76 -0.33, 1.74 -0.2, 2.08 -0.06 C2.42 0.09, 3.67 0.5, 3.66 0.73" stroke="#e10098" stroke-width="1" fill="none"></path></g><g stroke-linecap="round" transform="translate(381.66769245096793 287.34226937096054) rotate(0 2.819487749596192 2.795107826457439)"><path d="M1.88 1.05 C2.3 0.51, 1.98 -0.51, 2.38 -0.61 C2.79 -0.7, 3.73 -0.03, 4.32 0.48 C4.9 0.99, 5.75 1.79, 5.9 2.45 C6.06 3.1, 5.74 3.76, 5.26 4.4 C4.79 5.03, 3.8 6.21, 3.06 6.27 C2.32 6.32, 1.15 5.29, 0.83 4.73 C0.51 4.16, 1.34 3.39, 1.14 2.88 C0.94 2.38, -0.46 2.02, -0.35 1.69 C-0.24 1.36, 1.39 1.33, 1.8 0.93 C2.21 0.53, 2.2 -0.69, 2.12 -0.7 M4.04 0.97 C4.91 1.05, 5.14 2, 5.45 2.3 C5.76 2.61, 5.73 2.31, 5.89 2.79 C6.04 3.27, 6.72 4.5, 6.38 5.17 C6.04 5.84, 4.56 7.03, 3.85 6.84 C3.15 6.64, 2.96 4.36, 2.14 3.98 C1.33 3.59, -0.63 4.89, -1.06 4.52 C-1.49 4.16, -0.77 2.73, -0.42 1.8 C-0.07 0.87, 0.44 -0.79, 1.06 -1.04 C1.68 -1.29, 2.8 0.33, 3.29 0.29 C3.79 0.26, 3.84 -1.18, 4.01 -1.27" stroke="#e10098" stroke-width="1" fill="none"></path></g><g stroke-linecap="round" transform="translate(382.4741630416315 324.24298782182984) rotate(0 2.819487749596192 2.795107826457439)"><path d="M2.77 -0.89 C3.07 -1.27, 2.98 -0.92, 3.32 -0.46 C3.66 0, 4.48 1.14, 4.78 1.85 C5.09 2.56, 5.23 3.31, 5.13 3.82 C5.04 4.32, 4.52 4.68, 4.22 4.88 C3.91 5.09, 3.95 4.91, 3.31 5.06 C2.68 5.21, 1.08 6.21, 0.4 5.79 C-0.29 5.37, -0.79 3.31, -0.79 2.52 C-0.79 1.74, -0.21 1.55, 0.41 1.09 C1.03 0.63, 2.76 0.06, 2.94 -0.22 C3.11 -0.5, 1.52 -0.77, 1.47 -0.6 M2.43 0.71 C2.92 0.36, 4.23 0.01, 4.65 0.32 C5.07 0.63, 4.7 2.03, 4.94 2.58 C5.19 3.12, 5.93 3.09, 6.13 3.58 C6.33 4.07, 6.85 5.39, 6.16 5.52 C5.48 5.65, 2.66 4.54, 2 4.37 C1.33 4.21, 2.48 4.72, 2.18 4.52 C1.87 4.32, 0.75 3.67, 0.19 3.18 C-0.36 2.69, -1.4 1.97, -1.14 1.59 C-0.88 1.22, 1.54 0.96, 1.76 0.92 C1.97 0.88, 0.27 1.66, 0.16 1.37" stroke="#e10098" stroke-width="1" fill="none"></path></g><g stroke-linecap="round"><g transform="translate(371.22514313496913 304.6010604326968) rotate(0 -0.4105378523049694 5.710574571849634)"><path d="M-1.2 -0.66 C-1.16 1.26, -0.19 10.24, 0 12.08 M0.38 1.61 C0.35 3.12, -0.35 8.64, -0.47 10.22" stroke="#e10098" stroke-width="1" fill="none"></path></g></g><g stroke-linecap="round"><g transform="translate(398.4198016110581 303.6417443097585) rotate(0 0.053609273203335306 6.38177052909586)"><path d="M-0.66 0.9 C-0.82 3.17, -0.16 10.79, -0.4 12.44 M1.2 0.33 C0.87 2.37, -0.92 8.87, -1.09 10.76" stroke="#e10098" stroke-width="1" fill="none"></path></g></g><g stroke-linecap="round"><g transform="translate(372.81048397630184 299.25080613534317) rotate(0 5.5701408099856735 -4.5698995360763774)"><path d="M0.9 0.5 C2.97 -1, 9.78 -8, 11.23 -9.64 M-0.09 -0.29 C2.01 -1.63, 8.7 -7.37, 10.72 -8.72" stroke="#e10098" stroke-width="1" fill="none"></path></g></g><g stroke-linecap="round"><g transform="translate(388.0947156393115 325.80513550363355) rotate(0 4.827149699408551 -2.631286751847682)"><path d="M0.5 0.85 C1.98 -0.32, 6.92 -4.97, 8.27 -6.11 M-0.7 0.25 C1.19 -0.86, 8.4 -4.11, 10.36 -4.99" stroke="#e10098" stroke-width="1" fill="none"></path></g></g><g stroke-linecap="round"><g transform="translate(372.5994371994457 320.43711605537214) rotate(0 4.1131204195401665 1.51179946249556)"><path d="M0.85 -1.19 C1.72 -0.76, 5.2 2.21, 6.09 3.13 M-0.16 0.79 C1.01 1.32, 7.52 3.39, 8.39 4.22" stroke="#e10098" stroke-width="1" fill="none"></path></g></g><g stroke-linecap="round"><g transform="translate(388.60717621920367 291.5081697871167) rotate(0 5.779839893721999 3.876491551488215)"><path d="M-1.19 -0.79 C0.47 0.29, 8.35 5.98, 10.49 7.37 M0.38 1.41 C2.38 2.56, 10.97 7.34, 12.75 8.55" stroke="#e10098" stroke-width="1" fill="none"></path></g></g><g stroke-linecap="round"><g transform="translate(372.837733063599 316.4624006613492) rotate(0 5.683317198607654 -12.018939213725929)"><path d="M-0.79 -0.85 C0.7 -4.55, 8.01 -19.66, 9.81 -23.41 M0.99 1.32 C2.8 -2.65, 10.83 -20.9, 12.16 -25.36" stroke="#e10098" stroke-width="1" fill="none"></path></g></g><g stroke-linecap="round"><g transform="translate(385.0351493463022 316.39543680076054) rotate(306.8074096825988 6.0951276610162495 -11.618139278048972)"><path d="M-0.85 -0.69 C1.52 -4.69, 10.71 -20.81, 13.04 -24.8 M0.91 1.56 C3.25 -2.21, 10.32 -19.36, 12.26 -23.52" stroke="#e10098" stroke-width="1" fill="none"></path></g></g><g stroke-linecap="round"><g transform="translate(374.4197665178915 319.3007340584841) rotate(0 10.683003036593846 -0.7757355114999598)"><path d="M-0.69 0.32 C3.12 0.46, 18.23 0.17, 22.06 0.02 M1.15 -0.56 C4.82 -0.71, 17.48 -2.09, 20.84 -1.9" stroke="#e10098" stroke-width="1" fill="none"></path></g></g><g stroke-linecap="round" transform="translate(639.0364605770117 297.87384803843617) rotate(0 2.819487749596192 2.795107826457439)"><path d="M4.93 1.31 C5.25 1.26, 4.44 0.27, 4.54 0.78 C4.64 1.3, 5.47 3.52, 5.53 4.38 C5.58 5.25, 5.47 5.86, 4.89 5.96 C4.32 6.05, 2.86 5.07, 2.06 4.96 C1.27 4.85, 0.31 5.47, 0.11 5.28 C-0.09 5.1, 0.88 4.58, 0.86 3.85 C0.84 3.13, -0.27 1.53, -0.01 0.92 C0.24 0.31, 1.7 0.16, 2.39 0.19 C3.09 0.22, 3.88 0.94, 4.15 1.11 C4.42 1.27, 3.89 1.31, 4.01 1.19 M2.51 0.4 C2.95 0.21, 2.59 0.22, 2.97 0.25 C3.34 0.28, 4.49 0.19, 4.74 0.57 C4.98 0.95, 4.38 1.75, 4.44 2.51 C4.49 3.28, 5.49 4.72, 5.06 5.15 C4.63 5.58, 2.55 5.1, 1.86 5.11 C1.16 5.12, 0.97 5.25, 0.89 5.21 C0.81 5.17, 1.68 5.36, 1.38 4.86 C1.07 4.36, -0.99 3.19, -0.93 2.22 C-0.87 1.26, 1.41 -0.53, 1.75 -0.93 C2.09 -1.32, 1.24 -0.3, 1.12 -0.15" stroke="#e10098" stroke-width="1" fill="none"></path></g><g stroke-linecap="round" transform="translate(639.2574751843124 314.41124976382315) rotate(0 2.819487749596192 2.795107826457439)"><path d="M4.3 -0.85 C4.59 -0.91, 3.67 0.32, 4.02 1.03 C4.36 1.74, 6.07 2.85, 6.36 3.39 C6.65 3.92, 6.37 3.98, 5.76 4.24 C5.15 4.5, 3.32 4.63, 2.7 4.94 C2.07 5.24, 2.28 6.37, 2.02 6.07 C1.76 5.77, 1.46 3.81, 1.13 3.13 C0.8 2.45, -0.05 2.5, 0.02 1.99 C0.09 1.47, 0.8 0.46, 1.55 0.04 C2.3 -0.37, 3.97 -0.69, 4.52 -0.5 C5.07 -0.3, 5.03 1.19, 4.85 1.22 M2.77 -0.64 C3.42 -0.93, 4.26 -0.16, 4.61 0.1 C4.96 0.36, 4.85 0.22, 4.87 0.92 C4.9 1.62, 4.86 3.76, 4.77 4.3 C4.67 4.85, 4.84 4.05, 4.31 4.2 C3.78 4.36, 2.19 4.98, 1.58 5.23 C0.97 5.47, 0.68 6.32, 0.65 5.67 C0.63 5.01, 1.28 2.09, 1.42 1.29 C1.57 0.49, 1.52 1.17, 1.52 0.85 C1.53 0.54, 1.34 -0.33, 1.45 -0.59 C1.56 -0.85, 2.07 -0.67, 2.18 -0.73" stroke="#e10098" stroke-width="1" fill="none"></path></g><g stroke-linecap="round" transform="translate(666.6846322163535 297.1468139563811) rotate(0 2.819487749596192 2.795107826457439)"><path d="M2.98 -0.76 C3.4 -0.63, 4.8 1.38, 5.33 2.2 C5.86 3.02, 6.35 3.8, 6.16 4.16 C5.97 4.53, 4.87 4.05, 4.2 4.39 C3.52 4.73, 2.52 5.97, 2.11 6.21 C1.71 6.45, 2.24 6.37, 1.79 5.84 C1.34 5.31, -0.39 3.77, -0.59 3.04 C-0.79 2.31, 0.22 1.84, 0.58 1.45 C0.95 1.06, 1.09 0.8, 1.62 0.71 C2.15 0.62, 3.09 0.9, 3.75 0.89 C4.4 0.88, 5.59 0.69, 5.55 0.65 M1.88 0.15 C2.24 -0.08, 3.56 -0.41, 3.97 -0.2 C4.38 0.02, 4.06 0.69, 4.35 1.44 C4.63 2.18, 5.93 3.7, 5.69 4.27 C5.45 4.84, 3.55 4.6, 2.91 4.84 C2.27 5.07, 2.05 5.5, 1.87 5.67 C1.69 5.84, 2.34 6.24, 1.83 5.84 C1.32 5.44, -1.05 4.29, -1.22 3.26 C-1.38 2.24, 0.33 0.3, 0.85 -0.31 C1.38 -0.93, 1.79 -0.4, 1.94 -0.42 C2.08 -0.45, 1.85 -0.48, 1.74 -0.46" stroke="#e10098" stroke-width="1" fill="none"></path></g><g stroke-linecap="round" transform="translate(666.9056468236552 313.68421568177274) rotate(0 2.819487749596192 2.795107826457439)"><path d="M2.93 0.24 C3.43 0.67, 5.47 1.62, 6.04 2.09 C6.61 2.55, 6.71 2.65, 6.36 3.04 C6.01 3.43, 4.44 3.84, 3.93 4.4 C3.42 4.97, 3.66 6.47, 3.32 6.44 C2.97 6.42, 2.45 4.76, 1.88 4.24 C1.3 3.72, 0.09 3.86, -0.12 3.32 C-0.34 2.77, 0.13 1.62, 0.57 0.97 C1.02 0.31, 1.82 -0.63, 2.54 -0.6 C3.26 -0.57, 4.53 1.03, 4.87 1.17 C5.21 1.31, 4.7 0.36, 4.59 0.26 M3.72 -0.33 C4.14 -0.3, 4.25 -0.58, 4.47 0.03 C4.69 0.65, 4.92 2.76, 5.03 3.36 C5.14 3.97, 5.53 3.33, 5.12 3.65 C4.71 3.98, 3.19 4.87, 2.56 5.32 C1.93 5.77, 1.52 6.87, 1.34 6.36 C1.17 5.86, 1.57 3.05, 1.5 2.27 C1.43 1.48, 1.11 2.08, 0.95 1.65 C0.78 1.21, 0.13 0.04, 0.5 -0.35 C0.86 -0.74, 2.72 -0.57, 3.14 -0.69 C3.57 -0.82, 3.07 -1.43, 3.04 -1.1" stroke="#e10098" stroke-width="1" fill="none"></path></g><g stroke-linecap="round" transform="translate(652.5767833600587 285.5240875527788) rotate(0 2.819487749596192 2.795107826457439)"><path d="M4.18 1.05 C4.95 1.59, 5.86 2.21, 6.02 2.55 C6.18 2.88, 5.52 2.53, 5.14 3.07 C4.75 3.61, 4 5.21, 3.69 5.79 C3.38 6.37, 3.87 6.74, 3.27 6.52 C2.67 6.31, 0.62 5.09, 0.1 4.51 C-0.42 3.92, 0.13 3.49, 0.16 3.01 C0.19 2.53, 0.05 2.07, 0.28 1.64 C0.5 1.2, 0.66 0.62, 1.51 0.42 C2.37 0.22, 4.94 0.27, 5.42 0.43 C5.91 0.58, 4.6 1.17, 4.43 1.35 M2.54 -0.67 C3.03 -0.8, 3 -0.42, 3.56 0.16 C4.12 0.74, 5.83 2.18, 5.91 2.79 C5.99 3.41, 4.46 3.38, 4.04 3.85 C3.62 4.32, 3.55 5.15, 3.38 5.64 C3.2 6.12, 3.72 6.93, 3.01 6.78 C2.29 6.62, -0.44 5.69, -0.92 4.73 C-1.4 3.76, -0.11 1.77, 0.13 1 C0.37 0.23, 0.19 0.38, 0.53 0.12 C0.87 -0.13, 1.98 -0.42, 2.18 -0.52 C2.38 -0.62, 1.43 -0.77, 1.71 -0.49" stroke="#e10098" stroke-width="1" fill="none"></path></g><g stroke-linecap="round" transform="translate(653.3832539507223 322.4248060036481) rotate(0 2.819487749596192 2.795107826457439)"><path d="M2.32 0.86 C3.12 0.51, 3.95 -0.22, 4.31 -0.27 C4.67 -0.32, 4.18 -0.13, 4.51 0.56 C4.83 1.25, 6.03 3.27, 6.25 3.86 C6.46 4.46, 6.35 3.82, 5.8 4.14 C5.25 4.45, 3.69 5.63, 2.95 5.73 C2.21 5.84, 1.74 5.26, 1.36 4.77 C0.98 4.29, 0.8 3.24, 0.67 2.82 C0.55 2.4, 0.38 2.85, 0.61 2.25 C0.84 1.65, 1.65 -0.41, 2.08 -0.8 C2.52 -1.19, 3.06 -0.29, 3.22 -0.09 M1.53 -1.12 C1.96 -1.16, 2.83 0.33, 3.53 0.61 C4.23 0.9, 5.51 0.13, 5.76 0.59 C6.01 1.05, 5.24 2.4, 5.03 3.38 C4.82 4.36, 4.69 6.29, 4.5 6.45 C4.3 6.61, 4.37 4.63, 3.86 4.34 C3.34 4.06, 2.24 5.08, 1.41 4.74 C0.57 4.4, -0.95 3.06, -1.16 2.32 C-1.37 1.58, -0.33 0.88, 0.15 0.3 C0.62 -0.29, 1.43 -1.32, 1.69 -1.19 C1.94 -1.07, 1.43 0.62, 1.67 1.05" stroke="#e10098" stroke-width="1" fill="none"></path></g><g stroke-linecap="round"><g transform="translate(642.1342340440599 302.782878614515) rotate(0 -0.4379231880766383 6.047638254855599)"><path d="M1.18 -1.07 C0.69 0.71, -1.86 9.39, -2.06 11.61 M0.35 0.98 C0.12 2.88, 0.16 11.61, 0.04 13.17" stroke="#e10098" stroke-width="1" fill="none"></path></g></g><g stroke-linecap="round"><g transform="translate(669.3288925201489 301.82356249157675) rotate(0 -0.6171816962280445 5.644561617137725)"><path d="M-1.07 -1.16 C-1.37 0.72, -1.01 10.17, -0.87 12.45 M0.56 0.84 C0.03 2.9, -1.6 9.14, -1.8 10.78" stroke="#e10098" stroke-width="1" fill="none"></path></g></g><g stroke-linecap="round"><g transform="translate(643.7195748853926 297.4326243171614) rotate(0 5.03969929002767 -4.733122515649001)"><path d="M-1.16 0.03 C0.52 -1.08, 9.16 -6.26, 11.24 -7.74 M0.43 -1 C1.92 -2.36, 8.98 -8.37, 10.75 -9.5" stroke="#e10098" stroke-width="1" fill="none"></path></g></g><g stroke-linecap="round"><g transform="translate(659.0038065484023 323.9869536854518) rotate(0 4.377432287520719 -2.5661719265961835)"><path d="M0.03 0.87 C1.9 0.33, 8.67 -3.22, 10.17 -4.37 M-1.41 0.28 C0.46 -0.48, 8.01 -5.1, 9.59 -6" stroke="#e10098" stroke-width="1" fill="none"></path></g></g><g stroke-linecap="round"><g transform="translate(643.5085281085364 318.6189342371904) rotate(0 3.8466665394265647 2.4355072457503297)"><path d="M0.87 0.7 C2.36 1.28, 6.95 3.12, 7.83 3.54 M-0.14 0.02 C1.39 0.77, 5.91 4.16, 7.38 4.85" stroke="#e10098" stroke-width="1" fill="none"></path></g></g><g stroke-linecap="round"><g transform="translate(659.5162671282944 289.68998796893493) rotate(0 5.254301193499032 4.446117802830912)"><path d="M0.7 0.95 C2.51 2.03, 9.25 6.03, 10.9 7.34 M-0.39 0.4 C1.22 1.54, 7.48 7.42, 9.73 8.49" stroke="#e10098" stroke-width="1" fill="none"></path></g></g><g stroke-linecap="round"><g transform="translate(643.7468239726898 314.64421884316744) rotate(0 6.04617605795022 -12.444132289477835)"><path d="M0.95 -0.43 C2.43 -4.62, 8.06 -20.75, 9.78 -24.46 M-0.01 -1.7 C1.78 -5.82, 10.29 -19.5, 12.11 -23.3" stroke="#e10098" stroke-width="1" fill="none"></path></g></g><g stroke-linecap="round"><g transform="translate(655.944240255393 314.5772549825788) rotate(306.8074096825988 6.941269414999965 -11.888765725217155)"><path d="M-0.43 -0.73 C1.45 -4.81, 9.62 -19.82, 11.99 -23.55 M1.54 1.51 C3.75 -3, 12.32 -20.89, 14.31 -25.29" stroke="#e10098" stroke-width="1" fill="none"></path></g></g><g stroke-linecap="round"><g transform="translate(645.3288574269823 317.48255224030237) rotate(0 11.287983040427662 0.28226608873333703)"><path d="M-0.73 -0.73 C3 -0.55, 19.23 0.71, 23.3 0.65 M1.09 1.5 C4.64 1.4, 19 -0.65, 22.74 -0.93" stroke="#e10098" stroke-width="1" fill="none"></path></g></g><g stroke-linecap="round" transform="translate(119.03646057701167 305.1465753111634) rotate(0 2.819487749596192 2.795107826457439)"><path d="M2.67 -0.72 C3.17 -0.95, 3.99 -0.05, 4.45 0.28 C4.92 0.61, 5.4 0.65, 5.44 1.27 C5.48 1.88, 5.06 3.19, 4.68 3.95 C4.31 4.71, 3.74 5.64, 3.17 5.83 C2.6 6.03, 1.82 5.51, 1.28 5.12 C0.74 4.74, 0.19 3.92, -0.07 3.51 C-0.33 3.11, -0.3 3.18, -0.28 2.69 C-0.26 2.21, -0.45 1.14, 0.05 0.62 C0.55 0.1, 2.18 -0.29, 2.71 -0.41 C3.23 -0.54, 3.12 -0.3, 3.18 -0.12 M2.46 -0.32 C3.39 -0.68, 4.82 -0.51, 5.08 -0.09 C5.34 0.32, 3.98 1.53, 4.03 2.17 C4.09 2.82, 5.33 3.26, 5.4 3.78 C5.47 4.3, 5.11 5.22, 4.45 5.29 C3.79 5.37, 1.83 4.51, 1.43 4.21 C1.03 3.92, 2.32 3.89, 2.06 3.54 C1.79 3.19, 0.11 2.75, -0.16 2.11 C-0.42 1.47, 0.22 0.24, 0.49 -0.31 C0.75 -0.86, 1.04 -1.32, 1.44 -1.2 C1.85 -1.08, 2.61 0.29, 2.92 0.41" stroke="#e10098" stroke-width="1" fill="none"></path></g><g stroke-linecap="round" transform="translate(119.2574751843124 321.6839770365504) rotate(0 2.819487749596192 2.795107826457439)"><path d="M2.54 -0.02 C2.95 0.01, 4.3 0.49, 4.67 0.84 C5.04 1.19, 4.7 1.61, 4.74 2.1 C4.78 2.6, 5.05 3.35, 4.89 3.81 C4.74 4.26, 4.45 4.67, 3.82 4.82 C3.19 4.97, 1.84 4.93, 1.1 4.71 C0.36 4.49, -0.5 4.11, -0.62 3.49 C-0.74 2.88, 0.08 1.58, 0.39 1.04 C0.7 0.49, 0.78 0.38, 1.24 0.25 C1.7 0.12, 2.74 0.21, 3.14 0.24 C3.54 0.28, 3.51 0.51, 3.64 0.45 M1.25 1.22 C1.56 0.68, 2.43 -1.27, 3.16 -1.29 C3.88 -1.31, 5.15 0.35, 5.59 1.09 C6.03 1.83, 5.88 2.71, 5.78 3.16 C5.67 3.6, 5.63 3.13, 4.95 3.75 C4.27 4.37, 2.52 6.7, 1.7 6.89 C0.88 7.09, 0.44 5.5, 0.04 4.92 C-0.36 4.34, -0.52 4.1, -0.72 3.42 C-0.92 2.74, -1.32 1.25, -1.14 0.85 C-0.96 0.44, -0.14 0.88, 0.37 0.96 C0.89 1.05, 1.86 1.32, 1.95 1.36" stroke="#e10098" stroke-width="1" fill="none"></path></g><g stroke-linecap="round" transform="translate(146.68463221635352 304.41954122910835) rotate(0 2.819487749596192 2.795107826457439)"><path d="M3.73 -0.11 C4.26 0.03, 4.94 -0.04, 5.14 0.51 C5.34 1.05, 5.16 2.36, 4.95 3.18 C4.73 3.99, 4.35 5.06, 3.87 5.41 C3.4 5.75, 2.65 5.46, 2.09 5.24 C1.52 5.03, 0.86 4.41, 0.47 4.12 C0.08 3.83, -0.1 3.98, -0.26 3.51 C-0.41 3.03, -0.79 1.88, -0.46 1.26 C-0.13 0.63, 0.91 -0.07, 1.72 -0.25 C2.52 -0.43, 3.85 -0.04, 4.36 0.19 C4.87 0.41, 4.9 1.16, 4.78 1.09 M4.5 -0.31 C4.79 -0.06, 3.56 1.05, 3.73 1.63 C3.9 2.21, 5.32 2.63, 5.52 3.17 C5.72 3.72, 5.51 4.73, 4.93 4.91 C4.35 5.08, 2.45 4.39, 2.05 4.22 C1.65 4.06, 2.88 4.19, 2.53 3.94 C2.17 3.69, 0.33 3.34, -0.06 2.72 C-0.45 2.1, 0.01 0.84, 0.17 0.22 C0.32 -0.4, 0.18 -1.02, 0.86 -1 C1.54 -0.97, 3.62 0.33, 4.24 0.38 C4.86 0.42, 4.59 -0.83, 4.57 -0.71" stroke="#e10098" stroke-width="1" fill="none"></path></g><g stroke-linecap="round" transform="translate(146.90564682365516 320.9569429545) rotate(0 2.819487749596192 2.795107826457439)"><path d="M2.54 -0.13 C3.08 -0.26, 3.24 -0.28, 3.73 0 C4.22 0.28, 5.15 0.98, 5.48 1.55 C5.81 2.13, 6.07 2.91, 5.73 3.47 C5.39 4.02, 4.22 4.62, 3.44 4.89 C2.66 5.17, 1.52 5.38, 1.05 5.13 C0.58 4.87, 0.81 3.84, 0.62 3.35 C0.43 2.86, -0.09 2.59, -0.09 2.17 C-0.1 1.74, 0.02 1.12, 0.59 0.8 C1.16 0.49, 2.66 0.44, 3.31 0.29 C3.96 0.15, 4.64 -0.17, 4.51 -0.07 M2.66 -1.38 C3.38 -1.54, 4.75 0.03, 5.27 0.71 C5.79 1.38, 5.78 2.22, 5.78 2.66 C5.78 3.1, 5.87 2.68, 5.28 3.37 C4.68 4.06, 3 6.51, 2.2 6.81 C1.4 7.11, 0.93 5.66, 0.48 5.17 C0.02 4.68, -0.25 4.53, -0.55 3.88 C-0.85 3.24, -1.39 1.76, -1.31 1.31 C-1.23 0.87, -0.84 1.25, -0.06 1.21 C0.71 1.17, 2.97 1.14, 3.35 1.06 C3.73 0.97, 2.14 0.63, 2.2 0.71" stroke="#e10098" stroke-width="1" fill="none"></path></g><g stroke-linecap="round" transform="translate(132.5767833600587 292.79681482550603) rotate(0 2.819487749596192 2.795107826457439)"><path d="M1.69 -0.72 C2.12 -0.92, 2.63 -0.38, 3.09 0.04 C3.56 0.46, 4.19 1.35, 4.49 1.83 C4.79 2.3, 4.94 2.51, 4.88 2.89 C4.82 3.27, 4.52 3.61, 4.14 4.1 C3.75 4.59, 3.22 5.7, 2.56 5.83 C1.91 5.95, 0.64 5.32, 0.19 4.83 C-0.25 4.34, -0.15 3.5, -0.1 2.91 C-0.04 2.31, 0.07 1.66, 0.5 1.25 C0.94 0.85, 2.2 0.81, 2.51 0.46 C2.81 0.12, 2.29 -0.81, 2.34 -0.81 M1.07 0.48 C1.45 0.46, 3.47 0.32, 4.23 0.59 C4.98 0.86, 5.59 1.78, 5.62 2.1 C5.65 2.43, 4.43 2.18, 4.4 2.52 C4.36 2.85, 5.82 3.76, 5.43 4.12 C5.04 4.49, 2.87 4.88, 2.05 4.71 C1.22 4.53, 0.96 3.63, 0.49 3.08 C0.02 2.53, -0.92 1.72, -0.76 1.4 C-0.59 1.09, 0.74 1.56, 1.45 1.19 C2.16 0.81, 3.23 -0.77, 3.5 -0.83 C3.78 -0.9, 3.06 0.41, 3.11 0.79" stroke="#e10098" stroke-width="1" fill="none"></path></g><g stroke-linecap="round" transform="translate(133.3832539507223 329.69753327637534) rotate(0 2.819487749596192 2.795107826457439)"><path d="M1.84 -0.65 C2.44 -0.8, 3.75 -0.51, 4.45 -0.15 C5.15 0.21, 5.96 0.88, 6.04 1.51 C6.13 2.13, 5.45 3, 4.96 3.59 C4.46 4.19, 3.52 4.93, 3.05 5.09 C2.59 5.26, 2.63 4.77, 2.17 4.6 C1.71 4.44, 0.71 4.46, 0.29 4.12 C-0.14 3.77, -0.46 3.07, -0.38 2.54 C-0.3 2.01, 0.15 1.42, 0.76 0.92 C1.38 0.43, 3.09 -0.38, 3.33 -0.44 C3.57 -0.5, 2.26 0.5, 2.22 0.58 M4.16 0.03 C4.81 0.43, 5.11 1.08, 5.37 1.44 C5.64 1.8, 6.09 1.38, 5.75 2.18 C5.42 2.97, 4.01 5.66, 3.34 6.2 C2.67 6.74, 2.26 5.65, 1.74 5.43 C1.23 5.21, 0.77 5.37, 0.25 4.89 C-0.26 4.42, -1.16 3.05, -1.35 2.6 C-1.55 2.14, -1.49 2.4, -0.93 2.17 C-0.36 1.95, 1.44 1.47, 2.07 1.24 C2.7 1.01, 2.46 0.75, 2.85 0.79 C3.24 0.82, 4.09 1.38, 4.4 1.45" stroke="#e10098" stroke-width="1" fill="none"></path></g><g stroke-linecap="round"><g transform="translate(122.1342340440599 310.0556058872423) rotate(0 -0.7441064383902471 5.8690357520951295)"><path d="M-0.87 -0.07 C-1.22 1.84, -1.05 9.62, -1.23 11.43 M0.87 -1.15 C0.26 0.94, -2.27 10.75, -2.36 12.89" stroke="#e10098" stroke-width="1" fill="none"></path></g></g><g stroke-linecap="round"><g transform="translate(149.32889252014888 309.096289764304) rotate(0 -1.1392442644361722 4.960507206298274)"><path d="M-0.07 -0.33 C-0.24 1.56, -0.78 8.54, -1.05 10.51 M-1.57 -1.56 C-1.91 0.53, -2.47 9.1, -2.08 11.48" stroke="#e10098" stroke-width="1" fill="none"></path></g></g><g stroke-linecap="round"><g transform="translate(123.7195748853926 304.70535158988866) rotate(0 5.553560708137979 -4.685012901726566)"><path d="M-0.33 -0.15 C1.36 -1.67, 7.53 -7.69, 9.3 -9.22 M1.69 -1.27 C3.82 -2.66, 10.16 -6.89, 11.44 -8.09" stroke="#e10098" stroke-width="1" fill="none"></path></g></g><g stroke-linecap="round"><g transform="translate(139.00380654840228 331.25968095817905) rotate(0 4.651601816792038 -2.244292655476329)"><path d="M-0.15 -1.08 C1.31 -1.93, 7.24 -4.84, 8.69 -5.46 M-1.69 0.97 C0.16 0.34, 8.88 -2.7, 10.99 -3.99" stroke="#e10098" stroke-width="1" fill="none"></path></g></g><g stroke-linecap="round"><g transform="translate(123.50852810853644 325.89166150991764) rotate(0 2.8339453568297586 1.6781829892678104)"><path d="M-1.08 -0.78 C0.1 -0.24, 5.33 2.42, 6.75 3.07 M0.56 1.43 C1.6 2.1, 4.66 3.71, 5.73 4.14" stroke="#e10098" stroke-width="1" fill="none"></path></g></g><g stroke-linecap="round"><g transform="translate(139.51626712829443 296.9627152416622) rotate(0 5.946223420494277 3.6817271620925)"><path d="M-0.78 -0.14 C0.98 1.48, 8.56 7.32, 10.43 8.62 M1.01 -1.26 C3.16 0.1, 10.69 5.12, 12.67 6.79" stroke="#e10098" stroke-width="1" fill="none"></path></g></g><g stroke-linecap="round"><g transform="translate(123.74682397268975 321.9169461158947) rotate(0 4.6945207746360325 -11.675868418222478)"><path d="M-0.14 -0.9 C1.88 -4.87, 9.35 -20.68, 11.06 -24.59 M-1.67 1.24 C0.34 -2.53, 8.61 -19.41, 10.4 -23.51" stroke="#e10098" stroke-width="1" fill="none"></path></g></g><g stroke-linecap="round"><g transform="translate(135.94424025539297 321.84998225530603) rotate(306.8074096825988 6.603355331995942 -12.076076909241607)"><path d="M-0.9 0.56 C1.2 -3.54, 9.69 -20.41, 11.85 -24.71 M0.83 -0.2 C3.38 -4.11, 12.41 -19.35, 14.11 -23.39" stroke="#e10098" stroke-width="1" fill="none"></path></g></g><g stroke-linecap="round"><g transform="translate(125.32885742698227 324.7552795130296) rotate(0 10.767765773641713 0.15223632198674864)"><path d="M0.56 -0.87 C4.27 -0.89, 18.64 -1.03, 22.14 -1.01 M-0.61 1.29 C2.92 1.5, 16.88 0.35, 20.98 0.2" stroke="#e10098" stroke-width="1" fill="none"></path></g></g><g stroke-linecap="round" transform="translate(369.3161808567322 131.9997221643104) rotate(0 2.819487749596192 2.795107826457439)"><path d="M3.04 0.32 C3.75 0.44, 4.81 1.12, 5.22 1.62 C5.62 2.13, 5.54 2.91, 5.47 3.33 C5.4 3.76, 5.09 3.94, 4.81 4.15 C4.53 4.36, 4.45 4.46, 3.79 4.59 C3.14 4.72, 1.42 5.22, 0.87 4.92 C0.32 4.63, 0.77 3.51, 0.51 2.83 C0.24 2.15, -0.99 1.4, -0.72 0.85 C-0.46 0.31, 1.46 -0.41, 2.09 -0.43 C2.72 -0.45, 2.81 0.77, 3.05 0.74 C3.28 0.71, 3.44 -0.69, 3.49 -0.62 M1.02 1.38 C1.47 1.26, 2.22 1.15, 3.08 1.08 C3.94 1.02, 5.99 0.67, 6.17 0.99 C6.36 1.3, 4.28 2.2, 4.19 2.98 C4.1 3.75, 5.86 5.22, 5.62 5.61 C5.38 6, 3.57 5.68, 2.74 5.33 C1.9 4.97, 0.92 3.68, 0.62 3.48 C0.33 3.28, 0.91 4.78, 0.96 4.14 C1.02 3.51, 0.88 0.19, 0.95 -0.33 C1.03 -0.85, 1.36 1.17, 1.42 1.02 C1.48 0.87, 0.94 -1.01, 1.33 -1.21" stroke="#e10098" stroke-width="1" fill="none"></path></g><g stroke-linecap="round" transform="translate(369.53719546403295 148.5371238896974) rotate(0 2.819487749596192 2.795107826457439)"><path d="M2.21 0.35 C2.79 0.16, 3.86 -0.13, 4.46 0.03 C5.06 0.19, 5.7 0.69, 5.8 1.33 C5.91 1.97, 5.47 3.36, 5.11 3.89 C4.74 4.42, 4.04 4.15, 3.6 4.49 C3.16 4.83, 3.05 6.03, 2.46 5.94 C1.87 5.85, 0.62 4.32, 0.05 3.97 C-0.51 3.62, -0.85 4.39, -0.92 3.84 C-0.99 3.29, -1.03 1.4, -0.37 0.68 C0.3 -0.04, 2.68 -0.35, 3.09 -0.49 C3.5 -0.64, 2.07 -0.28, 2.1 -0.2 M3.66 -1.18 C4.22 -0.97, 4.74 0.75, 4.88 1.04 C5.03 1.33, 4.58 -0.11, 4.53 0.58 C4.49 1.27, 4.61 4.35, 4.62 5.2 C4.63 6.06, 5.01 5.64, 4.6 5.7 C4.18 5.76, 2.97 5.59, 2.14 5.57 C1.31 5.54, -0.26 5.98, -0.38 5.56 C-0.5 5.14, 1.47 3.97, 1.44 3.05 C1.4 2.12, -0.92 0.7, -0.61 0.01 C-0.3 -0.67, 3.03 -1.28, 3.31 -1.04 C3.58 -0.8, 1.27 1.1, 1.03 1.45" stroke="#e10098" stroke-width="1" fill="none"></path></g><g stroke-linecap="round" transform="translate(396.96435249607407 131.27268808225534) rotate(0 2.819487749596192 2.795107826457439)"><path d="M3.49 0.63 C4.09 0.73, 4.46 1.2, 4.79 1.48 C5.12 1.75, 5.37 1.94, 5.49 2.29 C5.62 2.65, 5.97 3.11, 5.52 3.61 C5.08 4.1, 3.46 5.15, 2.83 5.27 C2.21 5.39, 2.38 4.75, 1.79 4.34 C1.19 3.94, -0.56 3.37, -0.73 2.83 C-0.89 2.28, 0.56 1.38, 0.81 1.08 C1.05 0.77, 0.38 1.32, 0.74 0.99 C1.1 0.67, 2.54 -0.85, 2.99 -0.86 C3.44 -0.87, 3.41 0.8, 3.44 0.94 M2.22 0.73 C3.13 0.45, 5.38 -0.05, 5.74 0.17 C6.1 0.4, 4.29 1.26, 4.39 2.08 C4.49 2.89, 6.47 4.5, 6.35 5.05 C6.23 5.6, 4.5 5.52, 3.66 5.37 C2.82 5.21, 1.74 4.15, 1.31 4.1 C0.88 4.05, 1.23 5.66, 1.09 5.06 C0.95 4.45, 0.55 1.08, 0.46 0.45 C0.37 -0.18, 0.22 1.58, 0.54 1.3 C0.85 1.02, 1.65 -0.95, 2.36 -1.22 C3.06 -1.5, 4.49 -0.44, 4.78 -0.35" stroke="#e10098" stroke-width="1" fill="none"></path></g><g stroke-linecap="round" transform="translate(397.1853671033757 147.810089807647) rotate(0 2.819487749596192 2.795107826457439)"><path d="M2.98 -0.14 C3.58 -0.32, 4.44 -0.17, 4.78 0.26 C5.12 0.68, 5.06 1.91, 5.01 2.41 C4.96 2.92, 4.67 2.77, 4.49 3.3 C4.3 3.83, 4.42 5.37, 3.91 5.59 C3.39 5.82, 2.1 4.7, 1.39 4.63 C0.69 4.57, 0.04 5.62, -0.32 5.2 C-0.69 4.77, -1.06 2.89, -0.79 2.1 C-0.52 1.31, 0.87 0.84, 1.3 0.45 C1.73 0.05, 1.38 -0.15, 1.81 -0.26 C2.23 -0.37, 3.75 -0.38, 3.85 -0.22 M2.22 0.97 C2.34 0.68, 2.21 -1.44, 2.54 -1.17 C2.88 -0.9, 3.65 1.82, 4.23 2.59 C4.8 3.37, 5.92 3.1, 5.99 3.46 C6.06 3.81, 5.31 4.22, 4.66 4.73 C4.02 5.25, 2.42 6.43, 2.1 6.53 C1.77 6.64, 3.24 6.02, 2.7 5.37 C2.16 4.71, -0.9 3.39, -1.14 2.6 C-1.39 1.8, 0.99 0.75, 1.23 0.59 C1.46 0.44, 0.29 1.57, 0.27 1.64 C0.25 1.72, 1.05 1.46, 1.11 1.04" stroke="#e10098" stroke-width="1" fill="none"></path></g><g stroke-linecap="round" transform="translate(382.85650363977925 119.64996167865303) rotate(0 2.819487749596192 2.795107826457439)"><path d="M3.03 0.53 C3.55 0.39, 4.24 0.25, 4.76 0.45 C5.29 0.65, 6.2 1.1, 6.16 1.73 C6.12 2.36, 4.94 3.75, 4.54 4.24 C4.14 4.72, 4.42 4.63, 3.76 4.64 C3.11 4.65, 1.08 4.58, 0.6 4.32 C0.11 4.05, 1.04 3.36, 0.85 3.06 C0.67 2.76, -0.5 3.14, -0.51 2.54 C-0.52 1.95, 0.18 -0.23, 0.81 -0.51 C1.44 -0.8, 2.81 0.77, 3.27 0.83 C3.73 0.9, 3.44 0.12, 3.54 -0.11 M4.72 -0.65 C5.25 -0.69, 3.76 0.03, 4.14 0.79 C4.52 1.55, 6.87 3.22, 7 3.91 C7.12 4.59, 5.64 4.8, 4.9 4.9 C4.16 5.01, 3.08 4.32, 2.55 4.53 C2.03 4.74, 2.15 6.65, 1.76 6.18 C1.38 5.72, 0.62 2.41, 0.25 1.74 C-0.12 1.07, -0.6 2.65, -0.46 2.16 C-0.33 1.66, 0.06 -0.81, 1.04 -1.21 C2.01 -1.6, 4.78 -0.28, 5.39 -0.19 C6 -0.11, 5.2 -0.68, 4.71 -0.69" stroke="#e10098" stroke-width="1" fill="none"></path></g><g stroke-linecap="round" transform="translate(383.66297423044284 156.55068012952233) rotate(0 2.819487749596192 2.795107826457439)"><path d="M3.62 -0.13 C4.02 0.01, 4.2 1.01, 4.38 1.38 C4.55 1.75, 4.6 1.53, 4.67 2.1 C4.74 2.67, 5.17 4.38, 4.82 4.79 C4.48 5.21, 3.31 4.41, 2.61 4.6 C1.91 4.79, 1.16 6.17, 0.63 5.95 C0.1 5.73, -0.56 4.02, -0.55 3.28 C-0.53 2.54, 0.57 2.02, 0.71 1.51 C0.86 1, -0.29 0.5, 0.31 0.21 C0.9 -0.07, 3.73 -0.28, 4.27 -0.2 C4.81 -0.11, 3.83 0.48, 3.54 0.72 M0.77 -1.02 C1.03 -1.14, 1.98 1.12, 2.77 1.58 C3.56 2.04, 5.09 1.49, 5.53 1.75 C5.97 2.01, 5.72 2.46, 5.42 3.13 C5.11 3.81, 3.88 5.34, 3.71 5.79 C3.54 6.24, 5.06 6.11, 4.42 5.82 C3.78 5.53, 0.44 4.62, -0.12 4.04 C-0.68 3.47, 1.21 2.55, 1.07 2.35 C0.92 2.16, -1.02 3.13, -0.99 2.89 C-0.97 2.65, 0.95 1.6, 1.23 0.92 C1.51 0.25, 0.74 -1.09, 0.71 -1.14" stroke="#e10098" stroke-width="1" fill="none"></path></g><g stroke-linecap="round"><g transform="translate(372.41395432378044 136.90875274038928) rotate(0 -0.348996290520347 6.077096285201463)"><path d="M0.33 0.26 C0.23 2.21, -0.08 9.52, -0.18 11.38 M-0.96 -0.66 C-1.18 1.52, -0.79 10.59, -0.76 12.81" stroke="#e10098" stroke-width="1" fill="none"></path></g></g><g stroke-linecap="round"><g transform="translate(399.60861279986943 135.949436617451) rotate(0 -0.9508123965303525 6.114077021424521)"><path d="M0.26 0.71 C0.13 2.69, -0.88 10.47, -1.1 12.18 M-1.07 0.04 C-1.33 1.64, -2.01 8.38, -2.16 10.38" stroke="#e10098" stroke-width="1" fill="none"></path></g></g><g stroke-linecap="round"><g transform="translate(373.99929516511315 131.55849844303566) rotate(0 5.302447302314249 -4.409679389897192)"><path d="M0.71 -0.2 C2.49 -1.68, 9.46 -7.35, 10.97 -8.62 M-0.37 -1.36 C1.27 -2.67, 8.82 -5.76, 10.34 -7.17" stroke="#e10098" stroke-width="1" fill="none"></path></g></g><g stroke-linecap="round"><g transform="translate(389.28352682812283 158.11282781132604) rotate(0 3.761321359015085 -2.644610535722194)"><path d="M-0.2 0.6 C1.3 -0.5, 7.58 -4.71, 9.29 -5.89 M-1.77 -0.13 C-0.46 -1.14, 6.35 -3.71, 8.25 -4.65" stroke="#e10098" stroke-width="1" fill="none"></path></g></g><g stroke-linecap="round"><g transform="translate(373.788248388257 152.74480836306464) rotate(0 2.8860366427560393 1.6445506112856663)"><path d="M0.6 -0.17 C1.53 0.63, 5.46 4.01, 6.31 4.6 M-0.54 -1.31 C0.12 -0.84, 3.64 1.86, 5.07 2.81" stroke="#e10098" stroke-width="1" fill="none"></path></g></g><g stroke-linecap="round"><g transform="translate(389.795987408015 123.81586209480918) rotate(0 5.118559007936199 3.6342778564389278)"><path d="M-0.17 -0.57 C1.85 0.48, 10.15 5.52, 11.96 6.91 M-1.73 1.75 C0.22 2.85, 9.45 6.65, 11.34 7.84" stroke="#e10098" stroke-width="1" fill="none"></path></g></g><g stroke-linecap="round"><g transform="translate(374.0265442524103 148.77009296904168) rotate(0 5.441103503558395 -11.850797793456536)"><path d="M-0.57 0.63 C0.89 -3.4, 7.56 -20.34, 9.35 -24.33 M1.33 -0.09 C3.09 -3.95, 10.13 -18.89, 11.45 -23.11" stroke="#e10098" stroke-width="1" fill="none"></path></g></g><g stroke-linecap="round"><g transform="translate(386.2239605351135 148.70312910845303) rotate(306.8074096825988 7.003036980053821 -11.88574970161389)"><path d="M0.63 -1.16 C2.68 -5.16, 10.03 -20.59, 12.11 -24.62 M-0.5 0.85 C1.96 -2.93, 12.32 -19.02, 14.51 -23.26" stroke="#e10098" stroke-width="1" fill="none"></path></g></g><g stroke-linecap="round"><g transform="translate(375.6085777067028 151.60842636617662) rotate(0 10.537440483188107 -0.08339918821131675)"><path d="M-1.16 -0.61 C2.64 -0.7, 18.46 0.19, 22.23 0.04 M0.44 1.69 C4.1 1.17, 17.21 -1.46, 21.11 -1.86" stroke="#e10098" stroke-width="1" fill="none"></path></g></g></svg>