<svg width="675" height="574" xmlns="http://www.w3.org/2000/svg" style="vector-effect: non-scaling-stroke;" preserveAspectRatio="xMidYMid meet" version="1.0">
 <metadata style="vector-effect: non-scaling-stroke;">Created by potrace 1.16, written by Peter Selinger 2001-2019</metadata>
<desc>stolen from ✨the internet✨</desc>
 <g>
  <title>Layer 1</title>
  <g transform="translate(0, 574) scale(0.1, -0.1)" id="svg_1" fill="#000000">
   <path id="svg_2" d="m1358.92008,3102.19316c-101.54865,-9.78303 -195.1819,-52.03738 -270.47462,-122.18377c-56.75913,-52.66183 -97.68748,-112.1926 -127.41845,-185.04493c-8.68762,-21.64755 -22.00864,-63.06931 -22.00864,-68.89749c0,-2.49779 -0.77223,-5.41189 -1.73752,-6.66078c-2.50976,-2.70594 -9.07374,-38.29951 -12.74185,-68.0649c-4.82646,-41.00546 -3.47505,-110.5274 3.08893,-149.24321c2.89587,-17.90086 7.72233,-40.17286 9.45985,-44.75215c0.77223,-2.28964 2.50976,-9.36673 3.86117,-15.61121c7.72233,-35.59357 33.97825,-96.37323 60.04112,-138.41944c86.68316,-140.08463 226.26428,-223.96889 381.09701,-229.38078c79.92612,-2.70594 152.51603,14.15417 223.94758,52.45368c63.32311,33.92837 110.04321,72.64419 152.12991,126.13861c76.06495,96.99768 115.44884,209.81472 115.44884,331.79035c0.19306,166.51962 -69.11486,317.84433 -190.35544,416.0909c-69.50097,56.40852 -144.21452,88.46355 -232.6352,100.11992c-21.62253,2.70594 -70.65932,3.74669 -91.70267,1.6652zm66.79816,-46.41734c74.90661,-4.78744 148.07569,-31.22243 210.4335,-76.18273c89.96515,-64.7345 155.4119,-164.02183 181.08865,-274.75738c10.23209,-44.33585 12.54879,-65.9834 12.74185,-117.39633c0,-50.16404 -1.54447,-64.94265 -10.6182,-107.19701c-29.34486,-133.84015 -113.90437,-248.53054 -229.16016,-310.76724c-86.68316,-47.04179 -184.75676,-60.77966 -280.32059,-39.75656c-159.85224,35.17727 -290.74574,169.64186 -331.28798,339.90818c-3.47505,14.98677 -7.72233,37.67506 -9.45985,50.16404c-3.08893,24.14535 -4.82646,45.3766 -3.86117,44.1277c0.38612,-0.4163 6.75704,-13.73787 14.09325,-29.76538c43.05199,-92.21024 119.31001,-155.904 212.55714,-177.13525c20.85029,-4.78744 28.95874,-5.62004 58.88277,-5.62004c25.29063,-0.20815 39.77,0.8326 53.09102,3.53854c41.31447,8.32598 81.66364,25.81054 116.60719,50.78848c25.09757,17.90086 67.18427,62.65301 82.82199,88.2554c64.2884,104.69921 72.20379,229.58893 21.62253,340.11633c-42.27976,92.62654 -121.81976,158.19364 -216.03219,178.38414c-11.39044,2.49779 -32.43379,4.57929 -51.16044,5.41189l-31.4685,1.45705l13.51408,5.62004c37.83942,15.81936 85.91093,27.47574 126.83928,30.80613c27.80039,2.0815 26.25592,2.0815 59.07583,0zm-121.6267,-89.5043c51.16044,-11.24007 92.86102,-36.00987 132.24491,-78.05607c40.54223,-43.50325 65.83287,-96.58138 75.09966,-158.19364c4.44034,-28.51649 3.86117,-30.38983 -4.05422,-14.57047c-24.32534,49.74774 -66.79816,86.1739 -117.9586,101.36882c-22.00864,6.45264 -70.08015,6.45264 -92.08879,0c-34.17131,-10.19933 -61.58559,-27.68389 -87.06928,-55.57592c-21.23641,-23.31275 -33.7852,-45.16845 -44.21034,-78.05607c-7.14316,-22.6883 -7.72233,-25.60239 -8.49456,-54.32703c-1.35141,-46.00105 6.75704,-80.55387 27.02816,-116.56374c11.5835,-20.81495 43.24505,-55.57592 59.84806,-65.9834c26.64204,-16.86011 54.63549,-27.05944 80.31224,-28.93278c8.68762,-0.62445 15.83078,-1.87335 15.83078,-2.70594c0,-2.0815 -25.86981,-9.57488 -46.91316,-13.94602c-24.5184,-4.99559 -77.2233,-2.70594 -102.70699,4.16299c-100.77641,27.89204 -176.64831,114.69039 -197.30554,225.63409c-4.6334,25.81054 -4.6334,82.42721 0,106.78071c17.5683,88.6717 65.83287,160.69144 134.56161,200.44799c43.63117,25.39424 83.98034,35.59357 132.05185,33.72022c13.70714,-0.62445 33.39908,-2.91409 43.82423,-5.20374zm66.99122,-192.74646c29.92403,-6.66078 54.63549,-21.8557 75.8719,-46.2092c43.05199,-49.74774 51.93267,-120.93488 22.39476,-182.54714c-11.5835,-24.35349 -38.61165,-53.07813 -61.19947,-65.1508c-24.13228,-12.90527 -37.06719,-16.02751 -65.63981,-16.02751c-27.41427,0 -43.05199,3.95484 -65.83287,17.06826c-46.52704,26.22684 -77.03025,81.17832 -77.03025,139.04388c0,97.83028 83.98034,173.38856 171.43574,153.8225z"/>
  </g>
  <text transform="matrix(3.35952, 0, 0, 3.19591, -655.691, -721.459)" xml:space="preserve" text-anchor="start" font-family="'JetBrains Mono'" font-size="24" id="svg_3" y="332.59125" x="252.19175" stroke-width="0" stroke="#000" fill="#000000">Nexu</text>
 </g>
</svg>