<?xml version="1.0" standalone="no"?>
<!DOCTYPE svg PUBLIC "-//W3C//DTD SVG 20010904//EN"
 "http://www.w3.org/TR/2001/REC-SVG-20010904/DTD/svg10.dtd">
<svg version="1.0" xmlns="http://www.w3.org/2000/svg"
 width="675.000000pt" height="574.000000pt" viewBox="0 0 675.000000 574.000000"
 preserveAspectRatio="xMidYMid meet">
<metadata>
Created by potrace 1.16, written by Peter Selinger 2001-2019
</metadata>
<desc>stolen from ✨the internet✨</desc>
<g transform="translate(0.000000,574.000000) scale(0.100000,-0.100000)"
fill="#90E0EF" stroke="none">
<path d="M3335 5263 c-526 -47 -1011 -250 -1401 -587 -294 -253 -506 -539
-660 -889 -45 -104 -114 -303 -114 -331 0 -12 -4 -26 -9 -32 -13 -13 -47 -184
-66 -327 -25 -197 -18 -531 16 -717 15 -86 40 -193 49 -215 4 -11 13 -45 20
-75 40 -171 176 -463 311 -665 449 -673 1172 -1076 1974 -1102 414 -13 790 68
1160 252 328 163 570 349 788 606 394 466 598 1008 598 1594 1 800 -358 1527
-986 1999 -360 271 -747 425 -1205 481 -112 13 -366 18 -475 8z m346 -223
c388 -23 767 -150 1090 -366 466 -311 805 -788 938 -1320 53 -213 65 -317 66
-564 0 -241 -8 -312 -55 -515 -152 -643 -590 -1194 -1187 -1493 -449 -226
-957 -292 -1452 -191 -828 169 -1506 815 -1716 1633 -18 72 -40 181 -49 241
-16 116 -25 218 -20 212 2 -2 35 -66 73 -143 223 -443 618 -749 1101 -851 108
-23 150 -27 305 -27 131 -1 206 4 275 17 214 40 423 124 604 244 130 86 348
301 429 424 333 503 374 1103 112 1634 -219 445 -631 760 -1119 857 -59 12
-168 22 -265 26 l-163 7 70 27 c196 76 445 132 657 148 144 10 136 10 306 0z
m-630 -430 c265 -54 481 -173 685 -375 210 -209 341 -464 389 -760 23 -137 20
-146 -21 -70 -126 239 -346 414 -611 487 -114 31 -363 31 -477 0 -177 -49
-319 -133 -451 -267 -110 -112 -175 -217 -229 -375 -37 -109 -40 -123 -44
-261 -7 -221 35 -387 140 -560 60 -100 224 -267 310 -317 138 -81 283 -130
416 -139 45 -3 82 -9 82 -13 0 -10 -134 -46 -243 -67 -127 -24 -400 -13 -532
20 -522 134 -915 551 -1022 1084 -24 124 -24 396 0 513 91 426 341 772 697
963 226 122 435 171 684 162 71 -3 173 -14 227 -25z m347 -926 c155 -32 283
-105 393 -222 223 -239 269 -581 116 -877 -60 -117 -200 -255 -317 -313 -125
-62 -192 -77 -340 -77 -142 0 -223 19 -341 82 -241 126 -399 390 -399 668 0
470 435 833 888 739z"/>
</g>
</svg>
