<svg version="1.1" xmlns="http://www.w3.org/2000/svg" viewBox="0 0 1582.3809275555222 729.7971605506266" width="1582.3809275555222" height="729.7971605506266">
  <!-- svg-source:excalidraw -->
  
  <defs>
    <style>
      @font-face {
        font-family: "Virgil";
        src: url("https://excalidraw.com/Virgil.woff2");
      }
      @font-face {
        font-family: "Cascadia";
        src: url("https://excalidraw.com/Cascadia.woff2");
      }
    </style>
  </defs>
  <rect x="0" y="0" width="1582.3809275555222" height="729.7971605506266" fill="#ffffff"></rect><g stroke-linecap="round"><g transform="translate(822.438609288105 191.05597059366033) rotate(269.97732772573056 -0.9988234080374809 175.2557181997562)"><path d="M-0.19 0.14 C50.72 28.97, 100.51 60.32, 150.81 85.36 M-1.77 -0.49 C58.49 31.02, 113.24 66.93, 149.7 84.93 M148.48 83.98 C146.35 149.54, 151.66 204.12, 151.34 259.51 M151.04 87.61 C151.49 145.01, 149.63 199.49, 152.24 258.86 M146.54 259.72 C105.68 284.17, 60.27 315.75, -0.22 347.61 M149.42 258.74 C113.99 284.52, 78.16 306.17, 0.1 345.95 M-1.03 351.01 C-38.61 327.55, -79.18 301.33, -154.23 261.52 M-1.27 346.9 C-41.78 324.26, -82.01 298.41, -149.58 261.69 M-146.94 258.06 C-144.82 213.21, -148.58 164.1, -151.53 82.91 M-151.69 262.38 C-151.22 223.47, -149.75 187.33, -150.75 85.39 M-146.42 86.93 C-94.31 55.19, -36.43 24.7, -0.32 3.04 M-149.64 85.3 C-115.68 63.24, -78.86 42.2, -1.6 0.14" stroke="#000000" stroke-width="1" fill="none"></path></g></g><g transform="translate(776.7631367048325 322.6730753020466) rotate(0 49.5 43)"><text x="49.5" y="30" font-family="Virgil, Segoe UI Emoji" font-size="33.533171673474094px" fill="#000000" text-anchor="middle" style="white-space: pre;" direction="ltr">Use</text><text x="49.5" y="73" font-family="Virgil, Segoe UI Emoji" font-size="33.533171673474094px" fill="#000000" text-anchor="middle" style="white-space: pre;" direction="ltr">Cases</text></g><g stroke-linecap="round" transform="translate(820.0687591435872 212.9023538916063) rotate(0 0.7125000000008299 0.7125000000008583)"><path d="M0.93 -1.73 C1.08 -2.1, 3.17 -1.46, 3.25 -1.14 C3.32 -0.82, 1.78 0.08, 1.38 0.17 C0.98 0.26, 1.02 -0.9, 0.85 -0.61 C0.68 -0.33, 0.58 1.52, 0.33 1.86 C0.09 2.2, -0.91 1.62, -0.64 1.42 C-0.36 1.22, 1.81 1.05, 1.97 0.68 C2.13 0.32, 0.24 -0.95, 0.33 -0.76 C0.41 -0.57, 2.47 1.91, 2.48 1.81 C2.49 1.71, 0.75 -1.17, 0.38 -1.34 C0.02 -1.51, 0.16 0.45, 0.31 0.8" stroke="none" stroke-width="0" fill="#000"></path><path d="M2.43 -1.17 C2.69 -1.34, 2.37 -2.19, 2.12 -1.57 C1.87 -0.95, 1.21 2.26, 0.93 2.55 C0.64 2.84, 0.13 0.47, 0.42 0.17 C0.71 -0.13, 3 0.43, 2.68 0.76 C2.37 1.09, -0.96 1.89, -1.45 2.15 C-1.94 2.41, -0.34 2.81, -0.24 2.31 C-0.15 1.8, -0.71 -0.83, -0.91 -0.88 C-1.1 -0.92, -1.88 1.93, -1.42 2.04 C-0.96 2.15, 1.37 0.17, 1.88 -0.23 C2.38 -0.62, 1.66 -0.31, 1.6 -0.31" stroke="#000" stroke-width="1.5" fill="none" stroke-dasharray="8 9"></path></g><g stroke-linecap="round" transform="translate(819.4506139822988 513.7967366956327) rotate(0 1.330645161290704 1.330645161290704)"><path d="M3.85 -1.38 C4.1 -1.09, 2.79 -0.08, 2.54 0.12 C2.28 0.32, 2.45 -0.62, 2.31 -0.16 C2.17 0.3, 2.04 2.39, 1.7 2.89 C1.37 3.39, 0.19 2.97, 0.29 2.84 C0.39 2.71, 2.32 2.54, 2.31 2.11 C2.3 1.69, 0.22 0.27, 0.21 0.3 C0.2 0.33, 2.26 2.62, 2.25 2.3 C2.24 1.98, 0.25 -1.48, 0.13 -1.62 C0.02 -1.76, 1.26 0.7, 1.56 1.45 C1.87 2.21, 1.78 3.15, 1.96 2.92" stroke="none" stroke-width="0" fill="#000"></path><path d="M1.77 -1.69 C1.66 -1.29, 1.31 1.75, 1.28 1.98 C1.25 2.21, 1.07 -0.12, 1.6 -0.29 C2.12 -0.47, 4.64 0.34, 4.43 0.91 C4.22 1.48, 0.9 2.62, 0.33 3.13 C-0.24 3.64, 1.16 4.32, 1.03 3.95 C0.9 3.59, 0.01 1.03, -0.44 0.95 C-0.9 0.87, -1.95 3.57, -1.7 3.48 C-1.44 3.39, 0.46 1.06, 1.1 0.41 C1.74 -0.24, 1.85 -0.35, 2.15 -0.41 C2.44 -0.46, 3.12 -0.13, 2.89 0.08" stroke="#000000" stroke-width="1.5" fill="none" stroke-dasharray="8 9"></path></g><g stroke-linecap="round"><g transform="translate(818.3157481159633 -40.73822921478853) rotate(269.97732772573056 0.14788646088049973 405.6476170002661)"><path d="M0.95 -1.01 C132.49 74.8, 265.13 152.69, 351.02 202.85 M-0.59 0.09 C106.53 62.55, 214.04 123.91, 352.04 201.97 M350.48 204.94 C355.13 312.61, 356.72 426.07, 352.97 607.84 M352.05 202.81 C347.93 295.86, 347.98 389.05, 351.07 609.26 M351.46 606.88 C235.95 678.19, 114.07 748.24, -0.32 809.72 M351.64 609.97 C252.44 664.76, 152.38 723.2, 0.99 811.32 M0.04 812.31 C-75.11 766.54, -152.27 724.85, -350.4 608.3 M1.06 811.84 C-141.95 734.38, -280.14 653.02, -351.75 608.17 M-351.81 608.58 C-347.25 494.37, -348.41 375.53, -353.12 204.85 M-351.67 609.68 C-355.57 509.72, -356.19 412.76, -351.11 202.2 M-350.82 204.53 C-210.65 119.71, -67.76 41.34, -2.1 2.18 M-352.27 203.76 C-243.93 142.74, -137.81 80.36, 0.74 0.39" stroke="#000000" stroke-width="1" fill="none"></path></g></g><g stroke-linecap="round" transform="translate(817.5808677946497 13.307180789146571) rotate(269.97732772573056 0.29156867509573203 0.2915686750957178)"><path d="M1.03 -0.32 C1.01 -0.29, 1.4 -0.31, 1.18 -0.06 C0.95 0.2, -0.32 0.79, -0.33 1.2 C-0.34 1.6, 0.89 2.5, 1.13 2.38 C1.37 2.26, 1.58 0.49, 1.1 0.47 C0.61 0.45, -1.35 2.32, -1.78 2.27 C-2.21 2.21, -1.71 0.57, -1.51 0.14 C-1.3 -0.28, -0.54 -0.18, -0.54 -0.26 C-0.55 -0.34, -1.79 -0.25, -1.53 -0.33 C-1.28 -0.4, 0.6 -1.12, 0.98 -0.71 C1.36 -0.3, 0.84 1.96, 0.74 2.15" stroke="none" stroke-width="0" fill="#000"></path><path d="M-0.31 -0.06 C-0.39 -0.12, 0.39 -0.12, 0.42 -0.27 C0.44 -0.41, -0.22 -1.08, -0.17 -0.95 C-0.11 -0.82, 0.75 0.01, 0.75 0.53 C0.74 1.05, 0.06 1.99, -0.21 2.15 C-0.47 2.3, -0.6 1.83, -0.83 1.49 C-1.07 1.14, -2.09 0.38, -1.63 0.05 C-1.17 -0.28, 1.8 -0.81, 1.92 -0.49 C2.04 -0.17, -0.56 2.2, -0.93 1.97 C-1.3 1.74, -0.67 -1.5, -0.3 -1.86 C0.07 -2.23, 0.97 -0.38, 1.29 -0.22" stroke="#000000" stroke-width="1.5" fill="none" stroke-dasharray="8 9"></path></g><g stroke-linecap="round" transform="translate(817.0317511466346 715.7554246659356) rotate(269.97732772573056 0.840685323086575 0.840685323086575)"><path d="M1.32 -0.37 C1.27 -0.21, 0.27 0.37, 0.46 0.83 C0.65 1.29, 2.1 2.34, 2.45 2.38 C2.81 2.43, 3.09 0.91, 2.59 1.1 C2.09 1.28, 0.02 3.39, -0.56 3.48 C-1.14 3.57, -0.88 2.04, -0.87 1.64 C-0.87 1.23, -0.36 1.26, -0.53 1.07 C-0.7 0.87, -2.09 0.74, -1.9 0.47 C-1.7 0.19, 0.06 -0.89, 0.65 -0.59 C1.25 -0.29, 1.54 1.96, 1.69 2.28 C1.83 2.6, 1.72 1.33, 1.5 1.34" stroke="none" stroke-width="0" fill="#000"></path><path d="M0.87 -0.27 C1 -0.45, 0.5 -1.08, 0.66 -0.89 C0.82 -0.7, 1.79 0.25, 1.82 0.88 C1.86 1.51, 1.18 2.61, 0.87 2.88 C0.57 3.16, 0.34 2.81, 0 2.52 C-0.34 2.23, -1.52 1.5, -1.18 1.15 C-0.84 0.8, 2 0.19, 2.04 0.42 C2.08 0.65, -0.54 2.87, -0.94 2.52 C-1.34 2.18, -0.87 -1.18, -0.37 -1.64 C0.13 -2.09, 1.5 -0.4, 2.04 -0.21 C2.58 -0.02, 3.23 -0.26, 2.85 -0.49" stroke="#000000" stroke-width="1.5" fill="none" stroke-dasharray="8 9"></path></g><g stroke-linecap="round"><g transform="translate(820.8172178927525 211.90273146071655) rotate(0 -1.5029958774766783 -98.50693229204194)"><path d="M0 0 C-0.5 -32.84, -2.5 -164.18, -3.01 -197.01" stroke="#000000" stroke-width="1.5" fill="none" stroke-dasharray="8 9"></path></g></g><g stroke-linecap="round"><g transform="translate(820.6592056712943 517.4548289170616) rotate(0 -1.4524030397597016 98.65219214956028)"><path d="M0 0 C-0.48 32.88, -2.42 164.42, -2.9 197.3" stroke="#000000" stroke-width="1.5" fill="none" stroke-dasharray="8 9"></path></g></g><g stroke-linecap="round" transform="translate(461.22651550727824 512.5182173987541) rotate(0 56.86480210581357 54.30859385877119)"><path d="M0.22 1.93 L115.67 -1.52 L112.83 110.11 L1.95 107.92" stroke="none" stroke-width="0" fill="#82c91e"></path><path d="M0.03 -0.24 C26.53 -1.05, 48.28 2.05, 112.03 0.64 M0.08 0.3 C28.71 0, 57.51 -1.22, 114.3 0.79 M113.95 -0.33 C111.17 33.28, 113.35 66.08, 112.56 108.59 M112.83 -0.84 C114.18 39.66, 114.1 80, 114.32 107.84 M114.06 108.51 C70.14 109.22, 30.35 108.39, 1.79 107.45 M114.39 109.25 C74.09 108.95, 35.51 107.5, 0.36 108.02 M1.88 108.75 C-0.25 78.3, -0.16 44.63, 0.65 1.11 M-0.7 108.65 C-0.11 76.7, -0.04 43.87, 0.14 -0.12" stroke="#000000" stroke-width="1" fill="none"></path></g><g transform="translate(472.6746509463849 546.6233494854787) rotate(0 47.45833333333337 17)"><text x="47.45833333333336" y="24.00000000000003" font-family="Virgil, Segoe UI Emoji" font-size="26.375567315651356px" fill="#fff" text-anchor="middle" style="white-space: pre;" direction="ltr">Queries</text></g><g stroke-linecap="round" transform="translate(439.22651550727824 155.5182173987543) rotate(0 56.86480210581357 54.30859385877119)"><path d="M1.51 -1.93 L115.18 1.76 L112.37 110.21 L-0.21 110.19" stroke="none" stroke-width="0" fill="#82c91e"></path><path d="M-0.01 1.65 C41.93 -0.54, 79.09 1.05, 115.67 0.97 M0.78 -1 C45.02 0.59, 89.23 1.5, 114.57 0.1 M112.61 0.42 C114.55 27.68, 112.85 58.14, 115.26 108.12 M113.74 0.22 C113.58 40.56, 112.92 80.63, 112.96 109.08 M112.7 108.89 C71.7 110.42, 34.99 110.45, 0.55 107.85 M113.35 108.14 C75.18 109.21, 37.3 108.74, -0.22 108.81 M-1.59 108.5 C1.69 69.68, 0.11 32.2, 1.36 -1.25 M0.76 109.45 C-0.63 85.9, -1.59 64.2, -0.76 0.52" stroke="#000000" stroke-width="1" fill="none"></path></g><g transform="translate(446.4663176130516 202.62334948547874) rotate(0 50.0625 13.5)"><text x="50.062500000000014" y="19" font-family="Virgil, Segoe UI Emoji" font-size="20.945303456546654px" fill="#fff" text-anchor="middle" style="white-space: pre;" direction="ltr">Commands</text></g><g stroke-linecap="round" transform="translate(53.03798400404787 457.8773423674273) rotate(0 65.0533336090507 62.12903137443425)"><path d="M1.56 -0.39 L131.85 1.67 L130.04 123.4 L1.42 122.58" stroke="none" stroke-width="0" fill="#228be6"></path><path d="M-1.56 -1.34 C33.79 -1.32, 62.79 1.66, 129.49 1.29 M0.88 -0.82 C27.41 -0.4, 55.65 1.48, 129.27 -0.45 M129.22 1.79 C131.43 45.69, 131.82 96.01, 128.95 126.11 M130.33 0.53 C129.31 40.26, 128.97 81.02, 129.21 123.65 M129.86 123.45 C96.17 126.46, 64.3 123.68, -0.28 124.71 M130.32 125.12 C100.83 124.35, 73.28 125.91, 0.14 124.68 M-0.76 124.5 C1.68 97.9, 1.57 66.21, 1.31 -0.1 M-0.5 123.68 C-0.52 98.67, -0.29 73.06, 0.06 0.87" stroke="#000000" stroke-width="1" fill="none"></path></g><g transform="translate(64.59131761305161 486.3336134746415) rotate(0 56.46428571428575 34)"><text x="56.464285714285744" y="24.000000000000007" font-family="Virgil, Segoe UI Emoji" font-size="25.863127722090127px" fill="#fff" text-anchor="middle" style="white-space: pre;" direction="ltr">API </text><text x="56.464285714285744" y="58.000000000000014" font-family="Virgil, Segoe UI Emoji" font-size="25.863127722090127px" fill="#fff" text-anchor="middle" style="white-space: pre;" direction="ltr">Gateway</text></g><g stroke-linecap="round"><g transform="translate(576.4614618825186 522.738749904782) rotate(0 28.93854263821453 -16.187560738966738)"><path d="M0 0 C9.65 -5.4, 48.23 -26.98, 57.88 -32.38 M0 0 C9.65 -5.4, 48.23 -26.98, 57.88 -32.38" stroke="#000000" stroke-width="1" fill="none"></path></g></g><g stroke-linecap="round"><g transform="translate(554.4258934723467 217.21075952838044) rotate(0 41.10543310545415 12.020685361690681)"><path d="M0 0 C13.7 4.01, 68.51 20.03, 82.21 24.04 M0 0 C13.7 4.01, 68.51 20.03, 82.21 24.04" stroke="#000000" stroke-width="1" fill="none"></path></g></g><g stroke-linecap="round" transform="translate(635.3817063076489 394.4557173987542) rotate(0 50.61539972030573 48.34011699002144)"><path d="M-1.52 -0.9 L102.73 1.95 L100.53 98.32 L0.24 95.11" stroke="none" stroke-width="0" fill="#fff"></path><path d="M-1.32 -1.37 C32.31 -2.56, 61.7 -1.89, 102.47 1.4 M0.79 0.93 C30.73 0.14, 63.1 -0.31, 100.44 0.28 M100.68 0.48 C99.49 28.9, 101.04 61.58, 101.84 96.83 M100.51 0.04 C99.65 20.9, 99.64 41.32, 101.9 97.28 M101.15 97.58 C68.26 97.74, 35.94 96.85, 0.44 95.6 M102.18 97 C63.67 96.67, 26.51 96.26, -0.36 96.64 M1.78 96.13 C0.13 59.26, 1.04 20.52, 0.85 0.7 M0.57 97.09 C0.19 74.56, -0.15 52.27, 0.96 0.97" stroke="#087f5b" stroke-width="1" fill="none"></path></g><g transform="translate(656.6237831829378 421.25231631009314) rotate(0 29.373322844982283 21.36241661453255)"><text x="29.373322844982273" y="15.362416614532563" font-family="Virgil, Segoe UI Emoji" font-size="16.57193698357623px" fill="#000000" text-anchor="middle" style="white-space: pre;" direction="ltr">Query</text><text x="29.373322844982273" y="36.724833229065126" font-family="Virgil, Segoe UI Emoji" font-size="16.57193698357623px" fill="#000000" text-anchor="middle" style="white-space: pre;" direction="ltr">Handler</text></g><g stroke-linecap="round" transform="translate(640.2349804158035 222.39267113625357) rotate(0 52.18600203382783 49.84011699002144)"><path d="M1.45 1.76 L103.01 1.59 L104.16 101.26 L-1.78 99.66" stroke="none" stroke-width="0" fill="#fff"></path><path d="M1.95 -0.29 C32.74 0.44, 69.15 0.12, 106.19 1.38 M0.57 -0.01 C26.1 1.94, 52.41 1.14, 104.01 -0.3 M105.52 -0.95 C103.26 20.94, 105.34 39.62, 105.78 99.04 M104.57 0.32 C103.92 25.65, 103.61 51.48, 104.91 100.12 M102.63 100.43 C65.25 100.6, 23.01 99.05, 0.75 100.28 M104.18 100.25 C73.14 99.29, 41.11 99.37, 0.47 99.59 M1.59 98.38 C0.8 68.15, 2.16 37.66, -1.91 1.17 M0.01 99.15 C-1.7 74.13, -1.52 49.19, 0.76 -0.96" stroke="#087f5b" stroke-width="1" fill="none"></path></g><g transform="translate(656.6298778655694 250.0207719319464) rotate(0 35.79110458402903 22.025295128633246)"><text x="35.791104584029036" y="16.02529512863325" font-family="Virgil, Segoe UI Emoji" font-size="17.086166303304534px" fill="#000000" text-anchor="middle" style="white-space: pre;" direction="ltr">Command</text><text x="35.791104584029036" y="38.0505902572665" font-family="Virgil, Segoe UI Emoji" font-size="17.086166303304534px" fill="#000000" text-anchor="middle" style="white-space: pre;" direction="ltr">Handler</text></g><g stroke-linecap="round" transform="translate(917.5430265274063 387.13960073480854) rotate(0 51.03068715452878 48.73673626529637)"><path d="M1.5 1.95 L101.36 1.64 L102.3 95.9 L0.39 99.4" stroke="none" stroke-width="0" fill="#fff"></path><path d="M1.78 -1.7 C39.95 -0.33, 79.86 2.1, 102.22 0.6 M-0.42 0.57 C35.68 -0.83, 68.98 -0.66, 102.17 -0.17 M100.48 -1.17 C101.76 22.39, 102.4 42.07, 100.26 95.79 M101.3 0.59 C100.58 31.11, 102.03 61.41, 102.23 97.42 M101.15 99.27 C77.68 98.84, 56.07 96.85, 1.32 98.74 M101.56 97.84 C74.64 97.75, 48.05 97.76, 0.94 97.54 M0.2 98.13 C0.24 71.37, -0.02 45.99, -1.4 0.08 M0.22 97.61 C-0.67 64.91, 0.41 33.09, -0.76 -0.45" stroke="#c92a2a" stroke-width="1" fill="none"></path></g><g transform="translate(942.9078286331805 416.38645613214527) rotate(0 25 24)"><text x="25" y="17" font-family="Virgil, Segoe UI Emoji" font-size="18.618047516930353px" fill="#000000" text-anchor="middle" style="white-space: pre;" direction="ltr">Auth</text><text x="25" y="41" font-family="Virgil, Segoe UI Emoji" font-size="18.618047516930353px" fill="#000000" text-anchor="middle" style="white-space: pre;" direction="ltr">store</text></g><g stroke-linecap="round" transform="translate(917.5430265274063 235.13960073480848) rotate(0 51.03068715452878 48.73673626529637)"><path d="M-0.1 -0.12 L103.14 0.57 L101.03 96.2 L0.33 98.53" stroke="none" stroke-width="0" fill="#fff"></path><path d="M1.15 1.75 C22.76 0.23, 47.67 0.77, 100.61 0.94 M-0.85 0.49 C26.24 -0.64, 52.9 0.12, 101.5 0.74 M101 0.5 C100.79 37.72, 99.86 76.15, 100.68 96.65 M101.67 -0.44 C102.74 22.49, 102.72 43.91, 102.35 97.6 M102.83 96.85 C74.6 97.68, 45.71 96.97, -1.77 95.65 M102.7 97.61 C72.35 98.34, 41.67 99.04, 0.5 97.87 M0.68 98.41 C-0.82 69.31, 0.86 41.09, 1.08 -1.09 M0.09 97.02 C0.88 72.49, 0.97 46.56, 0.77 0.98" stroke="#c92a2a" stroke-width="1" fill="none"></path></g><g transform="translate(934.9078286331805 265.3864561321452) rotate(0 33 24)"><text x="33" y="17" font-family="Virgil, Segoe UI Emoji" font-size="18.618047516930353px" fill="#000000" text-anchor="middle" style="white-space: pre;" direction="ltr">Event</text><text x="33" y="41" font-family="Virgil, Segoe UI Emoji" font-size="18.618047516930353px" fill="#000000" text-anchor="middle" style="white-space: pre;" direction="ltr">Handler</text></g><g stroke-linecap="round"><g transform="translate(1020.6044008364638 463.9439763712092) rotate(0 26.141697615380508 13.87177250957842)"><path d="M0 0 C8.71 4.62, 43.57 23.12, 52.28 27.74 M0 0 C8.71 4.62, 43.57 23.12, 52.28 27.74" stroke="#000000" stroke-width="1" fill="none"></path></g></g><g stroke-linecap="round" transform="translate(1075.2034271335124 470.7081643785305) rotate(0 51.03068715452878 48.73673626529637)"><path d="M0.24 -1.57 L102.45 1.93 L101.43 96.85 L0.03 97.36" stroke="none" stroke-width="0" fill="#fa5252"></path><path d="M1.24 1.4 C22.12 1.12, 44.76 2.11, 103.91 -0.85 M-0.79 0.28 C36.5 -0.28, 71.93 -0.39, 102.3 -0.79 M102.67 0.15 C100.25 21.84, 102.29 45.59, 102.14 95.94 M102.73 0.6 C101.47 34.97, 100.57 70.01, 102.51 97.02 M102.5 96.39 C63.62 99.2, 21.79 99.83, 0.64 96.47 M101.7 97.44 C68.66 97.5, 33.05 98.32, -0.28 97.57 M0.85 98.17 C-1.94 65.13, 0.16 33.77, 0.83 0.44 M0.96 98.44 C-0.65 66.42, 0.86 37.26, -0.35 0.82" stroke="#000000" stroke-width="1" fill="none"></path></g><g transform="translate(1078.9100109214676 477.1584006990549) rotate(0 47.5 42)"><text x="47.5" y="20" font-family="Virgil, Segoe UI Emoji" font-size="21.814588268617836px" fill="#fff" text-anchor="middle" style="white-space: pre;" direction="ltr">MongoDB</text><text x="47.5" y="48" font-family="Virgil, Segoe UI Emoji" font-size="21.814588268617836px" fill="#fff" text-anchor="middle" style="white-space: pre;" direction="ltr">Auth</text><text x="47.5" y="76" font-family="Virgil, Segoe UI Emoji" font-size="21.814588268617836px" fill="#fff" text-anchor="middle" style="white-space: pre;" direction="ltr">store</text></g><g stroke-linecap="round" transform="translate(1088.2034271335124 149.7081643785305) rotate(0 51.03068715452878 48.73673626529637)"><path d="M0.32 0.63 L102.01 1.19 L100.39 96.28 L0.98 98.91" stroke="none" stroke-width="0" fill="#fa5252"></path><path d="M-1.81 -0.53 C35.24 1.27, 69.42 0.41, 100.93 1.2 M0.61 -0.19 C34.81 -0.75, 70.74 -0.35, 101.15 -0.4 M103.21 0.29 C99.84 20.52, 99.62 42.75, 102.27 99.28 M101.36 -0.57 C102.01 28.98, 102.6 56.57, 101.25 96.8 M100.86 97.44 C72.11 96.26, 40.04 97.76, 1.47 97.61 M101.86 97.1 C70.81 97.1, 39.83 98.25, -0.97 97.36 M0.93 98.77 C-0.45 62.08, 1.08 27.57, -1.87 1.44 M0.1 97.08 C-1.44 77.31, -0.93 57.43, -0.6 0.58" stroke="#000000" stroke-width="1" fill="none"></path></g><g transform="translate(1088.9100109214676 156.15840069905488) rotate(0 50.5 42)"><text x="50.5" y="20" font-family="Virgil, Segoe UI Emoji" font-size="21.814588268617836px" fill="#fff" text-anchor="middle" style="white-space: pre;" direction="ltr">RabbitMQ</text><text x="50.5" y="48" font-family="Virgil, Segoe UI Emoji" font-size="21.814588268617836px" fill="#fff" text-anchor="middle" style="white-space: pre;" direction="ltr">Event</text><text x="50.5" y="76" font-family="Virgil, Segoe UI Emoji" font-size="21.814588268617836px" fill="#fff" text-anchor="middle" style="white-space: pre;" direction="ltr">Store</text></g><g stroke-linecap="round"><g transform="translate(1361.318047216056 452.8334522953922) rotate(0 67.32236995461471 73.61403700980367)" fill-rule="evenodd"><path d="M2.83 -4.17 C2.83 -4.17, 2.83 -4.17, 2.83 -4.17 M2.83 -4.17 C2.83 -4.17, 2.83 -4.17, 2.83 -4.17 M1.9 1.46 C5.11 -0.14, 6.7 -1.45, 9.75 -7.06 M2.1 1.92 C5.33 -1.53, 8.33 -4.13, 10.32 -6.38 M1.81 9.54 C7.28 3.46, 11.55 1.11, 17.81 -6.74 M3.09 8.35 C6.02 3.14, 10.37 -0.86, 16.44 -7.8 M4.48 13.11 C6.08 9.41, 13.35 3.74, 24.44 -8.12 M2.33 13.27 C10.31 4.29, 18.88 -3.57, 24.68 -9.29 M1.73 21.8 C12.04 10.83, 19 0.33, 29.99 -10.05 M2.2 21.35 C11.65 9.29, 22.46 -2.7, 31 -12.5 M1.91 28.49 C11.57 18.34, 20.17 6.67, 35.41 -11.44 M2.49 27.5 C11.18 16.88, 19.01 8.57, 33.7 -9.36 M0.76 33.8 C12.67 22.61, 21.46 13.58, 41.48 -9.28 M3.49 33.57 C15.65 17.61, 29.42 1.23, 39.1 -9.85 M0.68 39.12 C12.72 28.04, 21.39 13.48, 45.64 -9 M1.37 39.26 C17.19 21.81, 32.22 5.04, 46.59 -10.41 M4.58 44.03 C17.72 24.34, 37.39 5.45, 52.44 -12.31 M2.22 45.42 C22.21 24.47, 38.92 3.55, 51.13 -11.95 M3.88 51.16 C16.49 39.09, 28.62 22.67, 56.8 -12.18 M2.07 50.74 C17.99 33.34, 32.04 16.73, 56.67 -10.95 M0.35 55.58 C15.99 43.37, 26.27 30.82, 61.27 -10.08 M2.94 57.1 C17.73 39.99, 31.98 21.74, 63.54 -12.81 M1.39 61.89 C22.01 41.77, 45.26 14.39, 69.3 -13.25 M2.24 62.44 C25.26 36.79, 49.69 9.52, 67.81 -13.23 M3.31 69.18 C24.82 41.67, 49.91 13.95, 73.81 -11.18 M2.12 69.64 C23.76 42.7, 47.03 17.15, 74.04 -12.85 M0.53 77.25 C29.44 42.15, 59.32 10.77, 76.41 -11.12 M2.85 76.66 C20.28 53.34, 39.31 33.61, 78.55 -10.87 M0.86 79.67 C19.75 60.22, 37.99 37.22, 82.68 -13.07 M2.17 81.39 C19.98 60.49, 39.36 38.05, 82.92 -12.19 M0.75 88.75 C25.88 58.9, 52.17 33.02, 88.1 -11.81 M2.76 88.54 C24.19 61.79, 48.88 33.94, 87.96 -11.5 M3.17 93.03 C24.69 67.02, 49.07 41.55, 90.62 -9.34 M2.12 93 C31.28 62, 58.66 28.74, 92.44 -9.92 M1.62 102.06 C33.43 64.23, 60.97 30.16, 98.54 -11.22 M2.8 100.5 C29.99 66.14, 58.72 33.19, 97.1 -9.39 M1.91 107.87 C30.15 74.07, 56.61 39.84, 103.82 -7.22 M2.27 106.93 C25.96 78.81, 50.76 52.14, 102.07 -9.53 M1.52 113.97 C37.5 72.54, 70.06 38.35, 105.96 -7.63 M2.39 111.28 C31.05 78.33, 59.17 45.52, 106.91 -8.02 M0.81 120.39 C28.4 88.82, 54.61 58.33, 112.6 -7.77 M2.81 118.47 C40.86 73.1, 78.93 29.38, 113.27 -9.22 M0.28 125.89 C39.53 80.27, 80.2 36.92, 116.77 -9.2 M2.25 125.47 C29.91 89.92, 59.82 55.08, 118.32 -7.55 M3.78 128.96 C29.55 99.67, 54.98 69.2, 121.45 -8.22 M1.93 130.2 C40.71 86.87, 77.82 44.23, 121.43 -6.1 M1.84 136.86 C30.31 105.83, 57.17 75.21, 127.48 -8.19 M2.98 136.41 C30.29 105.4, 57.71 72.15, 126.2 -7.06 M1.49 143.06 C42.66 95.96, 79.44 54.25, 129.59 -2.66 M2.4 143.02 C41.27 96.04, 81.69 49.91, 130.55 -5 M1.62 148.89 C27.43 118.86, 57.13 83.15, 132.31 -4.08 M2.41 149.57 C33.64 112.36, 65.24 74.61, 134.62 -1.93 M4.06 154.36 C56.77 90.23, 111.54 32, 137.74 -0.56 M4.19 153.37 C34.19 119.36, 62.48 85.89, 137.87 -0.9 M5.73 153.67 C51.85 102.55, 99.56 51.27, 138.1 3.64 M7.23 155.59 C46.82 111.03, 84.31 66.3, 137.21 4.66 M11.7 154.5 C57.55 103.6, 104.12 48.26, 138.83 11.37 M11.3 156.33 C39.51 124.77, 65.88 93.42, 136.74 11.02 M14.55 156.95 C46.19 123.66, 77.21 86.95, 137.68 17.29 M15.66 157.87 C49.44 118.82, 82.37 79.85, 137.76 17.03 M18.21 160.45 C56.9 118.56, 89.25 80.26, 139.03 24.77 M19 160.18 C67.61 106.45, 114.48 51.25, 137.45 23.37 M25.89 160.17 C63.01 114.35, 103.34 68.26, 135.79 31.41 M23.54 161.02 C67.02 112.28, 109.19 64.14, 136.87 29.89 M29.41 162.29 C56.27 132.57, 84.18 100.05, 137.4 37.83 M28.46 161.12 C66.53 117.89, 106.9 72.17, 137.09 36.31 M33 163.24 C57.96 132.31, 86.55 101.76, 136.26 40.35 M33.86 161.23 C62.43 128.1, 92.56 92.61, 137.76 40.72 M37.3 162.41 C65.94 130.33, 93.46 100.18, 135.82 47.83 M38.83 162.84 C77.89 115.64, 117.64 70.85, 137.33 48.34 M43.25 161.95 C77.61 123.93, 111.55 84.07, 136.36 55.09 M43.53 161.74 C64.63 139.38, 85.39 115.24, 136.92 54.79 M48.65 162.26 C72.02 138.69, 92.2 111.77, 138.29 59.95 M47.84 163.4 C77.35 129.84, 105.63 95.57, 137.79 61.02 M54.12 163.96 C78.6 135.23, 101.82 107.32, 137.45 68.23 M53.43 162.86 C78.15 134.89, 102.77 105.38, 136.73 66.18 M57.68 161.7 C91.4 125.37, 122.78 88.83, 138.92 71.22 M58.48 162.37 C79.84 140.51, 100.41 116.36, 138.03 72.98 M63.94 162.33 C78.94 146.18, 93.82 124.95, 137.06 78.49 M65.03 163.48 C88.21 136.68, 110.05 110.01, 137.57 78.31 M70.75 162.71 C94.79 132.26, 122.01 102.69, 137.3 83.31 M69.7 162.67 C83.49 145.24, 98.09 129.12, 136.86 84.65 M75.74 162.94 C93.82 136.42, 116.27 112.38, 139.49 91.71 M74.4 162.51 C88.43 147.35, 102.6 133.06, 138.38 90.89 M79.63 163.37 C94.87 147.6, 106.11 131.95, 137.12 95.49 M79.69 162.5 C99.99 140.87, 119.09 119.51, 137.02 97.27 M85.41 161.09 C97.77 147.27, 109.8 132.06, 139.19 101.63 M86.2 161.46 C98.68 149.37, 109.68 135.69, 138.06 102.7 M90.96 161.43 C109.3 142.53, 125.42 122.39, 138.21 109.18 M91.27 160.9 C102.39 149.49, 113.02 136.84, 137.24 109.41 M98.28 160.7 C109.53 147.73, 121.92 131.81, 136.04 114.6 M96.39 161.65 C108.64 149.45, 118.25 136.76, 136.78 116.33 M102.78 160.98 C109.83 151.98, 117.97 142.12, 139.18 120.91 M102.52 160.46 C111.37 150.91, 121.9 139.25, 136.79 121.93 M110.48 160.81 C118.35 151.8, 128.43 139.83, 138.05 126.59 M109.52 160.68 C115.01 153.55, 120.63 145.96, 136.63 127.17 M114.62 162.74 C118.99 154.99, 125.9 146.7, 136.8 135.11 M112.81 161.58 C120.12 153.83, 127.52 144.46, 136.92 132.78 M120.89 159.56 C128.03 152.4, 136.2 144.23, 137.36 139.69 M120.73 158.5 C124.58 154.42, 127.13 150.13, 137.65 139.96 M127.83 158.64 C129.58 151.76, 135.97 149.12, 137.28 145.03 M127.27 157.37 C128.64 155.36, 131.44 152.6, 138 145.74 M1.93 151.73 C1.93 151.73, 1.93 151.73, 1.93 151.73 M1.93 151.73 C1.93 151.73, 1.93 151.73, 1.93 151.73 M13.5 156.7 C9.33 153.69, 7.02 149.85, 1.88 144.39 M12.33 155.3 C9.5 151.78, 5.05 149.32, 0.31 144.87 M20.05 153.79 C14.09 151.92, 8.63 145.95, 0.99 138.88 M19.12 156.27 C15.27 152.49, 11.17 148.16, 0.99 141.36 M24.8 158.87 C19.93 151.93, 8.35 143.14, -0.03 136.92 M25.97 156.47 C20.84 153.21, 15.23 147.73, 1.45 134.76 M32.98 159.01 C21.93 147.21, 11.45 137.94, 2.13 131.52 M34.04 157.47 C24.11 150.81, 16.34 141.43, 0.98 129.71 M38.58 156.95 C25.64 148.43, 14.11 137.3, 1.9 123.9 M40.88 157.83 C26.97 146.69, 14.44 137.39, 0.86 124.82 M47.45 160.07 C31.9 143.51, 15.47 130.72, 1.05 117.42 M45.44 157.59 C36.02 150.08, 24.74 139.32, 0.35 118.48 M53.07 157.84 C38.56 146.34, 28.32 137.05, 0.05 113.53 M51.88 159.56 C41.27 149.01, 29.6 139.02, 2.1 114.81 M58.57 157.22 C40.83 139.95, 19.66 124.7, 1.19 109.32 M59.77 158.62 C38.71 140.61, 16.54 119.97, 1.48 108.96 M65.95 157.42 C45.47 141.54, 28.82 125.16, -0.07 105.47 M65.38 158.33 C51.96 147.77, 36.6 134.93, 2.02 103.05 M74.86 161.94 C51.4 142.47, 28.84 122.1, 0.09 99.81 M72.64 160.91 C53.67 143.08, 32.48 126.17, 0.72 97.49 M81.03 159.44 C61.86 148.63, 48.33 134.37, 1.15 91.25 M79.7 159.9 C56.5 141.73, 34.46 121.52, 1.44 92.9 M84.9 160.32 C60.26 138.72, 35.08 113.47, 1.45 85.36 M85.59 160.66 C61.7 141.26, 40.4 122.3, 0.32 87.46 M88.48 160.26 C54.63 128.45, 22.15 100.19, 1.46 82.29 M91.34 159.78 C60.28 133.39, 30.24 107.68, 1.09 82.79 M94.96 160.91 C67.64 135.06, 37.56 110.15, -0.94 78.33 M95.61 159.67 C67.43 135.71, 41.14 111.2, 0.49 77.34 M101.87 160.68 C64.01 127.91, 29.55 94.64, 0.73 69.88 M102.03 159.17 C65.25 127.85, 30.4 96.73, 1.64 72.24 M106.4 157.48 C66.08 121.26, 24.4 85.48, 1.61 67.6 M106.63 158.19 C75.62 131.1, 44.99 105.72, 2.14 67.33 M114.62 159.44 C78.29 129.35, 44.08 97.36, 0.95 61.16 M113.17 158.34 C84.31 132.67, 55.21 107.81, 1.71 61.79 M117.22 158.39 C86.96 128.48, 52.92 103.05, 1.65 55.95 M117.01 156.22 C86.06 129.34, 54.76 100.53, 1.83 56.69 M120.03 157.17 C77.01 113.75, 29.12 73.95, 2.24 51.19 M121.8 154.67 C91.24 128.27, 58.86 100.35, 1.84 51.06 M125.78 153.83 C94.24 129.22, 66.28 101.23, 0.12 44.01 M125.29 152.79 C83.16 116.76, 40.1 78.71, 2.34 45.74 M129.3 153.65 C90.46 117.57, 52.84 85.47, 2.84 38.88 M130.73 151.86 C92.04 119.67, 54.6 87.4, 0.53 40.75 M136.58 149.88 C85.24 105.52, 33.37 58.17, 3.32 35.64 M135.98 149.98 C87.98 111.5, 41.96 69.34, 1.62 35.19 M137.47 146.58 C104.97 119.34, 74.65 92.15, 3.13 31.01 M136.39 146.74 C87.91 105.06, 38.04 61.77, 0.19 28.6 M135.95 141.25 C83.82 95.58, 31.59 46.55, -0.31 22.56 M137.19 141.74 C110.27 116.36, 81.05 92.07, 1.57 24.83 M137.19 137.59 C101.14 103.5, 62.17 74.32, 1.59 18.24 M136.64 137.23 C105 107.79, 73.83 79.99, 1.19 19.42 M137.92 130.36 C90.28 91.17, 44.26 53.26, -0.22 12.37 M136.58 130.87 C88.69 88.4, 42.24 47.88, 2.01 13.48 M135.31 126.68 C87.01 84.44, 36.19 40.62, 3.6 7.77 M137.37 126.84 C94.98 88.39, 50.45 51.2, 2.59 7.73 M138.12 119.55 C98.36 83.39, 57.18 49.41, 0.27 4.54 M137.21 121.3 C91.68 79.49, 46.53 40.86, 0.72 3.06 M138.01 115.83 C107.49 90.59, 75.55 63.08, 2.41 -3.3 M137.58 116.21 C85.17 70.78, 33.64 24.93, 1.11 -2.84 M136.78 109.74 C95.3 70.53, 51.79 35.16, 2.24 -7.61 M136.56 108.72 C108.79 87.45, 82.62 62.51, 3.67 -5.5 M137.61 102.89 C90.62 66.15, 46.03 26.99, 10.41 -6.13 M136.24 105.06 C103.5 75.69, 69.55 44.98, 8.47 -7.73 M136.29 97.72 C103.68 69.5, 68.98 41.71, 11.14 -8.92 M136.06 99.88 C97.96 65.98, 57.89 33.66, 13.02 -8.23 M136.52 93.58 C105.84 65.94, 69.23 37.56, 18.08 -10.49 M136.24 94.17 C99.16 61.3, 61.11 27.32, 18.26 -9.82 M137.13 88.15 C111.56 66.26, 89.33 47.45, 23.99 -9.54 M137.08 88.59 C100.34 57.59, 64.13 25.49, 22.33 -11.3 M135.32 81.5 C106.44 56.31, 75.51 29.97, 29.03 -11.65 M136.41 83.38 C110.85 61.13, 84.61 39.36, 27.02 -12.3 M137.92 77.56 C95.18 42.07, 56.93 7.54, 33.22 -11.14 M136.9 77.72 C94.94 41.19, 53.16 6.11, 32.35 -13.21 M136.67 72.13 C111.49 52.41, 85.33 29.66, 39.26 -11.04 M137.51 73.6 C99.44 40.92, 64.19 9.19, 39.49 -13.33 M135.41 66.37 C116.14 49.97, 95.67 32.08, 44.41 -12.91 M136.78 67.2 C116.87 48.64, 96.79 31.42, 44.81 -12.77 M137.39 62.82 C112.6 42.03, 85.7 19.57, 48.62 -12.2 M136.26 62.78 C103.43 31.87, 67.72 2.5, 50.08 -13.97 M136.46 54.87 C109.61 33.26, 79.44 10.03, 55.95 -14.76 M135.87 56.03 C105.77 29.52, 75.37 2.79, 56.07 -14.33 M136.4 50.79 C116.75 35.81, 98.84 18.78, 60.61 -13.46 M137.3 51.96 C112.91 31.25, 89.42 10.64, 60.66 -14.92 M138.08 47.21 C122.11 33.32, 107.26 19.29, 68.17 -13.42 M135.31 46.27 C113.31 23.98, 88.97 4.33, 66.23 -13.89 M134.77 41.13 C120.4 27.55, 106.84 14.2, 73.61 -12.62 M137.2 41.23 C110.97 18.36, 86.45 -2.38, 73.79 -15.14 M135.37 35.43 C124.65 24.46, 110.94 13.99, 80.26 -13.11 M136.12 35.04 C119.26 19.79, 101.68 4.04, 80.07 -13.73 M135.68 30.84 C122.63 18.71, 106.24 3.72, 88.11 -11.62 M136.49 29.74 C124.38 20, 111 9.81, 85.95 -12.56 M137.59 23.45 C118.78 11.78, 103.06 -3.77, 91.26 -12.13 M135.32 24.53 C119.22 9.64, 102.13 -4.09, 94.03 -13.05 M136.43 20.74 C123.39 8.04, 113.1 -0.19, 100.48 -10.48 M135.63 19.7 C122.78 8.26, 109.02 -5.04, 101.31 -11.97 M136.1 15.05 C127.27 6.14, 118.58 -2.68, 106.36 -12.92 M135.8 13.98 C125.23 4.67, 113.6 -5.29, 106.51 -11.98 M136.45 7.58 C127.77 2.85, 121.36 -2.33, 115.45 -11.39 M137 8.41 C127.72 2.45, 118.66 -5.97, 114.24 -9.17 M136.37 2.13 C134.41 -0.85, 128.61 -1.02, 124.44 -6.9 M136.41 3.66 C133.88 1.5, 130.64 -1.13, 123.56 -8.21" stroke="#40c057" stroke-width="0.5" fill="none"></path><path d="M0.72 -0.66 C0.54 21.4, 0.02 108.54, 0.06 133.1 C0.1 157.66, -0.29 143.12, 0.96 146.7 C2.21 150.28, 2.64 152.27, 7.55 154.58 C12.47 156.88, 19.65 159.51, 30.47 160.52 C41.29 161.53, 58.98 161.04, 72.47 160.65 C85.96 160.26, 101.41 159.47, 111.41 158.17 C121.42 156.86, 128.36 154.84, 132.51 152.8 C136.66 150.76, 135.62 148.77, 136.33 145.92 C137.04 143.08, 136.97 158.23, 136.77 135.73 C136.56 113.22, 135.45 33.62, 135.1 10.89 C134.74 -11.83, 135.94 2.23, 134.63 -0.62 C133.31 -3.48, 131.78 -4.68, 127.22 -6.25 C122.67 -7.82, 117.53 -8.67, 107.3 -10.04 C97.07 -11.4, 78.45 -14.16, 65.84 -14.42 C53.24 -14.69, 41.83 -13.19, 31.67 -11.62 C21.51 -10.05, 10.21 -7.03, 4.88 -5 C-0.44 -2.97, 0.56 -0.14, -0.29 0.56 C-1.13 1.25, -0.18 -0.82, -0.18 -0.82 M-0.35 1.6 C-0.84 23.23, -1.27 106.85, -1.1 131.14 C-0.92 155.44, -0.84 143.29, 0.69 147.39 C2.22 151.49, 2.84 153.46, 8.09 155.76 C13.34 158.06, 21.23 160.05, 32.19 161.21 C43.16 162.37, 60.6 162.92, 73.87 162.73 C87.15 162.54, 102.26 161.75, 111.85 160.08 C121.44 158.41, 127.53 154.74, 131.39 152.69 C135.26 150.63, 134.55 150.54, 135.02 147.73 C135.5 144.93, 134.25 158.51, 134.26 135.84 C134.27 113.18, 134.68 34.57, 135.09 11.74 C135.49 -11.08, 137.87 1.97, 136.69 -1.09 C135.5 -4.16, 133.02 -5.2, 127.96 -6.65 C122.9 -8.1, 116.62 -8.39, 106.31 -9.81 C96.01 -11.24, 78.46 -14.54, 66.14 -15.2 C53.82 -15.86, 42.28 -15.65, 32.38 -13.77 C22.49 -11.88, 12.47 -6.4, 6.79 -3.89 C1.11 -1.39, -0.28 0.78, -1.69 1.26 C-3.1 1.74, -1.95 -0.63, -1.67 -1" stroke="#000000" stroke-width="1" fill="none"></path></g></g><g stroke-linecap="round"><g transform="translate(1361.8479621315291 553.2119186586287) rotate(0 68.01726183456503 6.668644793182693)"><path d="M-0.66 -0.39 C-0.13 0.65, 0.82 4.96, 3.91 6.97 C7 8.97, 11.89 10.58, 17.88 11.63 C23.86 12.68, 30.72 12.8, 39.82 13.26 C48.93 13.73, 61.05 14.6, 72.51 14.4 C83.97 14.21, 98.86 13.62, 108.58 12.09 C118.3 10.55, 126.15 7.22, 130.84 5.21 C135.53 3.19, 135.94 0.87, 136.7 0 M1.19 -1.64 C1.53 -0.99, -0.03 3.47, 3.13 5.34 C6.29 7.2, 13.98 8.14, 20.15 9.57 C26.32 11, 31.62 13.03, 40.15 13.9 C48.68 14.77, 59.79 15.29, 71.34 14.78 C82.89 14.27, 99.5 12.68, 109.45 10.84 C119.41 9.01, 126.67 5.57, 131.08 3.77 C135.49 1.97, 134.94 0.82, 135.9 0.03" stroke="#000000" stroke-width="1" fill="none"></path></g></g><g stroke-linecap="round"><g transform="translate(1360.300293707187 502.27384547790354) rotate(0 68.28228145701019 6.192194832867642)"><path d="M-0.39 0.32 C0.24 1.24, 1.19 3.01, 4.53 4.83 C7.86 6.65, 13.9 9.59, 19.61 11.23 C25.33 12.88, 30.07 14.35, 38.79 14.71 C47.51 15.07, 60.19 13.9, 71.92 13.4 C83.66 12.9, 99.3 12.97, 109.22 11.71 C119.14 10.45, 126.81 8.04, 131.43 5.82 C136.05 3.61, 136.03 -0.68, 136.96 -1.58 M1.6 -0.56 C2.1 0.52, 1.15 3.55, 4.07 5.74 C7 7.94, 13.38 11.51, 19.13 12.63 C24.88 13.75, 30.02 12.35, 38.57 12.45 C47.12 12.56, 58.47 13, 70.44 13.25 C82.42 13.49, 100.17 15.36, 110.43 13.93 C120.68 12.51, 127.67 7.43, 131.98 4.71 C136.29 1.99, 135.68 -1.54, 136.3 -2.39" stroke="#000000" stroke-width="1" fill="none"></path></g></g><g stroke-linecap="round" transform="translate(1358.1916074725914 439.87420068005855) rotate(0 67.62201798398905 13.67604439593157)"><path d="M93.77 0.62 C103.85 1.25, 114.83 2.93, 121.61 5 C128.39 7.06, 133.14 10.53, 134.45 13.01 C135.76 15.48, 133.96 17.98, 129.46 19.87 C124.96 21.76, 116.59 23.14, 107.46 24.33 C98.32 25.52, 85.69 26.61, 74.64 27.01 C63.59 27.42, 51.45 27.48, 41.15 26.74 C30.86 25.99, 19.57 24.41, 12.89 22.53 C6.21 20.64, 2.15 17.84, 1.1 15.44 C0.05 13.05, 2.29 10.34, 6.59 8.14 C10.88 5.94, 17.85 3.65, 26.87 2.26 C35.89 0.87, 48.84 0.01, 60.71 -0.19 C72.59 -0.39, 91.32 0.54, 98.12 1.05 C104.93 1.55, 102.1 2.38, 101.55 2.82 M48.12 -0.2 C57.6 -0.74, 69.79 0.09, 80.7 0.81 C91.61 1.52, 104.95 2.41, 113.59 4.07 C122.23 5.73, 128.96 8.66, 132.51 10.78 C136.06 12.9, 137.14 14.89, 134.89 16.8 C132.63 18.72, 126.99 20.69, 119 22.28 C111.01 23.87, 98.07 25.44, 86.97 26.35 C75.86 27.26, 63.04 27.92, 52.38 27.75 C41.72 27.57, 31.06 26.91, 23.02 25.31 C14.99 23.72, 7.64 20.44, 4.17 18.18 C0.69 15.91, 0.05 13.86, 2.17 11.73 C4.29 9.59, 9.35 7.12, 16.87 5.36 C24.4 3.61, 42.45 1.86, 47.34 1.18 C52.23 0.51, 46.05 0.99, 46.22 1.34" stroke="none" stroke-width="0" fill="#fff"></path><path d="M34.62 2.13 C43.49 0.76, 58.04 -0.73, 69.38 -0.85 C80.71 -0.98, 93.05 -0.01, 102.64 1.38 C112.22 2.78, 121.38 5.53, 126.91 7.52 C132.43 9.5, 135.97 10.93, 135.8 13.29 C135.63 15.66, 131.95 19.69, 125.88 21.73 C119.81 23.76, 109.42 24.56, 99.37 25.49 C89.31 26.41, 76.59 27.18, 65.55 27.27 C54.5 27.36, 42.73 27.07, 33.1 26.01 C23.46 24.94, 13.26 23.03, 7.74 20.86 C2.22 18.69, -0.31 15.29, -0.03 12.97 C0.26 10.65, 1.78 8.9, 9.46 6.94 C17.14 4.98, 37.79 2.24, 46.05 1.23 C54.3 0.23, 58.56 0.91, 59.01 0.91 M58.87 -0.74 C69.17 -0.99, 82.79 1.44, 93.26 2.45 C103.73 3.47, 114.87 3.63, 121.69 5.35 C128.51 7.08, 132.72 10.68, 134.18 12.79 C135.64 14.91, 134.71 16.1, 130.45 18.05 C126.2 20, 117.59 22.78, 108.66 24.48 C99.73 26.18, 87.93 28.18, 76.88 28.23 C65.84 28.29, 52.68 25.94, 42.39 24.81 C32.1 23.69, 22.35 22.89, 15.13 21.49 C7.91 20.08, 0.75 18.74, -0.95 16.38 C-2.65 14.03, 0.57 9.48, 4.94 7.38 C9.3 5.28, 16.36 5.18, 25.25 3.81 C34.14 2.43, 52.49 -0.24, 58.29 -0.85 C64.1 -1.46, 59.71 -0.38, 60.07 0.13" stroke="#000000" stroke-width="1" fill="none"></path></g><g stroke-linecap="round" transform="translate(1468.530255307303 477.794365833487) rotate(0 9.910654948430192 10.75609449301055)"><path d="M6.11 -0.05 C8.22 -1.03, 11.83 -0.47, 13.96 0.54 C16.09 1.55, 18.03 4.01, 18.88 6.02 C19.73 8.02, 19.38 10.34, 19.07 12.59 C18.75 14.83, 18.58 18.14, 16.98 19.49 C15.39 20.85, 11.83 20.89, 9.48 20.73 C7.14 20.57, 4.56 19.98, 2.91 18.54 C1.26 17.11, -0.31 14.36, -0.41 12.11 C-0.52 9.86, 0.76 7.1, 2.29 5.04 C3.82 2.99, 7.64 0.69, 8.78 -0.23 C9.91 -1.14, 9.24 -0.78, 9.1 -0.45 M13.43 0.67 C15.76 0.9, 18.56 2.69, 19.5 4.42 C20.44 6.14, 19.28 8.76, 19.05 11.01 C18.82 13.26, 19.69 16.29, 18.13 17.91 C16.57 19.53, 12.19 20.29, 9.67 20.71 C7.16 21.13, 4.84 21.38, 3.05 20.43 C1.26 19.47, -0.57 17.12, -1.08 14.98 C-1.59 12.84, -0.92 9.71, -0.03 7.61 C0.86 5.5, 2.34 3.74, 4.27 2.36 C6.21 0.98, 10.13 -0.5, 11.57 -0.69 C13 -0.87, 12.7 0.8, 12.89 1.24" stroke="none" stroke-width="0" fill="#fff"></path><path d="M12.61 0.26 C14.44 0.68, 15.87 2.14, 16.97 3.96 C18.06 5.78, 19.08 8.72, 19.17 11.17 C19.27 13.62, 18.99 16.86, 17.53 18.67 C16.06 20.48, 12.4 21.94, 10.38 22.04 C8.36 22.13, 7.11 20.67, 5.42 19.26 C3.73 17.85, 1.01 15.59, 0.23 13.6 C-0.56 11.62, -0.27 9.52, 0.71 7.37 C1.68 5.22, 4.01 1.9, 6.08 0.72 C8.15 -0.45, 12.08 0.41, 13.14 0.32 C14.2 0.23, 12.5 0.12, 12.41 0.17 M12.47 -0.59 C14.43 -0.13, 16.56 3.42, 17.78 5.47 C19.01 7.52, 20.14 9.61, 19.82 11.7 C19.51 13.79, 17.21 16.33, 15.9 18 C14.58 19.66, 13.91 21.56, 11.93 21.71 C9.94 21.85, 5.79 20.21, 3.98 18.89 C2.18 17.57, 1.76 15.9, 1.12 13.77 C0.47 11.64, -0.68 8.13, 0.11 6.11 C0.9 4.1, 3.59 2.45, 5.85 1.66 C8.12 0.88, 12.8 1.33, 13.69 1.39 C14.58 1.44, 11.46 2.23, 11.18 2" stroke="#000000" stroke-width="1" fill="none"></path></g><g stroke-linecap="round" transform="translate(1468.530255307303 525.0135802061502) rotate(0 9.910654948430192 10.75609449301055)"><path d="M4.6 1.78 C6.18 0.78, 9.52 0.25, 11.79 0.54 C14.05 0.84, 16.9 1.64, 18.21 3.54 C19.51 5.44, 19.71 9.58, 19.62 11.93 C19.53 14.29, 19.2 16.17, 17.68 17.66 C16.17 19.16, 12.75 20.61, 10.52 20.89 C8.3 21.17, 6.06 20.33, 4.33 19.35 C2.6 18.36, 0.77 16.96, 0.13 14.98 C-0.5 13.01, -0.36 9.88, 0.52 7.49 C1.4 5.1, 4.52 1.76, 5.41 0.62 C6.29 -0.53, 5.6 0.33, 5.82 0.64 M8.26 1.71 C10.02 0.85, 12.81 -0.48, 14.52 0.57 C16.22 1.62, 17.77 5.93, 18.5 8.01 C19.23 10.09, 19.58 11.25, 18.89 13.04 C18.19 14.83, 15.93 17.57, 14.32 18.73 C12.72 19.88, 11.01 20.26, 9.27 19.96 C7.53 19.66, 5.19 18.66, 3.88 16.93 C2.56 15.21, 1.42 11.9, 1.36 9.61 C1.3 7.32, 2.57 4.66, 3.5 3.18 C4.42 1.7, 6.05 1.08, 6.91 0.72 C7.77 0.35, 8.36 0.66, 8.66 0.97" stroke="none" stroke-width="0" fill="#fff"></path><path d="M10.52 -0.83 C12.61 -1.02, 14.91 0.54, 16.42 2.33 C17.94 4.13, 19.23 7.66, 19.62 9.93 C20 12.2, 19.8 13.96, 18.75 15.97 C17.69 17.98, 15.53 21.24, 13.31 21.98 C11.09 22.72, 7.52 21.49, 5.42 20.4 C3.32 19.32, 1.45 17.38, 0.73 15.46 C0.01 13.54, 0.62 11.01, 1.09 8.89 C1.57 6.78, 1.83 4.27, 3.58 2.76 C5.33 1.24, 10.16 0.1, 11.58 -0.18 C13.01 -0.47, 12.3 0.72, 12.15 1.05 M8 -0.34 C9.98 -0.62, 14.38 0.76, 16.25 2 C18.12 3.24, 18.88 4.65, 19.23 7.1 C19.58 9.55, 19.17 14.45, 18.35 16.67 C17.54 18.89, 16.25 19.56, 14.33 20.45 C12.41 21.33, 8.84 22.73, 6.84 21.99 C4.83 21.25, 3.4 18.06, 2.29 16.02 C1.18 13.98, -0.06 11.73, 0.17 9.75 C0.4 7.78, 2.02 6.02, 3.65 4.15 C5.29 2.29, 8.85 -0.7, 9.98 -1.43 C11.1 -2.16, 10.79 -0.79, 10.4 -0.2" stroke="#000000" stroke-width="1" fill="none"></path></g><g stroke-linecap="round" transform="translate(1468.530255307303 576.3345921778789) rotate(0 9.910654948430192 10.75609449301055)"><path d="M13.74 0.45 C15.82 1.24, 17.87 3.81, 18.76 5.79 C19.66 7.77, 19.37 10.08, 19.11 12.33 C18.84 14.59, 18.73 17.93, 17.17 19.33 C15.6 20.73, 12.07 20.83, 9.72 20.73 C7.37 20.63, 4.77 20.11, 3.09 18.71 C1.41 17.31, -0.22 14.6, -0.37 12.36 C-0.53 10.12, 0.91 7.28, 2.17 5.27 C3.43 3.25, 5.35 1.12, 7.19 0.26 C9.03 -0.61, 12.16 -0.14, 13.22 0.07 C14.28 0.29, 13.48 1.35, 13.56 1.56 M14.84 0.53 C16.49 1, 16.78 2.83, 17.78 4.78 C18.78 6.74, 21.29 10.01, 20.84 12.25 C20.4 14.5, 17.13 16.59, 15.1 18.27 C13.07 19.96, 10.83 22, 8.66 22.35 C6.48 22.7, 3.65 21.76, 2.08 20.36 C0.5 18.96, -0.44 16.21, -0.8 13.93 C-1.15 11.65, -1.14 9.06, -0.06 6.67 C1.02 4.28, 3.38 0.48, 5.69 -0.41 C8.01 -1.3, 12.49 1.04, 13.85 1.34 C15.2 1.65, 13.75 1.18, 13.82 1.43" stroke="none" stroke-width="0" fill="#fff"></path><path d="M5.49 0.4 C7.15 -0.54, 10.28 -0.46, 12.49 0.44 C14.71 1.34, 17.69 3.69, 18.77 5.79 C19.85 7.89, 19.2 10.94, 18.96 13.03 C18.72 15.13, 18.83 16.99, 17.32 18.35 C15.81 19.71, 12.17 20.95, 9.89 21.21 C7.6 21.47, 5.11 21.41, 3.6 19.93 C2.1 18.46, 1.14 14.77, 0.85 12.37 C0.57 9.96, 0.75 7.62, 1.9 5.5 C3.04 3.39, 6.32 0.7, 7.71 -0.32 C9.1 -1.33, 10.06 -0.8, 10.24 -0.57 M12.14 1.05 C14.16 1.62, 16.98 2.68, 18.12 4.37 C19.25 6.06, 18.9 8.82, 18.93 11.19 C18.95 13.56, 19.65 16.98, 18.28 18.61 C16.9 20.23, 12.89 20.71, 10.68 20.95 C8.48 21.18, 6.91 21.24, 5.03 20.02 C3.15 18.81, 0.1 15.82, -0.59 13.63 C-1.29 11.45, -0.36 8.88, 0.86 6.93 C2.08 4.98, 5.05 2.81, 6.75 1.94 C8.44 1.07, 10.17 2.21, 11.04 1.73 C11.92 1.26, 11.63 -0.79, 12 -0.9" stroke="#000000" stroke-width="1" fill="none"></path></g><g transform="translate(1375.1973054319383 628.2743155510079) rotate(0 52.46153846153845 15.5)"><text x="0" y="22.000000000000014" font-family="Virgil, Segoe UI Emoji" font-size="23.846153846153847px" fill="#000000" text-anchor="start" style="white-space: pre;" direction="ltr">MongoDB</text></g><g stroke-linecap="round"><g transform="translate(1175.231298166423 521.4022599913803) rotate(0 93.04802442506525 3.223438984427162)"><path d="M0.18 -0.48 C31.4 0.5, 156.28 5.38, 187.28 6.85 M-1.18 -1.77 C29.88 -0.7, 154.74 6.83, 186.35 8.22" stroke="#000000" stroke-width="1" fill="none"></path></g><g transform="translate(1175.231298166423 521.4022599913803) rotate(0 93.04802442506525 3.223438984427162)"><path d="M27.95 -9.61 C19.83 -8.7, 13.78 -4.41, 1.21 -0.95 M28.77 -9.49 C22.44 -7.82, 14.98 -5.73, 0.29 -1.4" stroke="#000000" stroke-width="1" fill="none"></path></g><g transform="translate(1175.231298166423 521.4022599913803) rotate(0 93.04802442506525 3.223438984427162)"><path d="M27.17 10.9 C19.12 5.73, 13.3 3.94, 1.21 -0.95 M27.99 11.01 C21.66 7.76, 14.39 4.93, 0.29 -1.4" stroke="#000000" stroke-width="1" fill="none"></path></g><g transform="translate(1175.231298166423 521.4022599913803) rotate(0 93.04802442506525 3.223438984427162)"><path d="M156.86 17.03 C165.58 12.54, 176.5 11.5, 187.38 7.75 M157.69 17.14 C164.93 14.29, 171.21 12.07, 186.46 7.3" stroke="#000000" stroke-width="1" fill="none"></path></g><g transform="translate(1175.231298166423 521.4022599913803) rotate(0 93.04802442506525 3.223438984427162)"><path d="M157.94 -3.46 C166.5 -1.88, 177.11 3.17, 187.38 7.75 M158.77 -3.35 C165.94 -1.28, 171.95 1.42, 186.46 7.3" stroke="#000000" stroke-width="1" fill="none"></path></g></g><g stroke-linecap="round"><g transform="translate(460.64209093866293 538.1163310248417) rotate(0 -136.50837435767482 -5.067969237195143)"><path d="M-0.33 -0.05 C-46.1 -1.28, -228.41 -6.98, -274.09 -8.51 M1.69 -1.12 C-44.22 -2.57, -228.6 -8.98, -274.71 -10.09" stroke="#000000" stroke-width="1" fill="none"></path></g><g transform="translate(460.64209093866293 538.1163310248417) rotate(0 -136.50837435767482 -5.067969237195143)"><path d="M-28.91 10.38 C-17.24 6.73, -8.71 1.08, 0.71 -1.12 M-29.52 9.53 C-20.67 7.47, -11.25 3.57, -0.21 -0.16" stroke="#000000" stroke-width="1" fill="none"></path></g><g transform="translate(460.64209093866293 538.1163310248417) rotate(0 -136.50837435767482 -5.067969237195143)"><path d="M-28.28 -10.13 C-17.02 -6.75, -8.7 -5.38, 0.71 -1.12 M-28.89 -10.98 C-20.14 -6.64, -10.92 -4.14, -0.21 -0.16" stroke="#000000" stroke-width="1" fill="none"></path></g><g transform="translate(460.64209093866293 538.1163310248417) rotate(0 -136.50837435767482 -5.067969237195143)"><path d="M-246.31 -18.46 C-254.34 -15.82, -265.32 -15.03, -273.67 -11.16 M-246.92 -19.31 C-255.76 -15.68, -264.12 -13.71, -274.58 -10.2" stroke="#000000" stroke-width="1" fill="none"></path></g><g transform="translate(460.64209093866293 538.1163310248417) rotate(0 -136.50837435767482 -5.067969237195143)"><path d="M-246.92 2.05 C-254.55 -2.34, -265.32 -8.57, -273.67 -11.16 M-247.54 1.2 C-256.28 -1.56, -264.45 -6, -274.58 -10.2" stroke="#000000" stroke-width="1" fill="none"></path></g></g><g stroke-linecap="round"><g transform="translate(433.6683916172342 247.12483832618608) rotate(0 -123.40229184899516 127.09233341513237)"><path d="M1.08 0.01 C-40.26 42.53, -205.8 212.79, -247.24 255.21 M0.2 -1.03 C-41.33 41.18, -206.49 211.45, -247.89 253.69" stroke="#000000" stroke-width="1" fill="none"></path></g><g transform="translate(433.6683916172342 247.12483832618608) rotate(0 -123.40229184899516 127.09233341513237)"><path d="M-11.19 28.32 C-4.81 17.62, -1.44 5.88, 0.58 -0.38 M-12.05 27.26 C-7.3 17.61, -1.98 8.95, 1.98 -0.91" stroke="#000000" stroke-width="1" fill="none"></path></g><g transform="translate(433.6683916172342 247.12483832618608) rotate(0 -123.40229184899516 127.09233341513237)"><path d="M-25.9 14.02 C-14.09 8.45, -5.3 1.98, 0.58 -0.38 M-26.76 12.95 C-16.95 8.29, -6.56 4.57, 1.98 -0.91" stroke="#000000" stroke-width="1" fill="none"></path></g><g transform="translate(433.6683916172342 247.12483832618608) rotate(0 -123.40229184899516 127.09233341513237)"><path d="M-235.54 227.28 C-238.18 236.96, -243.89 245.38, -248.4 253.3 M-236.39 226.22 C-240.16 235.31, -243.32 245.51, -246.99 252.76" stroke="#000000" stroke-width="1" fill="none"></path></g><g transform="translate(433.6683916172342 247.12483832618608) rotate(0 -123.40229184899516 127.09233341513237)"><path d="M-220.84 241.61 C-228.91 246.14, -240.03 249.28, -248.4 253.3 M-221.7 240.54 C-230.52 244.64, -238.74 249.9, -246.99 252.76" stroke="#000000" stroke-width="1" fill="none"></path></g></g><g stroke-linecap="round"><g transform="translate(1367.9347353901983 40.58212733562672) rotate(89.99999999999994 50.389192216367974 127.01454653754996)" fill-rule="evenodd"><path d="M4.22 -9.58 C4.22 -9.58, 4.22 -9.58, 4.22 -9.58 M4.22 -9.58 C4.22 -9.58, 4.22 -9.58, 4.22 -9.58 M0.69 1.75 C5.05 -1.52, 5.39 -5.67, 13.12 -15.08 M0.27 0.82 C2.58 -3.03, 5.72 -5.97, 14.34 -15.42 M-1.54 8.75 C9.4 -3.53, 20.18 -14.46, 25.85 -21.15 M-0.03 6.96 C6 -0.76, 10.95 -5.38, 23.12 -20.07 M-0.48 11.01 C9.24 6.65, 11.74 -0.82, 30.02 -20.94 M0.06 12.18 C11.78 1.55, 21.66 -11.13, 30.05 -21.81 M0.14 19.07 C13.42 4.78, 26.29 -12.57, 37.38 -22.01 M0.61 18.36 C14.38 2.28, 29.55 -13.06, 35.71 -21.73 M2.21 24.32 C15.84 7.45, 33.38 -13.83, 42.72 -24 M1.63 24.56 C13.08 9.52, 27.88 -5.66, 42.97 -23.52 M-1.27 30.32 C19.91 8.35, 37.52 -12.27, 46.05 -24.69 M0.45 30.5 C16.97 13.04, 31.85 -5.98, 46.93 -23.39 M1.15 36.75 C16.45 19.3, 35.86 -1.01, 50.63 -21.92 M0.94 36.64 C20.21 15.75, 38.33 -6.51, 50.94 -21.9 M0.18 42.89 C17.12 24.76, 34.78 1.27, 56.97 -20.73 M0.15 43.81 C20.02 21.88, 37.79 0.89, 56.39 -20.91 M2.55 51.21 C19.35 25.9, 39.78 4.29, 59.06 -19.97 M0.99 48.83 C17.33 28.38, 34.83 7.73, 60.89 -20.1 M2.35 55.26 C22.54 28.81, 42.3 7.32, 67.69 -20.87 M1.42 54.64 C15.15 38.93, 30.2 21.02, 65.38 -19.46 M2.55 63.01 C13.73 46, 32.08 25.73, 71.9 -19.78 M-0.13 61.7 C21.05 37.05, 42.14 12.4, 71.51 -19.83 M2.32 68.81 C28.46 37.42, 55.85 4.85, 76.39 -17.91 M0.39 68.06 C19.6 43.91, 40.3 21.24, 74.94 -18.54 M1.81 72.85 C22.85 50.08, 45.93 21.69, 78.93 -18.6 M1.39 73.02 C30.36 38.28, 59.82 4.73, 80.59 -18.58 M-1.02 80.76 C19.66 56.64, 38.95 32.55, 82.47 -15.53 M0.21 80.78 C26.23 50.53, 53.06 20.16, 84.59 -16.67 M0.87 87.52 C33.14 50.51, 65.79 13.18, 86.48 -16.3 M0.42 86.5 C29.63 52.94, 56.48 19.37, 87.6 -14.68 M1.16 92.75 C24.69 61.39, 53.62 32.9, 93.81 -12.57 M1.13 91.75 C35.54 51.61, 70.82 11.68, 91.47 -13.72 M-0.51 96.71 C39.02 56.03, 72.29 12.68, 93.38 -11.39 M0.25 98.54 C29.77 62.97, 58.51 30.11, 95.78 -9.27 M2.22 103.77 C29.14 70.69, 62.7 34.66, 98.24 -9.2 M1.11 105.06 C31.86 67.88, 63.29 33.18, 97.86 -7.09 M-0.75 109.97 C38.93 68.94, 78.52 24.56, 99.03 -5.02 M1.17 111.22 C33.95 72.54, 66.67 35.3, 100.05 -4.3 M-1.29 115.7 C29.03 83.92, 54.93 54.44, 102.73 -3.25 M0.53 117.53 C34.87 77.56, 69.44 37.93, 102.38 -2.03 M-0.32 121.23 C32.23 87.25, 61.4 55.4, 103.39 3.6 M0.6 122.79 C34.97 82.15, 69.45 43.7, 103.14 3.98 M1.04 130.26 C20.5 103.89, 43.55 82.61, 104.21 12.38 M0.78 129.64 C27.14 99.82, 52.04 69.34, 102.81 10.96 M0.8 133.81 C37.33 91.55, 73.61 48.67, 104.95 18.32 M1.66 134.72 C32.47 99.91, 63.84 64.17, 103.44 16.26 M1.55 141.58 C29.4 111.43, 54.45 78.34, 105.36 23.56 M0.37 140.06 C31.04 108.07, 59.19 73.05, 103.84 21.98 M1.87 145.88 C35.44 109.04, 69.4 67.09, 101.98 28.61 M-0.14 147.16 C40.56 101.92, 78.76 56.83, 102.35 28.6 M1.07 153.16 C30.97 118.73, 62.87 81.06, 103.46 36.36 M1.51 152.65 C23.26 125.2, 47.59 96.48, 103.97 35.1 M0 159.5 C30.09 125.98, 58.52 90.9, 104.07 39.35 M-0.21 159.93 C35.52 120.65, 69.46 80.62, 103.76 40.33 M0.34 166.61 C30.28 132.45, 56.62 100.34, 103.02 47.72 M1.48 165.22 C31.79 129.77, 61.59 94.26, 104.09 47.11 M2.18 173.1 C39.43 128.41, 77.17 82.5, 105.29 52.77 M1.08 171.05 C31.26 137.17, 60.1 101.55, 103.25 53.92 M-0.71 178.44 C25.89 147.87, 52.67 116.87, 102.38 58.44 M-0.03 178.26 C30.33 146.17, 58.2 112.11, 104.14 58.45 M-0.05 182.49 C29.62 149.45, 54.52 118.09, 103.64 65.26 M1.11 183.72 C23.01 156.39, 44.78 132.11, 103.47 65.8 M-0.29 189 C23.38 161.2, 48.23 132.69, 101.8 69.69 M-0.32 189.93 C35.35 147.32, 72.59 104.96, 103.14 71.77 M0.74 193.59 C35.36 151.53, 72.99 111.53, 104.96 75.3 M0.31 195.1 C23.06 170.5, 46.6 145.14, 104.14 76.33 M1.3 203.04 C28.48 168.82, 56.4 136.56, 102.07 84.04 M0.43 202.6 C31.61 167.74, 63.12 130.59, 103.86 82.9 M-0.84 207.23 C32.11 169.23, 64.29 135.01, 102.32 88.26 M-0.47 209.02 C24.71 180.6, 48.41 152.81, 103.38 90.57 M0.28 214.68 C38.45 170.48, 75.92 127.94, 103.86 94.17 M-0.25 213.82 C31.9 178.53, 62.6 142.9, 104.09 95.61 M-0.31 220.07 C35.72 179.77, 68.72 139.39, 102.63 101.38 M0.63 220.98 C40.98 174.81, 80.73 129.35, 104.35 101.24 M0.75 224.17 C21.87 199.92, 42.6 179.07, 103.69 106.88 M0.23 225.08 C33.99 189.42, 65.51 150.9, 104.71 107.61 M0.71 233.18 C33.05 196.64, 63.29 158.59, 102.7 112.29 M0.59 232.7 C40.87 185.41, 80.27 139.28, 103.29 113.27 M2.03 238.63 C39.95 193.3, 78.25 145.26, 105.32 119.87 M0.87 238.55 C32.48 203.57, 62.58 165.74, 102.99 121.28 M1.14 244.98 C27.98 217.03, 52.98 185.68, 103.9 123.98 M0.08 245.07 C34.41 203.55, 69.26 163.37, 104.16 126.79 M1.28 249.04 C20.93 224.91, 46.42 197.2, 102.35 130.67 M-0.31 250.09 C25.49 222.55, 49.38 195.73, 103.25 132.71 M1.08 254.52 C28.41 223.38, 53.42 194.73, 103.44 137.57 M2.17 255.42 C38.76 213.94, 73.98 173.19, 104.01 137.83 M3.53 260.52 C36.53 224.02, 68.08 186.55, 102.3 145.23 M1.78 261.5 C25.71 233.71, 51.52 204.55, 102.89 144.17 M3.83 263.74 C38.6 223.74, 70.42 185.07, 101.77 149.05 M6.32 263.75 C38.33 226.32, 68.9 189.61, 104.25 151.14 M10.36 267.54 C29.09 242.67, 47.07 220.25, 105.19 154.84 M7.96 265.73 C34.28 236.12, 59.6 206.35, 103.03 157.11 M12.61 268.67 C33.14 244.94, 56.46 218.76, 105.17 162.29 M11.06 268.01 C44.03 233.27, 73.16 197.06, 103.36 163.13 M13.3 269.5 C41.74 241.13, 67.94 211.74, 102.94 168.95 M14.18 270.5 C37.13 242.33, 62.45 215.03, 103.85 168.93 M19.84 274.53 C48.57 236.69, 81.32 199.14, 101.84 173.54 M17.36 273.12 C42.9 246.46, 64.62 219.47, 102.9 174.42 M21.68 273.13 C47.15 246.03, 75.27 212.8, 102.67 179.87 M23.4 274.66 C51.84 243.12, 80.33 210.6, 103.95 181.71 M24.47 277.6 C46.49 252.29, 69.99 227.38, 104.5 188.41 M25.87 276.91 C44.23 257.05, 59.11 237.86, 104.14 186.81 M28.74 275.82 C54.06 250.48, 77.6 220.98, 105.38 191.76 M29.65 277.51 C48.5 255.94, 66.07 236.49, 102.95 193.22 M36.67 277.08 C63.08 245.02, 87.36 215.64, 105.75 198.65 M35.64 277.88 C50.44 260.01, 67.09 241.86, 103.43 198.04 M39.55 276.54 C57.17 260.83, 72.69 241.14, 101.92 205.19 M40.01 277.79 C58.28 258.15, 75.23 237.53, 103.56 205.4 M45.82 279.02 C61.77 262.87, 73.31 245.34, 101.41 210.88 M46.15 277.26 C67.18 251.73, 88.95 226.4, 103.51 212.54 M51.13 276.93 C67.2 258.17, 86.36 237.82, 103.72 218.09 M50.66 278.67 C70.11 256.76, 88.88 235.23, 104.22 217.42 M57.82 278.85 C73.8 260.33, 89.33 241.28, 105.14 223.59 M56.58 277.43 C71.8 261.06, 86.92 242.02, 104.16 224.41 M63.63 276.97 C78.11 261.86, 91.36 242.98, 102.07 230.52 M62.12 277.52 C77.77 260.38, 93.06 242.38, 104.43 230.34 M66.47 278.13 C78.8 262.89, 92.23 247.12, 104.52 235.65 M67.18 276.72 C78.63 263.61, 91.86 250.92, 104.25 235.95 M73.81 278.55 C84.62 266.46, 94.01 251.9, 103.46 241.41 M72.71 277.4 C79.03 268.91, 86.61 261.43, 104.09 241.94 M81.42 276.55 C84.72 267.32, 92.48 262.44, 103.63 247.31 M79.25 275.41 C85.54 269.55, 89.38 263.86, 104.37 248.65 M88.21 274.88 C89.32 267.54, 94.09 264.17, 102.29 255.82 M85.7 274.51 C90.27 269.97, 93.79 266.18, 102.16 255.94 M13.11 269.95 C13.11 269.95, 13.11 269.95, 13.11 269.95 M13.11 269.95 C13.11 269.95, 13.11 269.95, 13.11 269.95 M24.96 273.03 C16.76 269.7, 13.17 265.2, 3.51 256.95 M23.17 272.73 C18.59 268.69, 14.02 264.02, 5.38 257.98 M-0.11 253.16 C-0.11 253.16, -0.11 253.16, -0.11 253.16 M-0.11 253.16 C-0.11 253.16, -0.11 253.16, -0.11 253.16 M30.52 273.52 C21.64 265.75, 11.74 261.04, 2.1 249.58 M30.68 275.21 C24.95 269.87, 18.95 262.72, -0.31 249.12 M37.99 276.66 C28.46 267.52, 14.13 253.65, -1.76 240.72 M38.48 276.95 C29.93 269.1, 22.01 261.93, 0.51 242.22 M45.71 278.13 C25.1 260.51, 10.14 246.18, -0.07 236.19 M45.36 276.13 C30.53 263.85, 15.76 251.11, 1.1 237.94 M50.52 276.01 C35.84 263.6, 23.3 249.83, -0.6 233.69 M51.03 275.74 C39.45 268.21, 30.15 258.52, 0.52 233.18 M56.72 275.52 C36.88 254.66, 14.27 239.57, -0.6 227.29 M56.88 276.42 C39.3 261.35, 23.6 248.68, -0.64 226.84 M60.12 274.9 C46.31 261.97, 33.16 250.15, 2.17 222.69 M61.87 274.46 C46.44 263.05, 33.32 249.41, 0.69 221.15 M67.03 275.37 C44.43 252.91, 18.96 233.13, -1.08 217.81 M67.41 273.82 C44.27 253.08, 19.01 232.67, -0.61 216.46 M71.48 273.06 C54.88 258.52, 40.85 244.87, -1.36 209.37 M70.46 272.28 C51.06 255, 28.7 236.53, 0.76 211.89 M74.5 272.19 C50.11 251.49, 25.16 229.11, 0.78 204.82 M76.67 272.68 C48.29 245.64, 16.76 219.83, -0.81 205.39 M79.86 271.72 C57.18 251.59, 36.72 230.7, 0.06 200.86 M82.02 271.72 C49.07 242.02, 18.28 215.53, 0.75 200.45 M85.59 271.23 C66.23 250.85, 47.34 236.5, -0.85 195.48 M86.19 269.96 C65.07 252.49, 44.52 235.12, -0.18 194.14 M89.19 266.9 C60.84 245, 35.25 220.91, 1.51 190.4 M89.63 267.9 C60.99 243.29, 31.39 217.38, -0.26 189.82 M91.66 265.29 C70.46 244.7, 48.25 227.81, 0.06 183.11 M93.54 265.93 C62.24 238.2, 31.92 211.13, -0.59 185.18 M96.74 262.08 C61.59 234.44, 27.33 205.92, 1.97 181.36 M96.9 263.17 C70.22 239.7, 44.01 216.77, -0.1 178.93 M98.92 259.89 C69.11 231.97, 37.42 207.97, 1.41 175.14 M100.39 259.42 C67.22 233.44, 35.11 206.56, -0.87 172.89 M100.68 256.21 C70.37 226.53, 36.93 199.69, 0.3 167.23 M101.5 257.22 C77.51 236.79, 53.65 215.09, 0.44 168.63 M102.61 252.35 C102.61 252.35, 102.61 252.35, 102.61 252.35 M102.61 252.35 C102.61 252.35, 102.61 252.35, 102.61 252.35 M100.16 252.69 C75.24 227.97, 50.31 206.84, -1.15 164.61 M101.32 251.95 C62.55 217.15, 22.8 183.42, -0.72 162.72 M102.18 246.49 C80.73 227.74, 57.42 206.13, 0.9 158.4 M103.35 247.06 C75.23 222.7, 46.28 197.26, -0.56 157.23 M103.85 241.99 C73.61 216.36, 42.05 191.55, 0.94 153.29 M102.91 242.19 C73.51 215.18, 45.33 189.62, 0.48 151.96 M103.13 235.84 C77.14 213.51, 50.43 189.35, 1.84 149.46 M103.22 236.22 C72.06 211.12, 42.93 185.15, -0.68 146.7 M102.67 231.76 C74.09 204.78, 45.39 180.85, 0.7 142.11 M102.28 231.73 C71.8 205.09, 40.84 178.23, 0.07 142 M103.42 227.77 C72.29 198.73, 38.92 171.38, 1.63 135.91 M102.32 226.29 C73.55 200.15, 45.31 174.81, 0.69 137.79 M101.29 220.09 C66.73 188.69, 27.61 152.84, 1.22 133.72 M102.37 220.61 C63.35 185.01, 24.66 151.52, 0.29 132.13 M103.93 213.76 C77.3 194.55, 55.6 174.4, 1.55 127.78 M102.89 215.13 C78.2 192.06, 51.49 171.51, 0.06 126.58 M103.48 210.53 C79.14 191.25, 55.44 168.68, -0.78 122.94 M102.41 210.17 C72.41 182.22, 40.96 154.75, 0.15 121.57 M101.36 203.44 C63.67 170.16, 25.61 137.49, -1.23 117.27 M102.19 204.55 C63.12 169.8, 22.28 135.84, 1 115.1 M100.93 200.77 C79.06 178.96, 60.42 162.9, 1.55 108.65 M102.74 199.68 C63.09 163.83, 21.94 129.04, 0 111.46 M104.32 192.55 C78.59 173.73, 53.49 154.42, -1.67 106.69 M102.56 194.26 C72.93 168.1, 42.22 142.32, 0.11 105.3 M101.15 186.6 C64.33 155.27, 21.94 120.81, 2.19 99.24 M102.7 188.34 C79.77 170.02, 60.03 151.76, 0.49 100.25 M101.29 182.97 C65.38 149.83, 30.41 116.65, 1.14 92.45 M103.42 183.96 C65.75 150.85, 27.88 117.78, 1.09 95.07 M103.57 177.97 C67.06 146.53, 31.89 114.29, -1.01 89.19 M102.75 177.29 C76.78 154.89, 50.33 132.2, 1.33 90.27 M104.61 174.68 C77.8 153.96, 54.21 132.21, -0.01 85.12 M103.22 173.25 C64.74 139.97, 29.1 107.18, 0.68 84.24 M103.47 166.92 C65.05 133.8, 23.97 99.49, 1.67 79.13 M102.38 167.62 C75.42 143.83, 47.07 118.35, 1.31 77.85 M102.5 161.8 C74.3 139.7, 46.41 114.3, -0.47 73.38 M103.49 161.69 C74.15 137.91, 46.93 114.71, 0.69 72.59 M104.01 155.65 C76.17 135.02, 50.21 113.06, -0.17 67.8 M102.14 156.35 C62.77 121.1, 22.11 86.2, 0.26 67.2 M103.08 152.58 C68.37 120.1, 34.24 91.68, 0.31 64.04 M102.83 150.75 C77.83 129.65, 50.1 107.81, 0 61.81 M104.99 145.11 C76.05 122.95, 48.64 97.52, -1.05 56.06 M102.41 147.08 C69.44 117.44, 38.05 89.99, 1.09 56.52 M102.3 141.38 C80.41 121.73, 53.46 98.96, -1.27 50.03 M102.89 141.87 C73.09 116.49, 46.02 92.67, 0.53 51.56 M103.81 136.42 C76.04 111.79, 51.95 93.09, 0.38 46.91 M102.37 135.4 C66.14 103.41, 29.73 71.77, -0.23 45.9 M104.03 128.71 C73.42 104.99, 46.51 79.44, -0.91 42.41 M102.38 130.41 C71.62 106.24, 43.06 80.49, -0.71 41.41 M104 126.79 C72.02 99.32, 45.43 75.86, 1.33 37.48 M102.53 124.8 C81.19 106.68, 58.87 87.97, -0.69 35.41 M103.98 121.18 C75.01 93.97, 47.29 72.32, 2.3 31.01 M103.09 119.67 C77.99 99.15, 53.37 77.7, 1.09 31.53 M104.24 114.91 C63.07 78.23, 23.4 45.31, -1.08 27 M103.68 114.04 C64.87 81.51, 23.98 47.04, -0.18 25.02 M101.76 107.53 C66.53 77.94, 31.41 50.2, -1.11 21.82 M101.84 108.88 C74.53 83.73, 44.38 59.16, 1.54 20.08 M103.06 105.59 C74.35 76.67, 40.41 50.63, 2.12 16.84 M103.7 103.83 C66.87 73.95, 30.25 41, 0.45 14.67 M100.85 98.64 C71.79 71.96, 39.59 42.02, 1.52 8.94 M102.56 99.22 C67.33 67.17, 31.01 37.35, 1.59 9.1 M102.86 93.75 C78.97 74.89, 55.01 51.94, -0.24 2.5 M103.54 92.81 C79.82 74.82, 56.89 55.66, -0.59 4.2 M100.58 87.5 C69.83 59.11, 40.34 33.44, 1.99 -0.08 M102.19 87.81 C68.14 56.9, 30.21 25.29, 0.47 -0.08 M101.95 84.46 C71.92 55.09, 37.94 28.28, 2.86 -4.43 M103.17 83.57 C78.93 62.04, 54.31 41.11, 2.24 -4.6 M104.18 77.22 C63.93 45, 29.38 14.21, 3.73 -8.27 M102.78 77.68 C79.48 57.56, 55.29 36.55, 4.27 -8.91 M102.47 72.88 C83.77 53.54, 60.64 35.43, 7.24 -12.87 M103.67 72.62 C73.08 47.4, 43.94 21.23, 6.54 -12.65 M102.76 65.05 C79.74 47.69, 55.29 25.56, 8 -13.8 M101.41 65.84 C74.02 42.11, 44.79 15.5, 10.11 -14.15 M102.48 60.34 C81.12 42.93, 56.64 20.84, 15.64 -14.97 M103.15 62.42 C80.6 42.5, 58.75 23.82, 13.96 -16.32 M103.29 54.36 C69.26 28.72, 38.91 -1.29, 18.99 -18.08 M102.23 55.2 C77.37 35.97, 52.83 13.67, 17.16 -18 M103.87 50.26 C81.5 30.63, 58.38 8.3, 20.65 -18.04 M102.81 51.37 C72.69 26.03, 44.79 0.88, 21.21 -19.27 M100.62 46.65 C77.4 23.84, 51.74 2.16, 26.46 -22.36 M102.46 44.62 C81.66 26.83, 60.94 8.87, 25.42 -20.69 M104.44 40.19 C81.64 22.17, 62.84 6.53, 32 -22.63 M102.88 39.78 C83.99 23.54, 63.46 6.17, 29.31 -22.64 M101.47 33.53 C78.76 15.02, 52.93 -7.24, 34.34 -23.82 M102.39 34.91 C78.42 13.73, 54.45 -7.93, 34.2 -24.55 M101.84 29.83 C82.65 11.54, 66.05 -3.43, 39.52 -26.46 M102.67 29.94 C87.22 16.17, 71.22 2.67, 38.6 -26.91 M100.44 24.75 C90.28 11.96, 77.05 -0.78, 43.38 -28.1 M101.34 24.81 C86.86 10.93, 72.8 -1.57, 44.86 -26.6 M101.63 20.97 C88 3.71, 71.84 -9.32, 51.72 -27.24 M102.57 20.05 C88.01 6.04, 71.31 -8.64, 51.25 -26.72 M104.76 12.83 C94.43 4.14, 84.95 -1.02, 58.56 -23.53 M102.48 13.64 C92.88 5.98, 83.68 -2.99, 58.12 -24.68 M101.2 9.56 C89.68 -3.77, 73.86 -16.16, 63.68 -25.12 M102 8.26 C92.66 -0.96, 81.01 -8.87, 65.24 -23.36 M103.28 2.46 C93.89 -3.49, 86.96 -12.64, 75.63 -20.18 M103.76 2.7 C92.89 -5.58, 82.03 -12.89, 74.71 -20.59 M102.54 -2.11 C102.54 -2.11, 102.54 -2.11, 102.54 -2.11 M102.54 -2.11 C102.54 -2.11, 102.54 -2.11, 102.54 -2.11 M102.61 -0.61 C94.78 -6.89, 86.69 -15.1, 83.08 -18.9 M102.11 -1.81 C96.47 -8.22, 90.12 -12.82, 83.27 -19.1" stroke="#fab005" stroke-width="0.5" fill="none"></path><path d="M0.7 -0.11 C1.05 37.77, 0.94 185.61, 0.98 227.93 C1.02 270.26, 0.1 247.92, 0.92 253.83 C1.74 259.74, 2.03 259.89, 5.9 263.41 C9.78 266.93, 15.95 272.83, 24.17 274.96 C32.4 277.08, 45.27 276.63, 55.26 276.15 C65.24 275.66, 76.91 274.77, 84.1 272.04 C91.28 269.32, 95.39 263.38, 98.38 259.81 C101.36 256.25, 101.5 255.34, 102 250.65 C102.49 245.97, 101.58 270.3, 101.34 231.7 C101.09 193.11, 100.61 57.71, 100.53 19.08 C100.45 -19.56, 102.06 5.22, 100.85 -0.09 C99.63 -5.4, 96.61 -9.89, 93.25 -12.8 C89.89 -15.7, 87.91 -15.69, 80.68 -17.52 C73.45 -19.34, 59.29 -23.04, 49.87 -23.76 C40.46 -24.49, 31.74 -24.17, 24.18 -21.86 C16.63 -19.54, 8.57 -13.46, 4.54 -9.87 C0.52 -6.29, 0.66 -2.2, 0.03 -0.35 C-0.59 1.49, 0.74 1.01, 0.8 1.18 M-0.39 -1.22 C-0.05 36.25, 0.2 183.96, 0.37 226.13 C0.54 268.3, -0.39 245.5, 0.63 251.81 C1.65 258.12, 2.75 260.58, 6.49 263.99 C10.24 267.4, 15.24 269.86, 23.08 272.26 C30.93 274.67, 43.24 278.69, 53.55 278.42 C63.87 278.16, 77.16 273.31, 84.99 270.67 C92.83 268.03, 97.95 265.6, 100.56 262.59 C103.16 259.57, 100.4 257.67, 100.62 252.56 C100.84 247.44, 101.93 270.62, 101.88 231.87 C101.84 193.12, 100.76 58.72, 100.34 20.07 C99.92 -18.59, 100.62 4.98, 99.37 -0.09 C98.13 -5.16, 96.1 -7.49, 92.87 -10.34 C89.63 -13.19, 87.04 -14.86, 79.98 -17.17 C72.92 -19.48, 59.63 -23.54, 50.51 -24.21 C41.38 -24.88, 33.09 -23.7, 25.24 -21.19 C17.38 -18.69, 7.79 -12.71, 3.38 -9.2 C-1.03 -5.68, -0.62 -1.37, -1.21 -0.1 C-1.8 1.16, -0.55 -1.49, -0.17 -1.6" stroke="#000000" stroke-width="1" fill="none"></path></g></g><g stroke-linecap="round"><g transform="translate(1319.6738664405202 156.4382594471993) rotate(89.99999999999994 49.058281254004896 12.108764943430572)"><path d="M-0.11 0.64 C0.31 2.32, 0.78 7.73, 3.2 10.76 C5.63 13.78, 10.34 16.59, 14.43 18.77 C18.52 20.95, 21.29 22.87, 27.75 23.84 C34.21 24.82, 44.71 25.11, 53.21 24.61 C61.71 24.12, 71.72 23.65, 78.73 20.87 C85.74 18.09, 92.11 11.51, 95.26 7.93 C98.42 4.36, 97.2 1, 97.66 -0.58 M-1.63 -0.06 C-1.37 1.22, -0.03 6.3, 2.57 9.11 C5.17 11.92, 9.84 14.68, 13.99 16.78 C18.14 18.87, 21.09 20.82, 27.48 21.67 C33.87 22.52, 43.59 22.15, 52.31 21.89 C61.03 21.62, 72.54 22.09, 79.8 20.08 C87.06 18.06, 92.55 13.24, 95.88 9.79 C99.2 6.34, 99.13 0.92, 99.75 -0.63" stroke="#000000" stroke-width="1" fill="none"></path></g></g><g stroke-linecap="round"><g transform="translate(1409.1633793196797 155.27535853629212) rotate(89.99999999999994 49.24469454333871 8.75312035004788)"><path d="M0.64 0.6 C1.11 2.04, 1.2 6.36, 3.5 8.51 C5.8 10.67, 10.12 11.68, 14.43 13.53 C18.75 15.39, 22.95 18.84, 29.38 19.63 C35.81 20.41, 44.62 18.8, 53 18.24 C61.38 17.68, 72.78 18.32, 79.64 16.29 C86.51 14.25, 90.96 9, 94.18 6.02 C97.41 3.03, 98.33 -0.66, 98.97 -1.62 M-0.48 -0.13 C-0.15 0.97, 0.61 4.3, 3.03 6.71 C5.44 9.12, 9.52 12.51, 14.01 14.33 C18.51 16.16, 23.66 16.99, 30.01 17.65 C36.35 18.31, 44.13 18.69, 52.07 18.28 C60.01 17.88, 70.59 16.97, 77.64 15.22 C84.69 13.47, 90.94 10.71, 94.37 7.79 C97.8 4.86, 97.33 -0.95, 98.23 -2.33" stroke="#000000" stroke-width="1" fill="none"></path></g></g><g stroke-linecap="round" transform="translate(1500.3066739310987 145.23102733472842) rotate(89.99999999999994 49.89293035878427 22.18132326563932)"><path d="M50.49 -0.35 C59.67 -0.83, 71.47 1.45, 79.24 3.92 C87 6.39, 94.09 10.35, 97.08 14.48 C100.07 18.61, 100.23 24.38, 97.18 28.69 C94.12 33.01, 86.79 37.84, 78.74 40.37 C70.7 42.9, 58.71 43.96, 48.91 43.88 C39.12 43.79, 27.63 42.51, 19.97 39.88 C12.31 37.24, 5.75 32.27, 2.95 28.08 C0.16 23.9, 0.43 18.91, 3.22 14.76 C6.02 10.62, 10.72 5.66, 19.72 3.23 C28.72 0.8, 50.17 0.36, 57.23 0.17 C64.29 -0.02, 62.45 1.59, 62.09 2.11 M39.09 -0.03 C48.08 -1.3, 60.03 -0.17, 68.65 1.33 C77.27 2.83, 85.4 5.48, 90.81 8.99 C96.23 12.5, 101.59 18.04, 101.15 22.4 C100.72 26.77, 94.77 31.76, 88.2 35.17 C81.62 38.57, 71.37 41.77, 61.69 42.83 C52.01 43.88, 38.89 42.85, 30.11 41.51 C21.33 40.17, 14.24 38.15, 9 34.8 C3.76 31.45, -1.65 25.76, -1.31 21.42 C-0.98 17.07, 4.39 12.03, 11.03 8.74 C17.67 5.44, 34.08 3.11, 38.52 1.64 C42.96 0.18, 37.69 -0.49, 37.68 -0.05" stroke="none" stroke-width="0" fill="#fff"></path><path d="M63.18 1.64 C72.38 2.45, 83.23 4.39, 89.38 7.59 C95.53 10.79, 99.81 16.58, 100.1 20.87 C100.4 25.15, 96.42 29.74, 91.15 33.31 C85.87 36.87, 77.51 40.37, 68.46 42.26 C59.41 44.14, 46.53 45.62, 36.86 44.62 C27.2 43.61, 16.6 39.64, 10.46 36.23 C4.31 32.81, 0.57 28.57, -0.02 24.13 C-0.6 19.69, 1.64 13.21, 6.94 9.59 C12.24 5.96, 20.61 3.49, 31.8 2.36 C43 1.24, 65.62 2.39, 74.09 2.84 C82.57 3.3, 83.12 4.83, 82.67 5.1 M53.17 0.46 C62.66 0.32, 73.82 2.96, 81.49 5.8 C89.16 8.64, 96.74 13.73, 99.19 17.5 C101.65 21.27, 99.81 24.5, 96.22 28.43 C92.62 32.35, 85.55 38.23, 77.63 41.04 C69.71 43.84, 58.59 45.29, 48.68 45.24 C38.78 45.19, 26.25 43.54, 18.22 40.75 C10.19 37.95, 3.18 32.65, 0.52 28.46 C-2.13 24.26, -1.5 19.52, 2.3 15.57 C6.1 11.61, 15.24 7.18, 23.33 4.73 C31.42 2.28, 46.16 1.8, 50.85 0.88 C55.54 -0.05, 51.55 -0.8, 51.47 -0.83" stroke="#000000" stroke-width="1" fill="none"></path></g><g transform="translate(1297.7673268411934 224.3344351799143) rotate(0 122.69230769230762 14.5)"><text x="0" y="20.999999999999986" font-family="Virgil, Segoe UI Emoji" font-size="22.307692307692296px" fill="#000000" text-anchor="start" style="white-space: pre;" direction="ltr">RabbitMQ messageBus</text></g><g stroke-linecap="round"><g transform="translate(109.93473539019831 51.58212733562678) rotate(89.99999999999994 50.80570368659035 126.03882278626912)" fill-rule="evenodd"><path d="M4.22 -9.58 C4.22 -9.58, 4.22 -9.58, 4.22 -9.58 M4.22 -9.58 C4.22 -9.58, 4.22 -9.58, 4.22 -9.58 M0.28 -0.89 C3.34 -2.51, 8.69 -5.68, 15.54 -15.22 M-0.14 1.4 C4.24 -2.96, 8.85 -7.2, 13.31 -15.07 M-0.29 6.84 C8.91 -0.05, 14.78 -8.23, 25.63 -19.22 M0.2 6.19 C4.73 0.99, 10.96 -5.44, 24.42 -20.83 M2.56 10.89 C10.87 1.81, 17.96 -7.77, 31.07 -21.88 M-0.11 12.74 C7.64 6.14, 12.52 -2.12, 30.9 -22.25 M2.3 20.81 C9.27 8.02, 19.48 -3.11, 36.81 -21.49 M1.45 18.76 C14.47 3.43, 27.87 -11.79, 36.16 -22.01 M1.41 23.88 C15.87 4.85, 35.96 -12.65, 40.79 -22.1 M1.02 25.4 C14.5 8.42, 29.2 -9.59, 42.3 -22.01 M-0.59 29.88 C13.24 17.35, 24.97 5.7, 46.5 -22 M0.5 31.9 C13.08 15.54, 25.88 2.64, 48.87 -23.92 M-1.38 36.58 C11.92 23.84, 23.43 6.64, 51.63 -22.24 M-0.51 36.92 C13.58 22.3, 27.16 6.01, 51.55 -21.84 M-0.46 42.72 C17.73 27.64, 32.92 7.77, 56.46 -20.15 M0.72 43.43 C19.14 21.55, 38.19 -0.59, 56.8 -21.96 M0.05 49.06 C20.22 25.11, 40.94 0.63, 62.68 -18.53 M1.44 49.63 C13.65 34.41, 25.05 20.52, 60.67 -19.87 M1.31 55.85 C28.25 24.17, 52.15 -4.7, 67.14 -20.72 M1.41 54.23 C24.78 28.11, 47.44 0.45, 66.76 -19.74 M-0.28 59.57 C26.53 32.23, 56.33 -0.1, 69.84 -17.8 M0.99 61.18 C25.18 31.75, 49.04 3.73, 70.31 -19.67 M0.81 66.44 C17.12 47.9, 37.16 25.67, 77.85 -16.87 M1.15 66.98 C17.09 48.02, 33.73 29.62, 76.21 -18.06 M2.45 73.44 C20.69 51.35, 40.44 30.31, 81.17 -16.77 M0.83 73.55 C31.48 38.9, 62.68 3.54, 81.07 -17.49 M2.22 81.28 C23.62 55.43, 45.18 28.37, 83.39 -14.87 M0.42 79.17 C23.91 53.52, 48.51 26.15, 83.9 -15.61 M-0.83 83.91 C19.88 63.74, 38.53 45.04, 87.51 -13.02 M1.62 85.76 C25.79 57.03, 48.72 30.82, 88.16 -15.26 M1.87 93.28 C26.59 63.14, 54.4 33.05, 93.3 -14.36 M1.68 91.61 C23.32 65.24, 46.66 39.73, 91.15 -13.32 M2.27 96.82 C36.08 58.27, 68.57 20.52, 94.47 -9.01 M1.28 98.66 C31.84 63.63, 64 26.74, 95.38 -10.61 M-1.1 102.47 C29.84 68.79, 60.08 32.82, 99.28 -6.62 M-0.01 103.43 C31.54 69.49, 61.96 35.2, 97.26 -8.52 M0.24 111.65 C38.27 68.66, 73.46 28.07, 102.46 -4.08 M-0.36 109.89 C33.11 70.46, 66.94 33.26, 101.13 -4.86 M1.88 117.53 C39.06 71.72, 76.34 29.26, 102.46 -2.8 M-0.33 117.56 C37.31 73.72, 74.42 32.44, 102.73 -1.25 M1.75 122 C26.05 90.68, 56.23 62.55, 102.72 2.07 M0.5 122.42 C42.49 74.86, 83.98 27.28, 104.46 3.51 M-0.51 128.72 C28.67 96.82, 53.87 65.31, 104.17 8.6 M0.96 129.75 C21.56 103.41, 43.89 79.93, 104.12 10.3 M2.22 132.58 C33.43 96.55, 65.43 56.7, 103.24 18.61 M0.25 135.52 C35.44 94.72, 67.29 57.44, 102.98 16.06 M0.58 140.48 C40.94 92.12, 80.34 48.06, 101.72 23.65 M0.07 141.05 C37.83 97.75, 75.89 55.13, 103.77 21.67 M-1.44 148.77 C39.07 99.79, 81.87 54.97, 102.08 30.04 M0.57 148.31 C24.52 120.59, 47.23 92.98, 104.16 28.87 M0.77 152.32 C37.91 112.52, 74.35 69.16, 105.29 36.32 M-0.21 152.84 C26.14 122.82, 51.96 96.13, 104.69 33.53 M-0.25 157.51 C33.57 122.6, 67.5 81.77, 102.83 42.04 M1.03 158.66 C35.41 120.61, 70.1 80.6, 102.86 40.39 M1.79 163.68 C36.31 124.75, 70.08 85.94, 102.54 49.22 M0.86 165.56 C39.85 119.94, 78.67 75.46, 103.17 46.35 M-1.06 171.92 C35.87 127.93, 69.97 90.63, 103.86 51.38 M1.2 171.8 C39.51 126.64, 77.84 82.29, 104.48 53.37 M-1.14 178.58 C35.86 137.66, 68.38 97.31, 105.19 58.55 M1.31 177.45 C41.36 131.92, 82.54 85.89, 103.43 59.38 M0.08 184.22 C29.1 148.35, 59.09 117.07, 105.66 66.73 M1.21 183.26 C39.81 137.98, 79.39 93.36, 104.4 65.61 M-0.71 190.69 C29.1 152.1, 60.91 116.44, 105.16 70.68 M1.06 189.57 C23.98 162.68, 49.09 134.73, 103.64 71.24 M1.2 194.52 C41.05 151.55, 77.9 109.09, 102.85 76.64 M1.14 195.63 C30.03 162.81, 58.72 129.18, 103.91 77.99 M2.54 203.78 C24.47 172.73, 51.51 148.05, 105.13 83.08 M-0.01 202.29 C35.33 163.38, 71.26 121.42, 104.58 82.81 M1.85 207.53 C22.06 183.78, 41.5 157.08, 103.52 90.25 M0.36 207.31 C35.18 167.8, 70.64 125.3, 103.6 89.2 M-1.15 212.78 C30.2 180.74, 59.51 146.64, 101.9 97.1 M0.6 214.29 C28.64 182.52, 55.31 152.88, 102.93 96.08 M1.64 221.6 C23.76 193.01, 48.09 167.09, 103.84 102.36 M0.13 219.52 C32.26 184.02, 63.1 148.16, 103.94 102.72 M0.6 224.48 C19.73 201.48, 43.64 179.06, 102.41 105.96 M1.32 225.33 C25.9 197.05, 51 168.84, 103.36 108.06 M0.34 233.2 C25.53 205.11, 49.13 178.9, 104.17 113.87 M-0.31 232.78 C24.98 204.36, 48.3 177.75, 103.4 113.37 M1.61 238.28 C39.17 198.54, 72.42 156, 103.05 119.52 M-0.16 238.97 C28.56 207.29, 55.29 175.2, 103.77 119.6 M0.52 245.95 C41.53 196.64, 83.46 148.36, 103.61 124.84 M0.87 243.94 C27.55 212.45, 57.9 178.2, 103.03 126.27 M-0.16 251.22 C28.01 218.66, 56.73 186.86, 104.32 133.25 M-0.22 251.57 C40.64 204.89, 80.66 160.58, 104.02 132.35 M4.16 253.8 C34.88 212.81, 71.94 176.27, 103.41 139.16 M2.76 255.39 C36.29 215.6, 68.95 176.63, 103.82 137.61 M3.32 260.2 C34.88 225.35, 65.73 188.46, 102.87 144.74 M2.7 260.56 C41.52 215, 79.95 170.78, 103.88 145.28 M6.73 263.35 C27.99 236.58, 52.47 210.24, 102.29 149.38 M5.71 263.35 C42.5 223.64, 76.28 182.27, 104.02 151.39 M6.89 265.24 C47.44 222.02, 85.13 178.41, 102.14 154.72 M8.72 265.66 C38.86 229.42, 70.18 193.54, 103.77 155.66 M9.81 269.07 C37.45 240.38, 59.76 212.86, 103.05 161.65 M12.03 269.08 C33.89 240.94, 57.66 215.51, 103.83 162.4 M13.62 273.03 C36.34 245.25, 59.64 221.81, 103.67 167.79 M14.04 270.47 C33.77 248.49, 55.03 224.97, 104 167.83 M18.5 272.32 C34.08 252.65, 55.51 231.9, 104.65 176.27 M17.32 273.93 C53.12 234.91, 86.52 195.97, 103.37 174.77 M22.59 275.35 C55.66 235.85, 87.91 198.95, 102.5 181.19 M22.66 274.85 C52.35 239.35, 80.49 207.11, 104.2 181.96 M26.63 275.32 C42.34 257.56, 59.2 237.26, 104.84 188.64 M25.77 275.32 C47.86 251.56, 70.23 225.24, 103.39 186.95 M31.08 276.37 C55.26 247.07, 80.7 219.39, 101.73 193.74 M30.61 276.24 C54.88 247.87, 78.4 221.86, 103.87 193 M37.51 276.92 C55.4 257.63, 71.71 235.47, 103.49 198.06 M34.83 276.45 C57.52 251.62, 80.46 225.18, 104.57 198.42 M42.43 279.62 C55.95 261.13, 67.97 245.54, 104.66 206.44 M39.78 278.63 C55 259.33, 69.92 241.98, 104.52 205.23 M43.91 276.61 C62.31 257.4, 82.41 234.28, 101.93 212.44 M45.23 278.37 C58.37 262.25, 72.75 247.35, 102.85 212.5 M50.15 277.02 C67.38 259.98, 84.88 237.96, 105.33 219.37 M50.06 277.59 C65.99 259.34, 83.43 240.42, 104.21 217.24 M57.39 276.97 C68.74 261.31, 83.28 243.15, 101.59 225.3 M56.31 278.4 C66.92 266.5, 76.95 255.7, 104.11 223.3 M61.19 276.59 C74.16 262.32, 90.18 247.2, 103.93 228.52 M62.57 277.98 C72.82 265.84, 82.21 253.87, 102.97 228.7 M67.63 276.49 C80.86 261.23, 95.49 244.87, 104.08 236.32 M67.33 276.95 C81.17 260.73, 95.31 244.6, 104.17 236.27 M73.31 278.02 C81.3 267.33, 93.04 254.37, 102.11 242.49 M73.07 277.5 C81.07 267.59, 90.73 256.98, 104.09 243.05 M78.45 277.52 C87.38 267.94, 90.62 259.79, 105.74 248.29 M79.51 275.49 C87.73 265.84, 98.86 255.42, 103.46 247.14 M88.33 274.07 C88.15 269.66, 91.63 266.84, 99.64 257.76 M87.17 274.12 C90.75 266.8, 96.17 262.22, 100.82 256.85 M13.11 269.95 C13.11 269.95, 13.11 269.95, 13.11 269.95 M13.11 269.95 C13.11 269.95, 13.11 269.95, 13.11 269.95 M21.9 273.09 C19.55 268.85, 14.88 264.74, 5.12 258.68 M24.16 272.6 C17.43 268.88, 12.21 263.39, 5.03 257.69 M-0.11 253.16 C-0.11 253.16, -0.11 253.16, -0.11 253.16 M-0.11 253.16 C-0.11 253.16, -0.11 253.16, -0.11 253.16 M32.25 274.65 C22.1 267.08, 11.29 255.02, -0.56 248.97 M31.69 274.09 C24.93 268.75, 18.26 262.2, 0.69 247.71 M39.36 276.61 C27.18 264.94, 12.82 252.81, 1.11 242.38 M39.18 274.99 C30.83 269.54, 21.57 262.64, -0.3 243.18 M46.21 277.32 C30.13 264.45, 16.93 248.6, 0.6 235.77 M43.83 275.93 C35.09 268, 25.06 258.89, 0.7 237.66 M51.24 277.73 C35.7 261.46, 17.62 246.59, 2.29 233.46 M51 276.48 C33.97 261.82, 18.08 248.45, 1.49 232.4 M54.25 276.3 C39.98 264.05, 24.14 250.98, 1.41 228 M56.11 275.29 C43.71 264.02, 28.94 250.92, 0.58 227.29 M58.93 276.36 C37.79 253.47, 19.86 237.27, -0.39 220.9 M61.39 275.35 C38.33 254.54, 14.22 235.23, 0.93 221.54 M66.36 273.58 C51.61 262.9, 36.45 249.69, 0.91 216.77 M67.4 273.29 C43.24 255.15, 20.79 235.41, -0.09 215.67 M70.75 273.39 C52.74 255.57, 32.92 239.44, -1.04 211.37 M70.95 272.72 C52.9 256.32, 33.38 240.38, 0.83 211.38 M77.18 273.68 C59.99 255.22, 43.2 240.47, 0.29 205.06 M76.99 272.8 C54.82 252.99, 32.59 234.48, 0.2 204.96 M79.87 268.96 C48.69 244.17, 16.83 214.68, -0.42 198.8 M80.95 270.2 C53.1 247.26, 25.19 223.07, 1.19 201.12 M84.19 269.69 C58.23 248.69, 34.53 223.3, -1.14 195.7 M86.89 270.41 C58.09 244.85, 28.09 219.75, 0.92 194.39 M90.35 267.78 C53.11 238.61, 18.17 205.04, -1.17 188.96 M89.33 267.08 C63.85 244.22, 36.6 220.78, -0.08 190.99 M92 263.91 C63.44 238.8, 31.75 210.7, -1.95 183.43 M93.99 265.16 C65.78 240.36, 37.56 215.69, -0.56 184.22 M97.88 263.72 C61.96 234, 28.03 204.06, 0.22 179.53 M97.5 263.05 C67.26 235.99, 37.2 211.42, 0.89 180.31 M98.37 261.16 C70.47 231.71, 42.83 208.68, 1.41 174.84 M100.16 259.75 C74.92 236.96, 50.58 216.9, -0.88 173.8 M101.24 255.92 C65.79 224.13, 27.08 191.07, 1.35 168.04 M101.76 256.23 C73.08 234.96, 45.83 210.76, -0.11 169.44 M102.61 252.35 C102.61 252.35, 102.61 252.35, 102.61 252.35 M102.61 252.35 C102.61 252.35, 102.61 252.35, 102.61 252.35 M102.5 253.68 C74.6 225.86, 42.89 201.37, 1.62 164.88 M101.53 252.12 C64.29 219.88, 26.3 186.64, 0.32 162.81 M101.21 246.5 C65.85 217.08, 25.74 180.72, 1.9 160.14 M103.75 247.74 C62.49 212, 21.48 175.39, 1.31 158.52 M103.46 243.15 C63.92 210.84, 27.17 177.09, -0.39 153.37 M101.75 242.22 C70.68 214.67, 37.83 186.28, 0.55 152.94 M100.94 235.26 C74.28 209.67, 43.07 183.34, 0.38 148.96 M103.7 237.55 C72.11 209.47, 40.35 183.11, -0.22 148.02 M102.45 229.41 C74.07 208.76, 47.97 181.6, -1.04 143.66 M101.71 230.15 C69.68 202.91, 35.22 173.1, -0.15 142.39 M101.95 227.78 C79.58 205.03, 57.34 187.67, -1.5 138.61 M102.05 225.38 C81.93 209.4, 61.07 190.02, 0.1 137.25 M101.76 221.69 C77.16 198.33, 51.99 178.2, 2.53 133.45 M102.48 220.91 C72.26 192.48, 42.49 166.54, 0.51 132.42 M103.86 215.57 C70.19 183.31, 35.09 153.22, -1.54 127.07 M103.62 214.61 C69.49 185.96, 36.15 157.89, -0.72 126.87 M101.09 208.47 C68.86 179.68, 34.43 149.78, 1.08 122.32 M102.34 209.9 C75.99 186.89, 48.92 163.91, 0.51 121.4 M104.43 206.06 C78.82 182.75, 53.37 163.68, 0.56 116.18 M103.13 205.67 C64.57 169.67, 23.03 134.89, 0.28 116.6 M102.23 198.11 C65.33 165.37, 28.53 134.38, 1.71 111.74 M101.49 199.59 C67.64 168.86, 30.91 136.89, 0.05 110.75 M103.51 194.52 C73.02 166.5, 42.6 140.82, -0.77 103.68 M103.27 194.05 C78.69 173.56, 55.99 152.24, 0 105.21 M101.13 186.82 C63.51 152.52, 24.38 121.3, 0.93 98.35 M102.07 189.5 C62.14 153.21, 20.69 119.1, 0.46 100.28 M103.11 184.14 C72.18 157.53, 39.26 128.35, -0.98 95.17 M102.64 184.32 C62.22 149.85, 23.67 117.33, -0.75 94.55 M103.83 178.71 C80.78 160.29, 61.49 144.11, 1.35 90.69 M102.17 178.22 C67.1 149.42, 34.38 119.38, 1.07 88.84 M103.34 173.93 C78.77 151.51, 55.02 133.37, -1.37 84.1 M101.79 172.1 C74 146.36, 45.43 120.7, 0.83 83.52 M102.53 165.76 C76.99 145.07, 53.35 125.03, -0.28 77.19 M101.81 167.42 C81.55 149.62, 58.65 129.84, 1.09 78.39 M102.45 162.81 C80.1 142.53, 58.51 124.11, -1.15 71.85 M103.21 162.07 C72.29 134.35, 43.05 109.53, -0.58 74.08 M103.52 155.81 C68.68 130.73, 39.94 103.49, -1.1 70.11 M102.94 155.79 C61.76 121, 22.24 88.51, -0.28 67.91 M100.8 153.58 C76.06 128.94, 52.11 107.47, -1.38 63.62 M103.33 151.99 C75.57 129.17, 47.21 105.1, -0.33 63.26 M103.99 145.23 C82.83 128.07, 56.13 106.2, -0.1 57.64 M102.21 145.79 C70.66 118.5, 39.34 90.15, 0.06 57.46 M100.89 140.88 C75.91 119.4, 48.22 93.23, -1.01 52.53 M102.51 140.65 C64.9 108.87, 27.7 76.09, 0.16 51.15 M100.99 136.33 C63.45 101.45, 25.71 69.23, 1.82 47.8 M103.94 136.93 C66.16 103.51, 29.5 72.23, 1.16 46.17 M103.35 131.27 C79.19 110.96, 58.12 92.09, -0.85 39.54 M103.05 129.93 C76.22 109.9, 51.92 87.62, -0.58 40.92 M103.95 125.23 C67.08 94.38, 31 63.04, 1.92 36.5 M102.66 125.78 C63.63 90.73, 23.39 56.78, 0 36.23 M102.9 119.14 C76.23 99.41, 52.23 76.41, 1.16 30.16 M103.18 120.78 C72.97 93.76, 42.47 69.05, 0.65 31.42 M103.69 115.28 C70.45 86.56, 33.81 57.56, -0.44 27.53 M102.06 115.3 C63.09 81, 21.71 44.68, -0.48 24.87 M104.43 110.8 C75.2 84.22, 47.43 60.1, -1.06 19.81 M103.09 109.17 C62.89 73.81, 24.35 39.12, 0.74 20.62 M101.13 105.7 C72.17 78.1, 38.98 49.46, 0.24 16.56 M103.8 103.52 C76.39 81.7, 50.59 57.78, 0.57 14.41 M102.93 100.39 C78.54 79.69, 55.96 56.91, -1.2 9.74 M102.87 98.18 C69.75 70.22, 36.59 42.11, 0.77 9.53 M103.34 91.6 C77.12 69.33, 50.29 48.25, -0.43 3.13 M103.46 93.53 C66.96 61.28, 29.84 29.77, -0.04 4.22 M103.51 85.96 C77.97 66.59, 51.44 45.75, 0.42 0.41 M102.59 87.92 C63.53 54.17, 24.68 20.3, 1.02 -0.46 M103.48 83.95 C69.62 51.93, 31.83 22.16, 1.57 -3.4 M102.55 83.49 C62.99 48.86, 24.05 15.72, 2.69 -5.3 M101.42 77.42 C81.55 58.51, 57.67 41.33, 5.38 -8.52 M102.23 77.59 C67.42 45.97, 31.01 16.04, 3.45 -7.6 M100.88 73.59 C71.71 46.52, 37.97 15.61, 5.34 -12.38 M102.53 72.61 C67.2 41.2, 31.65 9.85, 6.67 -11.3 M102.03 68.56 C76.63 42.91, 53.19 22.35, 11.35 -14.82 M101.71 67.42 C66.41 35.26, 30.51 4.1, 9.95 -14.32 M100.95 63.26 C69.55 33.97, 36.48 3.59, 15.16 -14.69 M102.79 61.17 C67.99 31.28, 31.63 0.73, 12.78 -15.26 M100.83 57.03 C78.21 31.6, 49.29 10.22, 17.15 -17.72 M102.9 56.72 C80.74 38.21, 59.81 18.48, 17.36 -17.39 M103.26 51.56 C71.44 22.97, 39.9 -6.85, 19.35 -18.57 M102.67 50.5 C77.83 29.95, 55.62 8.09, 21.8 -18.83 M103.44 44.38 C86.18 31.72, 67.33 15.21, 25.43 -22.57 M101.6 45.88 C81.27 25.75, 60.27 8.12, 26.19 -22.46 M101.49 40.94 C77.62 15.28, 49.5 -6.96, 29.68 -23.79 M103.43 41.02 C75.94 17.51, 48.98 -6.46, 29.73 -22.03 M101.62 36.02 C83.97 17.41, 62.05 0.4, 35.28 -24.85 M101.54 34.32 C82.82 17.45, 62.42 -0.18, 35.14 -24.16 M103.45 29.78 C88.21 18.36, 71.33 3.09, 40.26 -25.54 M102.29 30.19 C85.04 13.22, 66.76 -1.35, 38.73 -25.06 M101.21 25.24 C80.04 4.55, 58.84 -16.18, 44.84 -26.81 M102.4 24.53 C88.81 12.75, 76.14 0.79, 43.84 -26.68 M103.06 20.29 C88.97 6.9, 71.36 -8.6, 50.09 -25.22 M102.37 18.54 C85.94 4.8, 68.38 -9.67, 49.68 -25.2 M102.98 13.84 C91.15 4.81, 82.89 -2.18, 58.73 -23.6 M102.54 14.75 C89.51 1.02, 74.97 -11.06, 58.17 -23.92 M104.38 6.57 C90.14 -2.33, 82.13 -10.68, 67.06 -24.94 M102.77 7.65 C87.98 -2.84, 75.09 -14.43, 66.13 -23.21 M103.54 1.57 C94.4 -4.18, 87.11 -10.12, 74.59 -22.37 M102.01 4.27 C94.51 -4.75, 85.84 -11.55, 74.88 -20.62 M102.54 -2.11 C102.54 -2.11, 102.54 -2.11, 102.54 -2.11 M102.54 -2.11 C102.54 -2.11, 102.54 -2.11, 102.54 -2.11 M103.52 -1.03 C96.29 -8.22, 91.56 -14.54, 85.07 -19.32 M102.69 -1.58 C97.91 -6.72, 92.08 -10.82, 83.49 -19.34" stroke="#fab005" stroke-width="0.5" fill="none"></path><path d="M1.2 0.87 C1.12 38.83, -0.13 185.09, -0.51 226.98 C-0.9 268.87, -2.14 245.85, -1.12 252.2 C-0.1 258.56, 1.72 261.5, 5.62 265.13 C9.52 268.75, 14.34 272.01, 22.28 273.95 C30.22 275.9, 43.23 276.89, 53.27 276.78 C63.3 276.66, 75.01 275.94, 82.49 273.25 C89.98 270.56, 94.95 264.41, 98.16 260.64 C101.37 256.86, 101.15 255.56, 101.76 250.59 C102.37 245.61, 101.73 269.21, 101.82 230.8 C101.91 192.38, 102.63 58.86, 102.31 20.11 C101.98 -18.64, 101.32 3.81, 99.86 -1.72 C98.39 -7.25, 96.68 -10.14, 93.5 -13.08 C90.32 -16.02, 88.18 -17.54, 80.78 -19.36 C73.39 -21.18, 58.57 -23.87, 49.13 -24 C39.69 -24.14, 31.72 -22.37, 24.14 -20.17 C16.56 -17.96, 7.58 -13.95, 3.66 -10.79 C-0.25 -7.63, 1.34 -3.08, 0.66 -1.19 C-0.01 0.69, -0.4 0.39, -0.38 0.52 M0.37 0.27 C0.68 38.49, 1.62 186.21, 1.75 228.33 C1.89 270.45, 0.46 247.22, 1.18 252.99 C1.9 258.76, 2.28 259.39, 6.06 262.95 C9.84 266.52, 15.83 272.27, 23.85 274.39 C31.87 276.52, 44.4 276.04, 54.18 275.72 C63.96 275.41, 74.87 275.1, 82.55 272.51 C90.22 269.92, 97.28 263.53, 100.23 260.18 C103.18 256.84, 99.86 257.4, 100.26 252.46 C100.65 247.51, 102.16 269.56, 102.62 230.48 C103.09 191.4, 103.23 56.82, 103.04 17.98 C102.86 -20.87, 103.16 2.22, 101.52 -2.57 C99.89 -7.36, 96.81 -7.87, 93.24 -10.77 C89.68 -13.67, 87.45 -17.68, 80.14 -19.98 C72.83 -22.28, 58.53 -24.19, 49.37 -24.57 C40.21 -24.95, 32.46 -24.6, 25.18 -22.28 C17.9 -19.95, 9.94 -14.08, 5.71 -10.6 C1.47 -7.11, 0.42 -3.32, -0.25 -1.38 C-0.92 0.56, 1.37 0.62, 1.69 1.05" stroke="#000000" stroke-width="1" fill="none"></path></g></g><g stroke-linecap="round"><g transform="translate(61.67386644052033 167.43825944719902) rotate(89.99999999999994 49.13412057989443 10.984382062178753)"><path d="M0.87 -0.85 C1.38 0.4, 0.26 5.49, 2.25 8.72 C4.24 11.94, 8.27 16.28, 12.81 18.49 C17.34 20.69, 22.9 21.26, 29.47 21.95 C36.03 22.64, 43.89 23.07, 52.21 22.62 C60.52 22.17, 71.98 21.75, 79.36 19.26 C86.74 16.78, 93.29 11.06, 96.48 7.72 C99.66 4.37, 98.24 0.65, 98.48 -0.82 M-0.14 1.32 C0.26 3.18, -1.44 7.16, 1.11 9.66 C3.66 12.16, 10.34 14.21, 15.17 16.34 C20 18.47, 24.16 21.41, 30.1 22.44 C36.03 23.46, 42.34 22.7, 50.79 22.51 C59.23 22.32, 73.55 23.47, 80.76 21.29 C87.97 19.12, 91.3 13.18, 94.07 9.46 C96.83 5.75, 96.44 0.99, 97.35 -0.99" stroke="#000000" stroke-width="1" fill="none"></path></g></g><g stroke-linecap="round"><g transform="translate(151.16337931967985 166.27535853629183) rotate(89.99999999999994 48.94055673336834 8.877421299941744)"><path d="M-0.85 -0.35 C-0.81 0.65, -1.04 4.29, 1.46 6.89 C3.96 9.49, 9.81 13.29, 14.15 15.25 C18.49 17.21, 21.34 18.02, 27.48 18.63 C33.63 19.23, 42.58 19.06, 51.01 18.87 C59.44 18.68, 70.88 19.5, 78.04 17.5 C85.2 15.49, 90.52 10.04, 93.97 6.84 C97.42 3.64, 97.98 -0.44, 98.73 -1.69 M0.91 -1.58 C1.2 -0.54, 1.46 5.42, 3.58 7.9 C5.69 10.38, 9.66 11.31, 13.58 13.29 C17.5 15.27, 20.59 18.79, 27.11 19.78 C33.63 20.77, 44.07 19.7, 52.7 19.25 C61.32 18.79, 71.97 19.37, 78.86 17.06 C85.75 14.75, 90.88 8.63, 94.04 5.38 C97.21 2.13, 97.4 -1.22, 97.87 -2.43" stroke="#000000" stroke-width="1" fill="none"></path></g></g><g stroke-linecap="round" transform="translate(242.30667393109877 156.23102733472814) rotate(89.99999999999994 49.89293035878424 22.18132326563932)"><path d="M45.12 1.04 C54.48 0.51, 67.08 1.9, 75.43 3.9 C83.78 5.9, 91.36 9.17, 95.21 13.03 C99.06 16.89, 100.68 22.63, 98.53 27.05 C96.37 31.47, 89.56 36.57, 82.27 39.55 C74.98 42.52, 64.21 44.5, 54.77 44.9 C45.33 45.3, 34.13 44.32, 25.62 41.93 C17.12 39.53, 7.83 34.66, 3.72 30.54 C-0.39 26.41, -1.32 21.4, 0.96 17.19 C3.23 12.98, 9.29 7.99, 17.38 5.27 C25.47 2.55, 43.3 1.59, 49.49 0.88 C55.68 0.17, 54.47 0.66, 54.51 1.02 M62.12 0.3 C71.29 0.7, 80.47 3.1, 86.76 6.48 C93.05 9.86, 98.98 15.93, 99.86 20.58 C100.73 25.24, 97.35 30.74, 92.01 34.41 C86.67 38.08, 76.72 40.88, 67.84 42.63 C58.95 44.37, 47.82 46.1, 38.71 44.86 C29.59 43.63, 19.41 38.76, 13.14 35.21 C6.88 31.66, 2.13 27.64, 1.12 23.57 C0.11 19.49, 2.1 14.36, 7.09 10.74 C12.07 7.11, 22.15 3.37, 31.03 1.81 C39.91 0.25, 55.26 1.73, 60.39 1.38 C65.52 1.02, 61.76 -0.72, 61.81 -0.33" stroke="none" stroke-width="0" fill="#fff"></path><path d="M28.58 2.01 C36.6 -0.06, 49.85 -0.59, 59.43 0.46 C69 1.5, 79.47 5.08, 86 8.29 C92.53 11.49, 97.38 15.61, 98.61 19.66 C99.84 23.72, 98.11 28.77, 93.39 32.61 C88.67 36.44, 79.15 40.64, 70.29 42.66 C61.43 44.68, 49.96 45.8, 40.23 44.75 C30.5 43.7, 18.71 39.87, 11.93 36.36 C5.14 32.85, 0.37 28.01, -0.49 23.68 C-1.35 19.36, 1.5 14.11, 6.76 10.43 C12.02 6.75, 26.66 2.96, 31.07 1.6 C35.48 0.23, 32.98 2.02, 33.22 2.22 M65.21 1.93 C74.42 2.78, 83.54 4.63, 89.26 7.9 C94.98 11.17, 99.18 17, 99.55 21.54 C99.92 26.07, 97.21 31.32, 91.47 35.1 C85.72 38.89, 74.38 42.75, 65.06 44.26 C55.74 45.78, 44.47 45.41, 35.53 44.19 C26.59 42.97, 17.52 40.53, 11.43 36.97 C5.34 33.4, -0.81 27.61, -1 22.78 C-1.19 17.96, 4.37 11.73, 10.29 8 C16.2 4.27, 25.69 1.48, 34.5 0.41 C43.32 -0.67, 58.09 1.41, 63.17 1.54 C68.24 1.68, 64.99 1.1, 64.97 1.2" stroke="#000000" stroke-width="1" fill="none"></path></g><g transform="translate(39.767326841193494 235.334435179914) rotate(0 122.69230769230765 14.5)"><text x="0" y="20.999999999999986" font-family="Virgil, Segoe UI Emoji" font-size="22.307692307692296px" fill="#000000" text-anchor="start" style="white-space: pre;" direction="ltr">RabbitMQ messageBus</text></g><g stroke-linecap="round"><g transform="translate(1192.0614004840227 189.83836401885264) rotate(0 38.30021265447124 -6.691568463152009)"><path d="M-0.78 0.44 C12.15 -1.52, 64.37 -9.84, 77.38 -12.28 M1.01 -0.37 C13.76 -2.6, 63.63 -11.68, 76.15 -13.83" stroke="#000000" stroke-width="1" fill="none"></path></g><g transform="translate(1192.0614004840227 189.83836401885264) rotate(0 38.30021265447124 -6.691568463152009)"><path d="M50.92 0.3 C59.39 -3.96, 63.56 -6.67, 76.58 -15.81 M50.83 1.57 C60.29 -4.67, 68.12 -10.61, 77.02 -12.92" stroke="#000000" stroke-width="1" fill="none"></path></g><g transform="translate(1192.0614004840227 189.83836401885264) rotate(0 38.30021265447124 -6.691568463152009)"><path d="M47.33 -19.9 C56.73 -18.45, 61.91 -15.47, 76.58 -15.81 M47.24 -18.64 C58.2 -17.48, 67.35 -16, 77.02 -12.92" stroke="#000000" stroke-width="1" fill="none"></path></g></g><g stroke-linecap="round"><g transform="translate(1020.0614004840227 278.36690079677606) rotate(0 33.67525998872702 -37.75926003119443)"><path d="M0.95 1.13 C11.72 -11.5, 54.08 -62.07, 65.11 -74.69 M-0.01 0.68 C11.1 -11.81, 56.19 -63.76, 67.36 -76.65" stroke="#000000" stroke-width="1" fill="none"></path></g></g><g stroke-linecap="round"><g transform="translate(317.3428376904992 178.13673826638535) rotate(0 61.24126892240554 10.474999498341532)"><path d="M0.65 -0.61 C20.83 3.09, 100.67 17.82, 120.84 21.56 M-0.47 1.68 C20.08 5.1, 102.75 16.78, 122.95 19.84" stroke="#000000" stroke-width="1" fill="none"></path></g><g transform="translate(317.3428376904992 178.13673826638535) rotate(0 61.24126892240554 10.474999498341532)"><path d="M92.55 24.02 C103.16 23.55, 111.9 23.09, 121.47 20.02 M92.92 26.23 C101.52 24.47, 110.66 22.67, 122.72 19.19" stroke="#000000" stroke-width="1" fill="none"></path></g><g transform="translate(317.3428376904992 178.13673826638535) rotate(0 61.24126892240554 10.474999498341532)"><path d="M95.52 3.71 C105.19 8.98, 113.09 14.23, 121.47 20.02 M95.89 5.92 C103.56 9.97, 111.85 13.98, 122.72 19.19" stroke="#000000" stroke-width="1" fill="none"></path></g></g></svg>